<svg width="61" height="80" viewBox="0 0 61 80" fill="none" xmlns="http://www.w3.org/2000/svg">
<g clip-path="url(#clip0_2269_1869)">
<rect width="60" height="60" fill="url(#paint0_linear_2269_1869)"/>
<path fill-rule="evenodd" clip-rule="evenodd" d="M15.3336 15C15.3336 17.2091 13.5428 19 11.3336 19C9.12448 19 7.33362 17.2091 7.33362 15C7.33362 12.7909 9.12448 11 11.3336 11C13.5428 11 15.3336 12.7909 15.3336 15ZM16.3336 15C16.3336 17.7614 14.095 20 11.3336 20C8.57219 20 6.33362 17.7614 6.33362 15C6.33362 12.2386 8.57219 10 11.3336 10C14.095 10 16.3336 12.2386 16.3336 15ZM11.3336 18C12.9904 18 14.3336 16.6569 14.3336 15C14.3336 13.3432 12.9904 12 11.3336 12C9.67672 12 8.33357 13.3432 8.33357 15C8.33357 16.6569 9.67672 18 11.3336 18Z" fill="url(#paint1_linear_2269_1869)"/>
<path fill-rule="evenodd" clip-rule="evenodd" d="M15.3336 30C15.3336 32.2091 13.5428 34 11.3336 34C9.12448 34 7.33362 32.2091 7.33362 30C7.33362 27.7909 9.12448 26 11.3336 26C13.5428 26 15.3336 27.7909 15.3336 30ZM16.3336 30C16.3336 32.7614 14.095 35 11.3336 35C8.57219 35 6.33362 32.7614 6.33362 30C6.33362 27.2386 8.57219 25 11.3336 25C14.095 25 16.3336 27.2386 16.3336 30ZM11.3336 33C12.9904 33 14.3336 31.6568 14.3336 30C14.3336 28.3431 12.9904 27 11.3336 27C9.67672 27 8.33357 28.3431 8.33357 30C8.33357 31.6568 9.67672 33 11.3336 33Z" fill="url(#paint2_linear_2269_1869)"/>
<path fill-rule="evenodd" clip-rule="evenodd" d="M15.3336 45C15.3336 47.2091 13.5428 49 11.3336 49C9.12448 49 7.33362 47.2091 7.33362 45C7.33362 42.7909 9.12448 41 11.3336 41C13.5428 41 15.3336 42.7909 15.3336 45ZM16.3336 45C16.3336 47.7614 14.095 50 11.3336 50C8.57219 50 6.33362 47.7614 6.33362 45C6.33362 42.2386 8.57219 40 11.3336 40C14.095 40 16.3336 42.2386 16.3336 45ZM11.3336 48C12.9904 48 14.3336 46.6569 14.3336 45C14.3336 43.3432 12.9904 42 11.3336 42C9.67672 42 8.33357 43.3432 8.33357 45C8.33357 46.6569 9.67672 48 11.3336 48Z" fill="url(#paint3_linear_2269_1869)"/>
<path fill-rule="evenodd" clip-rule="evenodd" d="M22.5001 14.3333C22.224 14.3333 22.0001 14.5571 22.0001 14.8333C22.0001 15.1094 22.224 15.3333 22.5001 15.3333H52.5001C52.7763 15.3333 53.0001 15.1094 53.0001 14.8333C53.0001 14.5571 52.7763 14.3333 52.5001 14.3333H22.5001ZM22.0002 29.8332C22.0002 29.557 22.2241 29.3332 22.5002 29.3332H52.5002C52.7764 29.3332 53.0002 29.557 53.0002 29.8332C53.0002 30.1093 52.7764 30.3332 52.5002 30.3332H22.5002C22.2241 30.3332 22.0002 30.1093 22.0002 29.8332ZM22.0002 44.8332C22.0002 44.5571 22.2241 44.3332 22.5002 44.3332H52.5002C52.7764 44.3332 53.0002 44.5571 53.0002 44.8332C53.0002 45.1094 52.7764 45.3332 52.5002 45.3332H22.5002C22.2241 45.3332 22.0002 45.1094 22.0002 44.8332Z" fill="#C6C5C9"/>
</g>
<path d="M0.298828 77V68.5449H3.63281C5.36719 68.5449 6.44531 69.5527 6.44531 71.123V71.1348C6.44531 72.2715 5.83594 73.1973 4.80469 73.543L6.70312 77H5.18555L3.46289 73.748H1.61133V77H0.298828ZM1.61133 72.6816H3.50391C4.51172 72.6816 5.09766 72.1309 5.09766 71.1699V71.1582C5.09766 70.2207 4.47656 69.6465 3.46289 69.6465H1.61133V72.6816ZM10.6523 77.123C8.78906 77.123 7.66406 75.8516 7.66406 73.8359V73.8301C7.66406 71.8438 8.8125 70.5137 10.5879 70.5137C12.3633 70.5137 13.4531 71.7969 13.4531 73.707V74.1523H8.94141C8.96484 75.3711 9.63281 76.0801 10.6816 76.0801C11.4961 76.0801 11.9824 75.6758 12.1348 75.3477L12.1582 75.3008L13.3828 75.2949L13.3711 75.3477C13.1602 76.1855 12.2812 77.123 10.6523 77.123ZM10.5938 71.5566C9.72656 71.5566 9.07031 72.1484 8.95898 73.2441H12.1934C12.0938 72.1074 11.4551 71.5566 10.5938 71.5566ZM14.9648 77V70.6367H16.2363V71.6152H16.3301C16.6113 70.918 17.2324 70.5137 18.0645 70.5137C18.9316 70.5137 19.5469 70.9648 19.8281 71.6504H19.9277C20.25 70.9648 20.9824 70.5137 21.8672 70.5137C23.1504 70.5137 23.9004 71.2871 23.9004 72.6113V77H22.6348V72.916C22.6348 72.0371 22.2363 71.6035 21.4043 71.6035C20.5957 71.6035 20.0625 72.207 20.0625 72.9746V77H18.7969V72.7871C18.7969 72.0605 18.3223 71.6035 17.5723 71.6035C16.8047 71.6035 16.2363 72.2598 16.2363 73.0918V77H14.9648ZM26.3379 69.5C25.8984 69.5 25.541 69.1426 25.541 68.709C25.541 68.2695 25.8984 67.9121 26.3379 67.9121C26.7715 67.9121 27.1348 68.2695 27.1348 68.709C27.1348 69.1426 26.7715 69.5 26.3379 69.5ZM25.6992 77V70.6367H26.9648V77H25.6992ZM28.8164 77V70.6367H30.0879V71.6035H30.1816C30.4922 70.9238 31.1016 70.5137 32.0273 70.5137C33.4512 70.5137 34.2363 71.3633 34.2363 72.8809V77H32.9707V73.1797C32.9707 72.125 32.5312 71.6035 31.5996 71.6035C30.668 71.6035 30.0879 72.2422 30.0879 73.2676V77H28.8164ZM38.332 77.1055C36.7324 77.1055 35.6953 75.8223 35.6953 73.8242V73.8125C35.6953 71.7969 36.7148 70.5254 38.332 70.5254C39.2051 70.5254 39.9492 70.959 40.2891 71.6445H40.3887V68.1406H41.6543V77H40.3887V75.998H40.2891C39.9199 76.6953 39.2227 77.1055 38.332 77.1055ZM38.6953 76.0215C39.7559 76.0215 40.4062 75.1836 40.4062 73.8242V73.8125C40.4062 72.4531 39.75 71.6152 38.6953 71.6152C37.6289 71.6152 36.9902 72.4473 36.9902 73.8125V73.8242C36.9902 75.1895 37.6289 76.0215 38.6953 76.0215ZM46.2188 77.123C44.3555 77.123 43.2305 75.8516 43.2305 73.8359V73.8301C43.2305 71.8438 44.3789 70.5137 46.1543 70.5137C47.9297 70.5137 49.0195 71.7969 49.0195 73.707V74.1523H44.5078C44.5312 75.3711 45.1992 76.0801 46.248 76.0801C47.0625 76.0801 47.5488 75.6758 47.7012 75.3477L47.7246 75.3008L48.9492 75.2949L48.9375 75.3477C48.7266 76.1855 47.8477 77.123 46.2188 77.123ZM46.1602 71.5566C45.293 71.5566 44.6367 72.1484 44.5254 73.2441H47.7598C47.6602 72.1074 47.0215 71.5566 46.1602 71.5566ZM50.5312 77V70.6367H51.8027V71.5977H51.8965C52.125 70.9238 52.7168 70.5254 53.5664 70.5254C53.7715 70.5254 53.9941 70.5547 54.123 70.584V71.7559C53.8945 71.709 53.6777 71.6797 53.4375 71.6797C52.4648 71.6797 51.8027 72.2773 51.8027 73.1973V77H50.5312ZM57.5215 77.123C55.9863 77.123 55.0137 76.4023 54.8906 75.3359V75.3301H56.1621L56.168 75.3359C56.3262 75.8164 56.7891 76.1387 57.5449 76.1387C58.3301 76.1387 58.875 75.7812 58.875 75.2598V75.248C58.875 74.8496 58.5762 74.5801 57.8379 74.4102L56.8242 74.1758C55.623 73.9004 55.0664 73.3555 55.0664 72.4238V72.418C55.0664 71.3105 56.0977 70.5137 57.5391 70.5137C58.9922 70.5137 59.9238 71.2402 60.0352 72.2773V72.2832H58.8223V72.2715C58.6992 71.8262 58.248 71.4922 57.5332 71.4922C56.8359 71.4922 56.332 71.8379 56.332 72.3477V72.3594C56.332 72.7578 56.625 73.0039 57.3398 73.1738L58.3477 73.4023C59.5723 73.6895 60.1582 74.2109 60.1582 75.1309V75.1426C60.1582 76.3203 59.0332 77.123 57.5215 77.123Z" fill="black"/>
<defs>
<linearGradient id="paint0_linear_2269_1869" x1="30" y1="0" x2="30" y2="60" gradientUnits="userSpaceOnUse">
<stop stop-color="#313131"/>
<stop offset="1" stop-color="#141514"/>
</linearGradient>
<linearGradient id="paint1_linear_2269_1869" x1="11.3336" y1="10" x2="11.3336" y2="20" gradientUnits="userSpaceOnUse">
<stop stop-color="#077CFF"/>
<stop offset="1" stop-color="#047BFE"/>
</linearGradient>
<linearGradient id="paint2_linear_2269_1869" x1="11.3336" y1="25" x2="11.3336" y2="35" gradientUnits="userSpaceOnUse">
<stop stop-color="#FD4235"/>
<stop offset="1" stop-color="#FF3F33"/>
</linearGradient>
<linearGradient id="paint3_linear_2269_1869" x1="11.3336" y1="40" x2="11.3336" y2="50" gradientUnits="userSpaceOnUse">
<stop stop-color="#FF9700"/>
<stop offset="1" stop-color="#FE9404"/>
</linearGradient>
<clipPath id="clip0_2269_1869">
<rect width="60" height="60" rx="13.28" fill="white"/>
</clipPath>
</defs>
</svg>
