<svg width="60" height="80" viewBox="0 0 60 80" fill="none" xmlns="http://www.w3.org/2000/svg">
<rect width="60" height="60" rx="14" fill="#009C31"/>
<path opacity="0.56" fill-rule="evenodd" clip-rule="evenodd" d="M39.4583 22H18.625C16.737 22 15.4698 22.0019 14.4936 22.0808C13.5461 22.1575 13.0925 22.2943 12.7933 22.4449C11.9948 22.8468 11.3468 23.4948 10.9449 24.2933C10.7943 24.5925 10.6575 25.0461 10.5808 25.9936C10.5019 26.9698 10.5 28.237 10.5 30.125C10.5 32.013 10.5019 33.2802 10.5808 34.2564C10.6575 35.2039 10.7943 35.6575 10.9449 35.9567C11.3468 36.7552 11.9948 37.4032 12.7933 37.8051C13.0925 37.9557 13.5461 38.0925 14.4936 38.1692C15.4698 38.2481 16.737 38.25 18.625 38.25H39.4583C41.3463 38.25 42.6135 38.2481 43.5898 38.1692C44.5373 38.0925 44.9909 37.9557 45.2901 37.8051C46.0885 37.4032 46.7365 36.7552 47.1384 35.9567C47.289 35.6575 47.4259 35.2039 47.5025 34.2564C47.5814 33.2802 47.5833 32.013 47.5833 30.125C47.5833 28.237 47.5814 26.9698 47.5025 25.9936C47.4259 25.0461 47.289 24.5925 47.1384 24.2933C46.7365 23.4948 46.0885 22.8468 45.2901 22.4449C44.9909 22.2943 44.5373 22.1575 43.5898 22.0808C42.6135 22.0019 41.3463 22 39.4583 22ZM8.71184 23.1693C8 24.5834 8 26.4306 8 30.125C8 33.8194 8 35.6666 8.71184 37.0807C9.35489 38.3583 10.3917 39.3951 11.6693 40.0382C13.0834 40.75 14.9306 40.75 18.625 40.75H39.4583C43.1527 40.75 44.9999 40.75 46.4141 40.0382C47.6916 39.3951 48.7284 38.3583 49.3715 37.0807C50.0833 35.6666 50.0833 33.8194 50.0833 30.125C50.0833 26.4306 50.0833 24.5834 49.3715 23.1693C48.7284 21.8917 47.6916 20.8549 46.4141 20.2118C44.9999 19.5 43.1527 19.5 39.4583 19.5H18.625C14.9306 19.5 13.0834 19.5 11.6693 20.2118C10.3917 20.8549 9.35489 21.8917 8.71184 23.1693Z" fill="white"/>
<path d="M13 28.0835C13 26.6834 13 25.9833 13.2725 25.4485C13.5122 24.9781 13.8946 24.5957 14.365 24.356C14.8998 24.0835 15.5999 24.0835 17 24.0835H41.0833C42.4835 24.0835 43.1835 24.0835 43.7183 24.356C44.1887 24.5957 44.5712 24.9781 44.8108 25.4485C45.0833 25.9833 45.0833 26.6834 45.0833 28.0835V32.1668C45.0833 33.567 45.0833 34.267 44.8108 34.8018C44.5712 35.2722 44.1887 35.6547 43.7183 35.8943C43.1835 36.1668 42.4835 36.1668 41.0833 36.1668H17C15.5999 36.1668 14.8998 36.1668 14.365 35.8943C13.8946 35.6547 13.5122 35.2722 13.2725 34.8018C13 34.267 13 33.567 13 32.1668V28.0835Z" fill="white"/>
<g opacity="0.56">
<path d="M51.333 26.7917C51.333 26.5615 51.5196 26.375 51.7497 26.375H52.583C52.8131 26.375 52.9997 26.5615 52.9997 26.7917V33.875C52.9997 34.1051 52.8131 34.2917 52.583 34.2917H51.7497C51.5196 34.2917 51.333 34.1051 51.333 33.875V26.7917Z" fill="white"/>
<path d="M52.7913 27.4167L53.6469 27.7375C54.1348 27.9205 54.458 28.3869 54.458 28.9079V31.7587C54.458 32.2798 54.1348 32.7462 53.6469 32.9292L52.7913 33.25V27.4167Z" fill="white"/>
</g>
<path d="M9.78516 77V68.5449H13.1836C14.7715 68.5449 15.7266 69.3535 15.7266 70.6484V70.6602C15.7266 71.5391 15.0762 72.3301 14.2441 72.4707V72.5703C15.3867 72.6934 16.1484 73.502 16.1484 74.6035V74.6152C16.1484 76.0977 15.0645 77 13.2598 77H9.78516ZM12.8789 69.6172H11.0977V72.1426H12.6562C13.8164 72.1426 14.4199 71.709 14.4199 70.8887V70.877C14.4199 70.0801 13.8516 69.6172 12.8789 69.6172ZM12.9199 73.1445H11.0977V75.9277H12.9961C14.1797 75.9277 14.8066 75.4414 14.8066 74.5332V74.5215C14.8066 73.6133 14.1562 73.1445 12.9199 73.1445ZM19.4355 77.1055C18.2227 77.1055 17.3262 76.3672 17.3262 75.2129V75.2012C17.3262 74.0645 18.1816 73.4023 19.6992 73.3086L21.4219 73.209V72.6465C21.4219 71.9492 20.9824 71.5625 20.1211 71.5625C19.418 71.5625 18.9551 71.8203 18.8027 72.2715L18.7969 72.2949H17.5723L17.5781 72.2539C17.7305 71.2109 18.7324 70.5137 20.1797 70.5137C21.7793 70.5137 22.6816 71.3105 22.6816 72.6465V77H21.4219V76.0977H21.3223C20.9473 76.7422 20.2793 77.1055 19.4355 77.1055ZM18.5918 75.1602C18.5918 75.7461 19.0898 76.0918 19.7754 76.0918C20.7246 76.0918 21.4219 75.4707 21.4219 74.6504V74.1055L19.8691 74.2051C18.9902 74.2578 18.5918 74.5742 18.5918 75.1484V75.1602ZM26.877 77.041C25.4766 77.041 24.9023 76.5488 24.9023 75.3242V71.6387H23.9062V70.6367H24.9023V69.0312H26.1973V70.6367H27.5625V71.6387H26.1973V75.0195C26.1973 75.7051 26.4551 75.9863 27.082 75.9863C27.2754 75.9863 27.3867 75.9805 27.5625 75.9629V76.9766C27.3574 77.0117 27.123 77.041 26.877 77.041ZM31.4707 77.041C30.0703 77.041 29.4961 76.5488 29.4961 75.3242V71.6387H28.5V70.6367H29.4961V69.0312H30.791V70.6367H32.1562V71.6387H30.791V75.0195C30.791 75.7051 31.0488 75.9863 31.6758 75.9863C31.8691 75.9863 31.9805 75.9805 32.1562 75.9629V76.9766C31.9512 77.0117 31.7168 77.041 31.4707 77.041ZM36.2402 77.123C34.377 77.123 33.252 75.8516 33.252 73.8359V73.8301C33.252 71.8438 34.4004 70.5137 36.1758 70.5137C37.9512 70.5137 39.041 71.7969 39.041 73.707V74.1523H34.5293C34.5527 75.3711 35.2207 76.0801 36.2695 76.0801C37.084 76.0801 37.5703 75.6758 37.7227 75.3477L37.7461 75.3008L38.9707 75.2949L38.959 75.3477C38.748 76.1855 37.8691 77.123 36.2402 77.123ZM36.1816 71.5566C35.3145 71.5566 34.6582 72.1484 34.5469 73.2441H37.7812C37.6816 72.1074 37.043 71.5566 36.1816 71.5566ZM40.5527 77V70.6367H41.8242V71.5977H41.918C42.1465 70.9238 42.7383 70.5254 43.5879 70.5254C43.793 70.5254 44.0156 70.5547 44.1445 70.584V71.7559C43.916 71.709 43.6992 71.6797 43.459 71.6797C42.4863 71.6797 41.8242 72.2773 41.8242 73.1973V77H40.5527ZM46.0605 79.2383C45.9023 79.2383 45.7148 79.2266 45.5508 79.209V78.207C45.6738 78.2246 45.832 78.2305 45.9785 78.2305C46.5703 78.2305 46.9219 77.9785 47.1152 77.334L47.209 77.0059L44.9004 70.6367H46.2715L47.8652 75.7227H47.9766L49.5645 70.6367H50.9004L48.5332 77.2461C47.9941 78.7695 47.3496 79.2383 46.0605 79.2383Z" fill="black"/>
</svg>
