<svg width="60" height="80" viewBox="0 0 60 80" fill="none" xmlns="http://www.w3.org/2000/svg">
<g clip-path="url(#clip0_2269_1875)">
<rect width="60" height="60" rx="13.28" fill="url(#paint0_linear_2269_1875)"/>
<path fill-rule="evenodd" clip-rule="evenodd" d="M42.7689 21.7629C42.3755 21.916 41.9476 22 41.5 22C41.0798 22 40.6769 21.9259 40.3036 21.7902L37.5 29.5L34 30.5L30 36.5L26 34.5L22.5 25L19 33L15 30.5L11.5 35.5L7.5 36.5L4 35L0 34V60H60V20.5L56 24L52.5 32L48.5 25L45 27.5L42.7689 21.7629Z" fill="url(#paint1_linear_2269_1875)"/>
<path d="M41.5 0V60" stroke="#00B0FF" stroke-width="0.5" stroke-linejoin="round"/>
<circle cx="41.5" cy="18.5" r="2.5" fill="#00B0FF"/>
<path opacity="0.5" d="M30 60V0M52.5 1V59M19 60V0M7.5 1V59" stroke="#707070" stroke-width="0.5"/>
<path fill-rule="evenodd" clip-rule="evenodd" d="M43.222 21.548C42.9342 21.7109 42.6211 21.8342 42.29 21.9106L44.5342 27.6813C44.5901 27.8251 44.7094 27.9351 44.8573 27.9792C45.0052 28.0233 45.1652 27.9966 45.2908 27.9069L48.3406 25.7285L52.0661 32.2481C52.1598 32.4122 52.3381 32.5094 52.5268 32.4994C52.7156 32.4893 52.8825 32.3736 52.9583 32.2005L56.4135 24.3028L60.3294 20.8764L59.6709 20.1238L55.6709 23.6238C55.6156 23.6722 55.5716 23.7323 55.5421 23.7997L52.4408 30.8884L48.9343 24.752C48.8641 24.6292 48.7453 24.5419 48.6072 24.5117C48.4691 24.4814 48.3246 24.511 48.2096 24.5932L45.233 26.7193L43.222 21.548ZM40.786 21.9271C40.453 21.8581 40.1372 21.7417 39.8462 21.5854L37.1175 29.0894L33.8628 30.0193C33.7487 30.0519 33.65 30.124 33.5842 30.2227L29.829 35.8555L26.4009 34.1414L22.9693 24.8272C22.8988 24.6357 22.719 24.5063 22.515 24.5003C22.3111 24.4942 22.1239 24.6127 22.0421 24.7997L18.7742 32.2692L15.2652 30.0761C15.0396 29.9351 14.7431 29.9954 14.5906 30.2133L11.1977 35.0603L7.54231 35.9741L4.19713 34.5405C4.17262 34.53 4.14731 34.5215 4.12144 34.515L0.121442 33.515L-0.121094 34.4851L3.84004 35.4754L7.30321 36.9596C7.40365 37.0027 7.51543 37.0116 7.62144 36.9851L11.6214 35.9851C11.7383 35.9559 11.8407 35.8855 11.9098 35.7868L15.1376 31.1756L18.7352 33.4241C18.8584 33.5011 19.009 33.5207 19.1479 33.4778C19.2867 33.4348 19.4 33.3336 19.4583 33.2005L22.4604 26.3384L25.531 34.6729C25.575 34.7923 25.6628 34.8904 25.7766 34.9473L29.7766 36.9473C30.0021 37.0601 30.2763 36.9872 30.4162 36.7774L34.3143 30.9303L37.6375 29.9808C37.7916 29.9368 37.9153 29.8216 37.9701 29.6709L40.786 21.9271Z" fill="white"/>
</g>
<path d="M14.2324 77.2051C12.3223 77.2051 11.0977 76.2383 10.9805 74.8145L10.9746 74.7383H12.2637L12.2695 74.8027C12.3398 75.5703 13.1543 76.0625 14.2852 76.0625C15.3633 76.0625 16.1309 75.5234 16.1309 74.7383V74.7324C16.1309 74.082 15.6738 73.6602 14.5547 73.4199L13.6289 73.2207C11.9121 72.8574 11.1738 72.0605 11.1738 70.8125V70.8066C11.1797 69.3477 12.4453 68.3398 14.2383 68.3398C16.0312 68.3398 17.2031 69.3535 17.2969 70.666L17.3027 70.748H16.0312L16.0195 70.6719C15.9082 69.9805 15.2461 69.4766 14.2207 69.4824C13.2305 69.4824 12.498 69.9453 12.498 70.7422V70.748C12.498 71.375 12.9434 71.7852 14.0391 72.0195L14.959 72.2246C16.7344 72.6055 17.4609 73.3203 17.4609 74.5742V74.5801C17.4609 76.1973 16.2012 77.2051 14.2324 77.2051ZM21.4453 77.041C20.0449 77.041 19.4707 76.5488 19.4707 75.3242V71.6387H18.4746V70.6367H19.4707V69.0312H20.7656V70.6367H22.1309V71.6387H20.7656V75.0195C20.7656 75.7051 21.0234 75.9863 21.6504 75.9863C21.8438 75.9863 21.9551 75.9805 22.1309 75.9629V76.9766C21.9258 77.0117 21.6914 77.041 21.4453 77.041ZM26.2383 77.123C24.3691 77.123 23.2266 75.875 23.2266 73.8242V73.8125C23.2266 71.7676 24.375 70.5137 26.2383 70.5137C28.0957 70.5137 29.2441 71.7617 29.2441 73.8125V73.8242C29.2441 75.875 28.1016 77.123 26.2383 77.123ZM26.2383 76.0625C27.3281 76.0625 27.9492 75.2305 27.9492 73.8242V73.8125C27.9492 72.4004 27.3281 71.5742 26.2383 71.5742C25.1426 71.5742 24.5273 72.4004 24.5273 73.8125V73.8242C24.5273 75.2363 25.1426 76.0625 26.2383 76.0625ZM33.4395 77.123C31.582 77.123 30.4453 75.8574 30.4453 73.8008V73.7891C30.4453 71.7734 31.5762 70.5137 33.4336 70.5137C35.0332 70.5137 35.9883 71.416 36.1641 72.6523V72.6816L34.9453 72.6875L34.9395 72.6699C34.7988 72.043 34.2832 71.5742 33.4395 71.5742C32.3789 71.5742 31.7402 72.418 31.7402 73.7891V73.8008C31.7402 75.207 32.3906 76.0625 33.4395 76.0625C34.2363 76.0625 34.7285 75.6992 34.9336 75.0137L34.9453 74.9844H36.1641L36.1523 75.0371C35.9238 76.2734 35.0156 77.123 33.4395 77.123ZM37.6641 77V68.1406H38.9355V73.3203H39.0293L41.5547 70.6367H43.043L40.3887 73.3203L43.2188 77H41.6719L39.4805 74.1406L38.9355 74.6855V77H37.6641ZM46.4473 77.123C44.9121 77.123 43.9395 76.4023 43.8164 75.3359V75.3301H45.0879L45.0938 75.3359C45.252 75.8164 45.7148 76.1387 46.4707 76.1387C47.2559 76.1387 47.8008 75.7812 47.8008 75.2598V75.248C47.8008 74.8496 47.502 74.5801 46.7637 74.4102L45.75 74.1758C44.5488 73.9004 43.9922 73.3555 43.9922 72.4238V72.418C43.9922 71.3105 45.0234 70.5137 46.4648 70.5137C47.918 70.5137 48.8496 71.2402 48.9609 72.2773V72.2832H47.748V72.2715C47.625 71.8262 47.1738 71.4922 46.459 71.4922C45.7617 71.4922 45.2578 71.8379 45.2578 72.3477V72.3594C45.2578 72.7578 45.5508 73.0039 46.2656 73.1738L47.2734 73.4023C48.498 73.6895 49.084 74.2109 49.084 75.1309V75.1426C49.084 76.3203 47.959 77.123 46.4473 77.123Z" fill="black"/>
<defs>
<linearGradient id="paint0_linear_2269_1875" x1="30" y1="0" x2="30" y2="60" gradientUnits="userSpaceOnUse">
<stop stop-color="#313131"/>
<stop offset="1" stop-color="#141514"/>
</linearGradient>
<linearGradient id="paint1_linear_2269_1875" x1="30" y1="3.3952e-07" x2="30" y2="60" gradientUnits="userSpaceOnUse">
<stop stop-color="white" stop-opacity="0.2"/>
<stop offset="1" stop-color="white" stop-opacity="0"/>
</linearGradient>
<clipPath id="clip0_2269_1875">
<rect width="60" height="60" rx="13.28" fill="white"/>
</clipPath>
</defs>
</svg>
