<svg width="60" height="80" viewBox="0 0 60 80" fill="none" xmlns="http://www.w3.org/2000/svg">
<rect width="60" height="60" rx="14" fill="url(#paint0_linear_2269_1891)"/>
<path fill-rule="evenodd" clip-rule="evenodd" d="M12.3242 47.6758C7.63621 42.9878 5.00174 36.6299 5.00003 30C4.99462 26.7155 5.63756 23.4621 6.89201 20.4265C8.14646 17.391 9.98774 14.6328 12.3103 12.3103C14.6328 9.98773 17.391 8.14646 20.4265 6.89201C23.4621 5.63756 26.7155 4.99462 30 5.00003C36.6299 5.00174 42.9878 7.63621 47.6758 12.3242C52.3639 17.0123 54.9983 23.3701 55 30C54.9983 36.6299 52.3639 42.9878 47.6758 47.6758C42.9878 52.3639 36.6299 54.9983 30 55C23.3701 54.9983 17.0123 52.3639 12.3242 47.6758ZM36.5484 46.1456C36.7716 45.9968 41.0126 41.9046 43.3936 39.3004C44.4501 38.1698 45.2602 36.8321 45.7726 35.3719C46.2849 33.9118 46.4883 32.3611 46.3698 30.8183C46.2565 29.2161 45.8227 27.653 45.0942 26.2216C44.3657 24.7901 43.3573 23.5195 42.1287 22.4849C40.0132 20.7225 37.3398 19.7698 34.5865 19.7971C31.8331 19.8243 29.1792 20.8298 27.099 22.6337C25.7951 23.8072 24.3198 25.3806 23.9245 25.8022C23.8687 25.8618 23.8344 25.8983 23.8251 25.9076C23.3022 26.47 23.0241 27.2171 23.052 27.9845C23.0799 28.752 23.4116 29.4769 23.974 29.9998C24.5364 30.5228 25.2835 30.8009 26.0509 30.7729C26.8184 30.745 27.5433 30.4134 28.0662 29.851C28.0759 29.8413 28.1108 29.8052 28.1669 29.7471C28.5421 29.3583 29.8677 27.9848 30.968 26.9492C33.1257 25.0147 36.5484 25.3867 38.3341 26.8748C38.9852 27.3999 39.5199 28.0547 39.9042 28.7977C40.2885 29.5407 40.5139 30.3555 40.5662 31.1903C40.6443 32.7442 40.11 34.2669 39.0781 35.4314C37.0519 37.6602 33.3704 41.1764 32.6527 41.862C32.5797 41.9317 32.5374 41.9721 32.5305 41.979C32.1163 42.3805 31.8312 42.8963 31.7115 43.4606C31.5918 44.0249 31.6431 44.612 31.8587 45.1471C32.0743 45.6821 32.4445 46.1407 32.922 46.4644C33.3995 46.788 33.9626 46.962 34.5394 46.9641C35.2875 46.9502 36.0036 46.6584 36.5484 46.1456ZM18.468 36.8451C20.5505 38.5948 23.1886 39.5445 25.9085 39.5236C28.6985 39.539 31.3979 38.5334 33.4978 36.6962C34.8016 35.5228 36.2767 33.9496 36.6722 33.5279C36.728 33.4682 36.7624 33.4317 36.7716 33.4224C37.0305 33.144 37.2321 32.8172 37.3647 32.4609C37.4974 32.1045 37.5585 31.7255 37.5447 31.3455C37.5309 30.9655 37.4424 30.5919 37.2842 30.2461C37.126 29.9003 36.9012 29.5891 36.6228 29.3302C36.3443 29.0712 36.0175 28.8697 35.6612 28.737C35.3048 28.6044 34.9258 28.5432 34.5458 28.557C34.1658 28.5709 33.7923 28.6594 33.4465 28.8176C33.1007 28.9758 32.7894 29.2005 32.5305 29.479C32.5208 29.4887 32.4859 29.5248 32.4298 29.583C32.0545 29.9718 30.729 31.3452 29.6287 32.3808C27.471 34.3153 24.0484 33.9433 22.2626 32.4552C21.6115 31.9301 21.0768 31.2753 20.6925 30.5323C20.3082 29.7893 20.0828 28.9745 20.0305 28.1397C19.9524 26.5857 20.4867 25.0631 21.5186 23.8986C23.5449 21.6697 27.2266 18.1533 27.9441 17.4679C28.017 17.3983 28.0594 17.3579 28.0662 17.351C28.3398 17.0872 28.5588 16.7721 28.7106 16.4236C28.8624 16.0752 28.944 15.7003 28.951 15.3203C28.9579 14.9403 28.8899 14.5626 28.7508 14.2089C28.6118 13.8552 28.4044 13.5323 28.1406 13.2588C27.8768 12.9852 27.5617 12.7662 27.2133 12.6144C26.8648 12.4626 26.4899 12.3809 26.1099 12.374C25.7299 12.3671 25.3523 12.4351 24.9985 12.5741C24.6448 12.7132 24.3219 12.9205 24.0484 13.1843C23.8251 13.3332 19.5841 17.4254 17.2031 20.0296C16.1663 21.1734 15.3688 22.5131 14.8577 23.9698C14.3466 25.4266 14.1321 26.9708 14.2269 28.5117C14.3402 30.1139 14.774 31.677 15.5025 33.1084C16.231 34.5399 17.2394 35.8105 18.468 36.8451Z" fill="url(#paint1_linear_2269_1891)"/>
<path d="M10.9512 77.2051C9.04102 77.2051 7.81641 76.2383 7.69922 74.8145L7.69336 74.7383H8.98242L8.98828 74.8027C9.05859 75.5703 9.87305 76.0625 11.0039 76.0625C12.082 76.0625 12.8496 75.5234 12.8496 74.7383V74.7324C12.8496 74.082 12.3926 73.6602 11.2734 73.4199L10.3477 73.2207C8.63086 72.8574 7.89258 72.0605 7.89258 70.8125V70.8066C7.89844 69.3477 9.16406 68.3398 10.957 68.3398C12.75 68.3398 13.9219 69.3535 14.0156 70.666L14.0215 70.748H12.75L12.7383 70.6719C12.627 69.9805 11.9648 69.4766 10.9395 69.4824C9.94922 69.4824 9.2168 69.9453 9.2168 70.7422V70.748C9.2168 71.375 9.66211 71.7852 10.7578 72.0195L11.6777 72.2246C13.4531 72.6055 14.1797 73.3203 14.1797 74.5742V74.5801C14.1797 76.1973 12.9199 77.2051 10.9512 77.2051ZM15.8203 77V68.1406H17.0918V71.6035H17.1855C17.4961 70.9238 18.1055 70.5137 19.0312 70.5137C20.4551 70.5137 21.2402 71.3633 21.2402 72.8809V77H19.9746V73.1797C19.9746 72.125 19.5352 71.6035 18.6035 71.6035C17.6719 71.6035 17.0918 72.2422 17.0918 73.2676V77H15.8203ZM24.7617 77.1055C23.5488 77.1055 22.6523 76.3672 22.6523 75.2129V75.2012C22.6523 74.0645 23.5078 73.4023 25.0254 73.3086L26.748 73.209V72.6465C26.748 71.9492 26.3086 71.5625 25.4473 71.5625C24.7441 71.5625 24.2812 71.8203 24.1289 72.2715L24.123 72.2949H22.8984L22.9043 72.2539C23.0566 71.2109 24.0586 70.5137 25.5059 70.5137C27.1055 70.5137 28.0078 71.3105 28.0078 72.6465V77H26.748V76.0977H26.6484C26.2734 76.7422 25.6055 77.1055 24.7617 77.1055ZM23.918 75.1602C23.918 75.7461 24.416 76.0918 25.1016 76.0918C26.0508 76.0918 26.748 75.4707 26.748 74.6504V74.1055L25.1953 74.2051C24.3164 74.2578 23.918 74.5742 23.918 75.1484V75.1602ZM29.6543 77V76.1738L33.1699 71.7383V71.6387H29.6777V70.6367H34.6699V71.5098L31.2305 75.8984V75.998H34.7051V77H29.6543ZM38.1328 77.1055C36.9199 77.1055 36.0234 76.3672 36.0234 75.2129V75.2012C36.0234 74.0645 36.8789 73.4023 38.3965 73.3086L40.1191 73.209V72.6465C40.1191 71.9492 39.6797 71.5625 38.8184 71.5625C38.1152 71.5625 37.6523 71.8203 37.5 72.2715L37.4941 72.2949H36.2695L36.2754 72.2539C36.4277 71.2109 37.4297 70.5137 38.877 70.5137C40.4766 70.5137 41.3789 71.3105 41.3789 72.6465V77H40.1191V76.0977H40.0195C39.6445 76.7422 38.9766 77.1055 38.1328 77.1055ZM37.2891 75.1602C37.2891 75.7461 37.7871 76.0918 38.4727 76.0918C39.4219 76.0918 40.1191 75.4707 40.1191 74.6504V74.1055L38.5664 74.2051C37.6875 74.2578 37.2891 74.5742 37.2891 75.1484V75.1602ZM43.1719 77V70.6367H44.4434V71.6152H44.5371C44.8184 70.918 45.4395 70.5137 46.2715 70.5137C47.1387 70.5137 47.7539 70.9648 48.0352 71.6504H48.1348C48.457 70.9648 49.1895 70.5137 50.0742 70.5137C51.3574 70.5137 52.1074 71.2871 52.1074 72.6113V77H50.8418V72.916C50.8418 72.0371 50.4434 71.6035 49.6113 71.6035C48.8027 71.6035 48.2695 72.207 48.2695 72.9746V77H47.0039V72.7871C47.0039 72.0605 46.5293 71.6035 45.7793 71.6035C45.0117 71.6035 44.4434 72.2598 44.4434 73.0918V77H43.1719Z" fill="black"/>
<defs>
<linearGradient id="paint0_linear_2269_1891" x1="30" y1="0" x2="30" y2="60" gradientUnits="userSpaceOnUse">
<stop stop-color="#313131"/>
<stop offset="1" stop-color="#141514"/>
</linearGradient>
<linearGradient id="paint1_linear_2269_1891" x1="30.0041" y1="54.993" x2="30.0041" y2="-7.5847" gradientUnits="userSpaceOnUse">
<stop stop-color="#2255FF"/>
<stop offset="1" stop-color="#00AAFF"/>
</linearGradient>
</defs>
</svg>
