<svg width="60" height="80" viewBox="0 0 60 80" fill="none" xmlns="http://www.w3.org/2000/svg">
<g clip-path="url(#clip0_2269_1838)">
<rect width="60" height="60" fill="url(#paint0_linear_2269_1838)"/>
<circle cx="30" cy="30" r="26.25" fill="#555555"/>
<path d="M28.1573 11.5385V7.68614H28.1415L26.9521 8.50645V7.83758L28.151 6.98572H28.8483V11.5385H28.1573ZM29.9589 11.5385V11.0526L31.5616 9.44035C32.1674 8.83458 32.3031 8.59479 32.3031 8.24143V8.23512C32.2999 7.80288 31.9718 7.49368 31.5111 7.49368C30.9779 7.49368 30.5962 7.85336 30.5899 8.31399V8.33292H29.921V8.31399C29.921 7.49999 30.6119 6.91 31.5017 6.91C32.3756 6.91 33.0003 7.45897 33.0003 8.1941V8.20041C33.0003 8.72099 32.7574 9.09013 31.9402 9.89783L30.9054 10.9138V10.9421H33.0729V11.5385H29.9589Z" fill="white"/>
<path d="M30.0316 52.9219C29.1008 52.9219 28.2427 52.2751 28.2427 50.6377V50.6313C28.2427 49.1138 28.921 48.2177 30.06 48.2177C30.8708 48.2177 31.4797 48.6815 31.6249 49.3599L31.6343 49.3977H30.9244L30.915 49.3662C30.7856 49.0254 30.4891 48.8109 30.0537 48.8109C29.2712 48.8109 28.9525 49.5649 28.9241 50.4673C28.921 50.5083 28.921 50.5493 28.921 50.5903H28.9368C29.1166 50.1802 29.5772 49.8584 30.1956 49.8584C31.0664 49.8584 31.6943 50.4925 31.6943 51.3539V51.3602C31.6943 52.2688 30.9907 52.9219 30.0316 52.9219ZM29.0598 51.3633C29.0598 51.9028 29.4826 52.3288 30.0221 52.3288C30.5616 52.3288 30.9907 51.9091 30.9907 51.3791V51.3728C30.9907 50.8238 30.5869 50.4326 30.0316 50.4326C29.4794 50.4326 29.0598 50.8207 29.0598 51.3602V51.3633Z" fill="white"/>
<path d="M40.4708 14.3055V10.4532H40.455L39.2655 11.2735V10.6047L40.4645 9.75281H41.1617V14.3055H40.4708Z" fill="white"/>
<path d="M18.4651 50.1367L20.4875 46.1961V46.1803H18.0865V45.584H21.1847V46.1961L19.2065 50.1367H18.4651Z" fill="white"/>
<path d="M46.4847 21.8654V21.3795L48.0875 19.7672C48.6933 19.1615 48.8289 18.9217 48.8289 18.5683V18.562C48.8258 18.1298 48.4977 17.8206 48.037 17.8206C47.5038 17.8206 47.1221 18.1803 47.1157 18.6409V18.6598H46.4469V18.6409C46.4469 17.8269 47.1378 17.2369 48.0276 17.2369C48.9015 17.2369 49.5262 17.7859 49.5262 18.521V18.5273C49.5262 19.0479 49.2833 19.417 48.4661 20.2247L47.4312 21.2407V21.2691H49.5988V21.8654H46.4847Z" fill="white"/>
<path d="M12.0557 42.6949C11.0492 42.6949 10.3362 42.1553 10.3362 41.3855V41.3792C10.3362 40.805 10.7495 40.3507 11.3426 40.2213V40.2055C10.8347 40.0604 10.5034 39.6818 10.5034 39.1991V39.1928C10.5034 38.4986 11.1502 37.9907 12.0557 37.9907C12.9612 37.9907 13.6111 38.4986 13.6111 39.1928V39.1991C13.6111 39.6818 13.2798 40.0604 12.7719 40.2055V40.2213C13.365 40.3507 13.7752 40.805 13.7752 41.3792V41.3855C13.7752 42.1553 13.0653 42.6949 12.0557 42.6949ZM12.0557 39.9689C12.5636 39.9689 12.9107 39.6755 12.9107 39.2622V39.2559C12.9107 38.8394 12.5605 38.5491 12.0557 38.5491C11.5509 38.5491 11.2038 38.8394 11.2038 39.2559V39.2622C11.2038 39.6755 11.5509 39.9689 12.0557 39.9689ZM12.0557 42.1301C12.6362 42.1301 13.0495 41.7988 13.0495 41.3382V41.3319C13.0495 40.8681 12.6394 40.5337 12.0557 40.5337C11.472 40.5337 11.0618 40.8681 11.0618 41.3319V41.3382C11.0618 41.7988 11.4752 42.1301 12.0557 42.1301Z" fill="white"/>
<path d="M50.7565 32.268C49.7848 32.268 49.1506 31.7379 49.0875 30.9965L49.0844 30.9555H49.7627L49.7659 30.9902C49.81 31.394 50.1918 31.678 50.7565 31.678C51.3118 31.678 51.6873 31.3688 51.6873 30.9271V30.9208C51.6873 30.4065 51.315 30.1194 50.7061 30.1194H50.1539V29.5704H50.6871C51.2077 29.5704 51.5611 29.2644 51.5611 28.8416V28.8353C51.5611 28.3967 51.2645 28.1412 50.7502 28.1412C50.2454 28.1412 49.8921 28.4062 49.8479 28.829L49.8447 28.8574H49.1822L49.1853 28.8258C49.2547 28.0655 49.8605 27.5638 50.7502 27.5638C51.6557 27.5638 52.2489 28.0434 52.2489 28.7438V28.7501C52.2489 29.3149 51.845 29.6935 51.2897 29.8102V29.826C51.9586 29.8859 52.4066 30.2898 52.4066 30.9271V30.9334C52.4066 31.7127 51.722 32.268 50.7565 32.268Z" fill="white"/>
<path d="M9.19918 27.6793C10.1299 27.6793 10.9881 28.3261 10.9881 29.9635V29.9698C10.9881 31.4874 10.3098 32.3835 9.17079 32.3835C8.35994 32.3835 7.75101 31.9197 7.60588 31.2413L7.59642 31.2035H8.30315L8.31577 31.235C8.44512 31.5758 8.7417 31.7903 9.1771 31.7903C9.95955 31.7903 10.2782 31.0363 10.3066 30.1339C10.3098 30.0929 10.3098 30.0519 10.3098 30.0109H10.294C10.1141 30.421 9.65351 30.7428 9.03512 30.7428C8.16433 30.7428 7.53332 30.1087 7.53332 29.2473V29.241C7.53332 28.3324 8.23689 27.6793 9.19918 27.6793ZM9.19603 30.1686C9.75131 30.1686 10.1709 29.7805 10.1709 29.241V29.2379C10.1709 28.6984 9.74816 28.2724 9.20549 28.2724C8.66913 28.2724 8.23689 28.6921 8.23689 29.2221V29.2284C8.23689 29.7774 8.64389 30.1686 9.19603 30.1686Z" fill="white"/>
<path d="M48.2279 42.6191V41.7136H45.95V41.0984L47.884 38.0664H48.9063V41.1205H49.5341V41.7136H48.9063V42.6191H48.2279ZM46.6062 41.13H48.2342V38.6248H48.2153L46.6062 41.111V41.13Z" fill="white"/>
<path d="M10.2411 21.8654V18.013H10.2253L9.03587 18.8334V18.1645L10.2348 17.3126H10.9321V21.8654H10.2411ZM13.7053 21.9411C12.6168 21.9411 11.9669 21.0356 11.9669 19.5906V19.5843C11.9669 18.1392 12.6168 17.2369 13.7053 17.2369C14.7907 17.2369 15.4438 18.1392 15.4438 19.5843V19.5906C15.4438 21.0356 14.7907 21.9411 13.7053 21.9411ZM13.7053 21.3511C14.3521 21.3511 14.7307 20.6822 14.7307 19.5906V19.5843C14.7307 18.4926 14.3521 17.83 13.7053 17.83C13.0554 17.83 12.68 18.4926 12.68 19.5843V19.5906C12.68 20.6822 13.0554 21.3511 13.7053 21.3511Z" fill="white"/>
<path d="M40.4864 50.1548C39.5746 50.1548 38.9404 49.6027 38.8773 48.8518L38.8742 48.8139L39.5494 48.8139L39.5525 48.8392C39.6125 49.2493 39.9848 49.5648 40.4927 49.5648C41.067 49.5648 41.4676 49.1673 41.4676 48.6025L41.4676 48.5962C41.4645 48.0378 41.0638 47.6434 40.499 47.6434C40.2182 47.6434 39.9753 47.7254 39.7923 47.8895C39.7071 47.9621 39.6346 48.0504 39.5746 48.1514L38.9562 48.1514L39.1802 45.5264L41.8936 45.5264L41.8936 46.1227L39.7513 46.1227L39.6125 47.5645L39.6282 47.5645C39.8333 47.2585 40.2119 47.085 40.6599 47.085C41.5307 47.085 42.1586 47.7128 42.1586 48.5836L42.1586 48.5899C42.1586 49.5143 41.4676 50.1548 40.4864 50.1548Z" fill="white"/>
<path d="M18.0096 14.3633V10.511H17.9938L16.8044 11.3313V10.6624L18.0033 9.81055H18.7006V14.3633H18.0096ZM20.9627 14.3633V10.511H20.9469L19.7575 11.3313V10.6624L20.9564 9.81055H21.6537V14.3633H20.9627Z" fill="white"/>
<circle cx="30.0001" cy="30" r="0.923077" stroke="white" stroke-width="0.923077"/>
<rect x="46.5654" y="13.9099" width="1.84615" height="19.3846" rx="0.923077" transform="rotate(48 46.5654 13.9099)" fill="white"/>
<rect x="44.4734" y="16.4148" width="0.923077" height="18.9231" rx="0.461538" transform="rotate(48 44.4734 16.4148)" fill="white"/>
<rect width="1.84615" height="11.2431" rx="0.923077" transform="matrix(-0.5 0.866025 0.866025 0.5 18.8831 22.5159)" fill="white"/>
<rect width="0.923077" height="10.6154" rx="0.461538" transform="matrix(-0.5 0.866025 0.866025 0.5 20.2751 23.8525)" fill="white"/>
<path fill-rule="evenodd" clip-rule="evenodd" d="M32.0296 26.4849C32.2503 26.6123 32.3259 26.8946 32.1985 27.1154L30.7996 29.5383C30.8782 29.6741 30.9232 29.8318 30.9232 30C30.9232 30.5098 30.5099 30.9231 30.0001 30.9231L18.6306 50.6156C18.5032 50.8364 18.2209 50.912 18.0001 50.7846C17.7794 50.6571 17.7037 50.3748 17.8312 50.1541L29.2006 30.4617C29.122 30.3259 29.077 30.1682 29.077 30C29.077 29.4902 29.4903 29.0769 30.0001 29.0769L31.3991 26.6538C31.5265 26.4331 31.8088 26.3574 32.0296 26.4849ZM30.0001 30.4615C30.255 30.4615 30.4616 30.2549 30.4616 30C30.4616 29.7451 30.255 29.5384 30.0001 29.5384C29.7452 29.5384 29.5385 29.7451 29.5385 30C29.5385 30.2549 29.7452 30.4615 30.0001 30.4615Z" fill="#FF9500"/>
</g>
<path d="M18.1465 77.2051C15.7969 77.2051 14.332 75.5059 14.332 72.7812V72.7695C14.332 70.0391 15.791 68.3398 18.1406 68.3398C20.0039 68.3398 21.4336 69.5176 21.6562 71.1992L21.6504 71.2285H20.3496V71.2109C20.1035 70.1738 19.2539 69.5 18.1406 69.5C16.623 69.5 15.6738 70.7598 15.6738 72.7695V72.7812C15.6738 74.7852 16.623 76.0449 18.1465 76.0449C19.2656 76.0449 20.1035 75.4473 20.3438 74.4922L20.3555 74.4688H21.6562V74.5039C21.4102 76.127 20.0332 77.2051 18.1465 77.2051ZM23.2969 77V68.1406H24.5684V77H23.2969ZM29.1562 77.123C27.2871 77.123 26.1445 75.875 26.1445 73.8242V73.8125C26.1445 71.7676 27.293 70.5137 29.1562 70.5137C31.0137 70.5137 32.1621 71.7617 32.1621 73.8125V73.8242C32.1621 75.875 31.0195 77.123 29.1562 77.123ZM29.1562 76.0625C30.2461 76.0625 30.8672 75.2305 30.8672 73.8242V73.8125C30.8672 72.4004 30.2461 71.5742 29.1562 71.5742C28.0605 71.5742 27.4453 72.4004 27.4453 73.8125V73.8242C27.4453 75.2363 28.0605 76.0625 29.1562 76.0625ZM36.3574 77.123C34.5 77.123 33.3633 75.8574 33.3633 73.8008V73.7891C33.3633 71.7734 34.4941 70.5137 36.3516 70.5137C37.9512 70.5137 38.9062 71.416 39.082 72.6523V72.6816L37.8633 72.6875L37.8574 72.6699C37.7168 72.043 37.2012 71.5742 36.3574 71.5742C35.2969 71.5742 34.6582 72.418 34.6582 73.7891V73.8008C34.6582 75.207 35.3086 76.0625 36.3574 76.0625C37.1543 76.0625 37.6465 75.6992 37.8516 75.0137L37.8633 74.9844H39.082L39.0703 75.0371C38.8418 76.2734 37.9336 77.123 36.3574 77.123ZM40.582 77V68.1406H41.8535V73.3203H41.9473L44.4727 70.6367H45.9609L43.3066 73.3203L46.1367 77H44.5898L42.3984 74.1406L41.8535 74.6855V77H40.582Z" fill="black"/>
<defs>
<linearGradient id="paint0_linear_2269_1838" x1="30" y1="0" x2="30" y2="60" gradientUnits="userSpaceOnUse">
<stop stop-color="#313131"/>
<stop offset="1" stop-color="#141514"/>
</linearGradient>
<clipPath id="clip0_2269_1838">
<rect width="60" height="60" rx="13.28" fill="white"/>
</clipPath>
</defs>
</svg>
