<svg width="69" height="80" viewBox="0 0 69 80" fill="none" xmlns="http://www.w3.org/2000/svg">
<g clip-path="url(#clip0_2269_1868)">
<rect width="60" height="60" rx="13.28" fill="url(#paint0_linear_2269_1868)"/>
<g filter="url(#filter0_f_2269_1868)">
<ellipse cx="30" cy="43" rx="24" ry="13" fill="#222222"/>
</g>
<path d="M12.4778 18.4186L28.9778 8.60777C29.6078 8.23319 30.3922 8.23319 31.0222 8.60777L47.5222 18.4186C48.1284 18.7791 48.5 19.4323 48.5 20.1376V39.8355C48.5 40.5553 48.1132 41.2195 47.4872 41.5748L30.9872 50.9397C30.3749 51.2872 29.6251 51.2872 29.0128 50.9397L12.5128 41.5748C11.8868 41.2195 11.5 40.5553 11.5 39.8355V20.1376C11.5 19.4323 11.8716 18.7791 12.4778 18.4186Z" fill="#F5F5F5"/>
<mask id="mask0_2269_1868" style="mask-type:alpha" maskUnits="userSpaceOnUse" x="11" y="8" width="38" height="44">
<path d="M12.4778 18.4186L28.9778 8.60777C29.6078 8.23319 30.3922 8.23319 31.0222 8.60777L47.5222 18.4186C48.1284 18.7791 48.5 19.4323 48.5 20.1376V39.8355C48.5 40.5553 48.1132 41.2195 47.4872 41.5748L30.9872 50.9397C30.3749 51.2872 29.6251 51.2872 29.0128 50.9397L12.5128 41.5748C11.8868 41.2195 11.5 40.5553 11.5 39.8355V20.1376C11.5 19.4323 11.8716 18.7791 12.4778 18.4186Z" fill="#F5F5F5"/>
</mask>
<g mask="url(#mask0_2269_1868)">
<path d="M23.5 11.5L41.5021 21.9223C42.1197 22.2798 42.5 22.9394 42.5 23.6531V44.5M17 15L35.516 25.9197C36.1258 26.2793 36.5 26.9345 36.5 27.6424V48M49 19L30 29.5M30 29.5L11 19M30 29.5V52M36.5 11.5L18.4979 21.9223C17.8803 22.2798 17.5 22.9394 17.5 23.6531V44.5M23.5 48V27.6424C23.5 26.9345 23.8743 26.2793 24.484 25.9197L43 15M49.5 26.5L30.9429 36.4923C30.3539 36.8095 29.6453 36.8111 29.0547 36.4967L10.28 26.5M49 34L30.9144 43.5187C30.3408 43.8206 29.6565 43.8258 29.0784 43.5326L10.28 34" stroke="#D8D8D8" stroke-width="0.2"/>
</g>
<path d="M30 30V38M30 30L37 26M30 30L23 26M46 20.5L53 16.5M53 16.5V25M53 16.5L46 12.5M30 3.5V10M30 3.5L37 7.5M30 3.5L23 7.5M30 48V56.5M30 56.5L37 52.5M30 56.5L23 52.5M14 20.5L7 16.5M7 16.5L14 12.5M7 16.5V25M14 39L7 43M7 43V35M7 43L14 47.5M46 39L53 43M53 43V35M53 43L46 47.5" stroke="#FFCC00" stroke-width="1.8" stroke-linecap="round" stroke-linejoin="round"/>
</g>
<path d="M1.81641 77V68.5449H5.15039C6.88477 68.5449 7.96289 69.5527 7.96289 71.123V71.1348C7.96289 72.2715 7.35352 73.1973 6.32227 73.543L8.2207 77H6.70312L4.98047 73.748H3.12891V77H1.81641ZM3.12891 72.6816H5.02148C6.0293 72.6816 6.61523 72.1309 6.61523 71.1699V71.1582C6.61523 70.2207 5.99414 69.6465 4.98047 69.6465H3.12891V72.6816ZM12.1699 77.123C10.3066 77.123 9.18164 75.8516 9.18164 73.8359V73.8301C9.18164 71.8438 10.3301 70.5137 12.1055 70.5137C13.8809 70.5137 14.9707 71.7969 14.9707 73.707V74.1523H10.459C10.4824 75.3711 11.1504 76.0801 12.1992 76.0801C13.0137 76.0801 13.5 75.6758 13.6523 75.3477L13.6758 75.3008L14.9004 75.2949L14.8887 75.3477C14.6777 76.1855 13.7988 77.123 12.1699 77.123ZM12.1113 71.5566C11.2441 71.5566 10.5879 72.1484 10.4766 73.2441H13.7109C13.6113 72.1074 12.9727 71.5566 12.1113 71.5566ZM18.2285 77.1055C17.0156 77.1055 16.1191 76.3672 16.1191 75.2129V75.2012C16.1191 74.0645 16.9746 73.4023 18.4922 73.3086L20.2148 73.209V72.6465C20.2148 71.9492 19.7754 71.5625 18.9141 71.5625C18.2109 71.5625 17.748 71.8203 17.5957 72.2715L17.5898 72.2949H16.3652L16.3711 72.2539C16.5234 71.2109 17.5254 70.5137 18.9727 70.5137C20.5723 70.5137 21.4746 71.3105 21.4746 72.6465V77H20.2148V76.0977H20.1152C19.7402 76.7422 19.0723 77.1055 18.2285 77.1055ZM17.3848 75.1602C17.3848 75.7461 17.8828 76.0918 18.5684 76.0918C19.5176 76.0918 20.2148 75.4707 20.2148 74.6504V74.1055L18.6621 74.2051C17.7832 74.2578 17.3848 74.5742 17.3848 75.1484V75.1602ZM23.3262 77V68.1406H24.5977V77H23.3262ZM27.1523 69.5C26.7129 69.5 26.3555 69.1426 26.3555 68.709C26.3555 68.2695 26.7129 67.9121 27.1523 67.9121C27.5859 67.9121 27.9492 68.2695 27.9492 68.709C27.9492 69.1426 27.5859 69.5 27.1523 69.5ZM26.5137 77V70.6367H27.7793V77H26.5137ZM32.0332 77.041C30.6328 77.041 30.0586 76.5488 30.0586 75.3242V71.6387H29.0625V70.6367H30.0586V69.0312H31.3535V70.6367H32.7188V71.6387H31.3535V75.0195C31.3535 75.7051 31.6113 75.9863 32.2383 75.9863C32.4316 75.9863 32.543 75.9805 32.7188 75.9629V76.9766C32.5137 77.0117 32.2793 77.041 32.0332 77.041ZM34.8223 79.2383C34.6641 79.2383 34.4766 79.2266 34.3125 79.209V78.207C34.4355 78.2246 34.5938 78.2305 34.7402 78.2305C35.332 78.2305 35.6836 77.9785 35.877 77.334L35.9707 77.0059L33.6621 70.6367H35.0332L36.627 75.7227H36.7383L38.3262 70.6367H39.6621L37.2949 77.2461C36.7559 78.7695 36.1113 79.2383 34.8223 79.2383ZM47.8477 77.2051C45.498 77.2051 44.0332 75.5059 44.0332 72.7812V72.7695C44.0332 70.0391 45.4922 68.3398 47.8418 68.3398C49.7051 68.3398 51.1348 69.5176 51.3574 71.1992L51.3516 71.2285H50.0508V71.2109C49.8047 70.1738 48.9551 69.5 47.8418 69.5C46.3242 69.5 45.375 70.7598 45.375 72.7695V72.7812C45.375 74.7852 46.3242 76.0449 47.8477 76.0449C48.9668 76.0449 49.8047 75.4473 50.0449 74.4922L50.0566 74.4688H51.3574V74.5039C51.1113 76.127 49.7344 77.2051 47.8477 77.2051ZM55.6348 77.123C53.7656 77.123 52.623 75.875 52.623 73.8242V73.8125C52.623 71.7676 53.7715 70.5137 55.6348 70.5137C57.4922 70.5137 58.6406 71.7617 58.6406 73.8125V73.8242C58.6406 75.875 57.498 77.123 55.6348 77.123ZM55.6348 76.0625C56.7246 76.0625 57.3457 75.2305 57.3457 73.8242V73.8125C57.3457 72.4004 56.7246 71.5742 55.6348 71.5742C54.5391 71.5742 53.9238 72.4004 53.9238 73.8125V73.8242C53.9238 75.2363 54.5391 76.0625 55.6348 76.0625ZM61.1367 77.0879C60.6504 77.0879 60.2754 76.7129 60.2754 76.2383C60.2754 75.7578 60.6504 75.3828 61.1367 75.3828C61.623 75.3828 61.9922 75.7578 61.9922 76.2383C61.9922 76.7129 61.623 77.0879 61.1367 77.0879ZM64.3945 77.0879C63.9141 77.0879 63.5391 76.7129 63.5391 76.2383C63.5391 75.7578 63.9141 75.3828 64.3945 75.3828C64.8809 75.3828 65.2559 75.7578 65.2559 76.2383C65.2559 76.7129 64.8809 77.0879 64.3945 77.0879ZM67.6523 77.0879C67.1719 77.0879 66.7969 76.7129 66.7969 76.2383C66.7969 75.7578 67.1719 75.3828 67.6523 75.3828C68.1445 75.3828 68.5137 75.7578 68.5137 76.2383C68.5137 76.7129 68.1445 77.0879 67.6523 77.0879Z" fill="black"/>
<defs>
<filter id="filter0_f_2269_1868" x="-6" y="18" width="72" height="50" filterUnits="userSpaceOnUse" color-interpolation-filters="sRGB">
<feFlood flood-opacity="0" result="BackgroundImageFix"/>
<feBlend mode="normal" in="SourceGraphic" in2="BackgroundImageFix" result="shape"/>
<feGaussianBlur stdDeviation="6" result="effect1_foregroundBlur_2269_1868"/>
</filter>
<linearGradient id="paint0_linear_2269_1868" x1="30" y1="0" x2="30" y2="60" gradientUnits="userSpaceOnUse">
<stop stop-color="#313131"/>
<stop offset="1" stop-color="#141514"/>
</linearGradient>
<clipPath id="clip0_2269_1868">
<rect width="60" height="60" rx="13.28" fill="white"/>
</clipPath>
</defs>
</svg>
