<svg width="60" height="80" viewBox="0 0 60 80" fill="none" xmlns="http://www.w3.org/2000/svg">
<rect width="60" height="60" rx="13.28" fill="url(#paint0_linear_2269_1887)"/>
<path fill-rule="evenodd" clip-rule="evenodd" d="M6.07516 23H22.7852C23.2127 23 23.593 22.7282 23.7313 22.3236L29.0538 6.76567C29.3623 5.86392 30.6376 5.86392 30.9461 6.76567L36.2686 22.3236C36.407 22.7282 36.7872 23 37.2148 23H53.5C54.461 23 54.8688 24.2234 54.1 24.8L41.072 34.5709C40.7299 34.8275 40.5888 35.2733 40.721 35.68L46.0393 52.044C46.3396 52.968 45.2787 53.7343 44.4958 53.1587L30.5924 42.9355C30.2399 42.6764 29.76 42.6764 29.4076 42.9355L15.5041 53.1587C14.7213 53.7343 13.6604 52.968 13.9607 52.044L19.2755 35.6906C19.4094 35.2788 19.2629 34.8275 18.9126 34.5728L5.48699 24.8087C4.70374 24.2391 5.10668 23 6.07516 23ZM22.0545 29.023C22 29.1299 22 29.2699 22 29.55V29.95C22 30.23 22 30.37 22.0545 30.477C22.1024 30.571 22.1789 30.6475 22.273 30.6955C22.3799 30.75 22.52 30.75 22.8 30.75H23.25V28.75H22.8C22.52 28.75 22.3799 28.75 22.273 28.8045C22.1789 28.8524 22.1024 28.9289 22.0545 29.023ZM23.5 29.65C23.5 28.8099 23.5 28.3898 23.6635 28.069C23.8073 27.7867 24.0367 27.5573 24.319 27.4135C24.6399 27.25 25.0599 27.25 25.9 27.25H31.6C32.4401 27.25 32.8601 27.25 33.181 27.4135C33.4632 27.5573 33.6927 27.7867 33.8365 28.069C34 28.3898 34 28.8099 34 29.65V33.85C34 34.69 34 35.1101 33.8365 35.4309C33.6927 35.7132 33.4632 35.9427 33.181 36.0865C32.8601 36.25 32.4401 36.25 31.6 36.25H25.9C25.0599 36.25 24.6399 36.25 24.319 36.0865C24.0367 35.9427 23.8073 35.7132 23.6635 35.4309C23.5 35.1101 23.5 34.69 23.5 33.85V29.65ZM34.5 30.6234V32.8759C34.5 32.9538 34.5377 33.0268 34.6013 33.0718L37.6407 35.2242C37.707 35.2711 37.7985 35.2237 37.7985 35.1426V28.3337C37.7985 28.2523 37.7065 28.205 37.6403 28.2524L34.6003 30.4282C34.5373 30.4733 34.5 30.546 34.5 30.6234Z" fill="url(#paint1_linear_2269_1887)"/>
<path d="M12.8027 69.5C12.3633 69.5 12.0059 69.1426 12.0059 68.709C12.0059 68.2695 12.3633 67.9121 12.8027 67.9121C13.2363 67.9121 13.5996 68.2695 13.5996 68.709C13.5996 69.1426 13.2363 69.5 12.8027 69.5ZM12.1641 77V70.6367H13.4297V77H12.1641ZM15.4277 77V68.5449H16.9395L19.6348 75.2891H19.7285L22.4238 68.5449H23.9355V77H22.7402V70.7949H22.6523L20.168 77H19.1953L16.7168 70.7949H16.623V77H15.4277ZM28.6055 77.123C26.7363 77.123 25.5938 75.875 25.5938 73.8242V73.8125C25.5938 71.7676 26.7422 70.5137 28.6055 70.5137C30.4629 70.5137 31.6113 71.7617 31.6113 73.8125V73.8242C31.6113 75.875 30.4688 77.123 28.6055 77.123ZM28.6055 76.0625C29.6953 76.0625 30.3164 75.2305 30.3164 73.8242V73.8125C30.3164 72.4004 29.6953 71.5742 28.6055 71.5742C27.5098 71.5742 26.8945 72.4004 26.8945 73.8125V73.8242C26.8945 75.2363 27.5098 76.0625 28.6055 76.0625ZM34.6348 77L32.332 70.6367H33.6797L35.2676 75.7109H35.3672L36.9492 70.6367H38.2852L35.9883 77H34.6348ZM40.2246 69.5C39.7852 69.5 39.4277 69.1426 39.4277 68.709C39.4277 68.2695 39.7852 67.9121 40.2246 67.9121C40.6582 67.9121 41.0215 68.2695 41.0215 68.709C41.0215 69.1426 40.6582 69.5 40.2246 69.5ZM39.5859 77V70.6367H40.8516V77H39.5859ZM45.375 77.123C43.5117 77.123 42.3867 75.8516 42.3867 73.8359V73.8301C42.3867 71.8438 43.5352 70.5137 45.3105 70.5137C47.0859 70.5137 48.1758 71.7969 48.1758 73.707V74.1523H43.6641C43.6875 75.3711 44.3555 76.0801 45.4043 76.0801C46.2188 76.0801 46.7051 75.6758 46.8574 75.3477L46.8809 75.3008L48.1055 75.2949L48.0938 75.3477C47.8828 76.1855 47.0039 77.123 45.375 77.123ZM45.3164 71.5566C44.4492 71.5566 43.793 72.1484 43.6816 73.2441H46.916C46.8164 72.1074 46.1777 71.5566 45.3164 71.5566Z" fill="black"/>
<defs>
<linearGradient id="paint0_linear_2269_1887" x1="30" y1="0" x2="30" y2="60" gradientUnits="userSpaceOnUse">
<stop stop-color="#313131"/>
<stop offset="1" stop-color="#141514"/>
</linearGradient>
<linearGradient id="paint1_linear_2269_1887" x1="30" y1="-2.53701e-08" x2="29.7636" y2="59.9991" gradientUnits="userSpaceOnUse">
<stop stop-color="#3B4FF4"/>
<stop offset="1" stop-color="#A95DF2"/>
</linearGradient>
</defs>
</svg>
