<svg width="70" height="80" viewBox="0 0 70 80" fill="none" xmlns="http://www.w3.org/2000/svg">
<g clip-path="url(#clip0_2269_1849)">
<rect width="60" height="60" fill="url(#paint0_linear_2269_1849)"/>
<path d="M39.2281 15.3709L44.8628 21.0057L42.3769 23.4916L36.7422 17.8568L39.2281 15.3709Z" fill="white"/>
<path d="M39.2281 15.3709L44.8628 21.0057L42.3769 23.4916L36.7422 17.8568L39.2281 15.3709Z" fill="url(#paint1_linear_2269_1849)"/>
<path d="M37.0736 28.7949L31.4389 23.1601L28.9529 25.646L34.5877 31.2808L37.0736 28.7949Z" fill="white"/>
<path d="M37.0736 28.7949L31.4389 23.1601L28.9529 25.646L34.5877 31.2808L37.0736 28.7949Z" fill="url(#paint2_linear_2269_1849)"/>
<path fill-rule="evenodd" clip-rule="evenodd" d="M41.4561 13.8938C41.7301 13.8994 41.9859 13.7732 42.1797 13.5793L58.9497 -3.19065L63.4244 1.28401L46.3544 18.354C45.5886 19.1198 46.3519 22.1204 50.3224 21.6348C50.5483 21.6072 50.767 21.531 50.9772 21.4438C53.5931 20.3592 54.5923 22.4626 54.7651 23.6987C55.1628 28.2065 50.2352 30.5488 47.7216 31.1565C43.3126 31.9495 43.2504 35.1952 43.1847 38.6254C43.1659 39.604 43.1469 40.5977 43.0265 41.5538C42.8867 45.3028 41.3857 49.0105 38.5237 51.8725C33.9602 56.436 27.3289 57.0183 21.6437 55.1815C17.8093 53.9426 14.6473 51.9438 11.6343 48.9309C8.62142 45.9179 6.6273 42.4198 5.38375 38.9215C3.38937 33.311 4.12916 26.605 8.69267 22.0415C11.9955 18.7387 16.4245 17.2485 20.7436 17.5709C27.7329 17.5347 28.0141 16.8527 29.0113 14.4344C29.1802 14.0248 29.3697 13.5653 29.6158 13.0507C31.5714 6.05699 36.0378 5.24768 38.0266 5.71724C38.8519 5.79712 41.0809 6.72602 39.3933 9.7589C39.2624 9.99408 39.138 10.2385 39.0671 10.4981C38.3383 13.1694 40.1329 13.8669 41.4561 13.8938ZM39.1866 14.3351L35.7478 17.774L40.8854 22.9115L36.7007 27.0962L31.5632 21.9586L27.9171 25.6046L32.5575 30.245C34.0468 31.8388 37.019 35.1775 37.6166 36.4316C37.6753 36.5548 37.6679 36.6945 37.6112 36.8187C37.2077 37.7036 36.2261 39.3168 34.8686 40.0846C34.7977 40.1248 34.7502 40.1964 34.7432 40.2775C34.6386 41.4821 34.1625 43.9611 32.9806 45.4558C32.895 45.564 32.8212 45.6818 32.7776 45.8128C32.4488 46.8011 32.2402 48.414 33.5856 48.3986C33.6731 48.3976 33.7602 48.3804 33.8414 48.3477C34.38 48.1305 35.0203 47.5652 34.0863 46.6825C34.0375 46.6363 33.9693 46.618 33.9022 46.6149C33.6948 46.6051 33.4771 46.4817 33.7591 46.0306C34.1734 45.3677 34.6291 44.0833 34.6706 43.7933C34.7099 43.5176 36.0221 41.2205 37.4683 40.816C37.5921 40.7813 37.682 40.6667 37.6718 40.5385C37.5978 39.6114 37.6845 37.9569 38.5116 37.1285C38.5607 37.0793 38.641 37.0898 38.6871 37.1419C39.1308 37.6433 40.1705 37.9414 41.3825 35.6726C42.6611 33.2795 43.0182 31.3376 43.0393 30.6406C43.0397 30.6249 43.0414 30.6109 43.0448 30.5956C43.3545 29.2308 44.3493 26.1596 45.8986 24.6102C47.4565 23.0524 46.4373 21.4752 45.7329 20.8814L39.1866 14.3351ZM23.1525 29.4578C23.5643 29.0459 24.2321 29.0459 24.644 29.4578L30.5274 35.3411C30.9392 35.753 30.9392 36.4208 30.5274 36.8327C30.1155 37.2446 29.4477 37.2446 29.0358 36.8327L23.1525 30.9493C22.7406 30.5375 22.7406 29.8697 23.1525 29.4578ZM19.6003 22.3645C20.1204 22.5098 21.0673 22.583 21.9509 22.0415C23.2353 21.2543 25.9711 20.5099 26.5499 21.1714C27.1299 21.8343 26.5913 22.5386 26.3841 22.5801C26.0113 22.6215 25.4726 22.2486 25.8041 21.6686C26.1296 21.0989 20.7802 23.0869 19.6469 25.1992C19.6086 25.2706 19.5407 25.3205 19.4603 25.331C17.9593 25.5273 14.9433 26.0934 13.9131 26.9304C12.9227 27.7351 11.8673 27.0732 11.462 26.5097C11.4078 26.4344 11.3784 26.3445 11.3723 26.2519C11.3314 25.6366 11.5375 24.9533 12.6513 25.1687C12.7187 25.1817 12.784 25.2064 12.8399 25.2463C13.0364 25.3868 13.2946 25.6626 13.2088 25.9775C13.0874 26.4223 17.8601 25.2885 19.2833 22.4989C19.3416 22.3847 19.4769 22.33 19.6003 22.3645Z" fill="white"/>
<path fill-rule="evenodd" clip-rule="evenodd" d="M41.4561 13.8938C41.7301 13.8994 41.9859 13.7732 42.1797 13.5793L58.9497 -3.19065L63.4244 1.28401L46.3544 18.354C45.5886 19.1198 46.3519 22.1204 50.3224 21.6348C50.5483 21.6072 50.767 21.531 50.9772 21.4438C53.5931 20.3592 54.5923 22.4626 54.7651 23.6987C55.1628 28.2065 50.2352 30.5488 47.7216 31.1565C43.3126 31.9495 43.2504 35.1952 43.1847 38.6254C43.1659 39.604 43.1469 40.5977 43.0265 41.5538C42.8867 45.3028 41.3857 49.0105 38.5237 51.8725C33.9602 56.436 27.3289 57.0183 21.6437 55.1815C17.8093 53.9426 14.6473 51.9438 11.6343 48.9309C8.62142 45.9179 6.6273 42.4198 5.38375 38.9215C3.38937 33.311 4.12916 26.605 8.69267 22.0415C11.9955 18.7387 16.4245 17.2485 20.7436 17.5709C27.7329 17.5347 28.0141 16.8527 29.0113 14.4344C29.1802 14.0248 29.3697 13.5653 29.6158 13.0507C31.5714 6.05699 36.0378 5.24768 38.0266 5.71724C38.8519 5.79712 41.0809 6.72602 39.3933 9.7589C39.2624 9.99408 39.138 10.2385 39.0671 10.4981C38.3383 13.1694 40.1329 13.8669 41.4561 13.8938ZM39.1866 14.3351L35.7478 17.774L40.8854 22.9115L36.7007 27.0962L31.5632 21.9586L27.9171 25.6046L32.5575 30.245C34.0468 31.8388 37.019 35.1775 37.6166 36.4316C37.6753 36.5548 37.6679 36.6945 37.6112 36.8187C37.2077 37.7036 36.2261 39.3168 34.8686 40.0846C34.7977 40.1248 34.7502 40.1964 34.7432 40.2775C34.6386 41.4821 34.1625 43.9611 32.9806 45.4558C32.895 45.564 32.8212 45.6818 32.7776 45.8128C32.4488 46.8011 32.2402 48.414 33.5856 48.3986C33.6731 48.3976 33.7602 48.3804 33.8414 48.3477C34.38 48.1305 35.0203 47.5652 34.0863 46.6825C34.0375 46.6363 33.9693 46.618 33.9022 46.6149C33.6948 46.6051 33.4771 46.4817 33.7591 46.0306C34.1734 45.3677 34.6291 44.0833 34.6706 43.7933C34.7099 43.5176 36.0221 41.2205 37.4683 40.816C37.5921 40.7813 37.682 40.6667 37.6718 40.5385C37.5978 39.6114 37.6845 37.9569 38.5116 37.1285C38.5607 37.0793 38.641 37.0898 38.6871 37.1419C39.1308 37.6433 40.1705 37.9414 41.3825 35.6726C42.6611 33.2795 43.0182 31.3376 43.0393 30.6406C43.0397 30.6249 43.0414 30.6109 43.0448 30.5956C43.3545 29.2308 44.3493 26.1596 45.8986 24.6102C47.4565 23.0524 46.4373 21.4752 45.7329 20.8814L39.1866 14.3351ZM23.1525 29.4578C23.5643 29.0459 24.2321 29.0459 24.644 29.4578L30.5274 35.3411C30.9392 35.753 30.9392 36.4208 30.5274 36.8327C30.1155 37.2446 29.4477 37.2446 29.0358 36.8327L23.1525 30.9493C22.7406 30.5375 22.7406 29.8697 23.1525 29.4578ZM19.6003 22.3645C20.1204 22.5098 21.0673 22.583 21.9509 22.0415C23.2353 21.2543 25.9711 20.5099 26.5499 21.1714C27.1299 21.8343 26.5913 22.5386 26.3841 22.5801C26.0113 22.6215 25.4726 22.2486 25.8041 21.6686C26.1296 21.0989 20.7802 23.0869 19.6469 25.1992C19.6086 25.2706 19.5407 25.3205 19.4603 25.331C17.9593 25.5273 14.9433 26.0934 13.9131 26.9304C12.9227 27.7351 11.8673 27.0732 11.462 26.5097C11.4078 26.4344 11.3784 26.3445 11.3723 26.2519C11.3314 25.6366 11.5375 24.9533 12.6513 25.1687C12.7187 25.1817 12.784 25.2064 12.8399 25.2463C13.0364 25.3868 13.2946 25.6626 13.2088 25.9775C13.0874 26.4223 17.8601 25.2885 19.2833 22.4989C19.3416 22.3847 19.4769 22.33 19.6003 22.3645Z" fill="url(#paint3_linear_2269_1849)"/>
</g>
<path d="M4.67578 77.2051C2.2793 77.2051 0.767578 75.4941 0.767578 72.7754V72.7637C0.767578 70.0801 2.29688 68.3398 4.66406 68.3398C6.58594 68.3398 7.95117 69.4297 8.25586 71.0645L8.26758 71.123H6.95508L6.9375 71.0645C6.63281 70.0625 5.82422 69.5 4.66406 69.5C3.09961 69.5 2.10938 70.7656 2.10938 72.7578V72.7695C2.10938 74.791 3.10547 76.0449 4.69336 76.0449C6.07617 76.0449 7.01953 75.1719 7.03125 73.8711V73.6836H4.85742V72.623H8.32617V73.6719C8.32617 75.8164 6.89062 77.2051 4.67578 77.2051ZM11.7129 77.1055C10.5 77.1055 9.60352 76.3672 9.60352 75.2129V75.2012C9.60352 74.0645 10.459 73.4023 11.9766 73.3086L13.6992 73.209V72.6465C13.6992 71.9492 13.2598 71.5625 12.3984 71.5625C11.6953 71.5625 11.2324 71.8203 11.0801 72.2715L11.0742 72.2949H9.84961L9.85547 72.2539C10.0078 71.2109 11.0098 70.5137 12.457 70.5137C14.0566 70.5137 14.959 71.3105 14.959 72.6465V77H13.6992V76.0977H13.5996C13.2246 76.7422 12.5566 77.1055 11.7129 77.1055ZM10.8691 75.1602C10.8691 75.7461 11.3672 76.0918 12.0527 76.0918C13.002 76.0918 13.6992 75.4707 13.6992 74.6504V74.1055L12.1465 74.2051C11.2676 74.2578 10.8691 74.5742 10.8691 75.1484V75.1602ZM16.752 77V70.6367H18.0234V71.5977H18.1172C18.3457 70.9238 18.9375 70.5254 19.7871 70.5254C19.9922 70.5254 20.2148 70.5547 20.3438 70.584V71.7559C20.1152 71.709 19.8984 71.6797 19.6582 71.6797C18.6855 71.6797 18.0234 72.2773 18.0234 73.1973V77H16.752ZM23.2559 77.1055C22.043 77.1055 21.1465 76.3672 21.1465 75.2129V75.2012C21.1465 74.0645 22.002 73.4023 23.5195 73.3086L25.2422 73.209V72.6465C25.2422 71.9492 24.8027 71.5625 23.9414 71.5625C23.2383 71.5625 22.7754 71.8203 22.623 72.2715L22.6172 72.2949H21.3926L21.3984 72.2539C21.5508 71.2109 22.5527 70.5137 24 70.5137C25.5996 70.5137 26.502 71.3105 26.502 72.6465V77H25.2422V76.0977H25.1426C24.7676 76.7422 24.0996 77.1055 23.2559 77.1055ZM22.4121 75.1602C22.4121 75.7461 22.9102 76.0918 23.5957 76.0918C24.5449 76.0918 25.2422 75.4707 25.2422 74.6504V74.1055L23.6895 74.2051C22.8105 74.2578 22.4121 74.5742 22.4121 75.1484V75.1602ZM30.9844 79.2441C29.3672 79.2441 28.3711 78.5352 28.2188 77.4746L28.2305 77.4629H29.5137L29.5195 77.4746C29.625 77.9141 30.1406 78.2246 31.002 78.2246C32.0508 78.2246 32.6719 77.7324 32.6719 76.8652V75.6113H32.5781C32.1914 76.3027 31.4883 76.6895 30.6152 76.6895C28.9805 76.6895 27.9727 75.4297 27.9727 73.6367V73.625C27.9727 71.8086 28.9863 70.5254 30.6387 70.5254C31.5293 70.5254 32.2207 70.9648 32.5898 71.6797H32.666V70.6367H33.9316V76.8711C33.9316 78.3184 32.7891 79.2441 30.9844 79.2441ZM30.9668 75.6406C32.0449 75.6406 32.6953 74.8203 32.6953 73.6309V73.6191C32.6953 72.4355 32.0391 71.6035 30.9668 71.6035C29.8828 71.6035 29.2734 72.4355 29.2734 73.6191V73.6309C29.2734 74.8145 29.8828 75.6406 30.9668 75.6406ZM38.4316 77.123C36.5684 77.123 35.4434 75.8516 35.4434 73.8359V73.8301C35.4434 71.8438 36.5918 70.5137 38.3672 70.5137C40.1426 70.5137 41.2324 71.7969 41.2324 73.707V74.1523H36.7207C36.7441 75.3711 37.4121 76.0801 38.4609 76.0801C39.2754 76.0801 39.7617 75.6758 39.9141 75.3477L39.9375 75.3008L41.1621 75.2949L41.1504 75.3477C40.9395 76.1855 40.0605 77.123 38.4316 77.123ZM38.373 71.5566C37.5059 71.5566 36.8496 72.1484 36.7383 73.2441H39.9727C39.873 72.1074 39.2344 71.5566 38.373 71.5566ZM46.1719 77V68.5449H49.5703C51.1582 68.5449 52.1133 69.3535 52.1133 70.6484V70.6602C52.1133 71.5391 51.4629 72.3301 50.6309 72.4707V72.5703C51.7734 72.6934 52.5352 73.502 52.5352 74.6035V74.6152C52.5352 76.0977 51.4512 77 49.6465 77H46.1719ZM49.2656 69.6172H47.4844V72.1426H49.043C50.2031 72.1426 50.8066 71.709 50.8066 70.8887V70.877C50.8066 70.0801 50.2383 69.6172 49.2656 69.6172ZM49.3066 73.1445H47.4844V75.9277H49.3828C50.5664 75.9277 51.1934 75.4414 51.1934 74.5332V74.5215C51.1934 73.6133 50.543 73.1445 49.3066 73.1445ZM55.8223 77.1055C54.6094 77.1055 53.7129 76.3672 53.7129 75.2129V75.2012C53.7129 74.0645 54.5684 73.4023 56.0859 73.3086L57.8086 73.209V72.6465C57.8086 71.9492 57.3691 71.5625 56.5078 71.5625C55.8047 71.5625 55.3418 71.8203 55.1895 72.2715L55.1836 72.2949H53.959L53.9648 72.2539C54.1172 71.2109 55.1191 70.5137 56.5664 70.5137C58.166 70.5137 59.0684 71.3105 59.0684 72.6465V77H57.8086V76.0977H57.709C57.334 76.7422 56.666 77.1055 55.8223 77.1055ZM54.9785 75.1602C54.9785 75.7461 55.4766 76.0918 56.1621 76.0918C57.1113 76.0918 57.8086 75.4707 57.8086 74.6504V74.1055L56.2559 74.2051C55.377 74.2578 54.9785 74.5742 54.9785 75.1484V75.1602ZM61.8398 77.0879C61.3535 77.0879 60.9785 76.7129 60.9785 76.2383C60.9785 75.7578 61.3535 75.3828 61.8398 75.3828C62.3262 75.3828 62.6953 75.7578 62.6953 76.2383C62.6953 76.7129 62.3262 77.0879 61.8398 77.0879ZM65.0977 77.0879C64.6172 77.0879 64.2422 76.7129 64.2422 76.2383C64.2422 75.7578 64.6172 75.3828 65.0977 75.3828C65.584 75.3828 65.959 75.7578 65.959 76.2383C65.959 76.7129 65.584 77.0879 65.0977 77.0879ZM68.3555 77.0879C67.875 77.0879 67.5 76.7129 67.5 76.2383C67.5 75.7578 67.875 75.3828 68.3555 75.3828C68.8477 75.3828 69.2168 75.7578 69.2168 76.2383C69.2168 76.7129 68.8477 77.0879 68.3555 77.0879Z" fill="black"/>
<defs>
<linearGradient id="paint0_linear_2269_1849" x1="30" y1="0" x2="30" y2="60" gradientUnits="userSpaceOnUse">
<stop stop-color="#313131"/>
<stop offset="1" stop-color="#141514"/>
</linearGradient>
<linearGradient id="paint1_linear_2269_1849" x1="61.3528" y1="-0.787592" x2="11.6343" y2="48.9309" gradientUnits="userSpaceOnUse">
<stop stop-color="#DC3D41"/>
<stop offset="1" stop-color="#F4BA33"/>
</linearGradient>
<linearGradient id="paint2_linear_2269_1849" x1="61.3528" y1="-0.787592" x2="11.6343" y2="48.9309" gradientUnits="userSpaceOnUse">
<stop stop-color="#DC3D41"/>
<stop offset="1" stop-color="#F4BA33"/>
</linearGradient>
<linearGradient id="paint3_linear_2269_1849" x1="61.3528" y1="-0.787592" x2="11.6343" y2="48.9309" gradientUnits="userSpaceOnUse">
<stop stop-color="#DC3D41"/>
<stop offset="1" stop-color="#F4BA33"/>
</linearGradient>
<clipPath id="clip0_2269_1849">
<rect width="60" height="60" rx="13.28" fill="white"/>
</clipPath>
</defs>
</svg>
