<svg width="60" height="80" viewBox="0 0 60 80" fill="none" xmlns="http://www.w3.org/2000/svg">
<g clip-path="url(#clip0_2269_1886)">
<rect width="60" height="60" fill="url(#paint0_linear_2269_1886)"/>
<path d="M51.9141 28.7109C51.9141 38.7427 42.1028 46.875 30 46.875C28.1669 46.875 26.3864 46.6884 24.6846 46.337C24.1704 46.2308 23.6344 46.2168 23.1703 46.4622C21.6504 47.2659 19.149 49.3009 15.8918 49.4451C15.7448 49.4516 15.6625 49.2827 15.753 49.1666C17.678 46.6962 18.9325 44.4129 18.1055 43.969C12.0758 40.733 8.08594 35.1082 8.08594 28.7109C8.08594 18.6792 17.8972 10.5469 30 10.5469C42.1028 10.5469 51.9141 18.6792 51.9141 28.7109Z" fill="url(#paint1_linear_2269_1886)"/>
</g>
<path d="M5.22656 77V68.5449H6.73828L9.43359 75.2891H9.52734L12.2227 68.5449H13.7344V77H12.5391V70.7949H12.4512L9.9668 77H8.99414L6.51562 70.7949H6.42188V77H5.22656ZM18.3809 77.123C16.5176 77.123 15.3926 75.8516 15.3926 73.8359V73.8301C15.3926 71.8438 16.541 70.5137 18.3164 70.5137C20.0918 70.5137 21.1816 71.7969 21.1816 73.707V74.1523H16.6699C16.6934 75.3711 17.3613 76.0801 18.4102 76.0801C19.2246 76.0801 19.7109 75.6758 19.8633 75.3477L19.8867 75.3008L21.1113 75.2949L21.0996 75.3477C20.8887 76.1855 20.0098 77.123 18.3809 77.123ZM18.3223 71.5566C17.4551 71.5566 16.7988 72.1484 16.6875 73.2441H19.9219C19.8223 72.1074 19.1836 71.5566 18.3223 71.5566ZM25.0078 77.123C23.4727 77.123 22.5 76.4023 22.377 75.3359V75.3301H23.6484L23.6543 75.3359C23.8125 75.8164 24.2754 76.1387 25.0312 76.1387C25.8164 76.1387 26.3613 75.7812 26.3613 75.2598V75.248C26.3613 74.8496 26.0625 74.5801 25.3242 74.4102L24.3105 74.1758C23.1094 73.9004 22.5527 73.3555 22.5527 72.4238V72.418C22.5527 71.3105 23.584 70.5137 25.0254 70.5137C26.4785 70.5137 27.4102 71.2402 27.5215 72.2773V72.2832H26.3086V72.2715C26.1855 71.8262 25.7344 71.4922 25.0195 71.4922C24.3223 71.4922 23.8184 71.8379 23.8184 72.3477V72.3594C23.8184 72.7578 24.1113 73.0039 24.8262 73.1738L25.834 73.4023C27.0586 73.6895 27.6445 74.2109 27.6445 75.1309V75.1426C27.6445 76.3203 26.5195 77.123 25.0078 77.123ZM31.3594 77.123C29.8242 77.123 28.8516 76.4023 28.7285 75.3359V75.3301H30L30.0059 75.3359C30.1641 75.8164 30.627 76.1387 31.3828 76.1387C32.168 76.1387 32.7129 75.7812 32.7129 75.2598V75.248C32.7129 74.8496 32.4141 74.5801 31.6758 74.4102L30.6621 74.1758C29.4609 73.9004 28.9043 73.3555 28.9043 72.4238V72.418C28.9043 71.3105 29.9355 70.5137 31.377 70.5137C32.8301 70.5137 33.7617 71.2402 33.873 72.2773V72.2832H32.6602V72.2715C32.5371 71.8262 32.0859 71.4922 31.3711 71.4922C30.6738 71.4922 30.1699 71.8379 30.1699 72.3477V72.3594C30.1699 72.7578 30.4629 73.0039 31.1777 73.1738L32.1855 73.4023C33.4102 73.6895 33.9961 74.2109 33.9961 75.1309V75.1426C33.9961 76.3203 32.8711 77.123 31.3594 77.123ZM37.2598 77.1055C36.0469 77.1055 35.1504 76.3672 35.1504 75.2129V75.2012C35.1504 74.0645 36.0059 73.4023 37.5234 73.3086L39.2461 73.209V72.6465C39.2461 71.9492 38.8066 71.5625 37.9453 71.5625C37.2422 71.5625 36.7793 71.8203 36.627 72.2715L36.6211 72.2949H35.3965L35.4023 72.2539C35.5547 71.2109 36.5566 70.5137 38.0039 70.5137C39.6035 70.5137 40.5059 71.3105 40.5059 72.6465V77H39.2461V76.0977H39.1465C38.7715 76.7422 38.1035 77.1055 37.2598 77.1055ZM36.416 75.1602C36.416 75.7461 36.9141 76.0918 37.5996 76.0918C38.5488 76.0918 39.2461 75.4707 39.2461 74.6504V74.1055L37.6934 74.2051C36.8145 74.2578 36.416 74.5742 36.416 75.1484V75.1602ZM44.9883 79.2441C43.3711 79.2441 42.375 78.5352 42.2227 77.4746L42.2344 77.4629H43.5176L43.5234 77.4746C43.6289 77.9141 44.1445 78.2246 45.0059 78.2246C46.0547 78.2246 46.6758 77.7324 46.6758 76.8652V75.6113H46.582C46.1953 76.3027 45.4922 76.6895 44.6191 76.6895C42.9844 76.6895 41.9766 75.4297 41.9766 73.6367V73.625C41.9766 71.8086 42.9902 70.5254 44.6426 70.5254C45.5332 70.5254 46.2246 70.9648 46.5938 71.6797H46.6699V70.6367H47.9355V76.8711C47.9355 78.3184 46.793 79.2441 44.9883 79.2441ZM44.9707 75.6406C46.0488 75.6406 46.6992 74.8203 46.6992 73.6309V73.6191C46.6992 72.4355 46.043 71.6035 44.9707 71.6035C43.8867 71.6035 43.2773 72.4355 43.2773 73.6191V73.6309C43.2773 74.8145 43.8867 75.6406 44.9707 75.6406ZM52.4355 77.123C50.5723 77.123 49.4473 75.8516 49.4473 73.8359V73.8301C49.4473 71.8438 50.5957 70.5137 52.3711 70.5137C54.1465 70.5137 55.2363 71.7969 55.2363 73.707V74.1523H50.7246C50.748 75.3711 51.416 76.0801 52.4648 76.0801C53.2793 76.0801 53.7656 75.6758 53.918 75.3477L53.9414 75.3008L55.166 75.2949L55.1543 75.3477C54.9434 76.1855 54.0645 77.123 52.4355 77.123ZM52.377 71.5566C51.5098 71.5566 50.8535 72.1484 50.7422 73.2441H53.9766C53.877 72.1074 53.2383 71.5566 52.377 71.5566Z" fill="black"/>
<defs>
<linearGradient id="paint0_linear_2269_1886" x1="30" y1="0" x2="30" y2="60" gradientUnits="userSpaceOnUse">
<stop stop-color="#313131"/>
<stop offset="1" stop-color="#141514"/>
</linearGradient>
<linearGradient id="paint1_linear_2269_1886" x1="30" y1="10.5469" x2="30" y2="49.4531" gradientUnits="userSpaceOnUse">
<stop stop-color="#5CF777"/>
<stop offset="1" stop-color="#0EBC29"/>
</linearGradient>
<clipPath id="clip0_2269_1886">
<rect width="60" height="60" rx="13.28" fill="white"/>
</clipPath>
</defs>
</svg>
