<svg width="60" height="80" viewBox="0 0 60 80" fill="none" xmlns="http://www.w3.org/2000/svg">
<rect width="60" height="60" rx="13.28" fill="url(#paint0_linear_2269_1853)"/>
<mask id="mask0_2269_1853" style="mask-type:alpha" maskUnits="userSpaceOnUse" x="30" y="8" width="20" height="43">
<path d="M42.2405 50.7765C33.8092 48.8468 31.2376 46.2589 30.9641 41.1194V30.3813H39.2617L43.4875 31.0856C44.4289 31.2425 45.1189 32.057 45.1189 33.0114V48.4316C45.1189 49.9587 43.7292 51.1173 42.2405 50.7765Z" fill="#FF6560"/>
<path d="M49.9998 26.4959V10.72C49.9998 9.447 48.7969 8.5136 47.566 8.83848C39.4216 10.9881 34.8809 12.7981 31.9318 17.7732C31.224 18.9672 30.9641 20.3612 30.9641 21.7492V41.1194C32.605 33.3956 39.4272 31.1684 48.616 28.3631C49.437 28.1124 49.9998 27.3544 49.9998 26.4959Z" fill="url(#paint1_linear_2269_1853)"/>
</mask>
<g mask="url(#mask0_2269_1853)">
<path d="M42.2405 50.7766C33.8092 48.8469 31.2376 46.259 30.9641 41.1194V30.3813H39.2617L43.4875 31.0856C44.4289 31.2425 45.1189 32.0571 45.1189 33.0115V48.4316C45.1189 49.9588 43.7292 51.1173 42.2405 50.7766Z" fill="#FF6560"/>
<g filter="url(#filter0_d_2269_1853)">
<path d="M49.9998 26.496V10.7201C49.9998 9.44706 48.7969 8.51366 47.566 8.83854C39.4216 10.9882 34.8809 12.7981 31.9318 17.7732C31.224 18.9672 30.9641 20.3612 30.9641 21.7493V41.1196C32.605 33.3958 39.4272 31.1685 48.616 28.3632C49.437 28.1125 49.9998 27.3545 49.9998 26.496Z" fill="url(#paint2_linear_2269_1853)"/>
</g>
</g>
<mask id="mask1_2269_1853" style="mask-type:alpha" maskUnits="userSpaceOnUse" x="9" y="8" width="20" height="43">
<path d="M16.7593 50.7765C25.1906 48.8468 27.7623 46.2589 28.0357 41.1194V30.3813H19.7381L15.5124 31.0856C14.5709 31.2425 13.881 32.057 13.881 33.0114V48.4316C13.881 49.9587 15.2707 51.1173 16.7593 50.7765Z" fill="#D9D9D9"/>
<path d="M9 26.4959V10.72C9 9.447 10.203 8.5136 11.4339 8.83848C19.5783 10.9881 24.1189 12.7981 27.0681 17.7732C27.7758 18.9672 28.0357 20.3612 28.0357 21.7492V41.1194C26.3949 33.3956 19.5727 31.1684 10.3839 28.3631C9.56278 28.1124 9 27.3544 9 26.4959Z" fill="#D9D9D9"/>
</mask>
<g mask="url(#mask1_2269_1853)">
<path d="M16.7595 50.7766C25.1908 48.8469 27.7624 46.259 28.0359 41.1194V30.3813H19.7383L15.5125 31.0856C14.5711 31.2425 13.8811 32.0571 13.8811 33.0115V48.4316C13.8811 49.9588 15.2708 51.1173 16.7595 50.7766Z" fill="#8D9CF7"/>
<g filter="url(#filter1_d_2269_1853)">
<path d="M9.00018 26.496V10.7201C9.00018 9.44706 10.2031 8.51366 11.434 8.83854C19.5784 10.9882 24.1191 12.7981 27.0682 17.7732C27.776 18.9672 28.0359 20.3612 28.0359 21.7493V41.1196C26.395 33.3958 19.5728 31.1685 10.384 28.3632C9.56295 28.1125 9.00018 27.3545 9.00018 26.496Z" fill="url(#paint3_linear_2269_1853)"/>
</g>
</g>
<path d="M11.4434 77.2051C9.87891 77.2051 8.96484 76.25 8.89453 74.9023L8.88867 74.832H10.1836L10.1895 74.8848C10.2422 75.5293 10.6465 76.0332 11.4316 76.0332C12.2988 76.0332 12.7676 75.5117 12.7676 74.5508V68.5449H14.0801V74.5625C14.0801 76.2266 13.1016 77.2051 11.4434 77.2051ZM18.6855 77.123C16.8164 77.123 15.6738 75.875 15.6738 73.8242V73.8125C15.6738 71.7676 16.8223 70.5137 18.6855 70.5137C20.543 70.5137 21.6914 71.7617 21.6914 73.8125V73.8242C21.6914 75.875 20.5488 77.123 18.6855 77.123ZM18.6855 76.0625C19.7754 76.0625 20.3965 75.2305 20.3965 73.8242V73.8125C20.3965 72.4004 19.7754 71.5742 18.6855 71.5742C17.5898 71.5742 16.9746 72.4004 16.9746 73.8125V73.8242C16.9746 75.2363 17.5898 76.0625 18.6855 76.0625ZM25.3301 77.123C23.8945 77.123 23.1504 76.2617 23.1504 74.7559V70.6367H24.4219V74.457C24.4219 75.5117 24.8086 76.0332 25.7402 76.0332C26.7598 76.0332 27.3047 75.3945 27.3047 74.3691V70.6367H28.5703V77H27.3047V76.0391H27.2051C26.9004 76.7246 26.2559 77.123 25.3301 77.123ZM30.4043 77V70.6367H31.6758V71.5977H31.7695C31.998 70.9238 32.5898 70.5254 33.4395 70.5254C33.6445 70.5254 33.8672 70.5547 33.9961 70.584V71.7559C33.7676 71.709 33.5508 71.6797 33.3105 71.6797C32.3379 71.6797 31.6758 72.2773 31.6758 73.1973V77H30.4043ZM35.3027 77V70.6367H36.5742V71.6035H36.668C36.9785 70.9238 37.5879 70.5137 38.5137 70.5137C39.9375 70.5137 40.7227 71.3633 40.7227 72.8809V77H39.457V73.1797C39.457 72.125 39.0176 71.6035 38.0859 71.6035C37.1543 71.6035 36.5742 72.2422 36.5742 73.2676V77H35.3027ZM44.2441 77.1055C43.0312 77.1055 42.1348 76.3672 42.1348 75.2129V75.2012C42.1348 74.0645 42.9902 73.4023 44.5078 73.3086L46.2305 73.209V72.6465C46.2305 71.9492 45.791 71.5625 44.9297 71.5625C44.2266 71.5625 43.7637 71.8203 43.6113 72.2715L43.6055 72.2949H42.3809L42.3867 72.2539C42.5391 71.2109 43.541 70.5137 44.9883 70.5137C46.5879 70.5137 47.4902 71.3105 47.4902 72.6465V77H46.2305V76.0977H46.1309C45.7559 76.7422 45.0879 77.1055 44.2441 77.1055ZM43.4004 75.1602C43.4004 75.7461 43.8984 76.0918 44.584 76.0918C45.5332 76.0918 46.2305 75.4707 46.2305 74.6504V74.1055L44.6777 74.2051C43.7988 74.2578 43.4004 74.5742 43.4004 75.1484V75.1602ZM49.3418 77V68.1406H50.6133V77H49.3418Z" fill="black"/>
<defs>
<filter id="filter0_d_2269_1853" x="20.9641" y="0.77356" width="39.0356" height="52.3461" filterUnits="userSpaceOnUse" color-interpolation-filters="sRGB">
<feFlood flood-opacity="0" result="BackgroundImageFix"/>
<feColorMatrix in="SourceAlpha" type="matrix" values="0 0 0 0 0 0 0 0 0 0 0 0 0 0 0 0 0 0 127 0" result="hardAlpha"/>
<feOffset dy="2"/>
<feGaussianBlur stdDeviation="5"/>
<feComposite in2="hardAlpha" operator="out"/>
<feColorMatrix type="matrix" values="0 0 0 0 0.742468 0 0 0 0 0.231381 0 0 0 0 0.214345 0 0 0 1 0"/>
<feBlend mode="normal" in2="BackgroundImageFix" result="effect1_dropShadow_2269_1853"/>
<feBlend mode="normal" in="SourceGraphic" in2="effect1_dropShadow_2269_1853" result="shape"/>
</filter>
<filter id="filter1_d_2269_1853" x="-0.999756" y="0.77356" width="39.0356" height="52.3461" filterUnits="userSpaceOnUse" color-interpolation-filters="sRGB">
<feFlood flood-opacity="0" result="BackgroundImageFix"/>
<feColorMatrix in="SourceAlpha" type="matrix" values="0 0 0 0 0 0 0 0 0 0 0 0 0 0 0 0 0 0 127 0" result="hardAlpha"/>
<feOffset dy="2"/>
<feGaussianBlur stdDeviation="5"/>
<feComposite in2="hardAlpha" operator="out"/>
<feColorMatrix type="matrix" values="0 0 0 0 0.280365 0 0 0 0 0.345776 0 0 0 0 0.742606 0 0 0 1 0"/>
<feBlend mode="normal" in2="BackgroundImageFix" result="effect1_dropShadow_2269_1853"/>
<feBlend mode="normal" in="SourceGraphic" in2="effect1_dropShadow_2269_1853" result="shape"/>
</filter>
<linearGradient id="paint0_linear_2269_1853" x1="30" y1="0" x2="30" y2="60" gradientUnits="userSpaceOnUse">
<stop stop-color="#313131"/>
<stop offset="1" stop-color="#141514"/>
</linearGradient>
<linearGradient id="paint1_linear_2269_1853" x1="55.3689" y1="25.7817" x2="30.476" y2="25.7817" gradientUnits="userSpaceOnUse">
<stop offset="0.218319" stop-color="#FE9395"/>
<stop offset="1" stop-color="#FDDECA"/>
</linearGradient>
<linearGradient id="paint2_linear_2269_1853" x1="55.3689" y1="25.7818" x2="30.476" y2="25.7818" gradientUnits="userSpaceOnUse">
<stop offset="0.218319" stop-color="#FE9395"/>
<stop offset="1" stop-color="#FDDECA"/>
</linearGradient>
<linearGradient id="paint3_linear_2269_1853" x1="9.00018" y1="19.2298" x2="27.5478" y2="19.2298" gradientUnits="userSpaceOnUse">
<stop stop-color="#6D6EA9"/>
<stop offset="1" stop-color="#BE7199"/>
</linearGradient>
</defs>
</svg>
