<svg width="60" height="80" viewBox="0 0 60 80" fill="none" xmlns="http://www.w3.org/2000/svg">
<rect width="60" height="60" rx="13.28" fill="url(#paint0_linear_2269_1837)"/>
<path fill-rule="evenodd" clip-rule="evenodd" d="M25.9999 52.2475L27.252 50.8911C29.0642 48.9279 27.6717 45.7475 24.9999 45.7475C23.3431 45.7475 21.9999 47.0906 21.9999 48.7475V49.2475C21.9999 52.8374 24.9101 55.7475 28.4999 55.7475H28.9999C33.6469 55.4893 36.8871 51.0321 35.6991 46.5322L34.7981 43.1194C47.7456 37.3607 40.3005 22.3414 29.6325 26.9528L28.3202 22.8627C33.3393 17.4463 35.306 13.1144 34.5598 5.79161C34.524 5.44065 34.3643 5.11188 34.1149 4.86243C33.7324 4.47992 33.1773 4.31774 32.6549 4.45806C26.6578 6.0689 23.0661 9.68856 24.5 19.2476C10.6679 26.6507 14.423 45.7018 32.5 43.7476C34.7981 52.9611 30 54.2476 25.9999 52.2475ZM34.2014 41.1936L31.7283 33.4854C35.7617 33.7329 37.8188 37.9992 34.2014 41.1936ZM27.1616 36.9693C27.0539 37.2781 26.7723 37.5 26.4453 37.5C26.1724 37.5 25.9206 37.3463 25.8093 37.097C24.1218 33.3166 25.5543 30.1469 27.4257 28.3723L26.2825 24.9682C17.1161 34.4016 24.558 44.2321 32 42.2476L29.3445 34.3838C28.2796 34.9639 27.5902 35.7401 27.1616 36.9693ZM26.7672 17.9146C25.5087 12.3391 30.6171 8.31778 32.9999 9.7475C34.0124 10.355 31.0102 14.8892 26.7672 17.9146Z" fill="white"/>
<path fill-rule="evenodd" clip-rule="evenodd" d="M25.9999 52.2475L27.252 50.8911C29.0642 48.9279 27.6717 45.7475 24.9999 45.7475C23.3431 45.7475 21.9999 47.0906 21.9999 48.7475V49.2475C21.9999 52.8374 24.9101 55.7475 28.4999 55.7475H28.9999C33.6469 55.4893 36.8871 51.0321 35.6991 46.5322L34.7981 43.1194C47.7456 37.3607 40.3005 22.3414 29.6325 26.9528L28.3202 22.8627C33.3393 17.4463 35.306 13.1144 34.5598 5.79161C34.524 5.44065 34.3643 5.11188 34.1149 4.86243C33.7324 4.47992 33.1773 4.31774 32.6549 4.45806C26.6578 6.0689 23.0661 9.68856 24.5 19.2476C10.6679 26.6507 14.423 45.7018 32.5 43.7476C34.7981 52.9611 30 54.2476 25.9999 52.2475ZM34.2014 41.1936L31.7283 33.4854C35.7617 33.7329 37.8188 37.9992 34.2014 41.1936ZM27.1616 36.9693C27.0539 37.2781 26.7723 37.5 26.4453 37.5C26.1724 37.5 25.9206 37.3463 25.8093 37.097C24.1218 33.3166 25.5543 30.1469 27.4257 28.3723L26.2825 24.9682C17.1161 34.4016 24.558 44.2321 32 42.2476L29.3445 34.3838C28.2796 34.9639 27.5902 35.7401 27.1616 36.9693ZM26.7672 17.9146C25.5087 12.3391 30.6171 8.31778 32.9999 9.7475C34.0124 10.355 31.0102 14.8892 26.7672 17.9146Z" fill="url(#paint1_linear_2269_1837)"/>
<path fill-rule="evenodd" clip-rule="evenodd" d="M34.2066 41.1936L31.7335 33.4854C30.783 33.7509 29.997 34.0311 29.3497 34.3838L32.0052 42.2476L33.5052 41.7476C33.7593 41.5673 33.9929 41.3823 34.2066 41.1936ZM26.2877 24.9682L27.4309 28.3723C27.9411 27.8883 28.484 27.5081 29.0052 27.2476C29.2172 27.1416 29.428 27.0434 29.6377 26.9528L28.3254 22.8627C27.7579 23.4751 27.1513 24.1015 26.5052 24.7476C26.4317 24.8211 26.3592 24.8946 26.2877 24.9682Z" fill="url(#paint2_linear_2269_1837)"/>
<path fill-rule="evenodd" clip-rule="evenodd" d="M25.4998 18.7475C25.1569 18.9076 24.8235 19.0744 24.4999 19.2476C23.066 9.68856 26.6577 6.0689 32.6548 4.45806C33.1772 4.31774 33.7322 4.47992 34.1147 4.86243C34.3642 5.11188 34.5239 5.44065 34.5597 5.79161C34.6908 7.07904 34.7382 8.27403 34.6998 9.39871L32.9998 9.7475C30.6169 8.31778 25.5085 12.3391 26.767 17.9146C26.3555 18.2081 25.9322 18.4874 25.4998 18.7475Z" fill="url(#paint3_linear_2269_1837)"/>
<path d="M34.6674 43.1194L32.3693 43.7476C34.6674 52.9611 29.8693 54.2476 25.8693 52.2475L27.1213 50.8911C28.9335 48.9279 27.541 45.7475 24.8693 45.7475C23.2124 45.7475 21.8693 47.0906 21.8693 48.7475V49.2475C21.8693 52.8374 24.7794 55.7475 28.3693 55.7475H28.8693C33.5162 55.4893 36.7564 51.0321 35.5684 46.5322L34.6674 43.1194Z" fill="url(#paint4_linear_2269_1837)"/>
<path d="M13.9219 77V68.5449H15.4336L18.1289 75.2891H18.2227L20.918 68.5449H22.4297V77H21.2344V70.7949H21.1465L18.6621 77H17.6895L15.2109 70.7949H15.1172V77H13.9219ZM26.5254 77.123C25.0898 77.123 24.3457 76.2617 24.3457 74.7559V70.6367H25.6172V74.457C25.6172 75.5117 26.0039 76.0332 26.9355 76.0332C27.9551 76.0332 28.5 75.3945 28.5 74.3691V70.6367H29.7656V77H28.5V76.0391H28.4004C28.0957 76.7246 27.4512 77.123 26.5254 77.123ZM33.9141 77.123C32.3789 77.123 31.4062 76.4023 31.2832 75.3359V75.3301H32.5547L32.5605 75.3359C32.7188 75.8164 33.1816 76.1387 33.9375 76.1387C34.7227 76.1387 35.2676 75.7812 35.2676 75.2598V75.248C35.2676 74.8496 34.9688 74.5801 34.2305 74.4102L33.2168 74.1758C32.0156 73.9004 31.459 73.3555 31.459 72.4238V72.418C31.459 71.3105 32.4902 70.5137 33.9316 70.5137C35.3848 70.5137 36.3164 71.2402 36.4277 72.2773V72.2832H35.2148V72.2715C35.0918 71.8262 34.6406 71.4922 33.9258 71.4922C33.2285 71.4922 32.7246 71.8379 32.7246 72.3477V72.3594C32.7246 72.7578 33.0176 73.0039 33.7324 73.1738L34.7402 73.4023C35.9648 73.6895 36.5508 74.2109 36.5508 75.1309V75.1426C36.5508 76.3203 35.4258 77.123 33.9141 77.123ZM38.7305 69.5C38.291 69.5 37.9336 69.1426 37.9336 68.709C37.9336 68.2695 38.291 67.9121 38.7305 67.9121C39.1641 67.9121 39.5273 68.2695 39.5273 68.709C39.5273 69.1426 39.1641 69.5 38.7305 69.5ZM38.0918 77V70.6367H39.3574V77H38.0918ZM43.8867 77.123C42.0293 77.123 40.8926 75.8574 40.8926 73.8008V73.7891C40.8926 71.7734 42.0234 70.5137 43.8809 70.5137C45.4805 70.5137 46.4355 71.416 46.6113 72.6523V72.6816L45.3926 72.6875L45.3867 72.6699C45.2461 72.043 44.7305 71.5742 43.8867 71.5742C42.8262 71.5742 42.1875 72.418 42.1875 73.7891V73.8008C42.1875 75.207 42.8379 76.0625 43.8867 76.0625C44.6836 76.0625 45.1758 75.6992 45.3809 75.0137L45.3926 74.9844H46.6113L46.5996 75.0371C46.3711 76.2734 45.4629 77.123 43.8867 77.123Z" fill="black"/>
<defs>
<linearGradient id="paint0_linear_2269_1837" x1="30" y1="0" x2="30" y2="60" gradientUnits="userSpaceOnUse">
<stop stop-color="#313131"/>
<stop offset="1" stop-color="#141514"/>
</linearGradient>
<linearGradient id="paint1_linear_2269_1837" x1="28.8986" y1="4.24756" x2="28.8986" y2="55.7475" gradientUnits="userSpaceOnUse">
<stop stop-color="#FB5875"/>
<stop offset="1" stop-color="#FA263D"/>
</linearGradient>
<linearGradient id="paint2_linear_2269_1837" x1="24.9999" y1="10.7476" x2="36" y2="53" gradientUnits="userSpaceOnUse">
<stop stop-color="#FB536F"/>
<stop offset="0.17523" stop-color="#DE4552"/>
<stop offset="0.268819" stop-color="#D2364E"/>
<stop offset="0.512521" stop-color="#C9262E"/>
<stop offset="0.759206" stop-color="#D2293D"/>
<stop offset="0.847121" stop-color="#FB3851"/>
</linearGradient>
<linearGradient id="paint3_linear_2269_1837" x1="24.9999" y1="10.7476" x2="36" y2="53" gradientUnits="userSpaceOnUse">
<stop stop-color="#FB536F"/>
<stop offset="0.17523" stop-color="#DE4552"/>
<stop offset="0.268819" stop-color="#D2364E"/>
<stop offset="0.512521" stop-color="#C9262E"/>
<stop offset="0.759206" stop-color="#D2293D"/>
<stop offset="0.847121" stop-color="#FB3851"/>
</linearGradient>
<linearGradient id="paint4_linear_2269_1837" x1="24.9999" y1="10.7476" x2="36" y2="53" gradientUnits="userSpaceOnUse">
<stop stop-color="#FB536F"/>
<stop offset="0.17523" stop-color="#DE4552"/>
<stop offset="0.268819" stop-color="#D2364E"/>
<stop offset="0.512521" stop-color="#C9262E"/>
<stop offset="0.759206" stop-color="#D2293D"/>
<stop offset="0.847121" stop-color="#FB3851"/>
</linearGradient>
</defs>
</svg>
