<svg width="71" height="80" viewBox="0 0 71 80" fill="none" xmlns="http://www.w3.org/2000/svg">
<g clip-path="url(#clip0_2269_1876)">
<rect width="60" height="60" transform="translate(1)" fill="url(#paint0_linear_2269_1876)"/>
<path fill-rule="evenodd" clip-rule="evenodd" d="M23.1299 13.3846H37.2537C36.4773 10.2055 33.6101 7.84615 30.1918 7.84615C26.7735 7.84615 23.9063 10.2055 23.1299 13.3846ZM21.2405 13.3846H17.846C15.9073 13.3846 14.938 13.3846 14.1975 13.7619C13.5462 14.0938 13.0166 14.6233 12.6848 15.2747C12.3075 16.0151 12.3075 16.9844 12.3075 18.9231V42.9231C12.3075 44.8617 12.3075 45.8311 12.6848 46.5715C13.0166 47.2229 13.5462 47.7524 14.1975 48.0843C14.938 48.4616 15.9073 48.4616 17.846 48.4616H42.769C44.7077 48.4616 45.677 48.4616 46.4175 48.0843C47.0688 47.7524 47.5983 47.2229 47.9302 46.5715C48.3075 45.8311 48.3075 44.8617 48.3075 42.9231V18.9231C48.3075 16.9844 48.3075 16.0151 47.9302 15.2747C47.5983 14.6233 47.0688 14.0938 46.4175 13.7619C45.677 13.3846 44.7077 13.3846 42.769 13.3846H39.1431C38.3345 9.17802 34.6343 6 30.1918 6C25.7493 6 22.0491 9.17802 21.2405 13.3846Z" fill="url(#paint1_linear_2269_1876)"/>
<mask id="mask0_2269_1876" style="mask-type:alpha" maskUnits="userSpaceOnUse" x="23" y="21" width="15" height="18">
<path fill-rule="evenodd" clip-rule="evenodd" d="M33.3072 21.2817C32.583 21.4273 31.9438 21.7572 31.4092 22.2613C30.6294 22.9965 30.1944 23.9783 30.1944 25.0034V25.2376L30.4912 25.2212C31.6514 25.1569 32.7006 24.408 33.265 23.2414C33.5299 22.6936 33.6347 22.2721 33.6601 21.6524C33.6803 21.1567 33.7202 21.1986 33.3072 21.2817ZM32.786 25.4772C32.4308 25.5436 32.0801 25.6512 31.5409 25.8591C30.5543 26.2396 30.414 26.2741 30.0886 26.2174C29.98 26.1984 29.6238 26.0808 29.2971 25.956C28.2391 25.5518 27.8965 25.4718 27.3504 25.5013C26.0404 25.5721 24.8296 26.2667 24.1063 27.3624C23.7934 27.8364 23.5277 28.4331 23.3892 28.973C23.15 29.9052 23.1244 31.0726 23.3184 32.2091C23.5283 33.439 23.99 34.7348 24.6007 35.8075C25.1079 36.6986 26.0228 37.843 26.5169 38.2043C26.9524 38.5227 27.2427 38.6226 27.7187 38.6178C28.1523 38.6134 28.3419 38.5651 28.9962 38.2928C29.5848 38.0479 29.8185 37.9804 30.2193 37.9395C30.8058 37.8797 31.2911 37.9691 32.0042 38.2683C32.6388 38.5345 32.9234 38.6074 33.3305 38.6078C33.9448 38.6085 34.6122 38.2553 35.1478 37.6462C35.7719 36.9363 36.5553 35.6684 36.9205 34.7772C37.0376 34.4912 37.2067 34.0175 37.1952 34.0075C37.1908 34.0037 37.1156 33.9648 37.028 33.921C35.7435 33.2789 34.9034 31.9231 34.906 30.4966C34.9074 29.7004 35.124 28.9912 35.575 28.3055C35.77 28.0093 36.2105 27.5454 36.4912 27.3408C36.6033 27.2592 36.7068 27.1822 36.7212 27.1698C36.7565 27.1395 36.5412 26.8578 36.2907 26.6066C35.7754 26.0897 35.148 25.7376 34.393 25.5416C34.0966 25.4647 34.0028 25.454 33.5388 25.4446C33.1604 25.4368 32.9542 25.4458 32.786 25.4772Z" fill="white"/>
</mask>
<g mask="url(#mask0_2269_1876)">
<path fill-rule="evenodd" clip-rule="evenodd" d="M33.3072 21.2817C32.583 21.4273 31.9438 21.7572 31.4092 22.2613C30.6294 22.9965 30.1944 23.9783 30.1944 25.0034V25.2376L30.4912 25.2212C31.6514 25.1569 32.7006 24.408 33.265 23.2414C33.5299 22.6936 33.6347 22.2721 33.6601 21.6524C33.6803 21.1567 33.7202 21.1986 33.3072 21.2817ZM32.786 25.4772C32.4308 25.5436 32.0801 25.6512 31.5409 25.8591C30.5543 26.2396 30.414 26.2741 30.0886 26.2174C29.98 26.1984 29.6238 26.0808 29.2971 25.956C28.2391 25.5518 27.8965 25.4718 27.3504 25.5013C26.0404 25.5721 24.8296 26.2667 24.1063 27.3624C23.7934 27.8364 23.5277 28.4331 23.3892 28.973C23.15 29.9052 23.1244 31.0726 23.3184 32.2091C23.5283 33.439 23.99 34.7348 24.6007 35.8075C25.1079 36.6986 26.0228 37.843 26.5169 38.2043C26.9524 38.5227 27.2427 38.6226 27.7187 38.6178C28.1523 38.6134 28.3419 38.5651 28.9962 38.2928C29.5848 38.0479 29.8185 37.9804 30.2193 37.9395C30.8058 37.8797 31.2911 37.9691 32.0042 38.2683C32.6388 38.5345 32.9234 38.6074 33.3305 38.6078C33.9448 38.6085 34.6122 38.2553 35.1478 37.6462C35.7719 36.9363 36.5553 35.6684 36.9205 34.7772C37.0376 34.4912 37.2067 34.0175 37.1952 34.0075C37.1908 34.0037 37.1156 33.9648 37.028 33.921C35.7435 33.2789 34.9034 31.9231 34.906 30.4966C34.9074 29.7004 35.124 28.9912 35.575 28.3055C35.77 28.0093 36.2105 27.5454 36.4912 27.3408C36.6033 27.2592 36.7068 27.1822 36.7212 27.1698C36.7565 27.1395 36.5412 26.8578 36.2907 26.6066C35.7754 26.0897 35.148 25.7376 34.393 25.5416C34.0966 25.4647 34.0028 25.454 33.5388 25.4446C33.1604 25.4368 32.9542 25.4458 32.786 25.4772Z" fill="white"/>
</g>
</g>
<path d="M0.917969 77L3.9707 68.5449H5.38867L8.44141 77H7.05859L6.29688 74.7148H3.0625L2.29492 77H0.917969ZM4.62695 70.0273L3.41406 73.6602H5.94531L4.72656 70.0273H4.62695ZM9.76562 79.1211V70.6367H11.0371V71.6387H11.1309C11.5 70.9414 12.1973 70.5254 13.0879 70.5254C14.6934 70.5254 15.7246 71.8086 15.7246 73.8125V73.8242C15.7246 75.8398 14.7051 77.1055 13.0879 77.1055C12.2148 77.1055 11.4707 76.6777 11.1309 75.9922H11.0371V79.1211H9.76562ZM12.7305 76.0215C13.791 76.0215 14.4297 75.1895 14.4297 73.8242V73.8125C14.4297 72.4414 13.791 71.6152 12.7305 71.6152C11.6699 71.6152 11.0137 72.4531 11.0137 73.8125V73.8242C11.0137 75.1836 11.6699 76.0215 12.7305 76.0215ZM17.2539 79.1211V70.6367H18.5254V71.6387H18.6191C18.9883 70.9414 19.6855 70.5254 20.5762 70.5254C22.1816 70.5254 23.2129 71.8086 23.2129 73.8125V73.8242C23.2129 75.8398 22.1934 77.1055 20.5762 77.1055C19.7031 77.1055 18.959 76.6777 18.6191 75.9922H18.5254V79.1211H17.2539ZM20.2188 76.0215C21.2793 76.0215 21.918 75.1895 21.918 73.8242V73.8125C21.918 72.4414 21.2793 71.6152 20.2188 71.6152C19.1582 71.6152 18.502 72.4531 18.502 73.8125V73.8242C18.502 75.1836 19.1582 76.0215 20.2188 76.0215ZM24.8008 77V68.1406H26.0723V77H24.8008ZM30.6367 77.123C28.7734 77.123 27.6484 75.8516 27.6484 73.8359V73.8301C27.6484 71.8438 28.7969 70.5137 30.5723 70.5137C32.3477 70.5137 33.4375 71.7969 33.4375 73.707V74.1523H28.9258C28.9492 75.3711 29.6172 76.0801 30.666 76.0801C31.4805 76.0801 31.9668 75.6758 32.1191 75.3477L32.1426 75.3008L33.3672 75.2949L33.3555 75.3477C33.1445 76.1855 32.2656 77.123 30.6367 77.123ZM30.5781 71.5566C29.7109 71.5566 29.0547 72.1484 28.9434 73.2441H32.1777C32.0781 72.1074 31.4395 71.5566 30.5781 71.5566ZM41.2363 77.2051C39.3262 77.2051 38.1016 76.2383 37.9844 74.8145L37.9785 74.7383H39.2676L39.2734 74.8027C39.3438 75.5703 40.1582 76.0625 41.2891 76.0625C42.3672 76.0625 43.1348 75.5234 43.1348 74.7383V74.7324C43.1348 74.082 42.6777 73.6602 41.5586 73.4199L40.6328 73.2207C38.916 72.8574 38.1777 72.0605 38.1777 70.8125V70.8066C38.1836 69.3477 39.4492 68.3398 41.2422 68.3398C43.0352 68.3398 44.207 69.3535 44.3008 70.666L44.3066 70.748H43.0352L43.0234 70.6719C42.9121 69.9805 42.25 69.4766 41.2246 69.4824C40.2344 69.4824 39.502 69.9453 39.502 70.7422V70.748C39.502 71.375 39.9473 71.7852 41.043 72.0195L41.9629 72.2246C43.7383 72.6055 44.4648 73.3203 44.4648 74.5742V74.5801C44.4648 76.1973 43.2051 77.2051 41.2363 77.2051ZM48.4492 77.041C47.0488 77.041 46.4746 76.5488 46.4746 75.3242V71.6387H45.4785V70.6367H46.4746V69.0312H47.7695V70.6367H49.1348V71.6387H47.7695V75.0195C47.7695 75.7051 48.0273 75.9863 48.6543 75.9863C48.8477 75.9863 48.959 75.9805 49.1348 75.9629V76.9766C48.9297 77.0117 48.6953 77.041 48.4492 77.041ZM53.2422 77.123C51.373 77.123 50.2305 75.875 50.2305 73.8242V73.8125C50.2305 71.7676 51.3789 70.5137 53.2422 70.5137C55.0996 70.5137 56.248 71.7617 56.248 73.8125V73.8242C56.248 75.875 55.1055 77.123 53.2422 77.123ZM53.2422 76.0625C54.332 76.0625 54.9531 75.2305 54.9531 73.8242V73.8125C54.9531 72.4004 54.332 71.5742 53.2422 71.5742C52.1465 71.5742 51.5312 72.4004 51.5312 73.8125V73.8242C51.5312 75.2363 52.1465 76.0625 53.2422 76.0625ZM57.7656 77V70.6367H59.0371V71.5977H59.1309C59.3594 70.9238 59.9512 70.5254 60.8008 70.5254C61.0059 70.5254 61.2285 70.5547 61.3574 70.584V71.7559C61.1289 71.709 60.9121 71.6797 60.6719 71.6797C59.6992 71.6797 59.0371 72.2773 59.0371 73.1973V77H57.7656ZM63.3848 77.0879C62.8984 77.0879 62.5234 76.7129 62.5234 76.2383C62.5234 75.7578 62.8984 75.3828 63.3848 75.3828C63.8711 75.3828 64.2402 75.7578 64.2402 76.2383C64.2402 76.7129 63.8711 77.0879 63.3848 77.0879ZM66.6426 77.0879C66.1621 77.0879 65.7871 76.7129 65.7871 76.2383C65.7871 75.7578 66.1621 75.3828 66.6426 75.3828C67.1289 75.3828 67.5039 75.7578 67.5039 76.2383C67.5039 76.7129 67.1289 77.0879 66.6426 77.0879ZM69.9004 77.0879C69.4199 77.0879 69.0449 76.7129 69.0449 76.2383C69.0449 75.7578 69.4199 75.3828 69.9004 75.3828C70.3926 75.3828 70.7617 75.7578 70.7617 76.2383C70.7617 76.7129 70.3926 77.0879 69.9004 77.0879Z" fill="black"/>
<defs>
<linearGradient id="paint0_linear_2269_1876" x1="30" y1="0" x2="30" y2="60" gradientUnits="userSpaceOnUse">
<stop stop-color="#313131"/>
<stop offset="1" stop-color="#141514"/>
</linearGradient>
<linearGradient id="paint1_linear_2269_1876" x1="30.3075" y1="6" x2="30.3075" y2="48.4615" gradientUnits="userSpaceOnUse">
<stop stop-color="#7ED6FF"/>
<stop offset="1" stop-color="#2470B7"/>
</linearGradient>
<clipPath id="clip0_2269_1876">
<rect x="1" width="60" height="60" rx="13.28" fill="white"/>
</clipPath>
</defs>
</svg>
