<svg width="60" height="80" viewBox="0 0 60 80" fill="none" xmlns="http://www.w3.org/2000/svg">
<g clip-path="url(#clip0_2269_1874)">
<rect width="60" height="60" rx="13.28" fill="url(#paint0_linear_2269_1874)"/>
<path d="M12.9502 25.415V20.6504C12.9502 17.5791 14.5938 16.002 17.582 16.002H42.4346C45.4229 16.002 47.083 17.5791 47.083 20.6504V25.415H42.8496V23.0244C42.8496 21.4805 41.9863 20.6338 40.3262 20.6338H34.5156C32.8555 20.6338 31.9922 21.4805 31.9922 23.0244V25.415H28.2236V23.0244C28.2236 21.4805 27.3604 20.6338 25.7998 20.6338H19.6074C18.0303 20.6338 17.167 21.4805 17.167 23.0244V25.415H12.9502ZM8.96582 42.5977V32.7031C8.96582 29.5322 10.7256 27.7891 13.8965 27.7891H46.1035C49.2744 27.7891 51.0342 29.5322 51.0342 32.7031V42.5977C51.0342 43.4609 50.4863 44.0088 49.623 44.0088H48.627C47.7803 44.0088 47.2158 43.4609 47.2158 42.5977V40.1406C47.0332 40.1904 46.4854 40.2236 46.0869 40.2236H13.9131C13.5146 40.2236 12.9668 40.1904 12.7842 40.1406V42.5977C12.7842 43.4609 12.2197 44.0088 11.373 44.0088H10.377C9.51367 44.0088 8.96582 43.4609 8.96582 42.5977Z" fill="url(#paint1_linear_2269_1874)"/>
</g>
<path d="M17.6719 77.2051C15.7617 77.2051 14.5371 76.2383 14.4199 74.8145L14.4141 74.7383H15.7031L15.709 74.8027C15.7793 75.5703 16.5938 76.0625 17.7246 76.0625C18.8027 76.0625 19.5703 75.5234 19.5703 74.7383V74.7324C19.5703 74.082 19.1133 73.6602 17.9941 73.4199L17.0684 73.2207C15.3516 72.8574 14.6133 72.0605 14.6133 70.8125V70.8066C14.6191 69.3477 15.8848 68.3398 17.6777 68.3398C19.4707 68.3398 20.6426 69.3535 20.7363 70.666L20.7422 70.748H19.4707L19.459 70.6719C19.3477 69.9805 18.6855 69.4766 17.6602 69.4824C16.6699 69.4824 15.9375 69.9453 15.9375 70.7422V70.748C15.9375 71.375 16.3828 71.7852 17.4785 72.0195L18.3984 72.2246C20.1738 72.6055 20.9004 73.3203 20.9004 74.5742V74.5801C20.9004 76.1973 19.6406 77.2051 17.6719 77.2051ZM22.541 77V68.1406H23.8125V77H22.541ZM28.377 77.123C26.5137 77.123 25.3887 75.8516 25.3887 73.8359V73.8301C25.3887 71.8438 26.5371 70.5137 28.3125 70.5137C30.0879 70.5137 31.1777 71.7969 31.1777 73.707V74.1523H26.666C26.6895 75.3711 27.3574 76.0801 28.4062 76.0801C29.2207 76.0801 29.707 75.6758 29.8594 75.3477L29.8828 75.3008L31.1074 75.2949L31.0957 75.3477C30.8848 76.1855 30.0059 77.123 28.377 77.123ZM28.3184 71.5566C27.4512 71.5566 26.7949 72.1484 26.6836 73.2441H29.918C29.8184 72.1074 29.1797 71.5566 28.3184 71.5566ZM35.3613 77.123C33.498 77.123 32.373 75.8516 32.373 73.8359V73.8301C32.373 71.8438 33.5215 70.5137 35.2969 70.5137C37.0723 70.5137 38.1621 71.7969 38.1621 73.707V74.1523H33.6504C33.6738 75.3711 34.3418 76.0801 35.3906 76.0801C36.2051 76.0801 36.6914 75.6758 36.8438 75.3477L36.8672 75.3008L38.0918 75.2949L38.0801 75.3477C37.8691 76.1855 36.9902 77.123 35.3613 77.123ZM35.3027 71.5566C34.4355 71.5566 33.7793 72.1484 33.668 73.2441H36.9023C36.8027 72.1074 36.1641 71.5566 35.3027 71.5566ZM39.6738 79.1211V70.6367H40.9453V71.6387H41.0391C41.4082 70.9414 42.1055 70.5254 42.9961 70.5254C44.6016 70.5254 45.6328 71.8086 45.6328 73.8125V73.8242C45.6328 75.8398 44.6133 77.1055 42.9961 77.1055C42.123 77.1055 41.3789 76.6777 41.0391 75.9922H40.9453V79.1211H39.6738ZM42.6387 76.0215C43.6992 76.0215 44.3379 75.1895 44.3379 73.8242V73.8125C44.3379 72.4414 43.6992 71.6152 42.6387 71.6152C41.5781 71.6152 40.9219 72.4531 40.9219 73.8125V73.8242C40.9219 75.1836 41.5781 76.0215 42.6387 76.0215Z" fill="black"/>
<defs>
<linearGradient id="paint0_linear_2269_1874" x1="30" y1="0" x2="30" y2="60" gradientUnits="userSpaceOnUse">
<stop stop-color="#313131"/>
<stop offset="1" stop-color="#141514"/>
</linearGradient>
<linearGradient id="paint1_linear_2269_1874" x1="30" y1="18" x2="30" y2="43" gradientUnits="userSpaceOnUse">
<stop offset="0.34" stop-color="#14CCCC" stop-opacity="0.6"/>
<stop offset="0.35" stop-color="#14CCCC"/>
</linearGradient>
<clipPath id="clip0_2269_1874">
<rect width="60" height="60" rx="13.28" fill="white"/>
</clipPath>
</defs>
</svg>
