<svg width="72" height="80" viewBox="0 0 72 80" fill="none" xmlns="http://www.w3.org/2000/svg">
<g clip-path="url(#clip0_2269_1831)">
<rect x="1" width="60" height="60" rx="13.28" fill="url(#paint0_linear_2269_1831)"/>
<mask id="mask0_2269_1831" style="mask-type:alpha" maskUnits="userSpaceOnUse" x="13" y="12" width="37" height="36">
<path d="M39.4852 47.4366C42.1417 46.1968 42.7857 43.6691 42.8501 40.4008C42.8983 38.2272 42.673 35.6995 43.2043 33.3005C43.7195 30.9821 45.0396 28.7926 45.9413 26.78C47.2938 23.8658 47.7928 21.2898 45.9895 19.0036C44.1381 16.7174 41.5298 16.6369 38.358 17.297C36.2006 17.78 33.7695 18.5206 31.3385 18.5206C28.9072 18.5206 26.4762 17.78 24.3348 17.297C21.147 16.6208 18.5227 16.7174 16.7033 19.0036C14.884 21.2898 15.3831 23.8658 16.7355 26.78C17.6371 28.7926 18.9413 30.9821 19.4726 33.3166C20.0039 35.6995 19.7785 38.2272 19.8268 40.4008C19.8912 43.6691 20.5352 46.1968 23.1917 47.4366C23.9806 47.8229 24.7534 48 25.5101 48C27.265 48 28.9717 47.0662 30.7588 45.6816C32.5299 44.3614 34.4297 42.6064 36.5871 41.5599C38.7929 40.4974 41.2722 40.1592 43.3814 39.628C46.5692 38.8391 48.8715 37.6477 49.5317 34.7979C50.1917 31.9642 48.63 29.8391 46.1184 27.7943C44.3957 26.3774 42.3026 24.9607 40.7732 23.0608C39.2758 21.1771 38.4225 18.8426 37.4243 16.8623C35.943 13.9803 34.2687 12 31.3385 12C28.4243 12 26.7338 13.9803 25.2686 16.8623C24.2704 18.8426 23.401 21.161 21.8876 23.0608C20.3742 24.9768 18.2812 26.3774 16.5745 27.7943C14.0629 29.8391 12.5012 31.9642 13.1452 34.7979C13.8053 37.6477 16.1076 38.8391 19.2633 39.628C21.4207 40.1592 23.884 40.4974 26.0898 41.5599C28.2311 42.6064 30.147 44.3453 31.9019 45.6976C33.689 47.0662 35.3957 48 37.1505 48C37.9233 48 38.6961 47.8229 39.4852 47.4366ZM38.3743 45.1342C36.571 45.9715 35.0576 44.8122 33.5119 43.653C31.58 42.204 29.5029 40.3363 27.2329 39.2415C24.8822 38.1145 22.1935 37.6798 19.8751 37.1162C17.9753 36.6333 16.1237 36.1663 15.6729 34.2183C15.2382 32.2862 16.7033 31.0626 18.1846 29.8068C20.0361 28.2774 22.3062 26.6995 23.9001 24.687C25.5262 22.6905 26.4923 20.1628 27.5871 18.0215C28.4725 16.2666 29.3581 14.5921 31.3385 14.5921C33.3348 14.5921 34.2042 16.2666 35.0897 18.0215C36.1685 20.1628 37.1505 22.6744 38.7606 24.687C40.3706 26.7155 42.6246 28.2774 44.4762 29.8068C45.9895 31.0626 47.4386 32.2862 47.0039 34.2183C46.5531 36.1663 44.7015 36.6333 42.8017 37.1162C40.5961 37.6477 37.7946 38.1145 35.444 39.2415C33.1738 40.3363 31.0325 42.2361 29.1648 43.6691C27.6192 44.8122 26.0898 45.9715 24.3026 45.1342C22.5316 44.2648 22.4672 42.3327 22.4189 40.3847C22.3706 38.0018 22.5638 35.2648 22.0003 32.7209C21.4207 30.2737 20.1005 27.8748 19.0701 25.653C18.2973 23.898 17.4923 22.1592 18.7159 20.6297C19.9717 19.0841 21.8232 19.4383 23.7391 19.8247C26.0737 20.3238 28.7301 21.1127 31.3385 21.1127C33.9466 21.1127 36.6032 20.3238 38.9377 19.8247C40.8537 19.4222 42.7051 19.0841 43.9449 20.6297C45.1846 22.1592 44.3796 23.898 43.6068 25.653C42.5764 27.8748 41.24 30.2737 40.6927 32.7371C40.113 35.2648 40.3062 38.0018 40.258 40.3847C40.2096 42.3327 40.1613 44.2648 38.3743 45.1342Z" fill="white" fill-opacity="0.85"/>
</mask>
<g mask="url(#mask0_2269_1831)">
<g filter="url(#filter0_f_2269_1831)">
<circle cx="51" cy="53" r="27" fill="#DB93FF"/>
</g>
<g filter="url(#filter1_f_2269_1831)">
<circle cx="5" cy="11" r="26" fill="url(#paint1_linear_2269_1831)"/>
</g>
<g filter="url(#filter2_f_2269_1831)">
<circle cx="51.5" cy="5.5" r="25.5" fill="#FF2D55"/>
</g>
<g filter="url(#filter3_f_2269_1831)">
<circle cx="56.5" cy="25.5" r="25.5" fill="#FF607F"/>
</g>
<g filter="url(#filter4_f_2269_1831)">
<circle cx="26" cy="63" r="24" fill="#32ADE6"/>
</g>
</g>
</g>
<path d="M0.337891 77L3.39062 68.5449H4.80859L7.86133 77H6.47852L5.7168 74.7148H2.48242L1.71484 77H0.337891ZM4.04688 70.0273L2.83398 73.6602H5.36523L4.14648 70.0273H4.04688ZM9.18555 79.1211V70.6367H10.457V71.6387H10.5508C10.9199 70.9414 11.6172 70.5254 12.5078 70.5254C14.1133 70.5254 15.1445 71.8086 15.1445 73.8125V73.8242C15.1445 75.8398 14.125 77.1055 12.5078 77.1055C11.6348 77.1055 10.8906 76.6777 10.5508 75.9922H10.457V79.1211H9.18555ZM12.1504 76.0215C13.2109 76.0215 13.8496 75.1895 13.8496 73.8242V73.8125C13.8496 72.4414 13.2109 71.6152 12.1504 71.6152C11.0898 71.6152 10.4336 72.4531 10.4336 73.8125V73.8242C10.4336 75.1836 11.0898 76.0215 12.1504 76.0215ZM16.6738 79.1211V70.6367H17.9453V71.6387H18.0391C18.4082 70.9414 19.1055 70.5254 19.9961 70.5254C21.6016 70.5254 22.6328 71.8086 22.6328 73.8125V73.8242C22.6328 75.8398 21.6133 77.1055 19.9961 77.1055C19.123 77.1055 18.3789 76.6777 18.0391 75.9922H17.9453V79.1211H16.6738ZM19.6387 76.0215C20.6992 76.0215 21.3379 75.1895 21.3379 73.8242V73.8125C21.3379 72.4414 20.6992 71.6152 19.6387 71.6152C18.5781 71.6152 17.9219 72.4531 17.9219 73.8125V73.8242C17.9219 75.1836 18.5781 76.0215 19.6387 76.0215ZM24.2207 77V68.1406H25.4922V77H24.2207ZM30.0566 77.123C28.1934 77.123 27.0684 75.8516 27.0684 73.8359V73.8301C27.0684 71.8438 28.2168 70.5137 29.9922 70.5137C31.7676 70.5137 32.8574 71.7969 32.8574 73.707V74.1523H28.3457C28.3691 75.3711 29.0371 76.0801 30.0859 76.0801C30.9004 76.0801 31.3867 75.6758 31.5391 75.3477L31.5625 75.3008L32.7871 75.2949L32.7754 75.3477C32.5645 76.1855 31.6855 77.123 30.0566 77.123ZM29.998 71.5566C29.1309 71.5566 28.4746 72.1484 28.3633 73.2441H31.5977C31.498 72.1074 30.8594 71.5566 29.998 71.5566ZM37.7969 77V68.5449H39.1094V77H37.7969ZM41.084 77V70.6367H42.3555V71.6035H42.4492C42.7598 70.9238 43.3691 70.5137 44.2949 70.5137C45.7188 70.5137 46.5039 71.3633 46.5039 72.8809V77H45.2383V73.1797C45.2383 72.125 44.7988 71.6035 43.8672 71.6035C42.9355 71.6035 42.3555 72.2422 42.3555 73.2676V77H41.084ZM50.6816 77.041C49.2812 77.041 48.707 76.5488 48.707 75.3242V71.6387H47.7109V70.6367H48.707V69.0312H50.002V70.6367H51.3672V71.6387H50.002V75.0195C50.002 75.7051 50.2598 75.9863 50.8867 75.9863C51.0801 75.9863 51.1914 75.9805 51.3672 75.9629V76.9766C51.1621 77.0117 50.9277 77.041 50.6816 77.041ZM55.4512 77.123C53.5879 77.123 52.4629 75.8516 52.4629 73.8359V73.8301C52.4629 71.8438 53.6113 70.5137 55.3867 70.5137C57.1621 70.5137 58.252 71.7969 58.252 73.707V74.1523H53.7402C53.7637 75.3711 54.4316 76.0801 55.4805 76.0801C56.2949 76.0801 56.7812 75.6758 56.9336 75.3477L56.957 75.3008L58.1816 75.2949L58.1699 75.3477C57.959 76.1855 57.0801 77.123 55.4512 77.123ZM55.3926 71.5566C54.5254 71.5566 53.8691 72.1484 53.7578 73.2441H56.9922C56.8926 72.1074 56.2539 71.5566 55.3926 71.5566ZM59.8223 77V68.1406H61.0938V77H59.8223ZM63.9648 77.0879C63.4785 77.0879 63.1035 76.7129 63.1035 76.2383C63.1035 75.7578 63.4785 75.3828 63.9648 75.3828C64.4512 75.3828 64.8203 75.7578 64.8203 76.2383C64.8203 76.7129 64.4512 77.0879 63.9648 77.0879ZM67.2227 77.0879C66.7422 77.0879 66.3672 76.7129 66.3672 76.2383C66.3672 75.7578 66.7422 75.3828 67.2227 75.3828C67.709 75.3828 68.084 75.7578 68.084 76.2383C68.084 76.7129 67.709 77.0879 67.2227 77.0879ZM70.4805 77.0879C70 77.0879 69.625 76.7129 69.625 76.2383C69.625 75.7578 70 75.3828 70.4805 75.3828C70.9727 75.3828 71.3418 75.7578 71.3418 76.2383C71.3418 76.7129 70.9727 77.0879 70.4805 77.0879Z" fill="black"/>
<defs>
<filter id="filter0_f_2269_1831" x="9" y="11" width="84" height="84" filterUnits="userSpaceOnUse" color-interpolation-filters="sRGB">
<feFlood flood-opacity="0" result="BackgroundImageFix"/>
<feBlend mode="normal" in="SourceGraphic" in2="BackgroundImageFix" result="shape"/>
<feGaussianBlur stdDeviation="7.5" result="effect1_foregroundBlur_2269_1831"/>
</filter>
<filter id="filter1_f_2269_1831" x="-38.7273" y="-32.7273" width="87.4545" height="87.4545" filterUnits="userSpaceOnUse" color-interpolation-filters="sRGB">
<feFlood flood-opacity="0" result="BackgroundImageFix"/>
<feBlend mode="normal" in="SourceGraphic" in2="BackgroundImageFix" result="shape"/>
<feGaussianBlur stdDeviation="8.86364" result="effect1_foregroundBlur_2269_1831"/>
</filter>
<filter id="filter2_f_2269_1831" x="4.14286" y="-41.8571" width="94.7143" height="94.7143" filterUnits="userSpaceOnUse" color-interpolation-filters="sRGB">
<feFlood flood-opacity="0" result="BackgroundImageFix"/>
<feBlend mode="normal" in="SourceGraphic" in2="BackgroundImageFix" result="shape"/>
<feGaussianBlur stdDeviation="10.9286" result="effect1_foregroundBlur_2269_1831"/>
</filter>
<filter id="filter3_f_2269_1831" x="11.3846" y="-19.6154" width="90.2308" height="90.2308" filterUnits="userSpaceOnUse" color-interpolation-filters="sRGB">
<feFlood flood-opacity="0" result="BackgroundImageFix"/>
<feBlend mode="normal" in="SourceGraphic" in2="BackgroundImageFix" result="shape"/>
<feGaussianBlur stdDeviation="9.80769" result="effect1_foregroundBlur_2269_1831"/>
</filter>
<filter id="filter4_f_2269_1831" x="-13" y="24" width="78" height="78" filterUnits="userSpaceOnUse" color-interpolation-filters="sRGB">
<feFlood flood-opacity="0" result="BackgroundImageFix"/>
<feBlend mode="normal" in="SourceGraphic" in2="BackgroundImageFix" result="shape"/>
<feGaussianBlur stdDeviation="7.5" result="effect1_foregroundBlur_2269_1831"/>
</filter>
<linearGradient id="paint0_linear_2269_1831" x1="31" y1="0" x2="31" y2="60" gradientUnits="userSpaceOnUse">
<stop stop-color="#313131"/>
<stop offset="1" stop-color="#141514"/>
</linearGradient>
<linearGradient id="paint1_linear_2269_1831" x1="24.5" y1="-3.18181" x2="-4.45454" y2="42.3182" gradientUnits="userSpaceOnUse">
<stop stop-color="#FF9500"/>
<stop offset="1" stop-color="#FFB800"/>
</linearGradient>
<clipPath id="clip0_2269_1831">
<rect x="1" width="60" height="60" rx="13.28" fill="white"/>
</clipPath>
</defs>
</svg>
