<svg width="60" height="80" viewBox="0 0 60 80" fill="none" xmlns="http://www.w3.org/2000/svg">
<g clip-path="url(#clip0_2269_1866)">
<rect width="60" height="60" fill="url(#paint0_linear_2269_1866)"/>
<path opacity="0.6" fill-rule="evenodd" clip-rule="evenodd" d="M30 4C25.9634 4 22.6251 6.98964 22.0784 10.8755C18.9442 8.51424 14.4696 8.76078 11.6152 11.6151C8.7609 14.4694 8.51435 18.944 10.8756 22.0783C6.98968 22.6249 4 25.9632 4 29.9999C4 34.0365 6.98973 37.3749 10.8757 37.9215C8.51438 41.0557 8.76091 45.5304 11.6153 48.3847C14.4696 51.239 18.9442 51.4856 22.0784 49.1244C22.625 53.0103 25.9634 56 30 56C34.0366 56 37.375 53.0103 37.9216 49.1244C41.0558 51.4856 45.5304 51.2391 48.3847 48.3847C51.2391 45.5304 51.4856 41.0557 49.1243 37.9215C53.0102 37.3749 56 34.0365 56 29.9999C56 25.9633 53.0103 22.6249 49.1244 22.0783C51.4856 18.944 51.2391 14.4694 48.3848 11.6151C45.5304 8.76077 41.0558 8.51423 37.9216 10.8755C37.3749 6.98962 34.0366 4 30 4ZM29.2971 31.6971C29.5287 31.6769 29.7631 31.6666 30 31.6666C30.2369 31.6666 30.4713 31.6769 30.7029 31.6971C30.8525 31.519 31.011 31.346 31.1785 31.1785C31.346 31.011 31.519 30.8525 31.6971 30.7029C31.6769 30.4713 31.6666 30.2368 31.6666 29.9999C31.6666 29.763 31.6769 29.5285 31.6971 29.2969C31.519 29.1474 31.346 28.9889 31.1785 28.8214C31.011 28.6539 30.8526 28.4809 30.7031 28.3029C30.4714 28.323 30.2369 28.3333 30 28.3333C29.7631 28.3333 29.5286 28.323 29.2969 28.3029C29.1474 28.4809 28.989 28.6539 28.8215 28.8214C28.654 28.9889 28.4809 29.1474 28.3029 29.2969C28.323 29.5286 28.3333 29.763 28.3333 29.9999C28.3333 30.2368 28.323 30.4712 28.3029 30.7029C28.4809 30.8524 28.654 31.011 28.8215 31.1785C28.989 31.346 29.1475 31.519 29.2971 31.6971Z" fill="white"/>
<path opacity="0.5" fill-rule="evenodd" clip-rule="evenodd" d="M30 4C25.9634 4 22.6251 6.98964 22.0784 10.8755C18.9442 8.51424 14.4696 8.76078 11.6152 11.6151C8.7609 14.4694 8.51435 18.944 10.8756 22.0783C6.98968 22.6249 4 25.9632 4 29.9999C4 34.0365 6.98973 37.3749 10.8757 37.9215C8.51438 41.0557 8.76091 45.5304 11.6153 48.3847C14.4696 51.239 18.9442 51.4856 22.0784 49.1244C22.625 53.0103 25.9634 56 30 56C34.0366 56 37.375 53.0103 37.9216 49.1244C41.0558 51.4856 45.5304 51.2391 48.3847 48.3847C51.2391 45.5304 51.4856 41.0557 49.1243 37.9215C53.0102 37.3749 56 34.0365 56 29.9999C56 25.9633 53.0103 22.6249 49.1244 22.0783C51.4856 18.944 51.2391 14.4694 48.3848 11.6151C45.5304 8.76077 41.0558 8.51423 37.9216 10.8755C37.3749 6.98962 34.0366 4 30 4ZM29.2971 31.6971C29.5287 31.6769 29.7631 31.6666 30 31.6666C30.2369 31.6666 30.4713 31.6769 30.7029 31.6971C30.8525 31.519 31.011 31.346 31.1785 31.1785C31.346 31.011 31.519 30.8525 31.6971 30.7029C31.6769 30.4713 31.6666 30.2368 31.6666 29.9999C31.6666 29.763 31.6769 29.5285 31.6971 29.2969C31.519 29.1474 31.346 28.9889 31.1785 28.8214C31.011 28.6539 30.8526 28.4809 30.7031 28.3029C30.4714 28.323 30.2369 28.3333 30 28.3333C29.7631 28.3333 29.5286 28.323 29.2969 28.3029C29.1474 28.4809 28.989 28.6539 28.8215 28.8214C28.654 28.9889 28.4809 29.1474 28.3029 29.2969C28.323 29.5286 28.3333 29.763 28.3333 29.9999C28.3333 30.2368 28.323 30.4712 28.3029 30.7029C28.4809 30.8524 28.654 31.011 28.8215 31.1785C28.989 31.346 29.1475 31.519 29.2971 31.6971Z" fill="white"/>
<g style="mix-blend-mode:multiply">
<rect x="22" y="4" width="16" height="24.3333" rx="8" fill="url(#paint1_linear_2269_1866)"/>
</g>
<g style="mix-blend-mode:multiply">
<rect x="22" y="31.6667" width="16" height="24.3333" rx="8" fill="url(#paint2_linear_2269_1866)"/>
</g>
<g style="mix-blend-mode:multiply">
<rect x="4" y="38" width="16" height="24.3333" rx="8" transform="rotate(-90 4 38)" fill="url(#paint3_linear_2269_1866)"/>
</g>
<g style="mix-blend-mode:multiply">
<rect x="31.6665" y="38" width="16" height="24.3333" rx="8" transform="rotate(-90 31.6665 38)" fill="url(#paint4_linear_2269_1866)"/>
</g>
<g style="mix-blend-mode:multiply">
<rect x="5.9585" y="17.272" width="16" height="24.3333" rx="8" transform="rotate(-45 5.9585 17.272)" fill="url(#paint5_linear_2269_1866)"/>
</g>
<g style="mix-blend-mode:multiply">
<rect x="25.5215" y="36.8354" width="16" height="24.3333" rx="8" transform="rotate(-45 25.5215 36.8354)" fill="url(#paint6_linear_2269_1866)"/>
</g>
<g style="mix-blend-mode:multiply">
<rect x="42.728" y="5.9585" width="16" height="24.3333" rx="8" transform="rotate(45 42.728 5.9585)" fill="url(#paint7_linear_2269_1866)"/>
</g>
<g style="mix-blend-mode:multiply">
<rect x="23.1646" y="25.5217" width="16" height="24.3333" rx="8" transform="rotate(45 23.1646 25.5217)" fill="url(#paint8_linear_2269_1866)"/>
</g>
<g style="mix-blend-mode:multiply" opacity="0.7">
<path d="M28.1085 28.1085C25.2097 27.4057 22.9279 25.1239 22.2251 22.2251C25.1239 22.9279 27.4057 25.2097 28.1085 28.1085Z" fill="url(#paint9_linear_2269_1866)"/>
</g>
<g style="mix-blend-mode:multiply" opacity="0.7">
<path d="M28.1085 31.8916C27.4057 34.7904 25.1239 37.0722 22.2251 37.775C22.9279 34.8762 25.2097 32.5944 28.1085 31.8916Z" fill="url(#paint10_linear_2269_1866)"/>
</g>
<g style="mix-blend-mode:multiply" opacity="0.7">
<path d="M37.775 22.2251C37.0722 25.1239 34.7904 27.4057 31.8916 28.1085C32.5944 25.2097 34.8762 22.9279 37.775 22.2251Z" fill="url(#paint11_linear_2269_1866)"/>
</g>
<g style="mix-blend-mode:multiply" opacity="0.7">
<path d="M37.775 37.775C34.8762 37.0722 32.5944 34.7904 31.8916 31.8916C34.7904 32.5944 37.0722 34.8762 37.775 37.775Z" fill="url(#paint12_linear_2269_1866)"/>
</g>
<g style="mix-blend-mode:multiply" opacity="0.7">
<path d="M27.3248 30.0001C24.7781 31.5529 21.5511 31.5529 19.0044 30.0001C21.5511 28.4472 24.7781 28.4472 27.3248 30.0001Z" fill="url(#paint13_linear_2269_1866)"/>
</g>
<g style="mix-blend-mode:multiply" opacity="0.7">
<path d="M30.0001 27.3249C28.4472 24.7781 28.4472 21.5511 30.0001 19.0044C31.553 21.5511 31.553 24.7781 30.0001 27.3249Z" fill="url(#paint14_linear_2269_1866)"/>
</g>
<g style="mix-blend-mode:multiply" opacity="0.7">
<path d="M40.9957 30.0001C38.449 31.5529 35.222 31.5529 32.6753 30.0001C35.222 28.4472 38.449 28.4472 40.9957 30.0001Z" fill="url(#paint15_linear_2269_1866)"/>
</g>
<g style="mix-blend-mode:multiply" opacity="0.7">
<path d="M30.0001 32.6753C31.5529 35.222 31.5529 38.449 30.0001 40.9957C28.4472 38.449 28.4472 35.222 30.0001 32.6753Z" fill="url(#paint16_linear_2269_1866)"/>
</g>
</g>
<path d="M10.834 77V68.5449H14.127C15.7852 68.5449 16.9336 69.6582 16.9336 71.3164V71.3281C16.9336 72.9805 15.7852 74.1113 14.127 74.1113H12.1465V77H10.834ZM13.7988 69.6523H12.1465V73.0098H13.7988C14.9355 73.0098 15.5977 72.3945 15.5977 71.334V71.3223C15.5977 70.2676 14.9355 69.6523 13.7988 69.6523ZM18.5391 77V68.1406H19.8105V71.6035H19.9043C20.2148 70.9238 20.8242 70.5137 21.75 70.5137C23.1738 70.5137 23.959 71.3633 23.959 72.8809V77H22.6934V73.1797C22.6934 72.125 22.2539 71.6035 21.3223 71.6035C20.3906 71.6035 19.8105 72.2422 19.8105 73.2676V77H18.5391ZM28.4297 77.123C26.5605 77.123 25.418 75.875 25.418 73.8242V73.8125C25.418 71.7676 26.5664 70.5137 28.4297 70.5137C30.2871 70.5137 31.4355 71.7617 31.4355 73.8125V73.8242C31.4355 75.875 30.293 77.123 28.4297 77.123ZM28.4297 76.0625C29.5195 76.0625 30.1406 75.2305 30.1406 73.8242V73.8125C30.1406 72.4004 29.5195 71.5742 28.4297 71.5742C27.334 71.5742 26.7188 72.4004 26.7188 73.8125V73.8242C26.7188 75.2363 27.334 76.0625 28.4297 76.0625ZM35.3555 77.041C33.9551 77.041 33.3809 76.5488 33.3809 75.3242V71.6387H32.3848V70.6367H33.3809V69.0312H34.6758V70.6367H36.041V71.6387H34.6758V75.0195C34.6758 75.7051 34.9336 75.9863 35.5605 75.9863C35.7539 75.9863 35.8652 75.9805 36.041 75.9629V76.9766C35.8359 77.0117 35.6016 77.041 35.3555 77.041ZM40.1484 77.123C38.2793 77.123 37.1367 75.875 37.1367 73.8242V73.8125C37.1367 71.7676 38.2852 70.5137 40.1484 70.5137C42.0059 70.5137 43.1543 71.7617 43.1543 73.8125V73.8242C43.1543 75.875 42.0117 77.123 40.1484 77.123ZM40.1484 76.0625C41.2383 76.0625 41.8594 75.2305 41.8594 73.8242V73.8125C41.8594 72.4004 41.2383 71.5742 40.1484 71.5742C39.0527 71.5742 38.4375 72.4004 38.4375 73.8125V73.8242C38.4375 75.2363 39.0527 76.0625 40.1484 76.0625ZM46.9863 77.123C45.4512 77.123 44.4785 76.4023 44.3555 75.3359V75.3301H45.627L45.6328 75.3359C45.791 75.8164 46.2539 76.1387 47.0098 76.1387C47.7949 76.1387 48.3398 75.7812 48.3398 75.2598V75.248C48.3398 74.8496 48.041 74.5801 47.3027 74.4102L46.2891 74.1758C45.0879 73.9004 44.5312 73.3555 44.5312 72.4238V72.418C44.5312 71.3105 45.5625 70.5137 47.0039 70.5137C48.457 70.5137 49.3887 71.2402 49.5 72.2773V72.2832H48.2871V72.2715C48.1641 71.8262 47.7129 71.4922 46.998 71.4922C46.3008 71.4922 45.7969 71.8379 45.7969 72.3477V72.3594C45.7969 72.7578 46.0898 73.0039 46.8047 73.1738L47.8125 73.4023C49.0371 73.6895 49.623 74.2109 49.623 75.1309V75.1426C49.623 76.3203 48.498 77.123 46.9863 77.123Z" fill="black"/>
<defs>
<linearGradient id="paint0_linear_2269_1866" x1="30" y1="0" x2="30" y2="60" gradientUnits="userSpaceOnUse">
<stop stop-color="#313131"/>
<stop offset="1" stop-color="#141514"/>
</linearGradient>
<linearGradient id="paint1_linear_2269_1866" x1="30" y1="4" x2="30" y2="28.3333" gradientUnits="userSpaceOnUse">
<stop stop-color="#F69B35"/>
<stop offset="1" stop-color="#FFE51C"/>
</linearGradient>
<linearGradient id="paint2_linear_2269_1866" x1="30" y1="31.6667" x2="30" y2="56.0001" gradientUnits="userSpaceOnUse">
<stop stop-color="#897FBB"/>
<stop offset="1" stop-color="#5DAFE5"/>
</linearGradient>
<linearGradient id="paint3_linear_2269_1866" x1="12" y1="38" x2="12" y2="62.3333" gradientUnits="userSpaceOnUse">
<stop offset="0.0001" stop-color="#CC8BBD"/>
<stop offset="1" stop-color="#EE585F"/>
</linearGradient>
<linearGradient id="paint4_linear_2269_1866" x1="39.6665" y1="38" x2="39.6665" y2="62.3333" gradientUnits="userSpaceOnUse">
<stop stop-color="#67C17F"/>
<stop offset="1" stop-color="#C7D942"/>
</linearGradient>
<linearGradient id="paint5_linear_2269_1866" x1="13.9585" y1="17.272" x2="13.9585" y2="41.6053" gradientUnits="userSpaceOnUse">
<stop stop-color="#F25D69"/>
<stop offset="1" stop-color="#F6933F"/>
</linearGradient>
<linearGradient id="paint6_linear_2269_1866" x1="33.5215" y1="36.8354" x2="33.5215" y2="61.1688" gradientUnits="userSpaceOnUse">
<stop stop-color="#65B8E5"/>
<stop offset="1" stop-color="#68C181"/>
</linearGradient>
<linearGradient id="paint7_linear_2269_1866" x1="50.728" y1="5.9585" x2="50.728" y2="30.2918" gradientUnits="userSpaceOnUse">
<stop stop-color="#FAE417"/>
<stop offset="1" stop-color="#C9DB41"/>
</linearGradient>
<linearGradient id="paint8_linear_2269_1866" x1="31.1646" y1="25.5217" x2="31.1646" y2="49.8551" gradientUnits="userSpaceOnUse">
<stop stop-color="#CC8BBD"/>
<stop offset="1" stop-color="#9A90C4"/>
</linearGradient>
<linearGradient id="paint9_linear_2269_1866" x1="4.00016" y1="30.0001" x2="28.3335" y2="30.0001" gradientUnits="userSpaceOnUse">
<stop offset="0.0001" stop-color="#CC8BBD"/>
<stop offset="1" stop-color="#EE585F"/>
</linearGradient>
<linearGradient id="paint10_linear_2269_1866" x1="4.00016" y1="30" x2="28.3335" y2="30" gradientUnits="userSpaceOnUse">
<stop offset="0.0001" stop-color="#CC8BBD"/>
<stop offset="1" stop-color="#EE585F"/>
</linearGradient>
<linearGradient id="paint11_linear_2269_1866" x1="31.6667" y1="30.0001" x2="56" y2="30.0001" gradientUnits="userSpaceOnUse">
<stop stop-color="#67C17F"/>
<stop offset="1" stop-color="#C7D942"/>
</linearGradient>
<linearGradient id="paint12_linear_2269_1866" x1="31.6667" y1="30" x2="56" y2="30" gradientUnits="userSpaceOnUse">
<stop stop-color="#67C17F"/>
<stop offset="1" stop-color="#C7D942"/>
</linearGradient>
<linearGradient id="paint13_linear_2269_1866" x1="28.8215" y1="31.1786" x2="11.6152" y2="48.3849" gradientUnits="userSpaceOnUse">
<stop stop-color="#CC8BBD"/>
<stop offset="1" stop-color="#9A90C4"/>
</linearGradient>
<linearGradient id="paint14_linear_2269_1866" x1="11.6154" y1="11.6152" x2="28.8216" y2="28.8215" gradientUnits="userSpaceOnUse">
<stop stop-color="#F25D69"/>
<stop offset="1" stop-color="#F6933F"/>
</linearGradient>
<linearGradient id="paint15_linear_2269_1866" x1="48.3849" y1="11.6153" x2="31.1786" y2="28.8216" gradientUnits="userSpaceOnUse">
<stop stop-color="#FAE417"/>
<stop offset="1" stop-color="#C9DB41"/>
</linearGradient>
<linearGradient id="paint16_linear_2269_1866" x1="28.8216" y1="31.1787" x2="11.6153" y2="48.3849" gradientUnits="userSpaceOnUse">
<stop stop-color="#CC8BBD"/>
<stop offset="1" stop-color="#9A90C4"/>
</linearGradient>
<clipPath id="clip0_2269_1866">
<rect width="60" height="60" rx="13.28" fill="white"/>
</clipPath>
</defs>
</svg>
