<svg width="60" height="80" viewBox="0 0 60 80" fill="none" xmlns="http://www.w3.org/2000/svg">
<g clip-path="url(#clip0_2269_1856)">
<rect width="60" height="60" rx="13.28" fill="url(#paint0_linear_2269_1856)"/>
<path fill-rule="evenodd" clip-rule="evenodd" d="M25.0501 33.6598L22.3749 30.9846L10.1214 43.2381C10.1811 43.274 10.2422 43.3079 10.3047 43.3397C10.9464 43.6667 11.7865 43.6667 13.4666 43.6667H46.5333C48.2134 43.6667 49.0535 43.6667 49.6953 43.3397C49.7576 43.3079 49.8187 43.2741 49.8784 43.2382L37.6249 30.9846L34.9497 33.6598C34.1052 34.5043 33.0987 35.0879 32.0302 35.4106C31.3692 35.6103 30.6845 35.7101 29.9998 35.7101C28.2084 35.7101 26.4169 35.0267 25.0501 33.6598ZM50.9047 42.2121C50.9406 42.1523 50.9745 42.0911 51.0063 42.0287C51.3333 41.3869 51.3333 40.5469 51.3333 38.8667V21.1334C51.3333 19.4532 51.3333 18.6131 51.0063 17.9714C50.9653 17.8909 50.9208 17.8125 50.873 17.7365L38.6511 29.9584L50.9047 42.2121ZM49.9301 16.7937L34.0068 32.717C33.1769 33.5469 32.1537 34.0656 31.0821 34.273C30.3492 34.4149 29.5936 34.4112 28.8618 34.2619C27.8105 34.0475 26.8084 33.5325 25.993 32.717L10.0697 16.7937C10.1457 16.7459 10.2241 16.7014 10.3047 16.6604C10.9464 16.3334 11.7865 16.3334 13.4666 16.3334H46.5333C48.2134 16.3334 49.0535 16.3334 49.6953 16.6604C49.7758 16.7014 49.8541 16.7459 49.9301 16.7937ZM9.12687 17.7366C9.07909 17.8126 9.03461 17.8909 8.99361 17.9714C8.66663 18.6131 8.66663 19.4532 8.66663 21.1334V38.8667C8.66663 40.5469 8.66663 41.3869 8.99361 42.0287C9.02541 42.0911 9.0593 42.1522 9.0952 42.2119L21.3487 29.9584L9.12687 17.7366Z" fill="url(#paint1_linear_2269_1856)"/>
</g>
<path d="M19.1719 77V68.5449H20.6836L23.3789 75.2891H23.4727L26.168 68.5449H27.6797V77H26.4844V70.7949H26.3965L23.9121 77H22.9395L20.4609 70.7949H20.3672V77H19.1719ZM31.4004 77.1055C30.1875 77.1055 29.291 76.3672 29.291 75.2129V75.2012C29.291 74.0645 30.1465 73.4023 31.6641 73.3086L33.3867 73.209V72.6465C33.3867 71.9492 32.9473 71.5625 32.0859 71.5625C31.3828 71.5625 30.9199 71.8203 30.7676 72.2715L30.7617 72.2949H29.5371L29.543 72.2539C29.6953 71.2109 30.6973 70.5137 32.1445 70.5137C33.7441 70.5137 34.6465 71.3105 34.6465 72.6465V77H33.3867V76.0977H33.2871C32.9121 76.7422 32.2441 77.1055 31.4004 77.1055ZM30.5566 75.1602C30.5566 75.7461 31.0547 76.0918 31.7402 76.0918C32.6895 76.0918 33.3867 75.4707 33.3867 74.6504V74.1055L31.834 74.2051C30.9551 74.2578 30.5566 74.5742 30.5566 75.1484V75.1602ZM37.1016 69.5C36.6621 69.5 36.3047 69.1426 36.3047 68.709C36.3047 68.2695 36.6621 67.9121 37.1016 67.9121C37.5352 67.9121 37.8984 68.2695 37.8984 68.709C37.8984 69.1426 37.5352 69.5 37.1016 69.5ZM36.4629 77V70.6367H37.7285V77H36.4629ZM39.6387 77V68.1406H40.9102V77H39.6387Z" fill="black"/>
<defs>
<linearGradient id="paint0_linear_2269_1856" x1="30" y1="0" x2="30" y2="60" gradientUnits="userSpaceOnUse">
<stop stop-color="#313131"/>
<stop offset="1" stop-color="#141514"/>
</linearGradient>
<linearGradient id="paint1_linear_2269_1856" x1="30" y1="16.3334" x2="30" y2="43.6667" gradientUnits="userSpaceOnUse">
<stop stop-color="#1A6AE7"/>
<stop offset="1" stop-color="#20C2F4"/>
</linearGradient>
<clipPath id="clip0_2269_1856">
<rect width="60" height="60" rx="13.28" fill="white"/>
</clipPath>
</defs>
</svg>
