<svg width="60" height="80" viewBox="0 0 60 80" fill="none" xmlns="http://www.w3.org/2000/svg">
<rect width="60" height="60" rx="13.28" fill="url(#paint0_linear_2269_1867)"/>
<path fill-rule="evenodd" clip-rule="evenodd" d="M7.5 29C7.5 38.7394 13.6881 47.0335 22.3471 50.165L22.1155 47.3858C14.9902 44.3263 10 37.2459 10 29C10 17.9543 18.9543 9 30 9C41.0457 9 50 17.9543 50 29C50 37.2459 45.0098 44.3263 37.8845 47.3858L37.6529 50.165C46.3119 47.0335 52.5 38.7394 52.5 29C52.5 16.5736 42.4264 6.5 30 6.5C17.5736 6.5 7.5 16.5736 7.5 29ZM46.5 29C46.5 35.1179 43.1704 40.4581 38.2244 43.3074L38.4889 40.1337C41.8387 37.5757 44 33.5403 44 29C44 21.268 37.732 15 30 15C22.268 15 16 21.268 16 29C16 33.5403 18.1613 37.5757 21.5111 40.1337L21.7756 43.3074C16.8296 40.4581 13.5 35.1179 13.5 29C13.5 19.8873 20.8873 12.5 30 12.5C39.1127 12.5 46.5 19.8873 46.5 29ZM35 24C35 26.7614 32.7614 29 30 29C27.2386 29 25 26.7614 25 24C25 21.2386 27.2386 19 30 19C32.7614 19 35 21.2386 35 24ZM25.7878 49.6199L24.2637 36.1182C24.1027 34.6917 24.7789 33.3003 26 32.5455C28.4405 30.9924 31.5595 30.9924 34 32.5455C35.2211 33.3003 35.8973 34.6917 35.7363 36.1182L34.2122 49.6199C34.082 50.7736 33.3155 51.7567 32.2285 52.1643L31.6189 52.3929C30.5751 52.7843 29.4249 52.7843 28.3811 52.3929L27.7715 52.1643C26.6845 51.7567 25.918 50.7736 25.7878 49.6199Z" fill="url(#paint1_linear_2269_1867)"/>
<path d="M4.37695 77V68.5449H7.66992C9.32812 68.5449 10.4766 69.6582 10.4766 71.3164V71.3281C10.4766 72.9805 9.32812 74.1113 7.66992 74.1113H5.68945V77H4.37695ZM7.3418 69.6523H5.68945V73.0098H7.3418C8.47852 73.0098 9.14062 72.3945 9.14062 71.334V71.3223C9.14062 70.2676 8.47852 69.6523 7.3418 69.6523ZM14.543 77.123C12.6738 77.123 11.5312 75.875 11.5312 73.8242V73.8125C11.5312 71.7676 12.6797 70.5137 14.543 70.5137C16.4004 70.5137 17.5488 71.7617 17.5488 73.8125V73.8242C17.5488 75.875 16.4062 77.123 14.543 77.123ZM14.543 76.0625C15.6328 76.0625 16.2539 75.2305 16.2539 73.8242V73.8125C16.2539 72.4004 15.6328 71.5742 14.543 71.5742C13.4473 71.5742 12.832 72.4004 12.832 73.8125V73.8242C12.832 75.2363 13.4473 76.0625 14.543 76.0625ZM21.3867 77.1055C19.7871 77.1055 18.75 75.8223 18.75 73.8242V73.8125C18.75 71.7969 19.7695 70.5254 21.3867 70.5254C22.2598 70.5254 23.0039 70.959 23.3438 71.6445H23.4434V68.1406H24.709V77H23.4434V75.998H23.3438C22.9746 76.6953 22.2773 77.1055 21.3867 77.1055ZM21.75 76.0215C22.8105 76.0215 23.4609 75.1836 23.4609 73.8242V73.8125C23.4609 72.4531 22.8047 71.6152 21.75 71.6152C20.6836 71.6152 20.0449 72.4473 20.0449 73.8125V73.8242C20.0449 75.1895 20.6836 76.0215 21.75 76.0215ZM29.2793 77.123C27.4219 77.123 26.2852 75.8574 26.2852 73.8008V73.7891C26.2852 71.7734 27.416 70.5137 29.2734 70.5137C30.873 70.5137 31.8281 71.416 32.0039 72.6523V72.6816L30.7852 72.6875L30.7793 72.6699C30.6387 72.043 30.123 71.5742 29.2793 71.5742C28.2188 71.5742 27.5801 72.418 27.5801 73.7891V73.8008C27.5801 75.207 28.2305 76.0625 29.2793 76.0625C30.0762 76.0625 30.5684 75.6992 30.7734 75.0137L30.7852 74.9844H32.0039L31.9922 75.0371C31.7637 76.2734 30.8555 77.123 29.2793 77.123ZM35.1914 77.1055C33.9785 77.1055 33.082 76.3672 33.082 75.2129V75.2012C33.082 74.0645 33.9375 73.4023 35.4551 73.3086L37.1777 73.209V72.6465C37.1777 71.9492 36.7383 71.5625 35.877 71.5625C35.1738 71.5625 34.7109 71.8203 34.5586 72.2715L34.5527 72.2949H33.3281L33.334 72.2539C33.4863 71.2109 34.4883 70.5137 35.9355 70.5137C37.5352 70.5137 38.4375 71.3105 38.4375 72.6465V77H37.1777V76.0977H37.0781C36.7031 76.7422 36.0352 77.1055 35.1914 77.1055ZM34.3477 75.1602C34.3477 75.7461 34.8457 76.0918 35.5312 76.0918C36.4805 76.0918 37.1777 75.4707 37.1777 74.6504V74.1055L35.625 74.2051C34.7461 74.2578 34.3477 74.5742 34.3477 75.1484V75.1602ZM42.5449 77.123C41.0098 77.123 40.0371 76.4023 39.9141 75.3359V75.3301H41.1855L41.1914 75.3359C41.3496 75.8164 41.8125 76.1387 42.5684 76.1387C43.3535 76.1387 43.8984 75.7812 43.8984 75.2598V75.248C43.8984 74.8496 43.5996 74.5801 42.8613 74.4102L41.8477 74.1758C40.6465 73.9004 40.0898 73.3555 40.0898 72.4238V72.418C40.0898 71.3105 41.1211 70.5137 42.5625 70.5137C44.0156 70.5137 44.9473 71.2402 45.0586 72.2773V72.2832H43.8457V72.2715C43.7227 71.8262 43.2715 71.4922 42.5566 71.4922C41.8594 71.4922 41.3555 71.8379 41.3555 72.3477V72.3594C41.3555 72.7578 41.6484 73.0039 42.3633 73.1738L43.3711 73.4023C44.5957 73.6895 45.1816 74.2109 45.1816 75.1309V75.1426C45.1816 76.3203 44.0566 77.123 42.5449 77.123ZM49.0547 77.041C47.6543 77.041 47.0801 76.5488 47.0801 75.3242V71.6387H46.084V70.6367H47.0801V69.0312H48.375V70.6367H49.7402V71.6387H48.375V75.0195C48.375 75.7051 48.6328 75.9863 49.2598 75.9863C49.4531 75.9863 49.5645 75.9805 49.7402 75.9629V76.9766C49.5352 77.0117 49.3008 77.041 49.0547 77.041ZM53.4434 77.123C51.9082 77.123 50.9355 76.4023 50.8125 75.3359V75.3301H52.084L52.0898 75.3359C52.248 75.8164 52.7109 76.1387 53.4668 76.1387C54.252 76.1387 54.7969 75.7812 54.7969 75.2598V75.248C54.7969 74.8496 54.498 74.5801 53.7598 74.4102L52.7461 74.1758C51.5449 73.9004 50.9883 73.3555 50.9883 72.4238V72.418C50.9883 71.3105 52.0195 70.5137 53.4609 70.5137C54.9141 70.5137 55.8457 71.2402 55.957 72.2773V72.2832H54.7441V72.2715C54.6211 71.8262 54.1699 71.4922 53.4551 71.4922C52.7578 71.4922 52.2539 71.8379 52.2539 72.3477V72.3594C52.2539 72.7578 52.5469 73.0039 53.2617 73.1738L54.2695 73.4023C55.4941 73.6895 56.0801 74.2109 56.0801 75.1309V75.1426C56.0801 76.3203 54.9551 77.123 53.4434 77.123Z" fill="black"/>
<defs>
<linearGradient id="paint0_linear_2269_1867" x1="30" y1="0" x2="30" y2="60" gradientUnits="userSpaceOnUse">
<stop stop-color="#313131"/>
<stop offset="1" stop-color="#141514"/>
</linearGradient>
<linearGradient id="paint1_linear_2269_1867" x1="30" y1="-1.66025e-07" x2="30" y2="60" gradientUnits="userSpaceOnUse">
<stop stop-color="#EF50FC"/>
<stop offset="1" stop-color="#862CC3"/>
</linearGradient>
</defs>
</svg>
