<svg width="73" height="80" viewBox="0 0 73 80" fill="none" xmlns="http://www.w3.org/2000/svg">
<rect x="2" width="60" height="60" rx="13.28" fill="url(#paint0_linear_2269_1881)"/>
<path fill-rule="evenodd" clip-rule="evenodd" d="M32.5 8.93699C33.3626 8.71497 34 7.93192 34 7C34 5.89543 33.1046 5 32 5C30.8954 5 30 5.89543 30 7C30 7.93192 30.6374 8.71497 31.5 8.93699V50.063C30.6374 50.285 30 51.0681 30 52C30 53.1046 30.8954 54 32 54C33.1046 54 34 53.1046 34 52C34 51.0681 33.3626 50.285 32.5 50.063V8.93699Z" fill="#1BADF8"/>
<path d="M33.5 23.5001C33.5 23.2239 33.7239 23.0001 34 23.0001C34.2761 23.0001 34.5 23.2239 34.5 23.5001V37.0001C34.5 37.2762 34.2761 37.5001 34 37.5001C33.7239 37.5001 33.5 37.2762 33.5 37.0001V23.5001Z" fill="white"/>
<path d="M35 27.7595C35 27.4834 35.2239 27.2595 35.5 27.2595C35.7761 27.2595 36 27.4834 36 27.7595V32.7595C36 33.0357 35.7761 33.2595 35.5 33.2595C35.2239 33.2595 35 33.0357 35 32.7595V27.7595Z" fill="white"/>
<path d="M36.5 27.2595C36.5 26.9834 36.7239 26.7595 37 26.7595C37.2761 26.7595 37.5 26.9834 37.5 27.2595V33.2595C37.5 33.5357 37.2761 33.7595 37 33.7595C36.7239 33.7595 36.5 33.5357 36.5 33.2595V27.2595Z" fill="white"/>
<path d="M38 26.7595C38 26.4834 38.2239 26.2595 38.5 26.2595C38.7761 26.2595 39 26.4834 39 26.7595V33.7595C39 34.0357 38.7761 34.2595 38.5 34.2595C38.2239 34.2595 38 34.0357 38 33.7595V26.7595Z" fill="white"/>
<path d="M39.5 28.2595C39.5 27.9834 39.7239 27.7595 40 27.7595C40.2761 27.7595 40.5 27.9834 40.5 28.2595V32.2595C40.5 32.5357 40.2761 32.7595 40 32.7595C39.7239 32.7595 39.5 32.5357 39.5 32.2595V28.2595Z" fill="white"/>
<path d="M41 29.2595C41 28.9834 41.2239 28.7595 41.5 28.7595C41.7761 28.7595 42 28.9834 42 29.2595V31.2595C42 31.5357 41.7761 31.7595 41.5 31.7595C41.2239 31.7595 41 31.5357 41 31.2595V29.2595Z" fill="white"/>
<path d="M42.5 28.7595C42.5 28.4834 42.7239 28.2595 43 28.2595C43.2761 28.2595 43.5 28.4834 43.5 28.7595V31.7595C43.5 32.0357 43.2761 32.2595 43 32.2595C42.7239 32.2595 42.5 32.0357 42.5 31.7595V28.7595Z" fill="white"/>
<path d="M44 29.2595C44 28.9834 44.2239 28.7595 44.5 28.7595C44.7761 28.7595 45 28.9834 45 29.2595V31.2595C45 31.5357 44.7761 31.7595 44.5 31.7595C44.2239 31.7595 44 31.5357 44 31.2595V29.2595Z" fill="white"/>
<path d="M45.5 29.7595C45.5 29.4834 45.7239 29.2595 46 29.2595C46.2761 29.2595 46.5 29.4834 46.5 29.7595V30.7595C46.5 31.0357 46.2761 31.2595 46 31.2595C45.7239 31.2595 45.5 31.0357 45.5 30.7595V29.7595Z" fill="white"/>
<path d="M47 29.5571C47 29.2809 47.2239 29.0571 47.5 29.0571C47.7761 29.0571 48 29.2809 48 29.5571V31.0571C48 31.3332 47.7761 31.5571 47.5 31.5571C47.2239 31.5571 47 31.3332 47 31.0571V29.5571Z" fill="white"/>
<path d="M48.5 29.7595C48.5 29.4834 48.7239 29.2595 49 29.2595C49.2761 29.2595 49.5 29.4834 49.5 29.7595V30.7595C49.5 31.0357 49.2761 31.2595 49 31.2595C48.7239 31.2595 48.5 31.0357 48.5 30.7595V29.7595Z" fill="white"/>
<path d="M50 29.2595C50 28.9834 50.2239 28.7595 50.5 28.7595C50.7761 28.7595 51 28.9834 51 29.2595V31.2595C51 31.5357 50.7761 31.7595 50.5 31.7595C50.2239 31.7595 50 31.5357 50 31.2595V29.2595Z" fill="white"/>
<path d="M51.5 29.7595C51.5 29.4834 51.7239 29.2595 52 29.2595C52.2761 29.2595 52.5 29.4834 52.5 29.7595V30.7595C52.5 31.0357 52.2761 31.2595 52 31.2595C51.7239 31.2595 51.5 31.0357 51.5 30.7595V29.7595Z" fill="white"/>
<path d="M53 30.0601C53 29.7839 53.2239 29.5601 53.5 29.5601C53.7761 29.5601 54 29.7839 54 30.0601V30.5601C54 30.8362 53.7761 31.0601 53.5 31.0601C53.2239 31.0601 53 30.8362 53 30.5601V30.0601Z" fill="white"/>
<path d="M54.5 29.7595C54.5 29.4834 54.7239 29.2595 55 29.2595C55.2761 29.2595 55.5 29.4834 55.5 29.7595V30.7595C55.5 31.0357 55.2761 31.2595 55 31.2595C54.7239 31.2595 54.5 31.0357 54.5 30.7595V29.7595Z" fill="white"/>
<path d="M56 30.2595C56 29.9834 56.2239 29.7595 56.5 29.7595C56.7761 29.7595 57 29.9834 57 30.2595C57 30.5357 56.7761 30.7595 56.5 30.7595C56.2239 30.7595 56 30.5357 56 30.2595Z" fill="white"/>
<path d="M57.5 30.2595C57.5 29.9834 57.7239 29.7595 58 29.7595C58.2761 29.7595 58.5 29.9834 58.5 30.2595C58.5 30.5357 58.2761 30.7595 58 30.7595C57.7239 30.7595 57.5 30.5357 57.5 30.2595Z" fill="white"/>
<path d="M29.5 24C29.5 23.7239 29.7239 23.5 30 23.5C30.2761 23.5 30.5 23.7239 30.5 24V36C30.5 36.2761 30.2761 36.5 30 36.5C29.7239 36.5 29.5 36.2761 29.5 36V24Z" fill="#FF3B30"/>
<rect x="28" y="27" width="1" height="7" rx="0.5" fill="#FF3B30"/>
<path d="M26.5 24.5C26.5 24.2239 26.7239 24 27 24C27.2761 24 27.5 24.2239 27.5 24.5V35.5C27.5 35.7761 27.2761 36 27 36C26.7239 36 26.5 35.7761 26.5 35.5V24.5Z" fill="#FF3B30"/>
<path d="M25 20.5C25 20.2239 25.2239 20 25.5 20C25.7761 20 26 20.2239 26 20.5V39.5C26 39.7761 25.7761 40 25.5 40C25.2239 40 25 39.7761 25 39.5V20.5Z" fill="#FF3B30"/>
<path d="M23.5001 14.5C23.5001 14.2239 23.7239 14 24.0001 14C24.2762 14 24.5001 14.2239 24.5001 14.5V45.5C24.5001 45.7761 24.2762 46 24.0001 46C23.7239 46 23.5001 45.7761 23.5001 45.5V14.5Z" fill="#FF3B30"/>
<path d="M22 15.5C22 15.2239 22.2239 15 22.5 15C22.7761 15 23 15.2239 23 15.5V44.5C23 44.7761 22.7761 45 22.5 45C22.2239 45 22 44.7761 22 44.5V15.5Z" fill="#FF3B30"/>
<path d="M20.4999 10.5C20.4999 10.2239 20.7238 10 20.9999 10C21.2761 10 21.4999 10.2239 21.4999 10.5V49.5C21.4999 49.7761 21.2761 50 20.9999 50C20.7238 50 20.4999 49.7761 20.4999 49.5V10.5Z" fill="#FF3B30"/>
<path d="M19.0001 20.5C19.0001 20.2239 19.224 20 19.5001 20C19.7762 20 20.0001 20.2239 20.0001 20.5V39.5C20.0001 39.7761 19.7762 40 19.5001 40C19.224 40 19.0001 39.7761 19.0001 39.5V20.5Z" fill="#FF3B30"/>
<path d="M17.5 19.5C17.5 19.2239 17.7239 19 18 19C18.2761 19 18.5 19.2239 18.5 19.5V40.5C18.5 40.7761 18.2761 41 18 41C17.7239 41 17.5 40.7761 17.5 40.5V19.5Z" fill="#FF3B30"/>
<path d="M16 24.5C16 24.2239 16.2239 24 16.5 24C16.7761 24 17 24.2239 17 24.5V35.5C17 35.7761 16.7761 36 16.5 36C16.2239 36 16 35.7761 16 35.5V24.5Z" fill="#FF3B30"/>
<path d="M14.5 22.5C14.5 22.2239 14.7239 22 15 22C15.2761 22 15.5 22.2239 15.5 22.5V37.5C15.5 37.7761 15.2761 38 15 38C14.7239 38 14.5 37.7761 14.5 37.5V22.5Z" fill="#FF3B30"/>
<path d="M13 27.5C13 27.2239 13.2239 27 13.5 27C13.7761 27 14 27.2239 14 27.5V33.5C14 33.7761 13.7761 34 13.5 34C13.2239 34 13 33.7761 13 33.5V27.5Z" fill="#FF3B30"/>
<path d="M10 30C10 29.7239 10.2239 29.5 10.5 29.5C10.7761 29.5 11 29.7239 11 30C11 30.2761 10.7761 30.5 10.5 30.5C10.2239 30.5 10 30.2761 10 30Z" fill="#FF3B30"/>
<path d="M8.5 29.5C8.5 29.2239 8.72386 29 9 29C9.27614 29 9.5 29.2239 9.5 29.5V30.5C9.5 30.7761 9.27614 31 9 31C8.72386 31 8.5 30.7761 8.5 30.5V29.5Z" fill="#FF3B30"/>
<path d="M7 29.5C7 29.2239 7.22386 29 7.5 29C7.77614 29 8 29.2239 8 29.5V30.5C8 30.7761 7.77614 31 7.5 31C7.22386 31 7 30.7761 7 30.5V29.5Z" fill="#FF3B30"/>
<path d="M4 30C4 29.7239 4.22386 29.5 4.5 29.5C4.77614 29.5 5 29.7239 5 30C5 30.2761 4.77614 30.5 4.5 30.5C4.22386 30.5 4 30.2761 4 30Z" fill="#FF3B30"/>
<path d="M11.5 29C11.5 28.7239 11.7239 28.5 12 28.5C12.2761 28.5 12.5 28.7239 12.5 29V31C12.5 31.2761 12.2761 31.5 12 31.5C11.7239 31.5 11.5 31.2761 11.5 31V29Z" fill="#FF3B30"/>
<path d="M5.5 29.5C5.5 29.2239 5.72386 29 6 29C6.27614 29 6.5 29.2239 6.5 29.5V30.5C6.5 30.7761 6.27614 31 6 31C5.72386 31 5.5 30.7761 5.5 30.5V29.5Z" fill="#FF3B30"/>
<path d="M3.69336 77L0.681641 68.5449H2.10547L4.36719 75.418H4.4668L6.72852 68.5449H8.15234L5.14062 77H3.69336ZM11.5449 77.123C9.67578 77.123 8.5332 75.875 8.5332 73.8242V73.8125C8.5332 71.7676 9.68164 70.5137 11.5449 70.5137C13.4023 70.5137 14.5508 71.7617 14.5508 73.8125V73.8242C14.5508 75.875 13.4082 77.123 11.5449 77.123ZM11.5449 76.0625C12.6348 76.0625 13.2559 75.2305 13.2559 73.8242V73.8125C13.2559 72.4004 12.6348 71.5742 11.5449 71.5742C10.4492 71.5742 9.83398 72.4004 9.83398 73.8125V73.8242C9.83398 75.2363 10.4492 76.0625 11.5449 76.0625ZM16.7305 69.5C16.291 69.5 15.9336 69.1426 15.9336 68.709C15.9336 68.2695 16.291 67.9121 16.7305 67.9121C17.1641 67.9121 17.5273 68.2695 17.5273 68.709C17.5273 69.1426 17.1641 69.5 16.7305 69.5ZM16.0918 77V70.6367H17.3574V77H16.0918ZM21.8867 77.123C20.0293 77.123 18.8926 75.8574 18.8926 73.8008V73.7891C18.8926 71.7734 20.0234 70.5137 21.8809 70.5137C23.4805 70.5137 24.4355 71.416 24.6113 72.6523V72.6816L23.3926 72.6875L23.3867 72.6699C23.2461 72.043 22.7305 71.5742 21.8867 71.5742C20.8262 71.5742 20.1875 72.418 20.1875 73.7891V73.8008C20.1875 75.207 20.8379 76.0625 21.8867 76.0625C22.6836 76.0625 23.1758 75.6992 23.3809 75.0137L23.3926 74.9844H24.6113L24.5996 75.0371C24.3711 76.2734 23.4629 77.123 21.8867 77.123ZM28.7246 77.123C26.8613 77.123 25.7363 75.8516 25.7363 73.8359V73.8301C25.7363 71.8438 26.8848 70.5137 28.6602 70.5137C30.4355 70.5137 31.5254 71.7969 31.5254 73.707V74.1523H27.0137C27.0371 75.3711 27.7051 76.0801 28.7539 76.0801C29.5684 76.0801 30.0547 75.6758 30.207 75.3477L30.2305 75.3008L31.4551 75.2949L31.4434 75.3477C31.2324 76.1855 30.3535 77.123 28.7246 77.123ZM28.666 71.5566C27.7988 71.5566 27.1426 72.1484 27.0312 73.2441H30.2656C30.166 72.1074 29.5273 71.5566 28.666 71.5566ZM36.4648 77V68.5449H37.9766L40.6719 75.2891H40.7656L43.4609 68.5449H44.9727V77H43.7773V70.7949H43.6895L41.2051 77H40.2324L37.7539 70.7949H37.6602V77H36.4648ZM49.6191 77.123C47.7559 77.123 46.6309 75.8516 46.6309 73.8359V73.8301C46.6309 71.8438 47.7793 70.5137 49.5547 70.5137C51.3301 70.5137 52.4199 71.7969 52.4199 73.707V74.1523H47.9082C47.9316 75.3711 48.5996 76.0801 49.6484 76.0801C50.4629 76.0801 50.9492 75.6758 51.1016 75.3477L51.125 75.3008L52.3496 75.2949L52.3379 75.3477C52.127 76.1855 51.248 77.123 49.6191 77.123ZM49.5605 71.5566C48.6934 71.5566 48.0371 72.1484 47.9258 73.2441H51.1602C51.0605 72.1074 50.4219 71.5566 49.5605 71.5566ZM53.9316 77V70.6367H55.2031V71.6152H55.2969C55.5781 70.918 56.1992 70.5137 57.0312 70.5137C57.8984 70.5137 58.5137 70.9648 58.7949 71.6504H58.8945C59.2168 70.9648 59.9492 70.5137 60.834 70.5137C62.1172 70.5137 62.8672 71.2871 62.8672 72.6113V77H61.6016V72.916C61.6016 72.0371 61.2031 71.6035 60.3711 71.6035C59.5625 71.6035 59.0293 72.207 59.0293 72.9746V77H57.7637V72.7871C57.7637 72.0605 57.2891 71.6035 56.5391 71.6035C55.7715 71.6035 55.2031 72.2598 55.2031 73.0918V77H53.9316ZM65.6211 77.0879C65.1348 77.0879 64.7598 76.7129 64.7598 76.2383C64.7598 75.7578 65.1348 75.3828 65.6211 75.3828C66.1074 75.3828 66.4766 75.7578 66.4766 76.2383C66.4766 76.7129 66.1074 77.0879 65.6211 77.0879ZM68.8789 77.0879C68.3984 77.0879 68.0234 76.7129 68.0234 76.2383C68.0234 75.7578 68.3984 75.3828 68.8789 75.3828C69.3652 75.3828 69.7402 75.7578 69.7402 76.2383C69.7402 76.7129 69.3652 77.0879 68.8789 77.0879ZM72.1367 77.0879C71.6562 77.0879 71.2812 76.7129 71.2812 76.2383C71.2812 75.7578 71.6562 75.3828 72.1367 75.3828C72.6289 75.3828 72.998 75.7578 72.998 76.2383C72.998 76.7129 72.6289 77.0879 72.1367 77.0879Z" fill="black"/>
<defs>
<linearGradient id="paint0_linear_2269_1881" x1="32" y1="0" x2="32" y2="60" gradientUnits="userSpaceOnUse">
<stop stop-color="#313131"/>
<stop offset="1" stop-color="#141514"/>
</linearGradient>
</defs>
</svg>
