<svg width="60" height="80" viewBox="0 0 60 80" fill="none" xmlns="http://www.w3.org/2000/svg">
<rect width="60" height="60" rx="13.3594" fill="url(#paint0_linear_2269_1865)"/>
<path d="M11.4052 20.9766C8.9295 14.3177 13.1977 11.3644 16.2811 10.5062C16.8041 10.3606 17.3452 10.5963 17.6556 11.0416L23.2675 19.0934C23.632 19.6164 23.5924 20.3148 23.2161 20.8295C21.9327 22.5848 21.4695 24.0743 21.3032 25.2337C21.1656 26.1933 21.5079 27.1466 22.0841 27.9262C26.4961 33.8965 31.269 38.3862 33.6123 38.4961C35.3295 38.5766 37.4262 37.2457 38.5697 36.4054C39.0804 36.0301 39.7787 35.9859 40.306 36.3375L48.5187 41.8126C48.9697 42.1133 49.2147 42.6518 49.0996 43.1814C47.6007 50.0743 41.1203 49.342 37.9482 48.0469C23.0654 41.1328 14.8037 30.1172 11.4052 20.9766Z" fill="url(#paint1_linear_2269_1865)"/>
<path d="M12.8379 77V68.5449H16.1309C17.7891 68.5449 18.9375 69.6582 18.9375 71.3164V71.3281C18.9375 72.9805 17.7891 74.1113 16.1309 74.1113H14.1504V77H12.8379ZM15.8027 69.6523H14.1504V73.0098H15.8027C16.9395 73.0098 17.6016 72.3945 17.6016 71.334V71.3223C17.6016 70.2676 16.9395 69.6523 15.8027 69.6523ZM20.543 77V68.1406H21.8145V71.6035H21.9082C22.2188 70.9238 22.8281 70.5137 23.7539 70.5137C25.1777 70.5137 25.9629 71.3633 25.9629 72.8809V77H24.6973V73.1797C24.6973 72.125 24.2578 71.6035 23.3262 71.6035C22.3945 71.6035 21.8145 72.2422 21.8145 73.2676V77H20.543ZM30.4336 77.123C28.5645 77.123 27.4219 75.875 27.4219 73.8242V73.8125C27.4219 71.7676 28.5703 70.5137 30.4336 70.5137C32.291 70.5137 33.4395 71.7617 33.4395 73.8125V73.8242C33.4395 75.875 32.2969 77.123 30.4336 77.123ZM30.4336 76.0625C31.5234 76.0625 32.1445 75.2305 32.1445 73.8242V73.8125C32.1445 72.4004 31.5234 71.5742 30.4336 71.5742C29.3379 71.5742 28.7227 72.4004 28.7227 73.8125V73.8242C28.7227 75.2363 29.3379 76.0625 30.4336 76.0625ZM34.957 77V70.6367H36.2285V71.6035H36.3223C36.6328 70.9238 37.2422 70.5137 38.168 70.5137C39.5918 70.5137 40.377 71.3633 40.377 72.8809V77H39.1113V73.1797C39.1113 72.125 38.6719 71.6035 37.7402 71.6035C36.8086 71.6035 36.2285 72.2422 36.2285 73.2676V77H34.957ZM44.8242 77.123C42.9609 77.123 41.8359 75.8516 41.8359 73.8359V73.8301C41.8359 71.8438 42.9844 70.5137 44.7598 70.5137C46.5352 70.5137 47.625 71.7969 47.625 73.707V74.1523H43.1133C43.1367 75.3711 43.8047 76.0801 44.8535 76.0801C45.668 76.0801 46.1543 75.6758 46.3066 75.3477L46.3301 75.3008L47.5547 75.2949L47.543 75.3477C47.332 76.1855 46.4531 77.123 44.8242 77.123ZM44.7656 71.5566C43.8984 71.5566 43.2422 72.1484 43.1309 73.2441H46.3652C46.2656 72.1074 45.627 71.5566 44.7656 71.5566Z" fill="black"/>
<defs>
<linearGradient id="paint0_linear_2269_1865" x1="30" y1="0" x2="30" y2="60" gradientUnits="userSpaceOnUse">
<stop stop-color="#313131"/>
<stop offset="1" stop-color="#141514"/>
</linearGradient>
<linearGradient id="paint1_linear_2269_1865" x1="29.9606" y1="10.3125" x2="29.9606" y2="48.8974" gradientUnits="userSpaceOnUse">
<stop stop-color="#5CF777"/>
<stop offset="1" stop-color="#0EBC29"/>
</linearGradient>
</defs>
</svg>
