<svg width="60" height="80" viewBox="0 0 60 80" fill="none" xmlns="http://www.w3.org/2000/svg">
<rect width="60" height="60" rx="13.28" fill="url(#paint0_linear_2269_1880)"/>
<path d="M21.9129 23.7406H19.1089L20.5109 19.6514L21.9129 23.7406Z" fill="white"/>
<path fill-rule="evenodd" clip-rule="evenodd" d="M8.5 27.1055V19.2517C8.5 15.7699 10.7191 13.75 14.0547 13.75H26.945C30.4402 13.75 32.5 15.7699 32.5 19.2517V27.1055C32.5 30.5872 30.4402 32.5939 26.945 32.5939H22.3738L17.9219 36.3945C17.1246 37.0855 16.6859 37.4443 16.0347 37.4443C15.1178 37.4443 14.6128 36.7932 14.6128 35.7832V32.5939H14.0547C10.7191 32.5939 8.5 30.5739 8.5 27.1055ZM25.1955 27.1426L21.9129 18.3319C21.6737 17.6808 21.1953 17.322 20.5043 17.322C19.8398 17.322 19.3481 17.6808 19.1089 18.3319L15.8398 27.1426C15.5741 27.8735 15.9727 28.5512 16.7435 28.5512C17.2485 28.5512 17.5674 28.2721 17.7535 27.714L18.5641 25.3751H22.4711L23.2817 27.714C23.481 28.2721 23.7867 28.5512 24.2917 28.5512C25.0757 28.5512 25.4611 27.8735 25.1955 27.1426Z" fill="white"/>
<path d="M51.5 28.2516V36.1054C51.5 39.5739 49.2808 41.5939 45.9452 41.5939H45.3871V44.7832C45.3871 45.7932 44.8821 46.4443 43.9652 46.4443C43.314 46.4443 42.8754 46.0855 42.0781 45.3945L37.6262 41.5939H33.0549C29.5598 41.5939 27.5 39.5872 27.5 36.1054V28.2516C27.5 24.7699 29.5598 22.75 33.0549 22.75H45.9452C49.2808 22.75 51.5 24.7699 51.5 28.2516ZM35.2476 29.1154C34.7027 29.1154 34.304 29.4876 34.304 29.9925C34.304 30.5108 34.7027 30.8962 35.2476 30.8962H36.2575C36.6163 32.1985 37.2941 33.4343 38.2243 34.4709C37.3206 35.0689 36.2708 35.5075 35.0615 35.7998C34.5432 35.9194 34.2375 36.4111 34.3439 36.9427C34.4901 37.4742 35.0217 37.7134 35.5931 37.554C37.0416 37.235 38.397 36.6237 39.6063 35.7334C40.7625 36.6104 42.118 37.2217 43.4602 37.5406C44.1113 37.7002 44.6562 37.5008 44.8024 36.9427C44.9486 36.3713 44.6828 35.9194 44.1113 35.7998C42.902 35.5208 41.8655 35.0822 40.9352 34.4709C41.8787 33.461 42.5432 32.2384 42.902 30.8962H43.9252C44.4701 30.8962 44.8687 30.5108 44.8687 29.9925C44.8687 29.4876 44.4701 29.1154 43.9252 29.1154H35.2476ZM39.6063 33.3413C38.9552 32.6237 38.4369 31.7865 38.1312 30.8962H41.0415C40.7359 31.7732 40.2442 32.6105 39.6063 33.3413ZM38.2775 25.5938C37.8256 25.8065 37.6262 26.3513 37.8655 26.843L38.5034 28.1852C38.716 28.6636 39.2608 28.8497 39.7259 28.6503C40.2176 28.3978 40.417 27.8663 40.1777 27.3879L39.5266 26.059C39.2874 25.554 38.7558 25.3281 38.2775 25.5938Z" fill="#30B0C7"/>
<path d="M37.8655 26.843C37.6262 26.3513 37.8256 25.8064 38.2775 25.5938C38.7558 25.328 39.2874 25.5539 39.5266 26.0589L40.1777 27.3878C40.417 27.8662 40.2176 28.3977 39.7259 28.6503C39.2608 28.8496 38.716 28.6636 38.5034 28.1851L37.8655 26.843Z" fill="white"/>
<path fill-rule="evenodd" clip-rule="evenodd" d="M35.2476 29.1153C34.7027 29.1153 34.304 29.4875 34.304 29.9925C34.304 30.5107 34.7027 30.8962 35.2476 30.8962H36.2575C36.6163 32.1984 37.2941 33.4343 38.2243 34.4709C37.3206 35.0688 36.2708 35.5074 35.0615 35.7998C34.5432 35.9193 34.2375 36.411 34.3439 36.9426C34.49 37.4741 35.0217 37.7134 35.5931 37.554C37.0415 37.235 38.397 36.6236 39.6063 35.7333C40.7625 36.6104 42.118 37.2217 43.4602 37.5406C44.1113 37.7001 44.6562 37.5008 44.8024 36.9426C44.9485 36.3712 44.6827 35.9193 44.1113 35.7998C42.902 35.5207 41.8654 35.0822 40.9352 34.4709C41.8787 33.4609 42.5432 32.2384 42.902 30.8962H43.9252C44.4701 30.8962 44.8687 30.5107 44.8687 29.9925C44.8687 29.4875 44.4701 29.1153 43.9252 29.1153H35.2476ZM38.1312 30.8962C38.4369 31.7865 38.9552 32.6237 39.6063 33.3413C40.2442 32.6104 40.7359 31.7732 41.0415 30.8962H38.1312Z" fill="white"/>
<path d="M6.39844 77V69.6758H3.73828V68.5449H10.3652V69.6758H7.71094V77H6.39844ZM11.0215 77V70.6367H12.293V71.5977H12.3867C12.6152 70.9238 13.207 70.5254 14.0566 70.5254C14.2617 70.5254 14.4844 70.5547 14.6133 70.584V71.7559C14.3848 71.709 14.168 71.6797 13.9277 71.6797C12.9551 71.6797 12.293 72.2773 12.293 73.1973V77H11.0215ZM17.5254 77.1055C16.3125 77.1055 15.416 76.3672 15.416 75.2129V75.2012C15.416 74.0645 16.2715 73.4023 17.7891 73.3086L19.5117 73.209V72.6465C19.5117 71.9492 19.0723 71.5625 18.2109 71.5625C17.5078 71.5625 17.0449 71.8203 16.8926 72.2715L16.8867 72.2949H15.6621L15.668 72.2539C15.8203 71.2109 16.8223 70.5137 18.2695 70.5137C19.8691 70.5137 20.7715 71.3105 20.7715 72.6465V77H19.5117V76.0977H19.4121C19.0371 76.7422 18.3691 77.1055 17.5254 77.1055ZM16.6816 75.1602C16.6816 75.7461 17.1797 76.0918 17.8652 76.0918C18.8145 76.0918 19.5117 75.4707 19.5117 74.6504V74.1055L17.959 74.2051C17.0801 74.2578 16.6816 74.5742 16.6816 75.1484V75.1602ZM22.5645 77V70.6367H23.8359V71.6035H23.9297C24.2402 70.9238 24.8496 70.5137 25.7754 70.5137C27.1992 70.5137 27.9844 71.3633 27.9844 72.8809V77H26.7188V73.1797C26.7188 72.125 26.2793 71.6035 25.3477 71.6035C24.416 71.6035 23.8359 72.2422 23.8359 73.2676V77H22.5645ZM32.0742 77.123C30.5391 77.123 29.5664 76.4023 29.4434 75.3359V75.3301H30.7148L30.7207 75.3359C30.8789 75.8164 31.3418 76.1387 32.0977 76.1387C32.8828 76.1387 33.4277 75.7812 33.4277 75.2598V75.248C33.4277 74.8496 33.1289 74.5801 32.3906 74.4102L31.377 74.1758C30.1758 73.9004 29.6191 73.3555 29.6191 72.4238V72.418C29.6191 71.3105 30.6504 70.5137 32.0918 70.5137C33.5449 70.5137 34.4766 71.2402 34.5879 72.2773V72.2832H33.375V72.2715C33.252 71.8262 32.8008 71.4922 32.0859 71.4922C31.3887 71.4922 30.8848 71.8379 30.8848 72.3477V72.3594C30.8848 72.7578 31.1777 73.0039 31.8926 73.1738L32.9004 73.4023C34.125 73.6895 34.7109 74.2109 34.7109 75.1309V75.1426C34.7109 76.3203 33.5859 77.123 32.0742 77.123ZM36.2871 77V68.1406H37.5586V77H36.2871ZM41.1973 77.1055C39.9844 77.1055 39.0879 76.3672 39.0879 75.2129V75.2012C39.0879 74.0645 39.9434 73.4023 41.4609 73.3086L43.1836 73.209V72.6465C43.1836 71.9492 42.7441 71.5625 41.8828 71.5625C41.1797 71.5625 40.7168 71.8203 40.5645 72.2715L40.5586 72.2949H39.334L39.3398 72.2539C39.4922 71.2109 40.4941 70.5137 41.9414 70.5137C43.541 70.5137 44.4434 71.3105 44.4434 72.6465V77H43.1836V76.0977H43.084C42.709 76.7422 42.041 77.1055 41.1973 77.1055ZM40.3535 75.1602C40.3535 75.7461 40.8516 76.0918 41.5371 76.0918C42.4863 76.0918 43.1836 75.4707 43.1836 74.6504V74.1055L41.6309 74.2051C40.752 74.2578 40.3535 74.5742 40.3535 75.1484V75.1602ZM48.6387 77.041C47.2383 77.041 46.6641 76.5488 46.6641 75.3242V71.6387H45.668V70.6367H46.6641V69.0312H47.959V70.6367H49.3242V71.6387H47.959V75.0195C47.959 75.7051 48.2168 75.9863 48.8438 75.9863C49.0371 75.9863 49.1484 75.9805 49.3242 75.9629V76.9766C49.1191 77.0117 48.8848 77.041 48.6387 77.041ZM53.4082 77.123C51.5449 77.123 50.4199 75.8516 50.4199 73.8359V73.8301C50.4199 71.8438 51.5684 70.5137 53.3438 70.5137C55.1191 70.5137 56.209 71.7969 56.209 73.707V74.1523H51.6973C51.7207 75.3711 52.3887 76.0801 53.4375 76.0801C54.252 76.0801 54.7383 75.6758 54.8906 75.3477L54.9141 75.3008L56.1387 75.2949L56.127 75.3477C55.916 76.1855 55.0371 77.123 53.4082 77.123ZM53.3496 71.5566C52.4824 71.5566 51.8262 72.1484 51.7148 73.2441H54.9492C54.8496 72.1074 54.2109 71.5566 53.3496 71.5566Z" fill="black"/>
<defs>
<linearGradient id="paint0_linear_2269_1880" x1="30" y1="0" x2="30" y2="60" gradientUnits="userSpaceOnUse">
<stop stop-color="#313131"/>
<stop offset="1" stop-color="#141514"/>
</linearGradient>
</defs>
</svg>
