<svg width="60" height="80" viewBox="0 0 60 80" fill="none" xmlns="http://www.w3.org/2000/svg">
<rect width="60" height="60" rx="13.28" fill="url(#paint0_linear_2269_1879)"/>
<path fill-rule="evenodd" clip-rule="evenodd" d="M29.9844 10.7812C24.0781 10.7812 19.3594 15.0625 19.3594 20.5938C19.3594 23.2665 20.1477 25.0781 21.0674 27.1914C22.1909 29.7729 23.5102 32.8046 23.8281 38.4062C23.8594 39.1406 24.3281 39.5938 25.0938 39.5938H34.8906C35.6562 39.5938 36.125 39.1406 36.1562 38.4062C36.474 32.8078 37.792 29.781 38.915 27.2022C39.8355 25.0883 40.625 23.2754 40.625 20.5938C40.625 15.0625 35.9062 10.7812 29.9844 10.7812ZM23.9688 42.2188C23.9688 42.7656 24.4062 43.2188 24.9688 43.2188H35.0156C35.5625 43.2188 36.0156 42.7656 36.0156 42.2188C36.0156 41.6562 35.5625 41.2188 35.0156 41.2188H24.9688C24.4062 41.2188 23.9688 41.6562 23.9688 42.2188ZM25.3594 44.8438C25.4844 46.6562 27.5 47.8594 29.9844 47.8594C32.4688 47.8594 34.4531 46.6562 34.6094 44.8438H25.3594ZM26 25.25C25.5858 25.25 25.25 25.5858 25.25 26C25.25 26.4142 25.5858 26.75 26 26.75H29.25V38C29.25 38.4142 29.5858 38.75 30 38.75C30.4142 38.75 30.75 38.4142 30.75 38V26.75H34C34.4142 26.75 34.75 26.4142 34.75 26C34.75 25.5858 34.4142 25.25 34 25.25H30H26Z" fill="white"/>
<path fill-rule="evenodd" clip-rule="evenodd" d="M29.9844 10.7812C24.0781 10.7812 19.3594 15.0625 19.3594 20.5938C19.3594 23.2665 20.1477 25.0781 21.0674 27.1914C22.1909 29.7729 23.5102 32.8046 23.8281 38.4062C23.8594 39.1406 24.3281 39.5938 25.0938 39.5938H34.8906C35.6562 39.5938 36.125 39.1406 36.1562 38.4062C36.474 32.8078 37.792 29.781 38.915 27.2022C39.8355 25.0883 40.625 23.2754 40.625 20.5938C40.625 15.0625 35.9062 10.7812 29.9844 10.7812ZM23.9688 42.2188C23.9688 42.7656 24.4062 43.2188 24.9688 43.2188H35.0156C35.5625 43.2188 36.0156 42.7656 36.0156 42.2188C36.0156 41.6562 35.5625 41.2188 35.0156 41.2188H24.9688C24.4062 41.2188 23.9688 41.6562 23.9688 42.2188ZM25.3594 44.8438C25.4844 46.6562 27.5 47.8594 29.9844 47.8594C32.4688 47.8594 34.4531 46.6562 34.6094 44.8438H25.3594ZM26 25.25C25.5858 25.25 25.25 25.5858 25.25 26C25.25 26.4142 25.5858 26.75 26 26.75H29.25V38C29.25 38.4142 29.5858 38.75 30 38.75C30.4142 38.75 30.75 38.4142 30.75 38V26.75H34C34.4142 26.75 34.75 26.4142 34.75 26C34.75 25.5858 34.4142 25.25 34 25.25H30H26Z" fill="url(#paint1_linear_2269_1879)"/>
<path d="M20.8535 77V69.6758H18.1934V68.5449H24.8203V69.6758H22.166V77H20.8535ZM26.8301 69.5C26.3906 69.5 26.0332 69.1426 26.0332 68.709C26.0332 68.2695 26.3906 67.9121 26.8301 67.9121C27.2637 67.9121 27.627 68.2695 27.627 68.709C27.627 69.1426 27.2637 69.5 26.8301 69.5ZM26.1914 77V70.6367H27.457V77H26.1914ZM29.3086 79.1211V70.6367H30.5801V71.6387H30.6738C31.043 70.9414 31.7402 70.5254 32.6309 70.5254C34.2363 70.5254 35.2676 71.8086 35.2676 73.8125V73.8242C35.2676 75.8398 34.248 77.1055 32.6309 77.1055C31.7578 77.1055 31.0137 76.6777 30.6738 75.9922H30.5801V79.1211H29.3086ZM32.2734 76.0215C33.334 76.0215 33.9727 75.1895 33.9727 73.8242V73.8125C33.9727 72.4414 33.334 71.6152 32.2734 71.6152C31.2129 71.6152 30.5566 72.4531 30.5566 73.8125V73.8242C30.5566 75.1836 31.2129 76.0215 32.2734 76.0215ZM39.1113 77.123C37.5762 77.123 36.6035 76.4023 36.4805 75.3359V75.3301H37.752L37.7578 75.3359C37.916 75.8164 38.3789 76.1387 39.1348 76.1387C39.9199 76.1387 40.4648 75.7812 40.4648 75.2598V75.248C40.4648 74.8496 40.166 74.5801 39.4277 74.4102L38.4141 74.1758C37.2129 73.9004 36.6562 73.3555 36.6562 72.4238V72.418C36.6562 71.3105 37.6875 70.5137 39.1289 70.5137C40.582 70.5137 41.5137 71.2402 41.625 72.2773V72.2832H40.4121V72.2715C40.2891 71.8262 39.8379 71.4922 39.123 71.4922C38.4258 71.4922 37.9219 71.8379 37.9219 72.3477V72.3594C37.9219 72.7578 38.2148 73.0039 38.9297 73.1738L39.9375 73.4023C41.1621 73.6895 41.748 74.2109 41.748 75.1309V75.1426C41.748 76.3203 40.623 77.123 39.1113 77.123Z" fill="black"/>
<defs>
<linearGradient id="paint0_linear_2269_1879" x1="30" y1="0" x2="30" y2="60" gradientUnits="userSpaceOnUse">
<stop stop-color="#313131"/>
<stop offset="1" stop-color="#141514"/>
</linearGradient>
<linearGradient id="paint1_linear_2269_1879" x1="30" y1="11" x2="30" y2="49" gradientUnits="userSpaceOnUse">
<stop stop-color="#FFA800"/>
<stop offset="1" stop-color="#FFCB00"/>
</linearGradient>
</defs>
</svg>
