<svg width="60" height="80" viewBox="0 0 60 80" fill="none" xmlns="http://www.w3.org/2000/svg">
<rect width="60" height="60" rx="13.28" fill="url(#paint0_linear_2269_1848)"/>
<ellipse cx="24.1026" cy="34.4362" rx="15.7451" ry="15.773" fill="url(#paint1_linear_2269_1848)"/>
<rect x="20.3022" y="8.63977" width="29.4021" height="29.4578" rx="3.61957" fill="url(#paint2_linear_2269_1848)"/>
<path d="M17.3687 30.9911L15.1655 35.8979L14.885 36.4075C14.4876 37.1294 13.5959 37.4157 12.8526 37.0601C12.134 36.7162 11.7925 35.8823 12.061 35.1322L13.4183 31.9904C14.0161 30.6066 14.7181 29.2702 15.5184 27.9928L17.114 25.4456C17.7506 24.4295 18.5463 23.5223 19.4708 22.7588L20.6892 21.7525C21.2313 21.3048 21.8705 20.9898 22.5559 20.8327L23.0604 20.7171C24.1846 20.4595 25.3637 20.7682 26.2174 21.5436C26.422 21.7295 26.604 21.9387 26.7597 22.1671L26.8999 22.3727C27.4747 23.2157 27.8097 24.199 27.8692 25.2175L27.9036 25.8049V29.5137C27.9036 30.0389 27.8829 30.5738 28.0368 31.076C28.1576 31.4702 28.3871 31.8894 28.8224 31.9999C29.118 32.075 29.4357 31.9445 29.7271 31.7384C30.5562 31.1522 30.9881 30.1739 31.4195 29.2547L32.1284 27.7442C32.4288 27.1041 32.8166 26.5087 33.2806 25.9752L34.2402 24.8719C34.8486 24.1725 35.6921 23.7201 36.6112 23.6004L36.6907 23.5901C38.0041 23.419 39.3073 23.9718 40.0971 25.0352C40.419 25.4687 40.6409 25.9681 40.7468 26.4976L41.0088 27.8077C41.2355 28.9412 40.845 30.3673 41.6568 31.1902C41.7596 31.2944 41.892 31.3702 42.0617 31.4013C42.923 31.559 44.0591 30.4165 44.3371 30.12C44.3801 30.0742 44.4211 30.0272 44.4623 29.9798L45.8535 28.3809C46.3127 27.8532 46.8293 27.3784 47.3938 26.9653L47.9693 26.5442C48.1603 26.4044 48.3666 26.2859 48.5851 26.1949C49.6589 25.7479 50.2725 25.5815 51.2843 25.6296C51.3666 25.6335 51.4308 25.7019 51.4308 25.7842C51.4308 25.8473 51.3928 25.9042 51.3346 25.9284L50.4879 26.2803C50.4021 26.3159 50.3196 26.3594 50.2417 26.41L49.8677 26.6529C49.2985 27.0226 48.7916 27.4803 48.3659 28.0089L47.7416 28.7841L46.1181 30.9891C45.8275 31.3836 45.5001 31.7497 45.1403 32.0824L44.2347 32.9197C43.734 33.3826 43.1106 33.6913 42.439 33.809L42.3125 33.8311C41.8189 33.9176 41.3115 33.8805 40.8356 33.7232C40.2127 33.5173 39.6732 33.1151 39.298 32.5769L39.0461 32.2157C38.8958 32.0002 38.7944 31.7545 38.749 31.4957L38.5182 30.1818C38.2657 28.744 38.9074 26.5592 37.5372 26.0555C37.4062 26.0073 37.2627 26.0165 37.1127 26.068C35.1202 26.7519 34.4967 29.2841 33.5116 31.1461L33.043 32.0318C32.7376 32.6091 32.3308 33.1267 31.8419 33.5597L31.3652 33.9821C30.8076 34.4761 30.1068 34.7791 29.365 34.847C27.7951 34.9908 26.3231 34.0665 25.7707 32.59L25.4178 31.6471C25.2022 31.0709 25.099 30.4588 25.1138 29.8438L25.1868 26.7983C25.1882 26.7393 25.189 26.6816 25.1875 26.6226C25.1769 26.1807 25.0823 24.1859 24.2422 23.6053C23.8433 23.3296 23.1996 23.568 22.5884 23.9363C21.4192 24.6407 20.5675 25.7478 19.7657 26.8525C18.8267 28.146 18.0235 29.5329 17.3687 30.9911Z" fill="#003A5E"/>
<path d="M4.69922 77V68.5449H9.97852V69.6758H6.01172V72.3535H9.64453V73.4609H6.01172V77H4.69922ZM11.5371 77V70.6367H12.8086V71.5977H12.9023C13.1309 70.9238 13.7227 70.5254 14.5723 70.5254C14.7773 70.5254 15 70.5547 15.1289 70.584V71.7559C14.9004 71.709 14.6836 71.6797 14.4434 71.6797C13.4707 71.6797 12.8086 72.2773 12.8086 73.1973V77H11.5371ZM18.8496 77.123C16.9863 77.123 15.8613 75.8516 15.8613 73.8359V73.8301C15.8613 71.8438 17.0098 70.5137 18.7852 70.5137C20.5605 70.5137 21.6504 71.7969 21.6504 73.707V74.1523H17.1387C17.1621 75.3711 17.8301 76.0801 18.8789 76.0801C19.6934 76.0801 20.1797 75.6758 20.332 75.3477L20.3555 75.3008L21.5801 75.2949L21.5684 75.3477C21.3574 76.1855 20.4785 77.123 18.8496 77.123ZM18.791 71.5566C17.9238 71.5566 17.2676 72.1484 17.1562 73.2441H20.3906C20.291 72.1074 19.6523 71.5566 18.791 71.5566ZM25.834 77.123C23.9707 77.123 22.8457 75.8516 22.8457 73.8359V73.8301C22.8457 71.8438 23.9941 70.5137 25.7695 70.5137C27.5449 70.5137 28.6348 71.7969 28.6348 73.707V74.1523H24.123C24.1465 75.3711 24.8145 76.0801 25.8633 76.0801C26.6777 76.0801 27.1641 75.6758 27.3164 75.3477L27.3398 75.3008L28.5645 75.2949L28.5527 75.3477C28.3418 76.1855 27.4629 77.123 25.834 77.123ZM25.7754 71.5566C24.9082 71.5566 24.252 72.1484 24.1406 73.2441H27.375C27.2754 72.1074 26.6367 71.5566 25.7754 71.5566ZM30.5977 77V71.6387H29.5488V70.6367H30.5977V69.9688C30.5977 68.7031 31.2363 68.082 32.5664 68.082C32.8477 68.082 33.0938 68.0996 33.3164 68.1406V69.0723C33.1992 69.0547 33.0293 69.043 32.8301 69.043C32.127 69.043 31.8516 69.3828 31.8516 70.0273V70.6367H33.2637V71.6387H31.8633V77H30.5977ZM37.1426 77.123C35.2734 77.123 34.1309 75.875 34.1309 73.8242V73.8125C34.1309 71.7676 35.2793 70.5137 37.1426 70.5137C39 70.5137 40.1484 71.7617 40.1484 73.8125V73.8242C40.1484 75.875 39.0059 77.123 37.1426 77.123ZM37.1426 76.0625C38.2324 76.0625 38.8535 75.2305 38.8535 73.8242V73.8125C38.8535 72.4004 38.2324 71.5742 37.1426 71.5742C36.0469 71.5742 35.4316 72.4004 35.4316 73.8125V73.8242C35.4316 75.2363 36.0469 76.0625 37.1426 76.0625ZM41.666 77V70.6367H42.9375V71.5977H43.0312C43.2598 70.9238 43.8516 70.5254 44.7012 70.5254C44.9062 70.5254 45.1289 70.5547 45.2578 70.584V71.7559C45.0293 71.709 44.8125 71.6797 44.5723 71.6797C43.5996 71.6797 42.9375 72.2773 42.9375 73.1973V77H41.666ZM46.5645 77V70.6367H47.8359V71.6152H47.9297C48.2109 70.918 48.832 70.5137 49.6641 70.5137C50.5312 70.5137 51.1465 70.9648 51.4277 71.6504H51.5273C51.8496 70.9648 52.582 70.5137 53.4668 70.5137C54.75 70.5137 55.5 71.2871 55.5 72.6113V77H54.2344V72.916C54.2344 72.0371 53.8359 71.6035 53.0039 71.6035C52.1953 71.6035 51.6621 72.207 51.6621 72.9746V77H50.3965V72.7871C50.3965 72.0605 49.9219 71.6035 49.1719 71.6035C48.4043 71.6035 47.8359 72.2598 47.8359 73.0918V77H46.5645Z" fill="black"/>
<defs>
<linearGradient id="paint0_linear_2269_1848" x1="30" y1="0" x2="30" y2="60" gradientUnits="userSpaceOnUse">
<stop stop-color="#313131"/>
<stop offset="1" stop-color="#141514"/>
</linearGradient>
<linearGradient id="paint1_linear_2269_1848" x1="24.1026" y1="18.6632" x2="24.1026" y2="50.2093" gradientUnits="userSpaceOnUse">
<stop stop-color="#F8A51C"/>
<stop offset="0.604167" stop-color="#FA7E4F"/>
<stop offset="0.973958" stop-color="#FB5B5C"/>
</linearGradient>
<linearGradient id="paint2_linear_2269_1848" x1="35.0033" y1="8.63977" x2="35.0033" y2="38.0975" gradientUnits="userSpaceOnUse">
<stop stop-color="#42E3FD"/>
<stop offset="0.460751" stop-color="#31C6ED"/>
<stop offset="1" stop-color="#78B0DE"/>
</linearGradient>
</defs>
</svg>
