<svg width="60" height="80" viewBox="0 0 60 80" fill="none" xmlns="http://www.w3.org/2000/svg">
<rect width="60" height="60" rx="13.28" fill="url(#paint0_linear_2269_1843)"/>
<path d="M6.69189 15.0756V20.7205L53.3073 20.9632V18.2926C53.3073 16.6165 51.9485 15.2577 50.2724 15.2577H24.2774C23.3583 15.2577 22.4798 14.8788 21.8491 14.2102L20.7008 12.993C20.1275 12.3853 19.3289 12.0408 18.4933 12.0408H9.72675C8.05065 12.0408 6.69189 13.3995 6.69189 15.0756Z" fill="url(#paint1_linear_2269_1843)"/>
<path d="M6.69189 21.3153C6.69189 20.7035 6.69189 20.3975 6.81098 20.1638C6.91572 19.9582 7.08286 19.7911 7.28844 19.6863C7.52215 19.5673 7.82809 19.5673 8.43997 19.5673H51.5592C52.1711 19.5673 52.477 19.5673 52.7107 19.6863C52.9163 19.7911 53.0835 19.9582 53.1882 20.1638C53.3073 20.3975 53.3073 20.7035 53.3073 21.3153V43.1784C53.3073 44.8781 53.3073 45.728 52.9765 46.3771C52.6855 46.9482 52.2213 47.4125 51.6502 47.7034C51.001 48.0342 50.1512 48.0342 48.4515 48.0342H11.5477C9.84799 48.0342 8.99815 48.0342 8.34895 47.7034C7.77791 47.4125 7.31364 46.9482 7.02267 46.3771C6.69189 45.728 6.69189 44.8781 6.69189 43.1784V21.3153Z" fill="url(#paint2_linear_2269_1843)"/>
<path d="M8.57373 19.0816C8.57373 18.4112 9.11723 17.8677 9.78767 17.8677H50.1513C50.8217 17.8677 51.3652 18.4112 51.3652 19.0816V19.5672H8.57373V19.0816Z" fill="url(#paint3_linear_2269_1843)"/>
<path d="M17.6602 77V68.5449H22.9395V69.6758H18.9727V72.3535H22.6055V73.4609H18.9727V77H17.6602ZM25.1602 69.5C24.7207 69.5 24.3633 69.1426 24.3633 68.709C24.3633 68.2695 24.7207 67.9121 25.1602 67.9121C25.5938 67.9121 25.957 68.2695 25.957 68.709C25.957 69.1426 25.5938 69.5 25.1602 69.5ZM24.5215 77V70.6367H25.7871V77H24.5215ZM27.6973 77V68.1406H28.9688V77H27.6973ZM33.5332 77.123C31.6699 77.123 30.5449 75.8516 30.5449 73.8359V73.8301C30.5449 71.8438 31.6934 70.5137 33.4688 70.5137C35.2441 70.5137 36.334 71.7969 36.334 73.707V74.1523H31.8223C31.8457 75.3711 32.5137 76.0801 33.5625 76.0801C34.377 76.0801 34.8633 75.6758 35.0156 75.3477L35.0391 75.3008L36.2637 75.2949L36.252 75.3477C36.041 76.1855 35.1621 77.123 33.5332 77.123ZM33.4746 71.5566C32.6074 71.5566 31.9512 72.1484 31.8398 73.2441H35.0742C34.9746 72.1074 34.3359 71.5566 33.4746 71.5566ZM40.1602 77.123C38.625 77.123 37.6523 76.4023 37.5293 75.3359V75.3301H38.8008L38.8066 75.3359C38.9648 75.8164 39.4277 76.1387 40.1836 76.1387C40.9688 76.1387 41.5137 75.7812 41.5137 75.2598V75.248C41.5137 74.8496 41.2148 74.5801 40.4766 74.4102L39.4629 74.1758C38.2617 73.9004 37.7051 73.3555 37.7051 72.4238V72.418C37.7051 71.3105 38.7363 70.5137 40.1777 70.5137C41.6309 70.5137 42.5625 71.2402 42.6738 72.2773V72.2832H41.4609V72.2715C41.3379 71.8262 40.8867 71.4922 40.1719 71.4922C39.4746 71.4922 38.9707 71.8379 38.9707 72.3477V72.3594C38.9707 72.7578 39.2637 73.0039 39.9785 73.1738L40.9863 73.4023C42.2109 73.6895 42.7969 74.2109 42.7969 75.1309V75.1426C42.7969 76.3203 41.6719 77.123 40.1602 77.123Z" fill="black"/>
<defs>
<linearGradient id="paint0_linear_2269_1843" x1="30" y1="0" x2="30" y2="60" gradientUnits="userSpaceOnUse">
<stop stop-color="#313131"/>
<stop offset="1" stop-color="#141514"/>
</linearGradient>
<linearGradient id="paint1_linear_2269_1843" x1="29.9996" y1="12.0408" x2="29.9996" y2="20.9632" gradientUnits="userSpaceOnUse">
<stop stop-color="#13B0F8"/>
<stop offset="1" stop-color="#0283EC"/>
</linearGradient>
<linearGradient id="paint2_linear_2269_1843" x1="29.9996" y1="19.5673" x2="29.9996" y2="48.0342" gradientUnits="userSpaceOnUse">
<stop stop-color="#2ABAFB"/>
<stop offset="1" stop-color="#2676F6"/>
</linearGradient>
<linearGradient id="paint3_linear_2269_1843" x1="29.9695" y1="17.8677" x2="29.9695" y2="19.5672" gradientUnits="userSpaceOnUse">
<stop stop-color="#313131"/>
<stop offset="1" stop-color="#141514"/>
</linearGradient>
</defs>
</svg>
