<svg width="60" height="80" viewBox="0 0 60 80" fill="none" xmlns="http://www.w3.org/2000/svg">
<rect width="60" height="60" rx="13.28" fill="url(#paint0_linear_2269_1890)"/>
<path d="M21.2131 20.8125C20.4006 21.7969 19.0256 22.5312 17.9319 22.5312C17.8069 22.5312 17.6819 22.5156 17.6037 22.5C17.5881 22.4375 17.5569 22.25 17.5569 22.0625C17.5569 20.8125 18.1975 19.5625 18.885 18.7812C19.76 17.75 21.2287 16.9844 22.4475 16.9375C22.4787 17.0781 22.4944 17.25 22.4944 17.4219C22.4944 18.6719 21.9631 19.9062 21.2131 20.8125ZM22.0725 22.7969C22.76 22.7969 25.2444 22.8594 26.8694 25.2031C26.7287 25.3125 24.26 26.7031 24.26 29.8125C24.26 33.4062 27.4006 34.6875 27.4944 34.7188C27.4787 34.7969 26.9944 36.4531 25.8381 38.1562C24.8069 39.6406 23.7131 41.1406 22.0725 41.1406C20.4162 41.1406 19.9944 40.1719 18.1037 40.1719C16.2444 40.1719 15.5881 41.1719 14.0881 41.1719C12.5725 41.1719 11.5256 39.7812 10.3225 38.0938C8.91623 36.0938 7.79123 33 7.79123 30.0625C7.79123 25.3594 10.8537 22.8594 13.8694 22.8594C15.4631 22.8594 16.7912 23.9062 17.8069 23.9062C18.76 23.9062 20.2444 22.7969 22.0725 22.7969ZM35.625 41.3125C32.6406 41.3125 31.1719 39.9688 31.1719 36.8594V27H28.7969V24.75H31.1719V20.3594H33.9844V24.75H37.0781V27H33.9844V36.8438C33.9844 38.5781 34.75 39.0625 36.2031 39.0625C36.5312 39.0625 36.8438 39.0156 37.0781 39V41.2031C36.7344 41.25 36.1562 41.3125 35.625 41.3125ZM44.5681 41L38.5838 24.75H41.4431L45.9275 38.1094H45.99L50.49 24.75H53.3181L47.3494 41H44.5681Z" fill="white"/>
<path d="M25.1953 77V69.6758H22.5352V68.5449H29.1621V69.6758H26.5078V77H25.1953ZM33.1348 77L30.123 68.5449H31.5469L33.8086 75.418H33.9082L36.1699 68.5449H37.5938L34.582 77H33.1348Z" fill="black"/>
<defs>
<linearGradient id="paint0_linear_2269_1890" x1="30" y1="0" x2="30" y2="60" gradientUnits="userSpaceOnUse">
<stop stop-color="#3D3D3D"/>
<stop offset="1" stop-color="#030303"/>
</linearGradient>
</defs>
</svg>
