<svg width="60" height="80" viewBox="0 0 60 80" fill="none" xmlns="http://www.w3.org/2000/svg">
<g clip-path="url(#clip0_2269_1860)">
<rect width="60" height="60" fill="url(#paint0_linear_2269_1860)"/>
<path fill-rule="evenodd" clip-rule="evenodd" d="M47.3322 28.0092C47.3322 28.3755 46.7911 28.4891 46.6285 28.1608C45.2229 25.324 43.0474 22.3064 40.2428 19.5019C37.5914 16.8505 34.7497 14.7613 32.0503 13.3534C31.7305 13.1866 31.8468 12.6665 32.2075 12.6665H44.9989C46.2875 12.6665 47.3322 13.7112 47.3322 14.9998V28.0092ZM13.3525 32.0506C13.1857 31.7308 12.6655 31.8471 12.6655 32.2078V44.9998C12.6655 46.2885 13.7102 47.3332 14.9989 47.3332H28.0087C28.3751 47.3332 28.4886 46.7921 28.1603 46.6294C25.3235 45.2239 22.3059 43.0483 19.5012 40.2437C16.8497 37.5921 14.7604 34.7501 13.3525 32.0506ZM47.3323 38.6665C47.3322 38.6665 47.3321 38.6666 47.3321 38.6665L21.4299 12.7643C21.3674 12.7018 21.2826 12.6667 21.1942 12.6667H14.9991C13.7105 12.6667 12.6658 13.7114 12.6658 15.0001V21.1955C12.6658 21.2839 12.7009 21.3687 12.7634 21.4312L38.6655 47.3333C38.6656 47.3333 38.6656 47.3333 38.6655 47.3333C38.6655 47.3333 38.6655 47.3334 38.6656 47.3334H44.9991C46.2878 47.3334 47.3325 46.2887 47.3325 45V38.6665C47.3325 38.6664 47.3323 38.6664 47.3323 38.6665Z" fill="url(#paint1_linear_2269_1860)"/>
</g>
<path d="M15.1289 77V68.5449H16.3125L20.6602 74.6973H20.748V68.5449H22.0254V77H20.8418L16.5 70.8594H16.4062V77H15.1289ZM26.6777 77.123C24.8145 77.123 23.6895 75.8516 23.6895 73.8359V73.8301C23.6895 71.8438 24.8379 70.5137 26.6133 70.5137C28.3887 70.5137 29.4785 71.7969 29.4785 73.707V74.1523H24.9668C24.9902 75.3711 25.6582 76.0801 26.707 76.0801C27.5215 76.0801 28.0078 75.6758 28.1602 75.3477L28.1836 75.3008L29.4082 75.2949L29.3965 75.3477C29.1855 76.1855 28.3066 77.123 26.6777 77.123ZM26.6191 71.5566C25.752 71.5566 25.0957 72.1484 24.9844 73.2441H28.2188C28.1191 72.1074 27.4805 71.5566 26.6191 71.5566ZM32.168 77L30.4102 70.6367H31.6875L32.8301 75.5469H32.9238L34.2363 70.6367H35.4434L36.7559 75.5469H36.8555L37.9922 70.6367H39.252L37.5 77H36.1934L34.875 72.2539H34.7754L33.4629 77H32.168ZM42.6914 77.123C41.1562 77.123 40.1836 76.4023 40.0605 75.3359V75.3301H41.332L41.3379 75.3359C41.4961 75.8164 41.959 76.1387 42.7148 76.1387C43.5 76.1387 44.0449 75.7812 44.0449 75.2598V75.248C44.0449 74.8496 43.7461 74.5801 43.0078 74.4102L41.9941 74.1758C40.793 73.9004 40.2363 73.3555 40.2363 72.4238V72.418C40.2363 71.3105 41.2676 70.5137 42.709 70.5137C44.1621 70.5137 45.0938 71.2402 45.2051 72.2773V72.2832H43.9922V72.2715C43.8691 71.8262 43.418 71.4922 42.7031 71.4922C42.0059 71.4922 41.502 71.8379 41.502 72.3477V72.3594C41.502 72.7578 41.7949 73.0039 42.5098 73.1738L43.5176 73.4023C44.7422 73.6895 45.3281 74.2109 45.3281 75.1309V75.1426C45.3281 76.3203 44.2031 77.123 42.6914 77.123Z" fill="black"/>
<defs>
<linearGradient id="paint0_linear_2269_1860" x1="30" y1="0" x2="30" y2="60" gradientUnits="userSpaceOnUse">
<stop stop-color="#313131"/>
<stop offset="1" stop-color="#141514"/>
</linearGradient>
<linearGradient id="paint1_linear_2269_1860" x1="29.999" y1="12.6665" x2="29.999" y2="47.3334" gradientUnits="userSpaceOnUse">
<stop stop-color="#FB5565"/>
<stop offset="1" stop-color="#FC3058"/>
</linearGradient>
<clipPath id="clip0_2269_1860">
<rect width="60" height="60" rx="13.28" fill="white"/>
</clipPath>
</defs>
</svg>
