<svg width="60" height="80" viewBox="0 0 60 80" fill="none" xmlns="http://www.w3.org/2000/svg">
<rect width="60" height="60" rx="13.28" fill="url(#paint0_linear_2269_1832)"/>
<path fill-rule="evenodd" clip-rule="evenodd" d="M29.9187 21.8452C33.0378 21.8452 35.5664 19.3166 35.5664 16.1975C35.5664 13.0784 33.0378 10.5498 29.9187 10.5498C26.7996 10.5498 24.271 13.0784 24.271 16.1975C24.271 19.3166 26.7996 21.8452 29.9187 21.8452ZM27.7464 32.2715V23.1944C27.5653 23.2205 27.3846 23.2498 27.2043 23.2823C25.1741 23.6485 23.2301 24.5655 19.342 26.3995L13.2907 29.2539L13.2907 29.2539C11.248 30.2174 10.2267 30.6992 9.90548 31.3607C9.62623 31.9358 9.62623 32.6072 9.90548 33.1823C10.2267 33.8438 11.248 34.3256 13.2907 35.2891L13.2907 35.2891L13.2907 35.2891L19.342 38.1435C23.2301 39.9775 25.1741 40.8945 27.2043 41.2607C29.0032 41.5851 30.845 41.5917 32.6462 41.2802C34.679 40.9286 36.6295 40.0256 40.5305 38.2195L40.5305 38.2195L40.5306 38.2195L40.5306 38.2195L46.8383 35.2993L46.8383 35.2992C48.9212 34.3349 49.9626 33.8528 50.2879 33.1877C50.5707 32.6096 50.5707 31.9334 50.2879 31.3553C49.9626 30.6902 48.9212 30.2081 46.8383 29.2438L40.5306 26.3235L40.5306 26.3235C36.6295 24.5175 34.679 23.6145 32.6462 23.2628C32.4614 23.2309 32.2763 23.2023 32.0908 23.177V32.2715C32.0908 33.4712 31.1182 34.4437 29.9186 34.4437C28.7189 34.4437 27.7464 33.4712 27.7464 32.2715ZM17.4157 34.0093C19.0952 34.0093 20.4567 33.2312 20.4567 32.2715C20.4567 31.3118 19.0952 30.5338 17.4157 30.5338C15.7361 30.5338 14.3746 31.3118 14.3746 32.2715C14.3746 33.2312 15.7361 34.0093 17.4157 34.0093ZM24.2074 42.753L10.234 36.5096C9.88915 36.3555 9.5 36.6079 9.5 36.9856V38.4336C9.5 39.4453 10.0853 40.3656 11.0016 40.7944L22.7116 46.2757C27.2785 48.4134 32.5587 48.4134 37.1256 46.2757L48.8356 40.7944C49.7518 40.3656 50.3372 39.4453 50.3372 38.4336V36.9856C50.3372 36.6079 49.948 36.3555 49.6032 36.5096L35.6297 42.753C31.9954 44.3769 27.8417 44.3769 24.2074 42.753Z" fill="url(#paint1_linear_2269_1832)"/>
<path d="M9.84375 77L12.8965 68.5449H14.3145L17.3672 77H15.9844L15.2227 74.7148H11.9883L11.2207 77H9.84375ZM13.5527 70.0273L12.3398 73.6602H14.8711L13.6523 70.0273H13.5527ZM18.6914 77V70.6367H19.9629V71.5977H20.0566C20.2852 70.9238 20.877 70.5254 21.7266 70.5254C21.9316 70.5254 22.1543 70.5547 22.2832 70.584V71.7559C22.0547 71.709 21.8379 71.6797 21.5977 71.6797C20.625 71.6797 19.9629 72.2773 19.9629 73.1973V77H18.6914ZM26.0098 77.123C24.1523 77.123 23.0156 75.8574 23.0156 73.8008V73.7891C23.0156 71.7734 24.1465 70.5137 26.0039 70.5137C27.6035 70.5137 28.5586 71.416 28.7344 72.6523V72.6816L27.5156 72.6875L27.5098 72.6699C27.3691 72.043 26.8535 71.5742 26.0098 71.5742C24.9492 71.5742 24.3105 72.418 24.3105 73.7891V73.8008C24.3105 75.207 24.9609 76.0625 26.0098 76.0625C26.8066 76.0625 27.2988 75.6992 27.5039 75.0137L27.5156 74.9844H28.7344L28.7227 75.0371C28.4941 76.2734 27.5859 77.123 26.0098 77.123ZM31.9219 77.1055C30.709 77.1055 29.8125 76.3672 29.8125 75.2129V75.2012C29.8125 74.0645 30.668 73.4023 32.1855 73.3086L33.9082 73.209V72.6465C33.9082 71.9492 33.4688 71.5625 32.6074 71.5625C31.9043 71.5625 31.4414 71.8203 31.2891 72.2715L31.2832 72.2949H30.0586L30.0645 72.2539C30.2168 71.2109 31.2188 70.5137 32.666 70.5137C34.2656 70.5137 35.168 71.3105 35.168 72.6465V77H33.9082V76.0977H33.8086C33.4336 76.7422 32.7656 77.1055 31.9219 77.1055ZM31.0781 75.1602C31.0781 75.7461 31.5762 76.0918 32.2617 76.0918C33.2109 76.0918 33.9082 75.4707 33.9082 74.6504V74.1055L32.3555 74.2051C31.4766 74.2578 31.0781 74.5742 31.0781 75.1484V75.1602ZM39.2812 77.1055C37.6816 77.1055 36.6445 75.8223 36.6445 73.8242V73.8125C36.6445 71.7969 37.6641 70.5254 39.2812 70.5254C40.1543 70.5254 40.8984 70.959 41.2383 71.6445H41.3379V68.1406H42.6035V77H41.3379V75.998H41.2383C40.8691 76.6953 40.1719 77.1055 39.2812 77.1055ZM39.6445 76.0215C40.7051 76.0215 41.3555 75.1836 41.3555 73.8242V73.8125C41.3555 72.4531 40.6992 71.6152 39.6445 71.6152C38.5781 71.6152 37.9395 72.4473 37.9395 73.8125V73.8242C37.9395 75.1895 38.5781 76.0215 39.6445 76.0215ZM47.168 77.123C45.3047 77.123 44.1797 75.8516 44.1797 73.8359V73.8301C44.1797 71.8438 45.3281 70.5137 47.1035 70.5137C48.8789 70.5137 49.9688 71.7969 49.9688 73.707V74.1523H45.457C45.4805 75.3711 46.1484 76.0801 47.1973 76.0801C48.0117 76.0801 48.498 75.6758 48.6504 75.3477L48.6738 75.3008L49.8984 75.2949L49.8867 75.3477C49.6758 76.1855 48.7969 77.123 47.168 77.123ZM47.1094 71.5566C46.2422 71.5566 45.5859 72.1484 45.4746 73.2441H48.709C48.6094 72.1074 47.9707 71.5566 47.1094 71.5566Z" fill="black"/>
<defs>
<linearGradient id="paint0_linear_2269_1832" x1="30" y1="0" x2="30" y2="60" gradientUnits="userSpaceOnUse">
<stop stop-color="#313131"/>
<stop offset="1" stop-color="#141514"/>
</linearGradient>
<linearGradient id="paint1_linear_2269_1832" x1="30" y1="0.0398791" x2="30" y2="59.8131" gradientUnits="userSpaceOnUse">
<stop stop-color="#FF6F58"/>
<stop offset="1" stop-color="#FF3667"/>
</linearGradient>
</defs>
</svg>
