<svg width="60" height="80" viewBox="0 0 60 80" fill="none" xmlns="http://www.w3.org/2000/svg">
<rect width="60" height="60" rx="13.28" fill="url(#paint0_linear_2269_1862)"/>
<path fill-rule="evenodd" clip-rule="evenodd" d="M31.5 12.2C31.5 11.0799 31.5 10.5198 31.718 10.092C31.9097 9.71569 32.2157 9.40973 32.592 9.21799C33.0198 9 33.5799 9 34.7 9H35.8C36.9201 9 37.4802 9 37.908 9.21799C38.2843 9.40973 38.5903 9.71569 38.782 10.092C39 10.5198 39 11.0799 39 12.2V48.8C39 49.9201 39 50.4802 38.782 50.908C38.5903 51.2843 38.2843 51.5903 37.908 51.782C37.4802 52 36.9201 52 35.8 52H34.7C33.5799 52 33.0198 52 32.592 51.782C32.2157 51.5903 31.9097 51.2843 31.718 50.908C31.5 50.4802 31.5 49.9201 31.5 48.8V12.2ZM21.218 29.592C21 30.0198 21 30.5799 21 31.7V48.8C21 49.9201 21 50.4802 21.218 50.908C21.4097 51.2843 21.7157 51.5903 22.092 51.782C22.5198 52 23.0799 52 24.2 52H25.8C26.9201 52 27.4802 52 27.908 51.782C28.2843 51.5903 28.5903 51.2843 28.782 50.908C29 50.4802 29 49.9201 29 48.8V31.7C29 30.5799 29 30.0198 28.782 29.592C28.5903 29.2157 28.2843 28.9097 27.908 28.718C27.4802 28.5 26.9201 28.5 25.8 28.5H24.2C23.0799 28.5 22.5198 28.5 22.092 28.718C21.7157 28.9097 21.4097 29.2157 21.218 29.592ZM10.718 40.592C10.5 41.0198 10.5 41.5799 10.5 42.7V49.3C10.5 50.4201 10.5 50.9802 10.718 51.408C10.9097 51.7843 11.2157 52.0903 11.592 52.282C12.0198 52.5 12.5799 52.5 13.7 52.5H15.3C16.4201 52.5 16.9802 52.5 17.408 52.282C17.7843 52.0903 18.0903 51.7843 18.282 51.408C18.5 50.9802 18.5 50.4201 18.5 49.3V42.7C18.5 41.5799 18.5 41.0198 18.282 40.592C18.0903 40.2157 17.7843 39.9097 17.408 39.718C16.9802 39.5 16.4201 39.5 15.3 39.5H13.7C12.5799 39.5 12.0198 39.5 11.592 39.718C11.2157 39.9097 10.9097 40.2157 10.718 40.592ZM41.718 20.592C41.5 21.0198 41.5 21.5799 41.5 22.7V48.8C41.5 49.9201 41.5 50.4802 41.718 50.908C41.9097 51.2843 42.2157 51.5903 42.592 51.782C43.0198 52 43.5799 52 44.7 52H46.3C47.4201 52 47.9802 52 48.408 51.782C48.7843 51.5903 49.0903 51.2843 49.282 50.908C49.5 50.4802 49.5 49.9201 49.5 48.8V22.7C49.5 21.5799 49.5 21.0198 49.282 20.592C49.0903 20.2157 48.7843 19.9097 48.408 19.718C47.9802 19.5 47.4201 19.5 46.3 19.5H44.7C43.5799 19.5 43.0198 19.5 42.592 19.718C42.2157 19.9097 41.9097 20.2157 41.718 20.592Z" fill="url(#paint1_linear_2269_1862)"/>
<path d="M4.76367 77V68.5449H5.94727L10.2949 74.6973H10.3828V68.5449H11.6602V77H10.4766L6.13477 70.8594H6.04102V77H4.76367ZM15.7617 77.123C14.3262 77.123 13.582 76.2617 13.582 74.7559V70.6367H14.8535V74.457C14.8535 75.5117 15.2402 76.0332 16.1719 76.0332C17.1914 76.0332 17.7363 75.3945 17.7363 74.3691V70.6367H19.002V77H17.7363V76.0391H17.6367C17.332 76.7246 16.6875 77.123 15.7617 77.123ZM20.8359 77V70.6367H22.1074V71.6152H22.2012C22.4824 70.918 23.1035 70.5137 23.9355 70.5137C24.8027 70.5137 25.418 70.9648 25.6992 71.6504H25.7988C26.1211 70.9648 26.8535 70.5137 27.7383 70.5137C29.0215 70.5137 29.7715 71.2871 29.7715 72.6113V77H28.5059V72.916C28.5059 72.0371 28.1074 71.6035 27.2754 71.6035C26.4668 71.6035 25.9336 72.207 25.9336 72.9746V77H24.668V72.7871C24.668 72.0605 24.1934 71.6035 23.4434 71.6035C22.6758 71.6035 22.1074 72.2598 22.1074 73.0918V77H20.8359ZM34.9277 77.1055C34.0371 77.1055 33.3398 76.6953 32.9707 75.998H32.877V77H31.6055V68.1406H32.877V71.6445H32.9707C33.3105 70.959 34.0547 70.5254 34.9277 70.5254C36.5449 70.5254 37.5645 71.7969 37.5645 73.8125V73.8242C37.5645 75.8223 36.5332 77.1055 34.9277 77.1055ZM34.5703 76.0215C35.6309 76.0215 36.2695 75.1895 36.2695 73.8242V73.8125C36.2695 72.4473 35.6309 71.6152 34.5703 71.6152C33.5098 71.6152 32.8535 72.4531 32.8535 73.8125V73.8242C32.8535 75.1836 33.5098 76.0215 34.5703 76.0215ZM41.7539 77.123C39.8906 77.123 38.7656 75.8516 38.7656 73.8359V73.8301C38.7656 71.8438 39.9141 70.5137 41.6895 70.5137C43.4648 70.5137 44.5547 71.7969 44.5547 73.707V74.1523H40.043C40.0664 75.3711 40.7344 76.0801 41.7832 76.0801C42.5977 76.0801 43.084 75.6758 43.2363 75.3477L43.2598 75.3008L44.4844 75.2949L44.4727 75.3477C44.2617 76.1855 43.3828 77.123 41.7539 77.123ZM41.6953 71.5566C40.8281 71.5566 40.1719 72.1484 40.0605 73.2441H43.2949C43.1953 72.1074 42.5566 71.5566 41.6953 71.5566ZM46.0664 77V70.6367H47.3379V71.5977H47.4316C47.6602 70.9238 48.252 70.5254 49.1016 70.5254C49.3066 70.5254 49.5293 70.5547 49.6582 70.584V71.7559C49.4297 71.709 49.2129 71.6797 48.9727 71.6797C48 71.6797 47.3379 72.2773 47.3379 73.1973V77H46.0664ZM53.0566 77.123C51.5215 77.123 50.5488 76.4023 50.4258 75.3359V75.3301H51.6973L51.7031 75.3359C51.8613 75.8164 52.3242 76.1387 53.0801 76.1387C53.8652 76.1387 54.4102 75.7812 54.4102 75.2598V75.248C54.4102 74.8496 54.1113 74.5801 53.373 74.4102L52.3594 74.1758C51.1582 73.9004 50.6016 73.3555 50.6016 72.4238V72.418C50.6016 71.3105 51.6328 70.5137 53.0742 70.5137C54.5273 70.5137 55.459 71.2402 55.5703 72.2773V72.2832H54.3574V72.2715C54.2344 71.8262 53.7832 71.4922 53.0684 71.4922C52.3711 71.4922 51.8672 71.8379 51.8672 72.3477V72.3594C51.8672 72.7578 52.1602 73.0039 52.875 73.1738L53.8828 73.4023C55.1074 73.6895 55.6934 74.2109 55.6934 75.1309V75.1426C55.6934 76.3203 54.5684 77.123 53.0566 77.123Z" fill="black"/>
<defs>
<linearGradient id="paint0_linear_2269_1862" x1="30" y1="0" x2="30" y2="60" gradientUnits="userSpaceOnUse">
<stop stop-color="#313131"/>
<stop offset="1" stop-color="#141514"/>
</linearGradient>
<linearGradient id="paint1_linear_2269_1862" x1="30" y1="9" x2="30" y2="52.5" gradientUnits="userSpaceOnUse">
<stop stop-color="#5CF777"/>
<stop offset="1" stop-color="#0EBC29"/>
</linearGradient>
</defs>
</svg>
