<svg width="60" height="80" viewBox="0 0 60 80" fill="none" xmlns="http://www.w3.org/2000/svg">
<rect width="60" height="60" rx="13.28" fill="url(#paint0_linear_2269_1854)"/>
<path d="M10.9839 24.496L13.3347 9.99944C13.4982 8.99098 14.3691 8.25 15.3907 8.25H43.6095C44.6311 8.25 45.5019 8.99098 45.6654 9.99944L48.0162 24.496C48.273 26.0795 47.0505 27.5163 45.4463 27.5163H13.5539C11.9497 27.5163 10.7271 26.0795 10.9839 24.496Z" fill="white"/>
<mask id="mask0_2269_1854" style="mask-type:alpha" maskUnits="userSpaceOnUse" x="23" y="10" width="13" height="11">
<path d="M35.7486 15.54C35.7486 18.4158 33.0676 20.7471 29.7604 20.7471C26.4532 20.7471 23.7722 18.4158 23.7722 15.54C23.7722 12.6642 26.4532 10.3329 29.7604 10.3329C33.0676 10.3329 35.7486 12.6642 35.7486 15.54Z" fill="#D9D9D9"/>
</mask>
<g mask="url(#mask0_2269_1854)">
<path d="M23.2515 23.0903L29.7603 15.54L37.0503 17.6229V23.0903H23.2515Z" fill="#66C156"/>
<path d="M29.7604 15.54V10.3329H38.8728V18.1435L29.7604 15.54Z" fill="#62D9FE"/>
<path d="M22.9912 13.4572L29.7604 15.54L23.2516 17.3625L22.9912 13.4572Z" fill="#FA9E27"/>
<path d="M25.855 20.2264L29.7603 15.54L23.2515 17.3625L25.855 20.2264Z" fill="#FBCE59"/>
<path d="M29.7605 9.81226V15.5401L26.1155 11.114L29.7605 9.81226Z" fill="#AB4287"/>
<path d="M26.1154 11.114L29.7604 15.54L23.7722 13.7176L26.1154 11.114Z" fill="#E85A5E"/>
</g>
<path fill-rule="evenodd" clip-rule="evenodd" d="M16.222 22.83C15.6468 22.83 15.1805 23.2962 15.1805 23.8714C15.1805 24.4465 15.6468 24.9128 16.222 24.9128H42.7782C43.3534 24.9128 43.8196 24.4465 43.8196 23.8714C43.8196 23.2962 43.3534 22.83 42.7782 22.83H16.222ZM28.1983 28.818H30.8019V49.4984H38.2781C39.038 49.4984 39.6539 50.1143 39.6539 50.8742C39.6539 51.634 39.038 52.25 38.2781 52.25H20.722C19.9622 52.25 19.3462 51.634 19.3462 50.8742C19.3462 50.1143 19.9622 49.4984 20.722 49.4984H28.1983V28.818Z" fill="url(#paint1_linear_2269_1854)"/>
<path d="M7.49414 77V68.5449H8.80664V72.541H8.90039L12.3984 68.5449H13.9512L10.6816 72.2129L14.2324 77H12.5918L9.75586 73.1035L8.80664 74.1816V77H7.49414ZM17.6602 77.123C15.7969 77.123 14.6719 75.8516 14.6719 73.8359V73.8301C14.6719 71.8438 15.8203 70.5137 17.5957 70.5137C19.3711 70.5137 20.4609 71.7969 20.4609 73.707V74.1523H15.9492C15.9727 75.3711 16.6406 76.0801 17.6895 76.0801C18.5039 76.0801 18.9902 75.6758 19.1426 75.3477L19.166 75.3008L20.3906 75.2949L20.3789 75.3477C20.168 76.1855 19.2891 77.123 17.6602 77.123ZM17.6016 71.5566C16.7344 71.5566 16.0781 72.1484 15.9668 73.2441H19.2012C19.1016 72.1074 18.4629 71.5566 17.6016 71.5566ZM22.4531 79.2383C22.2949 79.2383 22.1074 79.2266 21.9434 79.209V78.207C22.0664 78.2246 22.2246 78.2305 22.3711 78.2305C22.9629 78.2305 23.3145 77.9785 23.5078 77.334L23.6016 77.0059L21.293 70.6367H22.6641L24.2578 75.7227H24.3691L25.957 70.6367H27.293L24.9258 77.2461C24.3867 78.7695 23.7422 79.2383 22.4531 79.2383ZM28.582 77V70.6367H29.8535V71.6035H29.9473C30.2578 70.9238 30.8672 70.5137 31.793 70.5137C33.2168 70.5137 34.002 71.3633 34.002 72.8809V77H32.7363V73.1797C32.7363 72.125 32.2969 71.6035 31.3652 71.6035C30.4336 71.6035 29.8535 72.2422 29.8535 73.2676V77H28.582ZM38.4727 77.123C36.6035 77.123 35.4609 75.875 35.4609 73.8242V73.8125C35.4609 71.7676 36.6094 70.5137 38.4727 70.5137C40.3301 70.5137 41.4785 71.7617 41.4785 73.8125V73.8242C41.4785 75.875 40.3359 77.123 38.4727 77.123ZM38.4727 76.0625C39.5625 76.0625 40.1836 75.2305 40.1836 73.8242V73.8125C40.1836 72.4004 39.5625 71.5742 38.4727 71.5742C37.377 71.5742 36.7617 72.4004 36.7617 73.8125V73.8242C36.7617 75.2363 37.377 76.0625 38.4727 76.0625ZM45.3984 77.041C43.998 77.041 43.4238 76.5488 43.4238 75.3242V71.6387H42.4277V70.6367H43.4238V69.0312H44.7188V70.6367H46.084V71.6387H44.7188V75.0195C44.7188 75.7051 44.9766 75.9863 45.6035 75.9863C45.7969 75.9863 45.9082 75.9805 46.084 75.9629V76.9766C45.8789 77.0117 45.6445 77.041 45.3984 77.041ZM50.168 77.123C48.3047 77.123 47.1797 75.8516 47.1797 73.8359V73.8301C47.1797 71.8438 48.3281 70.5137 50.1035 70.5137C51.8789 70.5137 52.9688 71.7969 52.9688 73.707V74.1523H48.457C48.4805 75.3711 49.1484 76.0801 50.1973 76.0801C51.0117 76.0801 51.498 75.6758 51.6504 75.3477L51.6738 75.3008L52.8984 75.2949L52.8867 75.3477C52.6758 76.1855 51.7969 77.123 50.168 77.123ZM50.1094 71.5566C49.2422 71.5566 48.5859 72.1484 48.4746 73.2441H51.709C51.6094 72.1074 50.9707 71.5566 50.1094 71.5566Z" fill="black"/>
<defs>
<linearGradient id="paint0_linear_2269_1854" x1="30" y1="0" x2="30" y2="60" gradientUnits="userSpaceOnUse">
<stop stop-color="#313131"/>
<stop offset="1" stop-color="#141514"/>
</linearGradient>
<linearGradient id="paint1_linear_2269_1854" x1="29.5001" y1="0.000122208" x2="29.5001" y2="60.0001" gradientUnits="userSpaceOnUse">
<stop stop-color="#61CDF7"/>
<stop offset="1" stop-color="#366AE9"/>
</linearGradient>
</defs>
</svg>
