<svg width="60" height="80" viewBox="0 0 60 80" fill="none" xmlns="http://www.w3.org/2000/svg">
<g clip-path="url(#clip0_2269_1859)">
<g clip-path="url(#clip1_2269_1859)">
<rect width="60" height="60" fill="white"/>
<rect width="60" height="60" fill="url(#paint0_linear_2269_1859)"/>
<path fill-rule="evenodd" clip-rule="evenodd" d="M22.93 13.0047C22.0004 13.1961 21.3333 14.0145 21.3333 14.9636V23.0001C21.3333 23.0001 21.3333 23.0001 21.3334 23.0001C21.3334 23.0001 21.3334 23.0001 21.3334 23.0001V37.0001C21.3334 37.0462 21.3337 37.0941 21.3341 37.1435C21.3416 38.1656 21.354 39.8411 18.3334 40.0001C15.1693 40.1666 12.0051 42.3299 12 44.9937C12 44.9974 12.0027 45.0006 12.0064 45.0012C12.0102 45.0018 12.013 45.0053 12.0127 45.0092C12.0043 45.1163 12 45.2244 12 45.3334C12 47.9107 14.3878 50.0001 17.3333 50.0001C18.2368 50.0001 19.0878 49.8035 19.8335 49.4566C21.7792 48.8274 23.6667 47.2051 23.6667 43.1668V23.3348C23.6667 22.8602 24.0002 22.451 24.465 22.3553L40.465 19.0612C41.0854 18.9335 41.6667 19.4073 41.6667 20.0407V32.8334C41.6667 32.8793 41.667 32.9269 41.6674 32.9761L41.6674 32.9768C41.6749 33.9989 41.6873 35.6745 38.6667 35.8334C35.5026 36 32.3385 38.1633 32.3333 40.827C32.3333 40.8307 32.336 40.8339 32.3397 40.8345C32.3436 40.8352 32.3463 40.8387 32.346 40.8426C32.3376 40.9497 32.3334 41.0578 32.3334 41.1668C32.3334 43.7441 34.7212 45.8334 37.6667 45.8334C38.5703 45.8334 39.4214 45.6368 40.1673 45.2898C42.1128 44.6605 44 43.0382 44 39.0001L44 18.3334V10.3026C44 9.45809 43.2249 8.82633 42.3978 8.99662L22.93 13.0047Z" fill="url(#paint1_linear_2269_1859)"/>
</g>
</g>
<path d="M13.9219 77V68.5449H15.4336L18.1289 75.2891H18.2227L20.918 68.5449H22.4297V77H21.2344V70.7949H21.1465L18.6621 77H17.6895L15.2109 70.7949H15.1172V77H13.9219ZM26.5254 77.123C25.0898 77.123 24.3457 76.2617 24.3457 74.7559V70.6367H25.6172V74.457C25.6172 75.5117 26.0039 76.0332 26.9355 76.0332C27.9551 76.0332 28.5 75.3945 28.5 74.3691V70.6367H29.7656V77H28.5V76.0391H28.4004C28.0957 76.7246 27.4512 77.123 26.5254 77.123ZM33.9141 77.123C32.3789 77.123 31.4062 76.4023 31.2832 75.3359V75.3301H32.5547L32.5605 75.3359C32.7188 75.8164 33.1816 76.1387 33.9375 76.1387C34.7227 76.1387 35.2676 75.7812 35.2676 75.2598V75.248C35.2676 74.8496 34.9688 74.5801 34.2305 74.4102L33.2168 74.1758C32.0156 73.9004 31.459 73.3555 31.459 72.4238V72.418C31.459 71.3105 32.4902 70.5137 33.9316 70.5137C35.3848 70.5137 36.3164 71.2402 36.4277 72.2773V72.2832H35.2148V72.2715C35.0918 71.8262 34.6406 71.4922 33.9258 71.4922C33.2285 71.4922 32.7246 71.8379 32.7246 72.3477V72.3594C32.7246 72.7578 33.0176 73.0039 33.7324 73.1738L34.7402 73.4023C35.9648 73.6895 36.5508 74.2109 36.5508 75.1309V75.1426C36.5508 76.3203 35.4258 77.123 33.9141 77.123ZM38.7305 69.5C38.291 69.5 37.9336 69.1426 37.9336 68.709C37.9336 68.2695 38.291 67.9121 38.7305 67.9121C39.1641 67.9121 39.5273 68.2695 39.5273 68.709C39.5273 69.1426 39.1641 69.5 38.7305 69.5ZM38.0918 77V70.6367H39.3574V77H38.0918ZM43.8867 77.123C42.0293 77.123 40.8926 75.8574 40.8926 73.8008V73.7891C40.8926 71.7734 42.0234 70.5137 43.8809 70.5137C45.4805 70.5137 46.4355 71.416 46.6113 72.6523V72.6816L45.3926 72.6875L45.3867 72.6699C45.2461 72.043 44.7305 71.5742 43.8867 71.5742C42.8262 71.5742 42.1875 72.418 42.1875 73.7891V73.8008C42.1875 75.207 42.8379 76.0625 43.8867 76.0625C44.6836 76.0625 45.1758 75.6992 45.3809 75.0137L45.3926 74.9844H46.6113L46.5996 75.0371C46.3711 76.2734 45.4629 77.123 43.8867 77.123Z" fill="black"/>
<defs>
<linearGradient id="paint0_linear_2269_1859" x1="30" y1="0" x2="30" y2="60" gradientUnits="userSpaceOnUse">
<stop stop-color="#313131"/>
<stop offset="1" stop-color="#141514"/>
</linearGradient>
<linearGradient id="paint1_linear_2269_1859" x1="28" y1="8.96875" x2="28" y2="50.0001" gradientUnits="userSpaceOnUse">
<stop stop-color="#FB5976"/>
<stop offset="1" stop-color="#FA243B"/>
</linearGradient>
<clipPath id="clip0_2269_1859">
<rect width="60" height="60" rx="13.28" fill="white"/>
</clipPath>
<clipPath id="clip1_2269_1859">
<rect width="60" height="60" fill="white"/>
</clipPath>
</defs>
</svg>
