<svg width="60" height="80" viewBox="0 0 60 80" fill="none" xmlns="http://www.w3.org/2000/svg">
<rect width="60" height="60" rx="13.28" fill="url(#paint0_linear_2269_1842)"/>
<path d="M21.2285 49.9785C20.1738 49.9785 19.5586 49.2402 19.5586 48.0801V43.0176H18.4512C13.3535 43.0176 10.3125 39.9941 10.3125 34.7734V21.1328C10.3125 15.9121 13.2832 12.8887 18.5742 12.8887H41.4434C46.7168 12.8887 49.6875 15.9121 49.6875 21.1328V34.7734C49.6875 39.9941 46.7168 43.0176 41.4434 43.0176H29.8242L23.3906 48.8359C22.5117 49.627 21.9668 49.9785 21.2285 49.9785ZM30.0176 30.9766C31.0195 30.9766 31.582 30.4141 31.6172 29.3594L31.8984 20.5176C31.916 19.4453 31.125 18.6719 30 18.6719C28.8574 18.6719 28.084 19.4277 28.1191 20.5L28.3652 29.3594C28.4004 30.4141 28.9805 30.9766 30.0176 30.9766ZM30.0176 37.041C31.1953 37.041 32.1621 36.1973 32.1621 35.0371C32.1621 33.877 31.2129 33.0156 30.0176 33.0156C28.8223 33.0156 27.8555 33.877 27.8555 35.0371C27.8555 36.1797 28.8398 37.041 30.0176 37.041Z" fill="url(#paint1_linear_2269_1842)"/>
<path d="M2.84766 77V68.5449H8.12695V69.6758H4.16016V72.3535H7.79297V73.4609H4.16016V77H2.84766ZM12.3574 77.123C10.4941 77.123 9.36914 75.8516 9.36914 73.8359V73.8301C9.36914 71.8438 10.5176 70.5137 12.293 70.5137C14.0684 70.5137 15.1582 71.7969 15.1582 73.707V74.1523H10.6465C10.6699 75.3711 11.3379 76.0801 12.3867 76.0801C13.2012 76.0801 13.6875 75.6758 13.8398 75.3477L13.8633 75.3008L15.0879 75.2949L15.0762 75.3477C14.8652 76.1855 13.9863 77.123 12.3574 77.123ZM12.2988 71.5566C11.4316 71.5566 10.7754 72.1484 10.6641 73.2441H13.8984C13.7988 72.1074 13.1602 71.5566 12.2988 71.5566ZM19.3418 77.123C17.4785 77.123 16.3535 75.8516 16.3535 73.8359V73.8301C16.3535 71.8438 17.502 70.5137 19.2773 70.5137C21.0527 70.5137 22.1426 71.7969 22.1426 73.707V74.1523H17.6309C17.6543 75.3711 18.3223 76.0801 19.3711 76.0801C20.1855 76.0801 20.6719 75.6758 20.8242 75.3477L20.8477 75.3008L22.0723 75.2949L22.0605 75.3477C21.8496 76.1855 20.9707 77.123 19.3418 77.123ZM19.2832 71.5566C18.416 71.5566 17.7598 72.1484 17.6484 73.2441H20.8828C20.7832 72.1074 20.1445 71.5566 19.2832 71.5566ZM25.9746 77.1055C24.375 77.1055 23.3379 75.8223 23.3379 73.8242V73.8125C23.3379 71.7969 24.3574 70.5254 25.9746 70.5254C26.8477 70.5254 27.5918 70.959 27.9316 71.6445H28.0312V68.1406H29.2969V77H28.0312V75.998H27.9316C27.5625 76.6953 26.8652 77.1055 25.9746 77.1055ZM26.3379 76.0215C27.3984 76.0215 28.0488 75.1836 28.0488 73.8242V73.8125C28.0488 72.4531 27.3926 71.6152 26.3379 71.6152C25.2715 71.6152 24.6328 72.4473 24.6328 73.8125V73.8242C24.6328 75.1895 25.2715 76.0215 26.3379 76.0215ZM34.5703 77.1055C33.6797 77.1055 32.9824 76.6953 32.6133 75.998H32.5195V77H31.248V68.1406H32.5195V71.6445H32.6133C32.9531 70.959 33.6973 70.5254 34.5703 70.5254C36.1875 70.5254 37.207 71.7969 37.207 73.8125V73.8242C37.207 75.8223 36.1758 77.1055 34.5703 77.1055ZM34.2129 76.0215C35.2734 76.0215 35.9121 75.1895 35.9121 73.8242V73.8125C35.9121 72.4473 35.2734 71.6152 34.2129 71.6152C33.1523 71.6152 32.4961 72.4531 32.4961 73.8125V73.8242C32.4961 75.1836 33.1523 76.0215 34.2129 76.0215ZM40.4707 77.1055C39.2578 77.1055 38.3613 76.3672 38.3613 75.2129V75.2012C38.3613 74.0645 39.2168 73.4023 40.7344 73.3086L42.457 73.209V72.6465C42.457 71.9492 42.0176 71.5625 41.1562 71.5625C40.4531 71.5625 39.9902 71.8203 39.8379 72.2715L39.832 72.2949H38.6074L38.6133 72.2539C38.7656 71.2109 39.7676 70.5137 41.2148 70.5137C42.8145 70.5137 43.7168 71.3105 43.7168 72.6465V77H42.457V76.0977H42.3574C41.9824 76.7422 41.3145 77.1055 40.4707 77.1055ZM39.627 75.1602C39.627 75.7461 40.125 76.0918 40.8105 76.0918C41.7598 76.0918 42.457 75.4707 42.457 74.6504V74.1055L40.9043 74.2051C40.0254 74.2578 39.627 74.5742 39.627 75.1484V75.1602ZM48.1875 77.123C46.3301 77.123 45.1934 75.8574 45.1934 73.8008V73.7891C45.1934 71.7734 46.3242 70.5137 48.1816 70.5137C49.7812 70.5137 50.7363 71.416 50.9121 72.6523V72.6816L49.6934 72.6875L49.6875 72.6699C49.5469 72.043 49.0312 71.5742 48.1875 71.5742C47.127 71.5742 46.4883 72.418 46.4883 73.7891V73.8008C46.4883 75.207 47.1387 76.0625 48.1875 76.0625C48.9844 76.0625 49.4766 75.6992 49.6816 75.0137L49.6934 74.9844H50.9121L50.9004 75.0371C50.6719 76.2734 49.7637 77.123 48.1875 77.123ZM52.4121 77V68.1406H53.6836V73.3203H53.7773L56.3027 70.6367H57.791L55.1367 73.3203L57.9668 77H56.4199L54.2285 74.1406L53.6836 74.6855V77H52.4121Z" fill="black"/>
<defs>
<linearGradient id="paint0_linear_2269_1842" x1="30" y1="0" x2="30" y2="60" gradientUnits="userSpaceOnUse">
<stop stop-color="#313131"/>
<stop offset="1" stop-color="#141514"/>
</linearGradient>
<linearGradient id="paint1_linear_2269_1842" x1="30" y1="-2.43837e-07" x2="30" y2="60" gradientUnits="userSpaceOnUse">
<stop stop-color="#DB81F0"/>
<stop offset="1" stop-color="#AF54DF"/>
</linearGradient>
</defs>
</svg>
