<svg width="60" height="80" viewBox="0 0 60 80" fill="none" xmlns="http://www.w3.org/2000/svg">
<rect width="60" height="60" rx="13.28" fill="url(#paint0_linear_2269_1863)"/>
<path d="M12.7838 50.335L17.3244 48.0647H49.8649C50.4918 48.0647 51 48.5729 51 49.1998C51 49.8268 50.4918 50.335 49.8649 50.335H12.7838Z" fill="#FF9500" fill-opacity="0.5"/>
<path d="M31.9279 30.5065L28.0621 26.6407C27.7719 26.3505 27.7676 25.8801 28.0503 25.5826C35.1017 18.1636 39.2119 13.9745 46.4595 9.47051C48.3514 8.29472 50.526 9.47051 49.4865 11.3624C45.9471 17.8041 41.1214 22.496 32.9968 30.508C32.7007 30.8001 32.2221 30.8007 31.9279 30.5065Z" fill="url(#paint1_linear_2269_1863)"/>
<path d="M30.4114 31.6387L26.9404 28.1677C26.6449 27.8722 26.1641 27.8738 25.8686 28.1693C18.8958 35.1414 14.8966 39.204 11.2462 44.1731C11.0376 44.457 11.0562 44.8475 11.2883 45.1127L13.1613 47.2534C13.3854 47.5094 13.7527 47.5866 14.053 47.4267C18.2509 45.1912 23.0634 40.0884 30.4107 32.7102C30.7054 32.4143 30.7067 31.934 30.4114 31.6387Z" fill="url(#paint2_linear_2269_1863)"/>
<path d="M11.3264 47.3645L11.2141 47.2522C10.8613 46.8994 10.2695 46.9786 10.0219 47.4118L9.13274 48.9679C9.05437 49.1051 9.07749 49.2777 9.18919 49.3894C9.30089 49.5011 9.47353 49.5243 9.61068 49.4459L11.1668 48.5567C11.6 48.3091 11.6793 47.7174 11.3264 47.3645Z" fill="url(#paint3_linear_2269_1863)"/>
<path d="M13.4297 77V68.5449H16.7227C18.3809 68.5449 19.5293 69.6582 19.5293 71.3164V71.3281C19.5293 72.9805 18.3809 74.1113 16.7227 74.1113H14.7422V77H13.4297ZM16.3945 69.6523H14.7422V73.0098H16.3945C17.5312 73.0098 18.1934 72.3945 18.1934 71.334V71.3223C18.1934 70.2676 17.5312 69.6523 16.3945 69.6523ZM22.5879 77.1055C21.375 77.1055 20.4785 76.3672 20.4785 75.2129V75.2012C20.4785 74.0645 21.334 73.4023 22.8516 73.3086L24.5742 73.209V72.6465C24.5742 71.9492 24.1348 71.5625 23.2734 71.5625C22.5703 71.5625 22.1074 71.8203 21.9551 72.2715L21.9492 72.2949H20.7246L20.7305 72.2539C20.8828 71.2109 21.8848 70.5137 23.332 70.5137C24.9316 70.5137 25.834 71.3105 25.834 72.6465V77H24.5742V76.0977H24.4746C24.0996 76.7422 23.4316 77.1055 22.5879 77.1055ZM21.7441 75.1602C21.7441 75.7461 22.2422 76.0918 22.9277 76.0918C23.877 76.0918 24.5742 75.4707 24.5742 74.6504V74.1055L23.0215 74.2051C22.1426 74.2578 21.7441 74.5742 21.7441 75.1484V75.1602ZM30.3164 79.2441C28.6992 79.2441 27.7031 78.5352 27.5508 77.4746L27.5625 77.4629H28.8457L28.8516 77.4746C28.957 77.9141 29.4727 78.2246 30.334 78.2246C31.3828 78.2246 32.0039 77.7324 32.0039 76.8652V75.6113H31.9102C31.5234 76.3027 30.8203 76.6895 29.9473 76.6895C28.3125 76.6895 27.3047 75.4297 27.3047 73.6367V73.625C27.3047 71.8086 28.3184 70.5254 29.9707 70.5254C30.8613 70.5254 31.5527 70.9648 31.9219 71.6797H31.998V70.6367H33.2637V76.8711C33.2637 78.3184 32.1211 79.2441 30.3164 79.2441ZM30.2988 75.6406C31.377 75.6406 32.0273 74.8203 32.0273 73.6309V73.6191C32.0273 72.4355 31.3711 71.6035 30.2988 71.6035C29.2148 71.6035 28.6055 72.4355 28.6055 73.6191V73.6309C28.6055 74.8145 29.2148 75.6406 30.2988 75.6406ZM37.7637 77.123C35.9004 77.123 34.7754 75.8516 34.7754 73.8359V73.8301C34.7754 71.8438 35.9238 70.5137 37.6992 70.5137C39.4746 70.5137 40.5645 71.7969 40.5645 73.707V74.1523H36.0527C36.0762 75.3711 36.7441 76.0801 37.793 76.0801C38.6074 76.0801 39.0938 75.6758 39.2461 75.3477L39.2695 75.3008L40.4941 75.2949L40.4824 75.3477C40.2715 76.1855 39.3926 77.123 37.7637 77.123ZM37.7051 71.5566C36.8379 71.5566 36.1816 72.1484 36.0703 73.2441H39.3047C39.2051 72.1074 38.5664 71.5566 37.7051 71.5566ZM44.3906 77.123C42.8555 77.123 41.8828 76.4023 41.7598 75.3359V75.3301H43.0312L43.0371 75.3359C43.1953 75.8164 43.6582 76.1387 44.4141 76.1387C45.1992 76.1387 45.7441 75.7812 45.7441 75.2598V75.248C45.7441 74.8496 45.4453 74.5801 44.707 74.4102L43.6934 74.1758C42.4922 73.9004 41.9355 73.3555 41.9355 72.4238V72.418C41.9355 71.3105 42.9668 70.5137 44.4082 70.5137C45.8613 70.5137 46.793 71.2402 46.9043 72.2773V72.2832H45.6914V72.2715C45.5684 71.8262 45.1172 71.4922 44.4023 71.4922C43.7051 71.4922 43.2012 71.8379 43.2012 72.3477V72.3594C43.2012 72.7578 43.4941 73.0039 44.209 73.1738L45.2168 73.4023C46.4414 73.6895 47.0273 74.2109 47.0273 75.1309V75.1426C47.0273 76.3203 45.9023 77.123 44.3906 77.123Z" fill="black"/>
<defs>
<linearGradient id="paint0_linear_2269_1863" x1="30" y1="0" x2="30" y2="60" gradientUnits="userSpaceOnUse">
<stop stop-color="#313131"/>
<stop offset="1" stop-color="#141514"/>
</linearGradient>
<linearGradient id="paint1_linear_2269_1863" x1="29.3779" y1="9" x2="29.3779" y2="49.5786" gradientUnits="userSpaceOnUse">
<stop stop-color="#FFB52C"/>
<stop offset="1" stop-color="#FB8718"/>
</linearGradient>
<linearGradient id="paint2_linear_2269_1863" x1="29.3779" y1="9" x2="29.3779" y2="49.5786" gradientUnits="userSpaceOnUse">
<stop stop-color="#FFB52C"/>
<stop offset="1" stop-color="#FB8718"/>
</linearGradient>
<linearGradient id="paint3_linear_2269_1863" x1="29.3779" y1="9" x2="29.3779" y2="49.5786" gradientUnits="userSpaceOnUse">
<stop stop-color="#FFB52C"/>
<stop offset="1" stop-color="#FB8718"/>
</linearGradient>
</defs>
</svg>
