<svg width="60" height="80" viewBox="0 0 60 80" fill="none" xmlns="http://www.w3.org/2000/svg">
<rect width="60" height="60" rx="13.28" fill="url(#paint0_linear_2269_1872)"/>
<circle cx="30" cy="30" r="26.25" fill="#111111"/>
<path fill-rule="evenodd" clip-rule="evenodd" d="M29.8596 14.4136C29.8882 14.2577 30.1117 14.2577 30.1403 14.4136L30.5513 16.6539C30.703 16.66 30.8541 16.6687 31.0045 16.6798L31.6732 14.5027C31.7197 14.3511 31.9417 14.3771 31.952 14.5353L32.0996 16.8063C32.2498 16.8299 32.3991 16.856 32.5476 16.8846L33.4642 14.8014C33.528 14.6563 33.7455 14.7079 33.7373 14.8662L33.6199 17.1373C33.7663 17.1783 33.9118 17.2218 34.0562 17.2676L35.2083 15.3056C35.2886 15.1689 35.4986 15.2455 35.472 15.4018L35.0913 17.6437C35.2319 17.7015 35.3712 17.7616 35.5093 17.824L36.882 16.0086C36.9776 15.8822 37.1773 15.9826 37.1327 16.1348L36.4936 18.3184C36.6262 18.392 36.7574 18.4678 36.8872 18.5457L38.4625 16.9009C38.5722 16.7864 38.7589 16.9093 38.6969 17.0553L37.8076 19.1513C37.9305 19.2396 38.0519 19.3299 38.1717 19.4222L39.9286 17.9702C40.0508 17.8692 40.2219 18.0131 40.1435 18.1509L39.016 20.1302C39.1278 20.232 39.2378 20.3357 39.346 20.4411L41.2603 19.2023C41.3935 19.1161 41.5468 19.2789 41.4528 19.4066L40.103 21.2417C40.2022 21.3557 40.2995 21.4713 40.3949 21.5887L42.4398 20.5803C42.582 20.5102 42.7154 20.6896 42.6072 20.8056L41.054 22.471C41.1394 22.5957 41.2228 22.722 41.304 22.8497L43.451 22.0857C43.6004 22.0325 43.7121 22.2262 43.5912 22.3289L41.856 23.8019C41.9264 23.9359 41.9946 24.0712 42.0605 24.2078L44.2803 23.698C44.4349 23.6625 44.5233 23.8679 44.3913 23.9559L42.4974 25.2173C42.5517 25.3586 42.6036 25.501 42.6532 25.6445L44.9165 25.3956C45.0741 25.3782 45.1382 25.5925 44.9968 25.6645L42.9687 26.6981C43.006 26.8445 43.0409 26.992 43.0733 27.1403L45.3509 27.1553C45.5096 27.1564 45.5483 27.3767 45.3996 27.4318L43.2635 28.2239C43.2834 28.3733 43.3008 28.5235 43.3157 28.6745L45.5779 28.9535C45.7353 28.973 45.7483 29.1963 45.5942 29.2338L43.3789 29.7733C43.3801 29.8488 43.3807 29.9244 43.3807 30.0002C43.3807 30.0757 43.3801 30.1511 43.3789 30.2263L45.5942 30.7659C45.7483 30.8034 45.7353 31.0267 45.5779 31.0461L43.3157 31.3252C43.3009 31.4762 43.2834 31.6264 43.2636 31.7758L45.3996 32.5679C45.5483 32.623 45.5096 32.8433 45.3509 32.8443L43.0735 32.8594C43.0411 33.0077 43.0062 33.1552 42.9689 33.3017L44.9968 34.3352C45.1382 34.4072 45.0741 34.6215 44.9165 34.6041L42.6534 34.3552C42.6039 34.4988 42.5519 34.6412 42.4976 34.7826L44.3913 36.0438C44.5233 36.1317 44.4349 36.3371 44.2803 36.3017L42.0608 35.792C41.9949 35.9286 41.9267 36.064 41.8562 36.198L43.5912 37.6708C43.7121 37.7734 43.6004 37.9672 43.451 37.914L41.3044 37.1501C41.2231 37.2779 41.1397 37.4042 41.0542 37.529L42.6072 39.1941C42.7154 39.3101 42.582 39.4895 42.4398 39.4194L40.3953 38.4112C40.2999 38.5286 40.2025 38.6443 40.1032 38.7583L41.4528 40.5931C41.5468 40.7208 41.3935 40.8836 41.2603 40.7974L39.3464 39.5588C39.2382 39.6644 39.1281 39.7681 39.0163 39.8699L40.1435 41.8488C40.2219 41.9866 40.0508 42.1305 39.9286 42.0294L38.1721 40.5778C38.0523 40.6702 37.9308 40.7606 37.8078 40.849L38.6969 42.9444C38.7589 43.0903 38.5722 43.2133 38.4625 43.0988L36.8876 41.4544C36.7578 41.5324 36.6264 41.6082 36.4937 41.6819L37.1327 43.8649C37.1773 44.0171 36.9776 44.1175 36.882 43.991L35.5097 42.1762C35.3715 42.2386 35.2321 42.2988 35.0914 42.3566L35.472 44.5979C35.4986 44.7542 35.2886 44.8308 35.2083 44.6941L34.0566 42.7327C33.9121 42.7786 33.7665 42.822 33.6199 42.863L33.7373 45.1335C33.7455 45.2918 33.528 45.3434 33.4642 45.1983L32.5479 43.1157C32.3993 43.1443 32.2498 43.1705 32.0995 43.1941L31.952 45.4644C31.9417 45.6226 31.7197 45.6486 31.6732 45.497L31.0047 43.3205C30.8542 43.3317 30.703 43.3404 30.5512 43.3465L30.1403 45.5861C30.1117 45.742 29.8882 45.742 29.8596 45.5861L29.4487 43.3465C29.2968 43.3404 29.1456 43.3317 28.9951 43.3206L28.3266 45.497C28.2801 45.6486 28.0581 45.6226 28.0479 45.4644L27.9003 43.1942C27.75 43.1706 27.6005 43.1444 27.4519 43.1158L26.5356 45.1983C26.4718 45.3434 26.2544 45.2918 26.2625 45.1335L26.3799 42.8632C26.2333 42.8221 26.0877 42.7787 25.9432 42.7328L24.7915 44.6941C24.7113 44.8308 24.5013 44.7542 24.5278 44.5979L24.9084 42.3568C24.7677 42.299 24.6282 42.2388 24.49 42.1764L23.1179 43.991C23.0223 44.1175 22.8226 44.0171 22.8671 43.8649L23.5061 41.6821C23.3733 41.6085 23.242 41.5326 23.112 41.4546L21.5373 43.0988C21.4277 43.2133 21.241 43.0903 21.3029 42.9444L22.1919 40.8492C22.0689 40.7608 21.9474 40.6704 21.8275 40.578L20.0713 42.0294C19.949 42.1305 19.7779 41.9866 19.8564 41.8488L20.9834 39.8702C20.8716 39.7683 20.7614 39.6646 20.6531 39.559L18.7395 40.7974C18.6064 40.8836 18.4531 40.7208 18.5471 40.5931L19.8964 38.7586C19.7971 38.6446 19.6997 38.5288 19.6042 38.4114L17.5601 39.4194C17.4178 39.4895 17.2845 39.3101 17.3926 39.1941L18.9453 37.5293C18.8598 37.4045 18.7764 37.2781 18.6951 37.1502L16.5489 37.914C16.3995 37.9672 16.2878 37.7734 16.4087 37.6708L18.1433 36.1983C18.0728 36.0642 18.0046 35.9288 17.9386 35.7921L15.7196 36.3017C15.565 36.3371 15.4765 36.1317 15.6085 36.0438L17.5019 34.7828C17.4476 34.6414 17.3956 34.4989 17.346 34.3552L15.0834 34.6041C14.9257 34.6215 14.8617 34.4072 15.003 34.3352L17.0306 33.3019C16.9932 33.1553 16.9583 33.0078 16.9259 32.8594L14.6489 32.8443C14.4903 32.8433 14.4515 32.623 14.6002 32.5679L16.7359 31.776C16.716 31.6265 16.6985 31.4762 16.6836 31.3251L14.422 31.0461C14.2646 31.0267 14.2516 30.8034 14.4057 30.7659L16.6205 30.2265C16.6193 30.1512 16.6187 30.0758 16.6187 30.0002C16.6187 29.9244 16.6193 29.8487 16.6205 29.7732L14.4057 29.2338C14.2516 29.1963 14.2646 28.973 14.422 28.9535L16.6837 28.6745C16.6986 28.5235 16.716 28.3732 16.736 28.2237L14.6002 27.4318C14.4515 27.3767 14.4903 27.1564 14.6489 27.1553L16.9261 27.1403C16.9585 26.9919 16.9934 26.8444 17.0307 26.6979L15.003 25.6645C14.8617 25.5925 14.9257 25.3782 15.0834 25.3956L17.3462 25.6445C17.3958 25.5009 17.4478 25.3584 17.5021 25.217L15.6085 23.9559C15.4765 23.8679 15.565 23.6625 15.7196 23.698L17.9389 24.2077C18.0049 24.071 18.0731 23.9357 18.1436 23.8017L16.4087 22.3289C16.2878 22.2262 16.3995 22.0325 16.5489 22.0857L18.6954 22.8496C18.7767 22.7218 18.8601 22.5955 18.9456 22.4707L17.3926 20.8056C17.2845 20.6896 17.4178 20.5102 17.5601 20.5803L19.6046 21.5885C19.7001 21.4711 19.7974 21.3555 19.8967 21.2415L18.5471 19.4066C18.4531 19.2789 18.6064 19.1161 18.7395 19.2023L20.6536 20.4409C20.7618 20.3355 20.8719 20.2318 20.9837 20.13L19.8564 18.1509C19.7779 18.0131 19.949 17.8692 20.0713 17.9702L21.828 19.4221C21.9478 19.3297 22.0692 19.2393 22.1921 19.151L21.3029 17.0553C21.241 16.9093 21.4277 16.7864 21.5373 16.9009L23.1125 18.5456C23.2423 18.4676 23.3736 18.3918 23.5062 18.3182L22.8671 16.1348C22.8226 15.9826 23.0223 15.8822 23.1179 16.0086L24.4904 17.8238C24.6285 17.7615 24.7679 17.7013 24.9085 17.6436L24.5278 15.4018C24.5013 15.2455 24.7113 15.1689 24.7915 15.3056L25.9436 17.2674C26.088 17.2216 26.2335 17.1782 26.38 17.1372L26.2625 14.8662C26.2544 14.7079 26.4718 14.6563 26.5356 14.8014L27.4522 16.8845C27.6007 16.856 27.7501 16.8298 27.9003 16.8062L28.0479 14.5353C28.0581 14.3771 28.2801 14.3511 28.3266 14.5027L28.9953 16.6798C29.1457 16.6687 29.2968 16.66 29.4486 16.6539L29.8596 14.4136ZM30.0001 41.2498C36.2133 41.2498 41.2501 36.213 41.2501 29.9998C41.2501 23.7866 36.2133 18.7498 30.0001 18.7498C23.7869 18.7498 18.7501 23.7866 18.7501 29.9998C18.7501 36.213 23.7869 41.2498 30.0001 41.2498Z" fill="url(#paint1_linear_2269_1872)"/>
<g filter="url(#filter0_d_2269_1872)">
<path fill-rule="evenodd" clip-rule="evenodd" d="M30.1704 5.94943C30.1412 5.75351 29.8587 5.75351 29.8295 5.94943L29.2653 9.73957C28.9676 9.75018 28.6716 9.7672 28.3773 9.7905L27.3771 6.09226C27.3254 5.90106 27.0448 5.93386 27.0386 6.13183L26.9182 9.95923C26.6237 10.0041 26.3313 10.0554 26.0411 10.1128L24.6193 6.55841C24.5458 6.3745 24.2709 6.43965 24.2877 6.63701L24.6123 10.4502C24.325 10.5292 24.0403 10.6143 23.7583 10.7055L21.9343 7.34156C21.8399 7.16743 21.5744 7.26406 21.614 7.45814L22.3791 11.2076C22.1033 11.3196 21.8305 11.4374 21.5609 11.561L19.3584 8.43112C19.2444 8.26914 18.9919 8.39593 19.0538 8.5841L20.2495 12.2209C19.989 12.3641 19.732 12.5128 19.4787 12.6669L16.9264 9.81237C16.7943 9.66471 16.5583 9.81996 16.6416 9.99968L18.2523 13.4751C18.0106 13.6473 17.7728 13.8246 17.5391 14.0069L14.6711 11.4666C14.5229 11.3353 14.3064 11.5169 14.41 11.6857L16.4141 14.9519C16.1941 15.1506 15.9785 15.3541 15.7675 15.5622L12.6232 13.3715C12.4607 13.2583 12.2668 13.4638 12.3893 13.6194L14.7589 16.6308C14.5634 16.8535 14.3727 17.0806 14.1869 17.3118L10.8103 15.5012C10.6357 15.4076 10.467 15.6343 10.6067 15.7747L13.3088 18.4894C13.1403 18.7333 12.977 18.9811 12.819 19.2326L9.25682 17.8271C9.07257 17.7544 8.93131 17.999 9.08639 18.1223L12.0836 20.5036C11.9445 20.7655 11.811 21.0309 11.6832 21.2995L7.9839 20.3175C7.79245 20.2667 7.68055 20.5261 7.84889 20.6305L11.1011 22.647C10.9935 22.9233 10.8918 23.2026 10.7962 23.4846L7.0087 22.9389C6.81265 22.9106 6.73162 23.1813 6.91094 23.2654L10.3757 24.891C10.3013 25.1776 10.233 25.4667 10.171 25.7581L6.34443 25.6557C6.14643 25.6504 6.09737 25.9287 6.28524 25.9914L9.91769 27.2045C9.87731 27.4972 9.84319 27.792 9.81546 28.0886L6.00005 28.4313C5.80277 28.4491 5.78635 28.7311 5.98023 28.7716L9.73131 29.5553C9.72813 29.7031 9.72653 29.8514 9.72653 29.9999C9.72653 30.1485 9.72813 30.2967 9.73131 30.4445L5.98023 31.2282C5.78634 31.2687 5.80277 31.5507 6.00005 31.5685L9.81545 31.9112C9.84318 32.2078 9.8773 32.5026 9.91767 32.7953L6.28524 34.0084C6.09736 34.0711 6.14643 34.3494 6.34443 34.3441L10.171 34.2417C10.233 34.5331 10.3013 34.8222 10.3757 35.1089L6.91094 36.7344C6.73162 36.8185 6.81265 37.0892 7.0087 37.0609L10.7961 36.5152C10.8918 36.7972 10.9935 37.0765 11.1011 37.3528L7.84889 39.3693C7.68055 39.4737 7.79245 39.7331 7.9839 39.6823L11.6831 38.7004C11.8109 38.969 11.9445 39.2343 12.0836 39.4962L9.08639 41.8775C8.9313 42.0008 9.07257 42.2454 9.25682 42.1727L12.819 40.7672C12.9769 41.0187 13.1402 41.2665 13.3088 41.5104L10.6067 44.2251C10.467 44.3655 10.6357 44.5921 10.8103 44.4986L14.1869 42.6881C14.3727 42.9193 14.5634 43.1463 14.7589 43.369L12.3893 46.3804C12.2668 46.536 12.4607 46.7415 12.6232 46.6283L15.7674 44.4376C15.9785 44.6457 16.1941 44.8492 16.4141 45.0479L14.41 48.3141C14.3064 48.4829 14.5229 48.6645 14.6711 48.5332L17.5391 45.9929C17.7728 46.1753 18.0106 46.3526 18.2523 46.5248L16.6416 50.0001C16.5583 50.1798 16.7943 50.3351 16.9264 50.1874L19.4786 47.333C19.732 47.4871 19.989 47.6358 20.2494 47.7789L19.0538 51.4157C18.9919 51.6039 19.2444 51.7307 19.3584 51.5687L21.5608 48.4388C21.8305 48.5624 22.1033 48.6803 22.3791 48.7923L21.614 52.5417C21.5744 52.7357 21.8399 52.8324 21.9343 52.6582L23.7583 49.2944C24.0403 49.3855 24.325 49.4707 24.6123 49.5497L24.2877 53.3628C24.2709 53.5601 24.5458 53.6253 24.6193 53.4414L26.041 49.887C26.3313 49.9445 26.6237 49.9957 26.9182 50.0407L27.0386 53.868C27.0448 54.0659 27.3254 54.0987 27.3771 53.9075L28.3773 50.2094C28.6716 50.2327 28.9676 50.2497 29.2653 50.2603L29.8295 54.0504C29.8587 54.2463 30.1412 54.2463 30.1704 54.0504L30.7346 50.2603C31.0322 50.2497 31.3283 50.2327 31.6225 50.2094L32.6227 53.9075C32.6744 54.0987 32.9551 54.0659 32.9613 53.868L33.0816 50.0407C33.3762 49.9958 33.6686 49.9445 33.9588 49.8871L35.3805 53.4414C35.4541 53.6253 35.729 53.5601 35.7122 53.3628L35.3876 49.5497C35.6748 49.4707 35.9596 49.3856 36.2416 49.2944L38.0655 52.6582C38.1599 52.8324 38.4254 52.7357 38.3858 52.5417L37.6208 48.7923C37.8966 48.6803 38.1694 48.5625 38.439 48.4389L40.6415 51.5687C40.7554 51.7307 41.0079 51.6039 40.9461 51.4157L39.7504 47.779C40.0109 47.6358 40.2679 47.4871 40.5213 47.333L43.0735 50.1874C43.2055 50.3351 43.4416 50.1798 43.3583 50.0001L41.7476 46.5248C41.9893 46.3526 42.2271 46.1753 42.4608 45.993L45.3287 48.5332C45.477 48.6645 45.6934 48.4829 45.5898 48.3141L43.5858 45.048C43.8058 44.8493 44.0214 44.6458 44.2325 44.4377L47.3767 46.6283C47.5392 46.7415 47.7331 46.536 47.6106 46.3804L45.241 43.3691C45.4365 43.1464 45.6273 42.9193 45.813 42.6881L49.1896 44.4986C49.3642 44.5921 49.5329 44.3655 49.3931 44.2251L46.6911 41.5105C46.8597 41.2666 47.023 41.0188 47.181 40.7672L50.743 42.1727C50.9273 42.2454 51.0685 42.0008 50.9135 41.8775L47.9163 39.4963C48.0554 39.2343 48.189 38.969 48.3168 38.7004L52.016 39.6823C52.2074 39.7331 52.3193 39.4737 52.151 39.3693L48.8988 37.3529C49.0064 37.0765 49.1081 36.7973 49.2038 36.5152L52.9911 37.0609C53.1872 37.0892 53.2682 36.8185 53.0889 36.7344L49.6242 35.1089C49.6986 34.8222 49.7669 34.5331 49.829 34.2417L53.6554 34.3441C53.8534 34.3494 53.9025 34.0711 53.7146 34.0084L50.0823 32.7953C50.1226 32.5026 50.1568 32.2078 50.1845 31.9112L53.9998 31.5685C54.1971 31.5507 54.2135 31.2687 54.0196 31.2282L50.2686 30.4445C50.2718 30.2967 50.2734 30.1485 50.2734 29.9999C50.2734 29.8514 50.2718 29.7031 50.2686 29.5553L54.0196 28.7716C54.2135 28.7311 54.1971 28.4491 53.9998 28.4313L50.1845 28.0886C50.1567 27.792 50.1226 27.4972 50.0823 27.2045L53.7146 25.9914C53.9025 25.9287 53.8534 25.6504 53.6554 25.6557L49.829 25.7581C49.7669 25.4667 49.6986 25.1776 49.6242 24.8909L53.0889 23.2654C53.2682 23.1813 53.1872 22.9106 52.9911 22.9389L49.2038 23.4846C49.1081 23.2025 49.0064 22.9233 48.8988 22.6469L52.151 20.6305C52.3193 20.5261 52.2074 20.2667 52.016 20.3175L48.3168 21.2994C48.189 21.0308 48.0554 20.7655 47.9163 20.5035L50.9135 18.1223C51.0685 17.999 50.9273 17.7544 50.743 17.8271L47.1809 19.2326C47.023 18.9811 46.8596 18.7333 46.6911 18.4894L49.3931 15.7747C49.5329 15.6343 49.3642 15.4076 49.1896 15.5012L45.813 17.3117C45.6272 17.0805 45.4365 16.8535 45.2409 16.6307L47.6106 13.6194C47.7331 13.4638 47.5392 13.2583 47.3767 13.3715L44.2324 15.5622C44.0214 15.3541 43.8058 15.1506 43.5858 14.9519L45.5898 11.6857C45.6934 11.5169 45.477 11.3353 45.3287 11.4666L42.4608 14.0069C42.2271 13.8245 41.9893 13.6472 41.7476 13.4751L43.3583 9.99967C43.4416 9.81996 43.2055 9.66471 43.0735 9.81237L40.5212 12.6669C40.2679 12.5128 40.0109 12.364 39.7504 12.2209L40.9461 8.5841C41.0079 8.39593 40.7554 8.26913 40.6415 8.43112L38.439 11.561C38.1694 11.4374 37.8966 11.3195 37.6208 11.2076L38.3858 7.45814C38.4254 7.26406 38.1599 7.16743 38.0655 7.34155L36.2415 10.7055C35.9595 10.6143 35.6748 10.5292 35.3876 10.4502L35.7122 6.63701C35.729 6.43965 35.4541 6.3745 35.3805 6.55841L33.9588 10.1128C33.6686 10.0554 33.3761 10.0041 33.0816 9.95922L32.9613 6.13183C32.9551 5.93386 32.6744 5.90106 32.6227 6.09226L31.6225 9.79049C31.3283 9.76719 31.0322 9.75017 30.7346 9.73957L30.1704 5.94943ZM17.3915 17.1549C18.8029 15.7794 21.0461 16.3202 22.0452 18.0189L27.9111 27.9916C28.5483 29.0749 28.5483 30.4184 27.9111 31.5016L21.8565 41.7953C20.8476 43.5105 18.5741 44.0404 17.1726 42.6277C13.9437 39.3729 11.9529 34.9159 11.9529 29.9998C11.9529 24.9735 14.0339 20.4272 17.3915 17.1549ZM32.7877 30.8231C31.561 30.8231 30.4259 31.4723 29.804 32.5297L23.7184 42.876C22.7077 44.5943 23.3537 46.8425 25.2747 47.3756C26.8505 47.8128 28.5125 48.0467 30.2298 48.0467C38.7863 48.0467 45.9694 42.2408 47.9592 34.4012C48.4447 32.4883 46.8389 30.8231 44.8654 30.8231H32.7877ZM44.7315 28.67C46.7436 28.67 48.3606 26.9406 47.7987 25.0086C45.6059 17.4693 38.5702 11.9529 30.2298 11.9529C28.6207 11.9529 27.0601 12.1582 25.5735 12.5438C23.6252 13.0491 22.9544 15.3183 23.9748 17.0533L29.8039 26.9635C30.4259 28.0208 31.5609 28.67 32.7876 28.67H44.7315ZM30.0108 30.9668C30.561 30.9668 31.0069 30.5209 31.0069 29.9707C31.0069 29.4206 30.561 28.9747 30.0108 28.9747C29.4607 28.9747 29.0147 29.4206 29.0147 29.9707C29.0147 30.5209 29.4607 30.9668 30.0108 30.9668Z" fill="url(#paint2_linear_2269_1872)"/>
</g>
<path d="M9.80273 77.2051C7.89258 77.2051 6.66797 76.2383 6.55078 74.8145L6.54492 74.7383H7.83398L7.83984 74.8027C7.91016 75.5703 8.72461 76.0625 9.85547 76.0625C10.9336 76.0625 11.7012 75.5234 11.7012 74.7383V74.7324C11.7012 74.082 11.2441 73.6602 10.125 73.4199L9.19922 73.2207C7.48242 72.8574 6.74414 72.0605 6.74414 70.8125V70.8066C6.75 69.3477 8.01562 68.3398 9.80859 68.3398C11.6016 68.3398 12.7734 69.3535 12.8672 70.666L12.873 70.748H11.6016L11.5898 70.6719C11.4785 69.9805 10.8164 69.4766 9.79102 69.4824C8.80078 69.4824 8.06836 69.9453 8.06836 70.7422V70.748C8.06836 71.375 8.51367 71.7852 9.60938 72.0195L10.5293 72.2246C12.3047 72.6055 13.0312 73.3203 13.0312 74.5742V74.5801C13.0312 76.1973 11.7715 77.2051 9.80273 77.2051ZM17.2852 77.123C15.4219 77.123 14.2969 75.8516 14.2969 73.8359V73.8301C14.2969 71.8438 15.4453 70.5137 17.2207 70.5137C18.9961 70.5137 20.0859 71.7969 20.0859 73.707V74.1523H15.5742C15.5977 75.3711 16.2656 76.0801 17.3145 76.0801C18.1289 76.0801 18.6152 75.6758 18.7676 75.3477L18.791 75.3008L20.0156 75.2949L20.0039 75.3477C19.793 76.1855 18.9141 77.123 17.2852 77.123ZM17.2266 71.5566C16.3594 71.5566 15.7031 72.1484 15.5918 73.2441H18.8262C18.7266 72.1074 18.0879 71.5566 17.2266 71.5566ZM24 77.041C22.5996 77.041 22.0254 76.5488 22.0254 75.3242V71.6387H21.0293V70.6367H22.0254V69.0312H23.3203V70.6367H24.6855V71.6387H23.3203V75.0195C23.3203 75.7051 23.5781 75.9863 24.2051 75.9863C24.3984 75.9863 24.5098 75.9805 24.6855 75.9629V76.9766C24.4805 77.0117 24.2461 77.041 24 77.041ZM28.5938 77.041C27.1934 77.041 26.6191 76.5488 26.6191 75.3242V71.6387H25.623V70.6367H26.6191V69.0312H27.9141V70.6367H29.2793V71.6387H27.9141V75.0195C27.9141 75.7051 28.1719 75.9863 28.7988 75.9863C28.9922 75.9863 29.1035 75.9805 29.2793 75.9629V76.9766C29.0742 77.0117 28.8398 77.041 28.5938 77.041ZM31.4238 69.5C30.9844 69.5 30.627 69.1426 30.627 68.709C30.627 68.2695 30.9844 67.9121 31.4238 67.9121C31.8574 67.9121 32.2207 68.2695 32.2207 68.709C32.2207 69.1426 31.8574 69.5 31.4238 69.5ZM30.7852 77V70.6367H32.0508V77H30.7852ZM33.9023 77V70.6367H35.1738V71.6035H35.2676C35.5781 70.9238 36.1875 70.5137 37.1133 70.5137C38.5371 70.5137 39.3223 71.3633 39.3223 72.8809V77H38.0566V73.1797C38.0566 72.125 37.6172 71.6035 36.6855 71.6035C35.7539 71.6035 35.1738 72.2422 35.1738 73.2676V77H33.9023ZM43.7871 79.2441C42.1699 79.2441 41.1738 78.5352 41.0215 77.4746L41.0332 77.4629H42.3164L42.3223 77.4746C42.4277 77.9141 42.9434 78.2246 43.8047 78.2246C44.8535 78.2246 45.4746 77.7324 45.4746 76.8652V75.6113H45.3809C44.9941 76.3027 44.291 76.6895 43.418 76.6895C41.7832 76.6895 40.7754 75.4297 40.7754 73.6367V73.625C40.7754 71.8086 41.7891 70.5254 43.4414 70.5254C44.332 70.5254 45.0234 70.9648 45.3926 71.6797H45.4688V70.6367H46.7344V76.8711C46.7344 78.3184 45.5918 79.2441 43.7871 79.2441ZM43.7695 75.6406C44.8477 75.6406 45.498 74.8203 45.498 73.6309V73.6191C45.498 72.4355 44.8418 71.6035 43.7695 71.6035C42.6855 71.6035 42.0762 72.4355 42.0762 73.6191V73.6309C42.0762 74.8145 42.6855 75.6406 43.7695 75.6406ZM50.877 77.123C49.3418 77.123 48.3691 76.4023 48.2461 75.3359V75.3301H49.5176L49.5234 75.3359C49.6816 75.8164 50.1445 76.1387 50.9004 76.1387C51.6855 76.1387 52.2305 75.7812 52.2305 75.2598V75.248C52.2305 74.8496 51.9316 74.5801 51.1934 74.4102L50.1797 74.1758C48.9785 73.9004 48.4219 73.3555 48.4219 72.4238V72.418C48.4219 71.3105 49.4531 70.5137 50.8945 70.5137C52.3477 70.5137 53.2793 71.2402 53.3906 72.2773V72.2832H52.1777V72.2715C52.0547 71.8262 51.6035 71.4922 50.8887 71.4922C50.1914 71.4922 49.6875 71.8379 49.6875 72.3477V72.3594C49.6875 72.7578 49.9805 73.0039 50.6953 73.1738L51.7031 73.4023C52.9277 73.6895 53.5137 74.2109 53.5137 75.1309V75.1426C53.5137 76.3203 52.3887 77.123 50.877 77.123Z" fill="black"/>
<defs>
<filter id="filter0_d_2269_1872" x="4.9816" y="5.80249" width="50.0367" height="50.1179" filterUnits="userSpaceOnUse" color-interpolation-filters="sRGB">
<feFlood flood-opacity="0" result="BackgroundImageFix"/>
<feColorMatrix in="SourceAlpha" type="matrix" values="0 0 0 0 0 0 0 0 0 0 0 0 0 0 0 0 0 0 127 0" result="hardAlpha"/>
<feOffset dy="0.861538"/>
<feGaussianBlur stdDeviation="0.430769"/>
<feColorMatrix type="matrix" values="0 0 0 0 0 0 0 0 0 0 0 0 0 0 0 0 0 0 0.45 0"/>
<feBlend mode="normal" in2="BackgroundImageFix" result="effect1_dropShadow_2269_1872"/>
<feBlend mode="normal" in="SourceGraphic" in2="effect1_dropShadow_2269_1872" result="shape"/>
</filter>
<linearGradient id="paint0_linear_2269_1872" x1="30" y1="0" x2="30" y2="60" gradientUnits="userSpaceOnUse">
<stop stop-color="#313131"/>
<stop offset="1" stop-color="#141514"/>
</linearGradient>
<linearGradient id="paint1_linear_2269_1872" x1="29.9999" y1="14.9998" x2="29.9999" y2="44.9997" gradientUnits="userSpaceOnUse">
<stop stop-color="#B4B4B8"/>
<stop offset="1" stop-color="#B4B4B8"/>
</linearGradient>
<linearGradient id="paint2_linear_2269_1872" x1="30.0196" y1="6.15745" x2="30.2891" y2="54.2268" gradientUnits="userSpaceOnUse">
<stop offset="0.193294" stop-color="#D4D4D8"/>
<stop offset="0.830878" stop-color="#9D9DA1"/>
</linearGradient>
</defs>
</svg>
