<svg width="60" height="80" viewBox="0 0 60 80" fill="none" xmlns="http://www.w3.org/2000/svg">
<rect width="60" height="60" rx="13.28" fill="url(#paint0_linear_2269_1883)"/>
<path d="M18 18C27 5.99999 47 10.9999 47 29.9999C47 48.9999 27 54 18 42" stroke="white" stroke-width="2.5" stroke-linecap="round"/>
<path fill-rule="evenodd" clip-rule="evenodd" d="M19.9745 19.5462C19.9914 19.6951 20 19.8466 20 20V40C20 40.1379 19.993 40.2741 19.9794 40.4083L19.572 40.0009C18.5957 39.0246 17.0128 39.0246 16.0364 40.0009C15.0601 40.9772 15.0601 42.5601 16.0364 43.5364L16.4724 43.9724C16.3175 43.9906 16.1598 44 16 44C13.7909 44 12 42.2091 12 40V20C12 17.7909 13.7909 16 16 16C16.1443 16 16.2868 16.0076 16.4271 16.0225L16.0364 16.4133C15.0601 17.3896 15.0601 18.9725 16.0364 19.9488C17.0127 20.9251 18.5956 20.9251 19.5719 19.9488L19.9745 19.5462ZM17.75 24.875C17.75 25.7725 17.0225 26.5 16.125 26.5C15.2275 26.5 14.5 25.7725 14.5 24.875C14.5 23.9775 15.2275 23.25 16.125 23.25C17.0225 23.25 17.75 23.9775 17.75 24.875ZM18.75 24.875C18.75 26.3247 17.5747 27.5 16.125 27.5C14.6753 27.5 13.5 26.3247 13.5 24.875C13.5 23.4253 14.6753 22.25 16.125 22.25C17.5747 22.25 18.75 23.4253 18.75 24.875Z" fill="#919192"/>
<path d="M14.5312 77L12.252 68.5449H13.6172L15.1699 75.1191H15.252L17.0156 68.5449H18.2344L20.0098 75.1191H20.0918L21.6387 68.5449H23.0039L20.7188 77H19.4824L17.666 70.6777H17.584L15.7734 77H14.5312ZM25.5469 77.1055C24.334 77.1055 23.4375 76.3672 23.4375 75.2129V75.2012C23.4375 74.0645 24.293 73.4023 25.8105 73.3086L27.5332 73.209V72.6465C27.5332 71.9492 27.0938 71.5625 26.2324 71.5625C25.5293 71.5625 25.0664 71.8203 24.9141 72.2715L24.9082 72.2949H23.6836L23.6895 72.2539C23.8418 71.2109 24.8438 70.5137 26.291 70.5137C27.8906 70.5137 28.793 71.3105 28.793 72.6465V77H27.5332V76.0977H27.4336C27.0586 76.7422 26.3906 77.1055 25.5469 77.1055ZM24.7031 75.1602C24.7031 75.7461 25.2012 76.0918 25.8867 76.0918C26.8359 76.0918 27.5332 75.4707 27.5332 74.6504V74.1055L25.9805 74.2051C25.1016 74.2578 24.7031 74.5742 24.7031 75.1484V75.1602ZM32.9883 77.041C31.5879 77.041 31.0137 76.5488 31.0137 75.3242V71.6387H30.0176V70.6367H31.0137V69.0312H32.3086V70.6367H33.6738V71.6387H32.3086V75.0195C32.3086 75.7051 32.5664 75.9863 33.1934 75.9863C33.3867 75.9863 33.498 75.9805 33.6738 75.9629V76.9766C33.4688 77.0117 33.2344 77.041 32.9883 77.041ZM37.7637 77.123C35.9062 77.123 34.7695 75.8574 34.7695 73.8008V73.7891C34.7695 71.7734 35.9004 70.5137 37.7578 70.5137C39.3574 70.5137 40.3125 71.416 40.4883 72.6523V72.6816L39.2695 72.6875L39.2637 72.6699C39.123 72.043 38.6074 71.5742 37.7637 71.5742C36.7031 71.5742 36.0645 72.418 36.0645 73.7891V73.8008C36.0645 75.207 36.7148 76.0625 37.7637 76.0625C38.5605 76.0625 39.0527 75.6992 39.2578 75.0137L39.2695 74.9844H40.4883L40.4766 75.0371C40.248 76.2734 39.3398 77.123 37.7637 77.123ZM41.9883 77V68.1406H43.2598V71.6035H43.3535C43.6641 70.9238 44.2734 70.5137 45.1992 70.5137C46.623 70.5137 47.4082 71.3633 47.4082 72.8809V77H46.1426V73.1797C46.1426 72.125 45.7031 71.6035 44.7715 71.6035C43.8398 71.6035 43.2598 72.2422 43.2598 73.2676V77H41.9883Z" fill="black"/>
<defs>
<linearGradient id="paint0_linear_2269_1883" x1="30" y1="0" x2="30" y2="60" gradientUnits="userSpaceOnUse">
<stop stop-color="#313131"/>
<stop offset="1" stop-color="#141514"/>
</linearGradient>
</defs>
</svg>
