<svg width="60" height="80" viewBox="0 0 60 80" fill="none" xmlns="http://www.w3.org/2000/svg">
<g clip-path="url(#clip0_2269_1836)">
<g clip-path="url(#clip1_2269_1836)">
<rect width="60" height="60" fill="white"/>
<rect width="60" height="60" fill="url(#paint0_linear_2269_1836)"/>
<path d="M33.9526 12.3333H25.714C24.83 12.3333 23.9821 12.6844 23.357 13.3096L20.5858 16.0808C20.2107 16.4559 19.702 16.6666 19.1716 16.6666H15.4667C12.8531 16.6666 11.5463 16.6666 10.548 17.1752C9.66995 17.6226 8.95605 18.3365 8.50864 19.2146C8 20.2129 8 21.5197 8 24.1332V38.8666C8 41.4802 8 42.7869 8.50864 43.7852C8.95605 44.6633 9.66995 45.3772 10.548 45.8246C11.5463 46.3332 12.8531 46.3332 15.4667 46.3332H44.5333C47.1469 46.3332 48.4537 46.3332 49.452 45.8246C50.33 45.3772 51.044 44.6633 51.4914 43.7852C52 42.7869 52 41.4802 52 38.8666V24.1332C52 21.5197 52 20.2129 51.4914 19.2146C51.044 18.3365 50.33 17.6226 49.452 17.1752C48.4537 16.6666 47.1469 16.6666 44.5333 16.6666H40.4951C39.9647 16.6666 39.456 16.4559 39.0809 16.0808L36.3096 13.3096C35.6845 12.6844 34.8367 12.3333 33.9526 12.3333Z" fill="url(#paint1_linear_2269_1836)"/>
<path d="M33.9526 12.3333H25.714C24.83 12.3333 23.9821 12.6844 23.357 13.3096L20.5858 16.0808C20.2107 16.4559 19.702 16.6666 19.1716 16.6666H15.4667C12.8531 16.6666 11.5463 16.6666 10.548 17.1752C9.66995 17.6226 8.95605 18.3365 8.50864 19.2146C8 20.2129 8 21.5197 8 24.1332V38.8666C8 41.4802 8 42.7869 8.50864 43.7852C8.95605 44.6633 9.66995 45.3772 10.548 45.8246C11.5463 46.3332 12.8531 46.3332 15.4667 46.3332H44.5333C47.1469 46.3332 48.4537 46.3332 49.452 45.8246C50.33 45.3772 51.044 44.6633 51.4914 43.7852C52 42.7869 52 41.4802 52 38.8666V24.1332C52 21.5197 52 20.2129 51.4914 19.2146C51.044 18.3365 50.33 17.6226 49.452 17.1752C48.4537 16.6666 47.1469 16.6666 44.5333 16.6666H40.4951C39.9647 16.6666 39.456 16.4559 39.0809 16.0808L36.3096 13.3096C35.6845 12.6844 34.8367 12.3333 33.9526 12.3333Z" fill="url(#paint2_linear_2269_1836)"/>
<path fill-rule="evenodd" clip-rule="evenodd" d="M30 41.3335C35.5228 41.3335 40 36.8563 40 31.3335C40 25.8106 35.5228 21.3335 30 21.3335C24.4772 21.3335 20 25.8106 20 31.3335C20 36.8563 24.4772 41.3335 30 41.3335ZM29.9999 39.3334C34.4182 39.3334 37.9999 35.7516 37.9999 31.3334C37.9999 26.9151 34.4182 23.3334 29.9999 23.3334C25.5817 23.3334 21.9999 26.9151 21.9999 31.3334C21.9999 35.7516 25.5817 39.3334 29.9999 39.3334Z" fill="url(#paint3_linear_2269_1836)"/>
<circle cx="45.0002" cy="23.3335" r="2" fill="#FCCA00"/>
</g>
</g>
<path d="M12.1641 77.2051C9.81445 77.2051 8.34961 75.5059 8.34961 72.7812V72.7695C8.34961 70.0391 9.80859 68.3398 12.1582 68.3398C14.0215 68.3398 15.4512 69.5176 15.6738 71.1992L15.668 71.2285H14.3672V71.2109C14.1211 70.1738 13.2715 69.5 12.1582 69.5C10.6406 69.5 9.69141 70.7598 9.69141 72.7695V72.7812C9.69141 74.7852 10.6406 76.0449 12.1641 76.0449C13.2832 76.0449 14.1211 75.4473 14.3613 74.4922L14.373 74.4688H15.6738V74.5039C15.4277 76.127 14.0508 77.2051 12.1641 77.2051ZM19.002 77.1055C17.7891 77.1055 16.8926 76.3672 16.8926 75.2129V75.2012C16.8926 74.0645 17.748 73.4023 19.2656 73.3086L20.9883 73.209V72.6465C20.9883 71.9492 20.5488 71.5625 19.6875 71.5625C18.9844 71.5625 18.5215 71.8203 18.3691 72.2715L18.3633 72.2949H17.1387L17.1445 72.2539C17.2969 71.2109 18.2988 70.5137 19.7461 70.5137C21.3457 70.5137 22.248 71.3105 22.248 72.6465V77H20.9883V76.0977H20.8887C20.5137 76.7422 19.8457 77.1055 19.002 77.1055ZM18.1582 75.1602C18.1582 75.7461 18.6562 76.0918 19.3418 76.0918C20.291 76.0918 20.9883 75.4707 20.9883 74.6504V74.1055L19.4355 74.2051C18.5566 74.2578 18.1582 74.5742 18.1582 75.1484V75.1602ZM24.041 77V70.6367H25.3125V71.6152H25.4062C25.6875 70.918 26.3086 70.5137 27.1406 70.5137C28.0078 70.5137 28.623 70.9648 28.9043 71.6504H29.0039C29.3262 70.9648 30.0586 70.5137 30.9434 70.5137C32.2266 70.5137 32.9766 71.2871 32.9766 72.6113V77H31.7109V72.916C31.7109 72.0371 31.3125 71.6035 30.4805 71.6035C29.6719 71.6035 29.1387 72.207 29.1387 72.9746V77H27.873V72.7871C27.873 72.0605 27.3984 71.6035 26.6484 71.6035C25.8809 71.6035 25.3125 72.2598 25.3125 73.0918V77H24.041ZM37.4238 77.123C35.5605 77.123 34.4355 75.8516 34.4355 73.8359V73.8301C34.4355 71.8438 35.584 70.5137 37.3594 70.5137C39.1348 70.5137 40.2246 71.7969 40.2246 73.707V74.1523H35.7129C35.7363 75.3711 36.4043 76.0801 37.4531 76.0801C38.2676 76.0801 38.7539 75.6758 38.9062 75.3477L38.9297 75.3008L40.1543 75.2949L40.1426 75.3477C39.9316 76.1855 39.0527 77.123 37.4238 77.123ZM37.3652 71.5566C36.498 71.5566 35.8418 72.1484 35.7305 73.2441H38.9648C38.8652 72.1074 38.2266 71.5566 37.3652 71.5566ZM41.7363 77V70.6367H43.0078V71.5977H43.1016C43.3301 70.9238 43.9219 70.5254 44.7715 70.5254C44.9766 70.5254 45.1992 70.5547 45.3281 70.584V71.7559C45.0996 71.709 44.8828 71.6797 44.6426 71.6797C43.6699 71.6797 43.0078 72.2773 43.0078 73.1973V77H41.7363ZM48.2402 77.1055C47.0273 77.1055 46.1309 76.3672 46.1309 75.2129V75.2012C46.1309 74.0645 46.9863 73.4023 48.5039 73.3086L50.2266 73.209V72.6465C50.2266 71.9492 49.7871 71.5625 48.9258 71.5625C48.2227 71.5625 47.7598 71.8203 47.6074 72.2715L47.6016 72.2949H46.377L46.3828 72.2539C46.5352 71.2109 47.5371 70.5137 48.9844 70.5137C50.584 70.5137 51.4863 71.3105 51.4863 72.6465V77H50.2266V76.0977H50.127C49.752 76.7422 49.084 77.1055 48.2402 77.1055ZM47.3965 75.1602C47.3965 75.7461 47.8945 76.0918 48.5801 76.0918C49.5293 76.0918 50.2266 75.4707 50.2266 74.6504V74.1055L48.6738 74.2051C47.7949 74.2578 47.3965 74.5742 47.3965 75.1484V75.1602Z" fill="black"/>
<defs>
<linearGradient id="paint0_linear_2269_1836" x1="30" y1="0" x2="30" y2="60" gradientUnits="userSpaceOnUse">
<stop stop-color="#313131"/>
<stop offset="1" stop-color="#141514"/>
</linearGradient>
<linearGradient id="paint1_linear_2269_1836" x1="30" y1="12.3333" x2="30" y2="46.3332" gradientUnits="userSpaceOnUse">
<stop stop-color="#2D2D2D"/>
<stop offset="1" stop-color="#2D2C2E"/>
</linearGradient>
<linearGradient id="paint2_linear_2269_1836" x1="30" y1="12.3333" x2="30" y2="46.3332" gradientUnits="userSpaceOnUse">
<stop stop-color="#A9A8AD"/>
<stop offset="1" stop-color="#616162"/>
</linearGradient>
<linearGradient id="paint3_linear_2269_1836" x1="30" y1="21.3335" x2="30" y2="41.3335" gradientUnits="userSpaceOnUse">
<stop stop-color="#313131"/>
<stop offset="1" stop-color="#141514"/>
</linearGradient>
<clipPath id="clip0_2269_1836">
<rect width="60" height="60" rx="13.28" fill="white"/>
</clipPath>
<clipPath id="clip1_2269_1836">
<rect width="60" height="60" fill="white"/>
</clipPath>
</defs>
</svg>
