<svg width="60" height="80" viewBox="0 0 60 80" fill="none" xmlns="http://www.w3.org/2000/svg">
<rect width="60" height="60" rx="13.3594" fill="url(#paint0_linear_2269_1841)"/>
<path fill-rule="evenodd" clip-rule="evenodd" d="M9.54488 20.3086C8.90625 21.562 8.90625 23.2028 8.90625 26.4844V33.5156C8.90625 36.7972 8.90625 38.438 9.54488 39.6914C10.1066 40.7939 11.003 41.6902 12.1055 42.252C13.3589 42.8906 14.9997 42.8906 18.2812 42.8906H28.8281C32.1097 42.8906 33.7505 42.8906 35.0039 42.252C36.1064 41.6902 37.0027 40.7939 37.5645 39.6914C38.2031 38.438 38.2031 36.7972 38.2031 33.5156V26.4844C38.2031 23.2028 38.2031 21.562 37.5645 20.3086C37.0027 19.2061 36.1064 18.3098 35.0039 17.748C33.7505 17.1094 32.1097 17.1094 28.8281 17.1094H18.2813C14.9997 17.1094 13.3589 17.1094 12.1055 17.748C11.003 18.3098 10.1066 19.2061 9.54488 20.3086ZM40.3448 24.7496C39.8813 25.1044 39.6094 25.6549 39.6094 26.2386V33.7614C39.6094 34.3451 39.8813 34.8956 40.3448 35.2504L48.0792 41.1695C49.3129 42.1137 51.0938 41.234 51.0938 39.6805V20.3195C51.0938 18.766 49.3129 17.8863 48.0792 18.8305L40.3448 24.7496Z" fill="url(#paint1_linear_2269_1841)"/>
<path d="M3.79688 77V68.5449H9.07617V69.6758H5.10938V72.3535H8.74219V73.4609H5.10938V77H3.79688ZM12.0059 77.1055C10.793 77.1055 9.89648 76.3672 9.89648 75.2129V75.2012C9.89648 74.0645 10.752 73.4023 12.2695 73.3086L13.9922 73.209V72.6465C13.9922 71.9492 13.5527 71.5625 12.6914 71.5625C11.9883 71.5625 11.5254 71.8203 11.373 72.2715L11.3672 72.2949H10.1426L10.1484 72.2539C10.3008 71.2109 11.3027 70.5137 12.75 70.5137C14.3496 70.5137 15.252 71.3105 15.252 72.6465V77H13.9922V76.0977H13.8926C13.5176 76.7422 12.8496 77.1055 12.0059 77.1055ZM11.1621 75.1602C11.1621 75.7461 11.6602 76.0918 12.3457 76.0918C13.2949 76.0918 13.9922 75.4707 13.9922 74.6504V74.1055L12.4395 74.2051C11.5605 74.2578 11.1621 74.5742 11.1621 75.1484V75.1602ZM19.7227 77.123C17.8652 77.123 16.7285 75.8574 16.7285 73.8008V73.7891C16.7285 71.7734 17.8594 70.5137 19.7168 70.5137C21.3164 70.5137 22.2715 71.416 22.4473 72.6523V72.6816L21.2285 72.6875L21.2227 72.6699C21.082 72.043 20.5664 71.5742 19.7227 71.5742C18.6621 71.5742 18.0234 72.418 18.0234 73.7891V73.8008C18.0234 75.207 18.6738 76.0625 19.7227 76.0625C20.5195 76.0625 21.0117 75.6992 21.2168 75.0137L21.2285 74.9844H22.4473L22.4355 75.0371C22.207 76.2734 21.2988 77.123 19.7227 77.123ZM26.5605 77.123C24.6973 77.123 23.5723 75.8516 23.5723 73.8359V73.8301C23.5723 71.8438 24.7207 70.5137 26.4961 70.5137C28.2715 70.5137 29.3613 71.7969 29.3613 73.707V74.1523H24.8496C24.873 75.3711 25.541 76.0801 26.5898 76.0801C27.4043 76.0801 27.8906 75.6758 28.043 75.3477L28.0664 75.3008L29.291 75.2949L29.2793 75.3477C29.0684 76.1855 28.1895 77.123 26.5605 77.123ZM26.502 71.5566C25.6348 71.5566 24.9785 72.1484 24.8672 73.2441H28.1016C28.002 72.1074 27.3633 71.5566 26.502 71.5566ZM32.0273 77V69.6758H29.3672V68.5449H35.9941V69.6758H33.3398V77H32.0273ZM38.0039 69.5C37.5645 69.5 37.207 69.1426 37.207 68.709C37.207 68.2695 37.5645 67.9121 38.0039 67.9121C38.4375 67.9121 38.8008 68.2695 38.8008 68.709C38.8008 69.1426 38.4375 69.5 38.0039 69.5ZM37.3652 77V70.6367H38.6309V77H37.3652ZM40.4824 77V70.6367H41.7539V71.6152H41.8477C42.1289 70.918 42.75 70.5137 43.582 70.5137C44.4492 70.5137 45.0645 70.9648 45.3457 71.6504H45.4453C45.7676 70.9648 46.5 70.5137 47.3848 70.5137C48.668 70.5137 49.418 71.2871 49.418 72.6113V77H48.1523V72.916C48.1523 72.0371 47.7539 71.6035 46.9219 71.6035C46.1133 71.6035 45.5801 72.207 45.5801 72.9746V77H44.3145V72.7871C44.3145 72.0605 43.8398 71.6035 43.0898 71.6035C42.3223 71.6035 41.7539 72.2598 41.7539 73.0918V77H40.4824ZM53.8652 77.123C52.002 77.123 50.877 75.8516 50.877 73.8359V73.8301C50.877 71.8438 52.0254 70.5137 53.8008 70.5137C55.5762 70.5137 56.666 71.7969 56.666 73.707V74.1523H52.1543C52.1777 75.3711 52.8457 76.0801 53.8945 76.0801C54.709 76.0801 55.1953 75.6758 55.3477 75.3477L55.3711 75.3008L56.5957 75.2949L56.584 75.3477C56.373 76.1855 55.4941 77.123 53.8652 77.123ZM53.8066 71.5566C52.9395 71.5566 52.2832 72.1484 52.1719 73.2441H55.4062C55.3066 72.1074 54.668 71.5566 53.8066 71.5566Z" fill="black"/>
<defs>
<linearGradient id="paint0_linear_2269_1841" x1="30" y1="0" x2="30" y2="60" gradientUnits="userSpaceOnUse">
<stop stop-color="#313131"/>
<stop offset="1" stop-color="#141514"/>
</linearGradient>
<linearGradient id="paint1_linear_2269_1841" x1="30" y1="17.1094" x2="30" y2="42.8906" gradientUnits="userSpaceOnUse">
<stop stop-color="#5CF777"/>
<stop offset="1" stop-color="#0EBC29"/>
</linearGradient>
</defs>
</svg>
