<svg width="60" height="80" viewBox="0 0 60 80" fill="none" xmlns="http://www.w3.org/2000/svg">
<g clip-path="url(#clip0_2269_1870)">
<rect width="60" height="60" fill="url(#paint0_linear_2269_1870)"/>
<path fill-rule="evenodd" clip-rule="evenodd" d="M22.9515 12.762C22.5 13.6482 22.5 14.8084 22.5 17.1286V42.3714C22.5 44.6916 22.5 45.8518 22.9515 46.738C23.3487 47.5175 23.9825 48.1513 24.762 48.5485C25.6482 49 26.8084 49 29.1286 49H30.8714C33.1916 49 34.3518 49 35.238 48.5485C36.0175 48.1513 36.6513 47.5175 37.0485 46.738C37.5 45.8518 37.5 44.6916 37.5 42.3714V17.1286C37.5 14.8084 37.5 13.6482 37.0485 12.762C36.6513 11.9825 36.0175 11.3487 35.238 10.9515C34.3518 10.5 33.1916 10.5 30.8714 10.5H29.1286C26.8084 10.5 25.6482 10.5 24.762 10.9515C23.9825 11.3487 23.3487 11.9825 22.9515 12.762ZM35.5002 20C35.5002 23.0376 33.0378 25.5 30.0002 25.5C26.9626 25.5 24.5002 23.0376 24.5002 20C24.5002 16.9625 26.9626 14.5 30.0002 14.5C33.0378 14.5 35.5002 16.9625 35.5002 20ZM27.2502 30.5C28.3548 30.5 29.2502 29.6046 29.2502 28.5C29.2502 27.3955 28.3548 26.5 27.2502 26.5C26.1456 26.5 25.2502 27.3955 25.2502 28.5C25.2502 29.6046 26.1456 30.5 27.2502 30.5ZM32.7502 30.5C33.8548 30.5 34.7502 29.6046 34.7502 28.5C34.7502 27.3955 33.8548 26.5 32.7502 26.5C31.6456 26.5 30.7502 27.3955 30.7502 28.5C30.7502 29.6046 31.6456 30.5 32.7502 30.5ZM29.2502 34C29.2502 35.1046 28.3548 36 27.2502 36C26.1456 36 25.2502 35.1046 25.2502 34C25.2502 32.8955 26.1456 32 27.2502 32C28.3548 32 29.2502 32.8955 29.2502 34ZM27.2502 41C28.3548 41 29.2502 40.1046 29.2502 39C29.2502 37.8955 28.3548 37 27.2502 37C26.1456 37 25.2502 37.8955 25.2502 39C25.2502 40.1046 26.1456 41 27.2502 41ZM30.7502 34C30.7502 32.8955 31.6456 32 32.7502 32C33.8548 32 34.7502 32.8955 34.7502 34V39C34.7502 40.1046 33.8548 41 32.7502 41C31.6456 41 30.7502 40.1046 30.7502 39V34Z" fill="white"/>
</g>
<path d="M8.94727 77V68.5449H12.2812C14.0156 68.5449 15.0938 69.5527 15.0938 71.123V71.1348C15.0938 72.2715 14.4844 73.1973 13.4531 73.543L15.3516 77H13.834L12.1113 73.748H10.2598V77H8.94727ZM10.2598 72.6816H12.1523C13.1602 72.6816 13.7461 72.1309 13.7461 71.1699V71.1582C13.7461 70.2207 13.125 69.6465 12.1113 69.6465H10.2598V72.6816ZM19.3008 77.123C17.4375 77.123 16.3125 75.8516 16.3125 73.8359V73.8301C16.3125 71.8438 17.4609 70.5137 19.2363 70.5137C21.0117 70.5137 22.1016 71.7969 22.1016 73.707V74.1523H17.5898C17.6133 75.3711 18.2812 76.0801 19.3301 76.0801C20.1445 76.0801 20.6309 75.6758 20.7832 75.3477L20.8066 75.3008L22.0312 75.2949L22.0195 75.3477C21.8086 76.1855 20.9297 77.123 19.3008 77.123ZM19.2422 71.5566C18.375 71.5566 17.7188 72.1484 17.6074 73.2441H20.8418C20.7422 72.1074 20.1035 71.5566 19.2422 71.5566ZM23.6133 77V70.6367H24.8848V71.6152H24.9785C25.2598 70.918 25.8809 70.5137 26.7129 70.5137C27.5801 70.5137 28.1953 70.9648 28.4766 71.6504H28.5762C28.8984 70.9648 29.6309 70.5137 30.5156 70.5137C31.7988 70.5137 32.5488 71.2871 32.5488 72.6113V77H31.2832V72.916C31.2832 72.0371 30.8848 71.6035 30.0527 71.6035C29.2441 71.6035 28.7109 72.207 28.7109 72.9746V77H27.4453V72.7871C27.4453 72.0605 26.9707 71.6035 26.2207 71.6035C25.4531 71.6035 24.8848 72.2598 24.8848 73.0918V77H23.6133ZM37.0195 77.123C35.1504 77.123 34.0078 75.875 34.0078 73.8242V73.8125C34.0078 71.7676 35.1562 70.5137 37.0195 70.5137C38.877 70.5137 40.0254 71.7617 40.0254 73.8125V73.8242C40.0254 75.875 38.8828 77.123 37.0195 77.123ZM37.0195 76.0625C38.1094 76.0625 38.7305 75.2305 38.7305 73.8242V73.8125C38.7305 72.4004 38.1094 71.5742 37.0195 71.5742C35.9238 71.5742 35.3086 72.4004 35.3086 73.8125V73.8242C35.3086 75.2363 35.9238 76.0625 37.0195 76.0625ZM43.9453 77.041C42.5449 77.041 41.9707 76.5488 41.9707 75.3242V71.6387H40.9746V70.6367H41.9707V69.0312H43.2656V70.6367H44.6309V71.6387H43.2656V75.0195C43.2656 75.7051 43.5234 75.9863 44.1504 75.9863C44.3438 75.9863 44.4551 75.9805 44.6309 75.9629V76.9766C44.4258 77.0117 44.1914 77.041 43.9453 77.041ZM48.7148 77.123C46.8516 77.123 45.7266 75.8516 45.7266 73.8359V73.8301C45.7266 71.8438 46.875 70.5137 48.6504 70.5137C50.4258 70.5137 51.5156 71.7969 51.5156 73.707V74.1523H47.0039C47.0273 75.3711 47.6953 76.0801 48.7441 76.0801C49.5586 76.0801 50.0449 75.6758 50.1973 75.3477L50.2207 75.3008L51.4453 75.2949L51.4336 75.3477C51.2227 76.1855 50.3438 77.123 48.7148 77.123ZM48.6562 71.5566C47.7891 71.5566 47.1328 72.1484 47.0215 73.2441H50.2559C50.1562 72.1074 49.5176 71.5566 48.6562 71.5566Z" fill="black"/>
<defs>
<linearGradient id="paint0_linear_2269_1870" x1="30" y1="0" x2="30" y2="60" gradientUnits="userSpaceOnUse">
<stop stop-color="#313131"/>
<stop offset="1" stop-color="#141514"/>
</linearGradient>
<clipPath id="clip0_2269_1870">
<rect width="60" height="60" rx="13.28" fill="white"/>
</clipPath>
</defs>
</svg>
