<svg width="72" height="80" viewBox="0 0 72 80" fill="none" xmlns="http://www.w3.org/2000/svg">
<rect x="1" width="60" height="60" rx="13.28" fill="#1C1C1E"/>
<path fill-rule="evenodd" clip-rule="evenodd" d="M14.936 8.18404C14.5 9.03969 14.5 10.1598 14.5 12.4V47.6C14.5 49.8402 14.5 50.9603 14.936 51.816C15.3195 52.5686 15.9314 53.1805 16.684 53.564C17.5397 54 18.6598 54 20.9 54H41.1C43.3402 54 44.4603 54 45.316 53.564C46.0686 53.1805 46.6805 52.5686 47.064 51.816C47.5 50.9603 47.5 49.8402 47.5 47.6V12.4C47.5 10.1598 47.5 9.03969 47.064 8.18404C46.6805 7.43139 46.0686 6.81947 45.316 6.43597C44.4603 6 43.3402 6 41.1 6H20.9C18.6598 6 17.5397 6 16.684 6.43597C15.9314 6.81947 15.3195 7.43139 14.936 8.18404ZM26.25 11C25.2835 11 24.5 11.7835 24.5 12.75C24.5 13.7165 25.2835 14.5 26.25 14.5H35.75C36.7165 14.5 37.5 13.7165 37.5 12.75C37.5 11.7835 36.7165 11 35.75 11H26.25Z" fill="white"/>
<path d="M31 34.2344C28.4453 34.2344 26.2773 31.9492 26.2773 29.043C26.2773 26.1836 28.457 23.9453 31 23.9453C33.543 23.9453 35.7227 26.1367 35.7227 29.0195C35.7227 31.9492 33.5664 34.2344 31 34.2344ZM23.1953 45.1211C21.8828 45.1211 21.0977 44.5 21.0977 43.4688C21.0977 40.457 24.918 36.3086 31 36.3086C37.0703 36.3086 40.9023 40.457 40.9023 43.4688C40.9023 44.5 40.1055 45.1211 38.793 45.1211H23.1953Z" fill="#0B9BFE"/>
<path d="M0.578125 77L3.63086 68.5449H5.04883L8.10156 77H6.71875L5.95703 74.7148H2.72266L1.95508 77H0.578125ZM4.28711 70.0273L3.07422 73.6602H5.60547L4.38672 70.0273H4.28711ZM9.42578 79.1211V70.6367H10.6973V71.6387H10.791C11.1602 70.9414 11.8574 70.5254 12.748 70.5254C14.3535 70.5254 15.3848 71.8086 15.3848 73.8125V73.8242C15.3848 75.8398 14.3652 77.1055 12.748 77.1055C11.875 77.1055 11.1309 76.6777 10.791 75.9922H10.6973V79.1211H9.42578ZM12.3906 76.0215C13.4512 76.0215 14.0898 75.1895 14.0898 73.8242V73.8125C14.0898 72.4414 13.4512 71.6152 12.3906 71.6152C11.3301 71.6152 10.6738 72.4531 10.6738 73.8125V73.8242C10.6738 75.1836 11.3301 76.0215 12.3906 76.0215ZM16.9141 79.1211V70.6367H18.1855V71.6387H18.2793C18.6484 70.9414 19.3457 70.5254 20.2363 70.5254C21.8418 70.5254 22.873 71.8086 22.873 73.8125V73.8242C22.873 75.8398 21.8535 77.1055 20.2363 77.1055C19.3633 77.1055 18.6191 76.6777 18.2793 75.9922H18.1855V79.1211H16.9141ZM19.8789 76.0215C20.9395 76.0215 21.5781 75.1895 21.5781 73.8242V73.8125C21.5781 72.4414 20.9395 71.6152 19.8789 71.6152C18.8184 71.6152 18.1621 72.4531 18.1621 73.8125V73.8242C18.1621 75.1836 18.8184 76.0215 19.8789 76.0215ZM24.4609 77V68.1406H25.7324V77H24.4609ZM30.2969 77.123C28.4336 77.123 27.3086 75.8516 27.3086 73.8359V73.8301C27.3086 71.8438 28.457 70.5137 30.2324 70.5137C32.0078 70.5137 33.0977 71.7969 33.0977 73.707V74.1523H28.5859C28.6094 75.3711 29.2773 76.0801 30.3262 76.0801C31.1406 76.0801 31.627 75.6758 31.7793 75.3477L31.8027 75.3008L33.0273 75.2949L33.0156 75.3477C32.8047 76.1855 31.9258 77.123 30.2969 77.123ZM30.2383 71.5566C29.3711 71.5566 28.7148 72.1484 28.6035 73.2441H31.8379C31.7383 72.1074 31.0996 71.5566 30.2383 71.5566ZM38.0371 77V68.5449H41.4355C43.0234 68.5449 43.9785 69.3535 43.9785 70.6484V70.6602C43.9785 71.5391 43.3281 72.3301 42.4961 72.4707V72.5703C43.6387 72.6934 44.4004 73.502 44.4004 74.6035V74.6152C44.4004 76.0977 43.3164 77 41.5117 77H38.0371ZM41.1309 69.6172H39.3496V72.1426H40.9082C42.0684 72.1426 42.6719 71.709 42.6719 70.8887V70.877C42.6719 70.0801 42.1035 69.6172 41.1309 69.6172ZM41.1719 73.1445H39.3496V75.9277H41.248C42.4316 75.9277 43.0586 75.4414 43.0586 74.5332V74.5215C43.0586 73.6133 42.4082 73.1445 41.1719 73.1445ZM48.0625 77.123C46.627 77.123 45.8828 76.2617 45.8828 74.7559V70.6367H47.1543V74.457C47.1543 75.5117 47.541 76.0332 48.4727 76.0332C49.4922 76.0332 50.0371 75.3945 50.0371 74.3691V70.6367H51.3027V77H50.0371V76.0391H49.9375C49.6328 76.7246 48.9883 77.123 48.0625 77.123ZM55.4512 77.123C53.916 77.123 52.9434 76.4023 52.8203 75.3359V75.3301H54.0918L54.0977 75.3359C54.2559 75.8164 54.7188 76.1387 55.4746 76.1387C56.2598 76.1387 56.8047 75.7812 56.8047 75.2598V75.248C56.8047 74.8496 56.5059 74.5801 55.7676 74.4102L54.7539 74.1758C53.5527 73.9004 52.9961 73.3555 52.9961 72.4238V72.418C52.9961 71.3105 54.0273 70.5137 55.4688 70.5137C56.9219 70.5137 57.8535 71.2402 57.9648 72.2773V72.2832H56.752V72.2715C56.6289 71.8262 56.1777 71.4922 55.4629 71.4922C54.7656 71.4922 54.2617 71.8379 54.2617 72.3477V72.3594C54.2617 72.7578 54.5547 73.0039 55.2695 73.1738L56.2773 73.4023C57.502 73.6895 58.0879 74.2109 58.0879 75.1309V75.1426C58.0879 76.3203 56.9629 77.123 55.4512 77.123ZM60.2676 69.5C59.8281 69.5 59.4707 69.1426 59.4707 68.709C59.4707 68.2695 59.8281 67.9121 60.2676 67.9121C60.7012 67.9121 61.0645 68.2695 61.0645 68.709C61.0645 69.1426 60.7012 69.5 60.2676 69.5ZM59.6289 77V70.6367H60.8945V77H59.6289ZM63.7246 77.0879C63.2383 77.0879 62.8633 76.7129 62.8633 76.2383C62.8633 75.7578 63.2383 75.3828 63.7246 75.3828C64.2109 75.3828 64.5801 75.7578 64.5801 76.2383C64.5801 76.7129 64.2109 77.0879 63.7246 77.0879ZM66.9824 77.0879C66.502 77.0879 66.127 76.7129 66.127 76.2383C66.127 75.7578 66.502 75.3828 66.9824 75.3828C67.4688 75.3828 67.8438 75.7578 67.8438 76.2383C67.8438 76.7129 67.4688 77.0879 66.9824 77.0879ZM70.2402 77.0879C69.7598 77.0879 69.3848 76.7129 69.3848 76.2383C69.3848 75.7578 69.7598 75.3828 70.2402 75.3828C70.7324 75.3828 71.1016 75.7578 71.1016 76.2383C71.1016 76.7129 70.7324 77.0879 70.2402 77.0879Z" fill="black"/>
</svg>
