<svg width="60" height="80" viewBox="0 0 60 80" fill="none" xmlns="http://www.w3.org/2000/svg">
<rect width="60" height="60" rx="13.2783" fill="url(#paint0_linear_2269_1850)"/>
<g clip-path="url(#clip0_2269_1850)">
<path d="M38.162 34.0002C38.4379 34.0002 38.8174 33.8254 39.0877 33.6507C46.8366 28.6692 51.8578 22.9116 51.8578 17.0352C51.8578 12.2049 48.5254 8.76038 44.1935 8.76038C41.5243 8.76038 39.3879 10.2558 38.162 12.5388C36.9485 10.2681 34.7998 8.76038 32.1306 8.76038C27.7987 8.76038 24.4663 12.2049 24.4663 17.0352C24.4663 22.9116 29.482 28.6692 37.2364 33.6507C37.5012 33.8254 37.8984 34.0002 38.162 34.0002Z" fill="url(#paint1_linear_2269_1850)"/>
</g>
<path d="M12.1113 77V68.5449H13.4238V72.1191H17.7656V68.5449H19.0723V77H17.7656V73.2559H13.4238V77H12.1113ZM23.7188 77.123C21.8555 77.123 20.7305 75.8516 20.7305 73.8359V73.8301C20.7305 71.8438 21.8789 70.5137 23.6543 70.5137C25.4297 70.5137 26.5195 71.7969 26.5195 73.707V74.1523H22.0078C22.0312 75.3711 22.6992 76.0801 23.748 76.0801C24.5625 76.0801 25.0488 75.6758 25.2012 75.3477L25.2246 75.3008L26.4492 75.2949L26.4375 75.3477C26.2266 76.1855 25.3477 77.123 23.7188 77.123ZM23.6602 71.5566C22.793 71.5566 22.1367 72.1484 22.0254 73.2441H25.2598C25.1602 72.1074 24.5215 71.5566 23.6602 71.5566ZM29.7773 77.1055C28.5645 77.1055 27.668 76.3672 27.668 75.2129V75.2012C27.668 74.0645 28.5234 73.4023 30.041 73.3086L31.7637 73.209V72.6465C31.7637 71.9492 31.3242 71.5625 30.4629 71.5625C29.7598 71.5625 29.2969 71.8203 29.1445 72.2715L29.1387 72.2949H27.9141L27.9199 72.2539C28.0723 71.2109 29.0742 70.5137 30.5215 70.5137C32.1211 70.5137 33.0234 71.3105 33.0234 72.6465V77H31.7637V76.0977H31.6641C31.2891 76.7422 30.6211 77.1055 29.7773 77.1055ZM28.9336 75.1602C28.9336 75.7461 29.4316 76.0918 30.1172 76.0918C31.0664 76.0918 31.7637 75.4707 31.7637 74.6504V74.1055L30.2109 74.2051C29.332 74.2578 28.9336 74.5742 28.9336 75.1484V75.1602ZM34.875 77V68.1406H36.1465V77H34.875ZM40.4414 77.041C39.041 77.041 38.4668 76.5488 38.4668 75.3242V71.6387H37.4707V70.6367H38.4668V69.0312H39.7617V70.6367H41.127V71.6387H39.7617V75.0195C39.7617 75.7051 40.0195 75.9863 40.6465 75.9863C40.8398 75.9863 40.9512 75.9805 41.127 75.9629V76.9766C40.9219 77.0117 40.6875 77.041 40.4414 77.041ZM42.668 77V68.1406H43.9395V71.6035H44.0332C44.3438 70.9238 44.9531 70.5137 45.8789 70.5137C47.3027 70.5137 48.0879 71.3633 48.0879 72.8809V77H46.8223V73.1797C46.8223 72.125 46.3828 71.6035 45.4512 71.6035C44.5195 71.6035 43.9395 72.2422 43.9395 73.2676V77H42.668Z" fill="black"/>
<defs>
<linearGradient id="paint0_linear_2269_1850" x1="30" y1="0" x2="30" y2="60" gradientUnits="userSpaceOnUse">
<stop stop-color="#313131"/>
<stop offset="1" stop-color="#141514"/>
</linearGradient>
<linearGradient id="paint1_linear_2269_1850" x1="38.162" y1="8.76038" x2="38.162" y2="34.0002" gradientUnits="userSpaceOnUse">
<stop stop-color="#FF5288"/>
<stop offset="1" stop-color="#FF281C"/>
</linearGradient>
<clipPath id="clip0_2269_1850">
<rect width="27.5337" height="26.0208" fill="white" transform="translate(24.4663 7.97925)"/>
</clipPath>
</defs>
</svg>
