<svg width="62" height="80" viewBox="0 0 62 80" fill="none" xmlns="http://www.w3.org/2000/svg">
<rect x="1" width="60" height="60" rx="13.28" fill="url(#paint0_linear_2269_1864)"/>
<path fill-rule="evenodd" clip-rule="evenodd" d="M41.5739 30.5846C46.4327 29.2401 50 24.7867 50 19.5C50 13.1487 44.8513 8 38.5 8C32.1487 8 27 13.1487 27 19.5C27 24.4447 30.1207 28.6605 34.5 30.2853V47.5965C34.5 47.8617 34.6054 48.116 34.7929 48.3036L37.7929 51.3036C38.1834 51.6941 38.8166 51.6941 39.2071 51.3036L44.7929 45.7178C45.1834 45.3273 45.1834 44.6941 44.7929 44.3036L42.2416 41.7523C41.8379 41.3485 41.8535 40.6893 42.276 40.3052L46.224 36.7161C46.6465 36.3321 46.6621 35.6728 46.2584 35.2691L41.5739 30.5846ZM41.788 15.5107C41.788 17.3056 40.3329 18.7607 38.538 18.7607C36.7431 18.7607 35.288 17.3056 35.288 15.5107C35.288 13.7157 36.7431 12.2607 38.538 12.2607C40.3329 12.2607 41.788 13.7157 41.788 15.5107Z" fill="url(#paint1_linear_2269_1864)"/>
<path fill-rule="evenodd" clip-rule="evenodd" d="M41.5739 30.5846C46.4327 29.2401 50 24.7867 50 19.5C50 13.1487 44.8513 8 38.5 8C32.1487 8 27 13.1487 27 19.5C27 24.4447 30.1207 28.6605 34.5 30.2853V47.5965C34.5 47.8617 34.6054 48.116 34.7929 48.3036L37.7929 51.3036C38.1834 51.6941 38.8166 51.6941 39.2071 51.3036L44.7929 45.7178C45.1834 45.3273 45.1834 44.6941 44.7929 44.3036L42.2416 41.7523C41.8379 41.3485 41.8535 40.6893 42.276 40.3052L46.224 36.7161C46.6465 36.3321 46.6621 35.6728 46.2584 35.2691L41.5739 30.5846ZM41.788 15.5107C41.788 17.3056 40.3329 18.7607 38.538 18.7607C36.7431 18.7607 35.288 17.3056 35.288 15.5107C35.288 13.7157 36.7431 12.2607 38.538 12.2607C40.3329 12.2607 41.788 13.7157 41.788 15.5107Z" fill="url(#paint2_linear_2269_1864)"/>
<path fill-rule="evenodd" clip-rule="evenodd" d="M32.3137 8.06347C28.2556 10.2632 25.5 14.5598 25.5 19.5C25.5 24.7139 28.5695 29.211 33 31.2826V48.0858C33 48.351 33.1054 48.6054 33.2929 48.7929L33.7499 49.2499L31.7071 51.2928C31.3166 51.6833 30.6834 51.6833 30.2929 51.2928L27.2929 48.2928C27.1054 48.1052 27 47.8509 27 47.5856V30.2745C22.6207 28.6497 19.5 24.4339 19.5 19.4893C19.5 13.138 24.6487 7.98926 31 7.98926C31.4442 7.98926 31.8826 8.01445 32.3137 8.06347Z" fill="url(#paint3_linear_2269_1864)"/>
<path fill-rule="evenodd" clip-rule="evenodd" d="M24.8137 8.06347C20.7556 10.2632 18 14.5598 18 19.5C18 24.7139 21.0695 29.211 25.5 31.2826V48.0858C25.5 48.351 25.6054 48.6054 25.7929 48.7929L26.2499 49.2499L24.2071 51.2928C23.8166 51.6833 23.1834 51.6833 22.7929 51.2928L19.7929 48.2928C19.6054 48.1052 19.5 47.8509 19.5 47.5856V30.2745C15.1207 28.6497 12 24.4339 12 19.4893C12 13.138 17.1487 7.98926 23.5 7.98926C23.9442 7.98926 24.3826 8.01445 24.8137 8.06347Z" fill="url(#paint4_linear_2269_1864)"/>
<path d="M0.953125 77V68.5449H4.24609C5.9043 68.5449 7.05273 69.6582 7.05273 71.3164V71.3281C7.05273 72.9805 5.9043 74.1113 4.24609 74.1113H2.26562V77H0.953125ZM3.91797 69.6523H2.26562V73.0098H3.91797C5.05469 73.0098 5.7168 72.3945 5.7168 71.334V71.3223C5.7168 70.2676 5.05469 69.6523 3.91797 69.6523ZM10.1113 77.1055C8.89844 77.1055 8.00195 76.3672 8.00195 75.2129V75.2012C8.00195 74.0645 8.85742 73.4023 10.375 73.3086L12.0977 73.209V72.6465C12.0977 71.9492 11.6582 71.5625 10.7969 71.5625C10.0938 71.5625 9.63086 71.8203 9.47852 72.2715L9.47266 72.2949H8.24805L8.25391 72.2539C8.40625 71.2109 9.4082 70.5137 10.8555 70.5137C12.4551 70.5137 13.3574 71.3105 13.3574 72.6465V77H12.0977V76.0977H11.998C11.623 76.7422 10.9551 77.1055 10.1113 77.1055ZM9.26758 75.1602C9.26758 75.7461 9.76562 76.0918 10.4512 76.0918C11.4004 76.0918 12.0977 75.4707 12.0977 74.6504V74.1055L10.5449 74.2051C9.66602 74.2578 9.26758 74.5742 9.26758 75.1484V75.1602ZM17.4648 77.123C15.9297 77.123 14.957 76.4023 14.834 75.3359V75.3301H16.1055L16.1113 75.3359C16.2695 75.8164 16.7324 76.1387 17.4883 76.1387C18.2734 76.1387 18.8184 75.7812 18.8184 75.2598V75.248C18.8184 74.8496 18.5195 74.5801 17.7812 74.4102L16.7676 74.1758C15.5664 73.9004 15.0098 73.3555 15.0098 72.4238V72.418C15.0098 71.3105 16.041 70.5137 17.4824 70.5137C18.9355 70.5137 19.8672 71.2402 19.9785 72.2773V72.2832H18.7656V72.2715C18.6426 71.8262 18.1914 71.4922 17.4766 71.4922C16.7793 71.4922 16.2754 71.8379 16.2754 72.3477V72.3594C16.2754 72.7578 16.5684 73.0039 17.2832 73.1738L18.291 73.4023C19.5156 73.6895 20.1016 74.2109 20.1016 75.1309V75.1426C20.1016 76.3203 18.9766 77.123 17.4648 77.123ZM23.8164 77.123C22.2812 77.123 21.3086 76.4023 21.1855 75.3359V75.3301H22.457L22.4629 75.3359C22.6211 75.8164 23.084 76.1387 23.8398 76.1387C24.625 76.1387 25.1699 75.7812 25.1699 75.2598V75.248C25.1699 74.8496 24.8711 74.5801 24.1328 74.4102L23.1191 74.1758C21.918 73.9004 21.3613 73.3555 21.3613 72.4238V72.418C21.3613 71.3105 22.3926 70.5137 23.834 70.5137C25.2871 70.5137 26.2188 71.2402 26.3301 72.2773V72.2832H25.1172V72.2715C24.9941 71.8262 24.543 71.4922 23.8281 71.4922C23.1309 71.4922 22.627 71.8379 22.627 72.3477V72.3594C22.627 72.7578 22.9199 73.0039 23.6348 73.1738L24.6426 73.4023C25.8672 73.6895 26.4531 74.2109 26.4531 75.1309V75.1426C26.4531 76.3203 25.3281 77.123 23.8164 77.123ZM29.0195 77L27.2617 70.6367H28.5391L29.6816 75.5469H29.7754L31.0879 70.6367H32.2949L33.6074 75.5469H33.707L34.8438 70.6367H36.1035L34.3516 77H33.0449L31.7266 72.2539H31.627L30.3145 77H29.0195ZM39.8535 77.123C37.9844 77.123 36.8418 75.875 36.8418 73.8242V73.8125C36.8418 71.7676 37.9902 70.5137 39.8535 70.5137C41.7109 70.5137 42.8594 71.7617 42.8594 73.8125V73.8242C42.8594 75.875 41.7168 77.123 39.8535 77.123ZM39.8535 76.0625C40.9434 76.0625 41.5645 75.2305 41.5645 73.8242V73.8125C41.5645 72.4004 40.9434 71.5742 39.8535 71.5742C38.7578 71.5742 38.1426 72.4004 38.1426 73.8125V73.8242C38.1426 75.2363 38.7578 76.0625 39.8535 76.0625ZM44.377 77V70.6367H45.6484V71.5977H45.7422C45.9707 70.9238 46.5625 70.5254 47.4121 70.5254C47.6172 70.5254 47.8398 70.5547 47.9688 70.584V71.7559C47.7402 71.709 47.5234 71.6797 47.2832 71.6797C46.3105 71.6797 45.6484 72.2773 45.6484 73.1973V77H44.377ZM51.3379 77.1055C49.7383 77.1055 48.7012 75.8223 48.7012 73.8242V73.8125C48.7012 71.7969 49.7207 70.5254 51.3379 70.5254C52.2109 70.5254 52.9551 70.959 53.2949 71.6445H53.3945V68.1406H54.6602V77H53.3945V75.998H53.2949C52.9258 76.6953 52.2285 77.1055 51.3379 77.1055ZM51.7012 76.0215C52.7617 76.0215 53.4121 75.1836 53.4121 73.8242V73.8125C53.4121 72.4531 52.7559 71.6152 51.7012 71.6152C50.6348 71.6152 49.9961 72.4473 49.9961 73.8125V73.8242C49.9961 75.1895 50.6348 76.0215 51.7012 76.0215ZM58.8672 77.123C57.332 77.123 56.3594 76.4023 56.2363 75.3359V75.3301H57.5078L57.5137 75.3359C57.6719 75.8164 58.1348 76.1387 58.8906 76.1387C59.6758 76.1387 60.2207 75.7812 60.2207 75.2598V75.248C60.2207 74.8496 59.9219 74.5801 59.1836 74.4102L58.1699 74.1758C56.9688 73.9004 56.4121 73.3555 56.4121 72.4238V72.418C56.4121 71.3105 57.4434 70.5137 58.8848 70.5137C60.3379 70.5137 61.2695 71.2402 61.3809 72.2773V72.2832H60.168V72.2715C60.0449 71.8262 59.5938 71.4922 58.8789 71.4922C58.1816 71.4922 57.6777 71.8379 57.6777 72.3477V72.3594C57.6777 72.7578 57.9707 73.0039 58.6855 73.1738L59.6934 73.4023C60.918 73.6895 61.5039 74.2109 61.5039 75.1309V75.1426C61.5039 76.3203 60.3789 77.123 58.8672 77.123Z" fill="black"/>
<defs>
<linearGradient id="paint0_linear_2269_1864" x1="31" y1="0" x2="31" y2="60" gradientUnits="userSpaceOnUse">
<stop stop-color="#313131"/>
<stop offset="1" stop-color="#141514"/>
</linearGradient>
<linearGradient id="paint1_linear_2269_1864" x1="38.5" y1="8" x2="38.5" y2="51.5965" gradientUnits="userSpaceOnUse">
<stop stop-color="#61CCF6"/>
<stop offset="1" stop-color="#007AFF"/>
</linearGradient>
<linearGradient id="paint2_linear_2269_1864" x1="38.5" y1="8" x2="38.5" y2="51.5965" gradientUnits="userSpaceOnUse">
<stop stop-color="#61CCF6"/>
<stop offset="1" stop-color="#007AFF"/>
</linearGradient>
<linearGradient id="paint3_linear_2269_1864" x1="31.2053" y1="7.98926" x2="31.2053" y2="51.5857" gradientUnits="userSpaceOnUse">
<stop stop-color="#52E479"/>
<stop offset="1" stop-color="#32C85A"/>
</linearGradient>
<linearGradient id="paint4_linear_2269_1864" x1="23.7053" y1="7.98926" x2="23.7053" y2="51.5857" gradientUnits="userSpaceOnUse">
<stop stop-color="#FFDB54"/>
<stop offset="1" stop-color="#FDBE00"/>
</linearGradient>
</defs>
</svg>
