<svg width="60" height="80" viewBox="0 0 60 80" fill="none" xmlns="http://www.w3.org/2000/svg">
<g clip-path="url(#clip0_2269_1851)">
<rect width="60" height="60" fill="url(#paint0_linear_2269_1851)"/>
<path fill-rule="evenodd" clip-rule="evenodd" d="M46.9922 20.5503L47.6814 21.0939L51.6722 24.2414C52.0214 24.5168 51.8266 25.0782 51.3819 25.0782H47.6953H12.3047H8.61812C8.17339 25.0782 7.97864 24.5168 8.32783 24.2414L12.3187 21.0939L28.5486 8.29328C29.3998 7.62196 30.6003 7.62197 31.4514 8.29329L42.0703 16.6684V12.7736C42.0703 12.3852 42.3851 12.0704 42.7734 12.0704H46.2891C46.6774 12.0704 46.9922 12.3852 46.9922 12.7736V20.5503Z" fill="#F78E1B"/>
<path d="M47.6836 21.0938L31.4513 8.29294C30.6002 7.62174 29.3998 7.62174 28.5487 8.29294L12.3164 21.0938L12.3047 25.0781V44.6484C12.3047 46.5901 13.8787 48.1641 15.8203 48.1641H44.1797C46.1213 48.1641 47.6953 46.5901 47.6953 44.6484V25.0781L47.6836 21.0938Z" fill="#F88E1A"/>
<path d="M17.3789 44.8477C16.4081 44.8477 15.6211 44.0607 15.6211 43.0898V25.0781L15.6286 23.5579C15.6313 23.0227 15.8776 22.5179 16.2978 22.1864L29.2743 11.9513C29.6999 11.6156 30.3001 11.6156 30.7257 11.9513L43.7022 22.1864C44.1224 22.5179 44.3687 23.0227 44.3714 23.5579L44.3789 25.0898V43.0898C44.3789 44.0607 43.5919 44.8477 42.6211 44.8477H17.3789Z" fill="#FFAE27"/>
<path d="M19.8867 41.5195C19.369 41.5195 18.9492 41.0998 18.9492 40.582V25.0781V24.7826C18.9492 24.4956 19.0807 24.2244 19.306 24.0466L29.4193 16.0675C29.7598 15.7989 30.2402 15.7989 30.5807 16.0675L40.694 24.0466C40.9193 24.2244 41.0508 24.4956 41.0508 24.7826V25.1016V40.582C41.0508 41.0998 40.6311 41.5195 40.1133 41.5195H19.8867Z" fill="#FFC149"/>
<path d="M22.9688 38.2031C22.5804 38.2031 22.2656 37.8883 22.2656 37.5V26.2748C22.2656 26.0593 22.3644 25.8558 22.5336 25.7225L29.5649 20.1827C29.8201 19.9816 30.1799 19.9816 30.4351 20.1827L37.4664 25.7225C37.6356 25.8558 37.7344 26.0593 37.7344 26.2748V37.5C37.7344 37.8883 37.4196 38.2031 37.0313 38.2031H22.9688Z" fill="#FFD466"/>
<path d="M26.0625 34.8749C25.8036 34.8749 25.5938 34.665 25.5938 34.4061V27.7777C25.5938 27.6343 25.6594 27.4988 25.7719 27.4099L29.7094 24.2997C29.8798 24.1651 30.1202 24.1651 30.2906 24.2997L34.2281 27.4099C34.3406 27.4988 34.4063 27.6343 34.4063 27.7777V34.4061C34.4063 34.665 34.1964 34.8749 33.9375 34.8749H26.0625Z" fill="#FEE780"/>
</g>
<path d="M14.0625 77V68.5449H15.375V72.1191H19.7168V68.5449H21.0234V77H19.7168V73.2559H15.375V77H14.0625ZM25.6934 77.123C23.8242 77.123 22.6816 75.875 22.6816 73.8242V73.8125C22.6816 71.7676 23.8301 70.5137 25.6934 70.5137C27.5508 70.5137 28.6992 71.7617 28.6992 73.8125V73.8242C28.6992 75.875 27.5566 77.123 25.6934 77.123ZM25.6934 76.0625C26.7832 76.0625 27.4043 75.2305 27.4043 73.8242V73.8125C27.4043 72.4004 26.7832 71.5742 25.6934 71.5742C24.5977 71.5742 23.9824 72.4004 23.9824 73.8125V73.8242C23.9824 75.2363 24.5977 76.0625 25.6934 76.0625ZM30.2168 77V70.6367H31.4883V71.6152H31.582C31.8633 70.918 32.4844 70.5137 33.3164 70.5137C34.1836 70.5137 34.7988 70.9648 35.0801 71.6504H35.1797C35.502 70.9648 36.2344 70.5137 37.1191 70.5137C38.4023 70.5137 39.1523 71.2871 39.1523 72.6113V77H37.8867V72.916C37.8867 72.0371 37.4883 71.6035 36.6562 71.6035C35.8477 71.6035 35.3145 72.207 35.3145 72.9746V77H34.0488V72.7871C34.0488 72.0605 33.5742 71.6035 32.8242 71.6035C32.0566 71.6035 31.4883 72.2598 31.4883 73.0918V77H30.2168ZM43.5996 77.123C41.7363 77.123 40.6113 75.8516 40.6113 73.8359V73.8301C40.6113 71.8438 41.7598 70.5137 43.5352 70.5137C45.3105 70.5137 46.4004 71.7969 46.4004 73.707V74.1523H41.8887C41.9121 75.3711 42.5801 76.0801 43.6289 76.0801C44.4434 76.0801 44.9297 75.6758 45.082 75.3477L45.1055 75.3008L46.3301 75.2949L46.3184 75.3477C46.1074 76.1855 45.2285 77.123 43.5996 77.123ZM43.541 71.5566C42.6738 71.5566 42.0176 72.1484 41.9062 73.2441H45.1406C45.041 72.1074 44.4023 71.5566 43.541 71.5566Z" fill="black"/>
<defs>
<linearGradient id="paint0_linear_2269_1851" x1="30" y1="0" x2="30" y2="60" gradientUnits="userSpaceOnUse">
<stop stop-color="#313131"/>
<stop offset="1" stop-color="#141514"/>
</linearGradient>
<clipPath id="clip0_2269_1851">
<rect width="60" height="60" rx="13.28" fill="white"/>
</clipPath>
</defs>
</svg>
