<svg width="60" height="80" viewBox="0 0 60 80" fill="none" xmlns="http://www.w3.org/2000/svg">
<rect width="60" height="60" rx="13.3594" fill="url(#paint0_linear_2269_1839)"/>
<rect x="29.6484" y="3.75" width="0.703125" height="5.15625" fill="#676768"/>
<rect x="29.6484" y="51.0938" width="0.703125" height="5.15625" fill="#676768"/>
<rect width="0.703125" height="5.15625" transform="matrix(1 0 0 -1 29.6484 56.25)" fill="#676768"/>
<rect width="0.703125" height="5.15625" transform="matrix(1 0 0 -1 29.6484 8.90625)" fill="#676768"/>
<rect width="0.703125" height="5.15625" transform="matrix(-4.37114e-08 1 1 4.37114e-08 3.75 29.6484)" fill="#676768"/>
<rect width="0.703125" height="5.15625" transform="matrix(-4.37114e-08 1 1 4.37114e-08 51.0938 29.6484)" fill="#676768"/>
<rect x="26.2251" y="4.02051" width="0.703125" height="5.15625" transform="rotate(-7.5 26.2251 4.02051)" fill="#676768"/>
<rect x="32.4045" y="50.9592" width="0.703125" height="5.15625" transform="rotate(-7.5 32.4045 50.9592)" fill="#676768"/>
<rect x="55.9795" y="26.2252" width="0.703125" height="5.15625" transform="rotate(82.5 55.9795 26.2252)" fill="#676768"/>
<rect x="9.04077" y="32.4049" width="0.703125" height="5.15625" transform="rotate(82.5 9.04077 32.4049)" fill="#676768"/>
<rect width="0.703125" height="5.15625" transform="matrix(0.991445 0.130526 0.130526 -0.991445 26.2251 55.9795)" fill="#676768"/>
<rect width="0.703125" height="5.15625" transform="matrix(0.991445 0.130526 0.130526 -0.991445 32.4045 9.04077)" fill="#676768"/>
<rect width="0.703125" height="5.15625" transform="matrix(-0.130526 0.991445 0.991445 0.130526 4.02051 26.2252)" fill="#676768"/>
<rect width="0.703125" height="5.15625" transform="matrix(-0.130526 0.991445 0.991445 0.130526 50.9592 32.4049)" fill="#676768"/>
<rect x="22.8665" y="4.73547" width="0.703125" height="5.15625" transform="rotate(-15 22.8665 4.73547)" fill="white"/>
<rect x="35.1199" y="50.4659" width="0.703125" height="5.15625" transform="rotate(-15 35.1199 50.4659)" fill="white"/>
<rect x="55.2646" y="22.8665" width="0.703125" height="5.15625" transform="rotate(75 55.2646 22.8665)" fill="white"/>
<rect x="9.53418" y="35.1199" width="0.703125" height="5.15625" transform="rotate(75 9.53418 35.1199)" fill="white"/>
<rect width="0.703125" height="5.15625" transform="matrix(0.965926 0.258819 0.258819 -0.965926 22.8665 55.2645)" fill="white"/>
<rect width="0.703125" height="5.15625" transform="matrix(0.965926 0.258819 0.258819 -0.965926 35.1199 9.53418)" fill="white"/>
<rect width="0.703125" height="5.15625" transform="matrix(-0.258819 0.965926 0.965926 0.258819 4.73535 22.8665)" fill="white"/>
<rect width="0.703125" height="5.15625" transform="matrix(-0.258819 0.965926 0.965926 0.258819 50.4658 35.1199)" fill="white"/>
<rect x="19.6296" y="5.88269" width="0.703125" height="5.15625" transform="rotate(-22.5 19.6296 5.88269)" fill="#676768"/>
<rect x="37.7473" y="49.6228" width="0.703125" height="5.15625" transform="rotate(-22.5 37.7473 49.6228)" fill="#676768"/>
<rect x="54.1174" y="19.6298" width="0.703125" height="5.15625" transform="rotate(67.5 54.1174 19.6298)" fill="#676768"/>
<rect x="10.3774" y="37.7476" width="0.703125" height="5.15625" transform="rotate(67.5 10.3774 37.7476)" fill="#676768"/>
<rect width="0.703125" height="5.15625" transform="matrix(0.92388 0.382683 0.382683 -0.92388 19.6296 54.1173)" fill="#676768"/>
<rect width="0.703125" height="5.15625" transform="matrix(0.92388 0.382683 0.382683 -0.92388 37.7473 10.3772)" fill="#676768"/>
<rect width="0.703125" height="5.15625" transform="matrix(-0.382683 0.92388 0.92388 0.382683 5.88257 19.6298)" fill="#676768"/>
<rect width="0.703125" height="5.15625" transform="matrix(-0.382683 0.92388 0.92388 0.382683 49.6226 37.7476)" fill="#676768"/>
<rect x="16.5706" y="7.44263" width="0.703125" height="5.15625" transform="rotate(-30 16.5706 7.44263)" fill="#676768"/>
<rect x="40.2424" y="48.4436" width="0.703125" height="5.15625" transform="rotate(-30 40.2424 48.4436)" fill="#676768"/>
<rect x="52.5574" y="16.5706" width="0.703125" height="5.15625" transform="rotate(60 52.5574 16.5706)" fill="#676768"/>
<rect x="11.5564" y="40.2424" width="0.703125" height="5.15625" transform="rotate(60 11.5564 40.2424)" fill="#676768"/>
<rect width="0.703125" height="5.15625" transform="matrix(0.866025 0.5 0.5 -0.866025 16.5706 52.5574)" fill="#676768"/>
<rect width="0.703125" height="5.15625" transform="matrix(0.866025 0.5 0.5 -0.866025 40.2424 11.5565)" fill="#676768"/>
<rect width="0.703125" height="5.15625" transform="matrix(-0.5 0.866025 0.866025 0.5 7.44263 16.5706)" fill="#676768"/>
<rect width="0.703125" height="5.15625" transform="matrix(-0.5 0.866025 0.866025 0.5 48.4436 40.2424)" fill="#676768"/>
<rect x="13.7412" y="9.38843" width="0.703125" height="5.15625" transform="rotate(-37.5 13.7412 9.38843)" fill="#676768"/>
<rect x="42.5623" y="46.9489" width="0.703125" height="5.15625" transform="rotate(-37.5 42.5623 46.9489)" fill="#676768"/>
<rect x="50.6116" y="13.741" width="0.703125" height="5.15625" transform="rotate(52.5 50.6116 13.741)" fill="#676768"/>
<rect x="13.051" y="42.5621" width="0.703125" height="5.15625" transform="rotate(52.5 13.051 42.5621)" fill="#676768"/>
<rect width="0.703125" height="5.15625" transform="matrix(0.793353 0.608761 0.608761 -0.793353 13.7412 50.6116)" fill="#676768"/>
<rect width="0.703125" height="5.15625" transform="matrix(0.793353 0.608761 0.608761 -0.793353 42.5623 13.0511)" fill="#676768"/>
<rect width="0.703125" height="5.15625" transform="matrix(-0.608761 0.793353 0.793353 0.608761 9.38843 13.741)" fill="#676768"/>
<rect width="0.703125" height="5.15625" transform="matrix(-0.608761 0.793353 0.793353 0.608761 46.949 42.5621)" fill="#676768"/>
<rect x="11.1899" y="11.6871" width="0.703125" height="5.15625" transform="rotate(-45 11.1899 11.6871)" fill="#676768"/>
<rect x="44.667" y="45.1642" width="0.703125" height="5.15625" transform="rotate(-45 44.667 45.1642)" fill="#676768"/>
<rect x="48.313" y="11.1899" width="0.703125" height="5.15625" transform="rotate(45 48.313 11.1899)" fill="#676768"/>
<rect x="14.8359" y="44.6669" width="0.703125" height="5.15625" transform="rotate(45 14.8359 44.6669)" fill="#676768"/>
<rect width="0.703125" height="5.15625" transform="matrix(0.707107 0.707107 0.707107 -0.707107 11.1899 48.3129)" fill="white"/>
<rect width="0.703125" height="5.15625" transform="matrix(0.707107 0.707107 0.707107 -0.707107 44.667 14.8358)" fill="white"/>
<rect width="0.703125" height="5.15625" transform="matrix(-0.707107 0.707107 0.707107 0.707107 11.687 11.1898)" fill="white"/>
<rect width="0.703125" height="5.15625" transform="matrix(-0.707107 0.707107 0.707107 0.707107 45.1641 44.667)" fill="white"/>
<mask id="mask0_2269_1839" style="mask-type:alpha" maskUnits="userSpaceOnUse" x="19" y="19" width="22" height="22">
<circle cx="30" cy="30" r="10.5469" fill="#242425"/>
</mask>
<g mask="url(#mask0_2269_1839)">
<rect x="29.4141" y="18.8672" width="1.17188" height="22.2656" fill="white"/>
<rect x="41.1328" y="29.4141" width="1.17188" height="22.2656" transform="rotate(90 41.1328 29.4141)" fill="white"/>
</g>
<path d="M17.0299 20.9532L15.6645 16.0735H16.4762L17.4522 20.043H17.4709L18.5736 16.0735H19.3619L20.4692 20.043H20.488L21.4639 16.0735H22.2709L20.9102 20.9532H20.0797L18.9771 17.1761H18.9583L17.8604 20.9532H17.0299Z" fill="white"/>
<path d="M18.2805 44.3172C17.0748 44.3172 16.3465 43.702 16.2432 42.7868L16.2383 42.7425H17.0945L17.1044 42.7917C17.2077 43.3035 17.5866 43.6036 18.2854 43.6036C18.9792 43.6036 19.3926 43.3133 19.3926 42.8507V42.8458C19.3926 42.4767 19.2007 42.2701 18.62 42.1273L17.8081 41.9305C16.8435 41.6992 16.3761 41.2514 16.3761 40.5133V40.5083C16.3761 39.6275 17.1486 39.0025 18.2559 39.0025C19.3778 39.0025 20.0914 39.657 20.1553 40.5133L20.1603 40.5772H19.3434L19.3385 40.5428C19.2696 40.0458 18.8907 39.7161 18.2559 39.7161C17.6358 39.7161 17.252 40.0163 17.252 40.469V40.4739C17.252 40.8233 17.4833 41.0644 18.0492 41.2022L18.8611 41.399C19.8945 41.65 20.2685 42.0584 20.2685 42.7868V42.7917C20.2685 43.6873 19.4221 44.3172 18.2805 44.3172Z" fill="white"/>
<path d="M38.4453 21.1797V15.8953H39.0862L41.9939 20.0664H42.0122V15.8953H42.6641V21.1797H42.0232L39.1155 17.0085H39.0972V21.1797H38.4453Z" fill="white"/>
<path d="M40.0318 43.6797V38.2301H43.4081V38.8419H40.7116V40.5905H43.2683V41.1947H40.7116V43.0679H43.4081V43.6797H40.0318Z" fill="white"/>
<path d="M53.0799 6.09449C53.4284 6.0011 53.7474 6.32005 53.654 6.66859L52.4982 10.9819C52.4048 11.3304 51.9691 11.4472 51.714 11.192L48.5564 8.03447C48.3013 7.77931 48.418 7.34363 48.7666 7.25024L53.0799 6.09449Z" fill="#FF3A2F"/>
<path d="M7.66406 77.2051C5.31445 77.2051 3.84961 75.5059 3.84961 72.7812V72.7695C3.84961 70.0391 5.30859 68.3398 7.6582 68.3398C9.52148 68.3398 10.9512 69.5176 11.1738 71.1992L11.168 71.2285H9.86719V71.2109C9.62109 70.1738 8.77148 69.5 7.6582 69.5C6.14062 69.5 5.19141 70.7598 5.19141 72.7695V72.7812C5.19141 74.7852 6.14062 76.0449 7.66406 76.0449C8.7832 76.0449 9.62109 75.4473 9.86133 74.4922L9.87305 74.4688H11.1738V74.5039C10.9277 76.127 9.55078 77.2051 7.66406 77.2051ZM15.4512 77.123C13.582 77.123 12.4395 75.875 12.4395 73.8242V73.8125C12.4395 71.7676 13.5879 70.5137 15.4512 70.5137C17.3086 70.5137 18.457 71.7617 18.457 73.8125V73.8242C18.457 75.875 17.3145 77.123 15.4512 77.123ZM15.4512 76.0625C16.541 76.0625 17.1621 75.2305 17.1621 73.8242V73.8125C17.1621 72.4004 16.541 71.5742 15.4512 71.5742C14.3555 71.5742 13.7402 72.4004 13.7402 73.8125V73.8242C13.7402 75.2363 14.3555 76.0625 15.4512 76.0625ZM19.9746 77V70.6367H21.2461V71.6152H21.3398C21.6211 70.918 22.2422 70.5137 23.0742 70.5137C23.9414 70.5137 24.5566 70.9648 24.8379 71.6504H24.9375C25.2598 70.9648 25.9922 70.5137 26.877 70.5137C28.1602 70.5137 28.9102 71.2871 28.9102 72.6113V77H27.6445V72.916C27.6445 72.0371 27.2461 71.6035 26.4141 71.6035C25.6055 71.6035 25.0723 72.207 25.0723 72.9746V77H23.8066V72.7871C23.8066 72.0605 23.332 71.6035 22.582 71.6035C21.8145 71.6035 21.2461 72.2598 21.2461 73.0918V77H19.9746ZM30.6855 79.1211V70.6367H31.957V71.6387H32.0508C32.4199 70.9414 33.1172 70.5254 34.0078 70.5254C35.6133 70.5254 36.6445 71.8086 36.6445 73.8125V73.8242C36.6445 75.8398 35.625 77.1055 34.0078 77.1055C33.1348 77.1055 32.3906 76.6777 32.0508 75.9922H31.957V79.1211H30.6855ZM33.6504 76.0215C34.7109 76.0215 35.3496 75.1895 35.3496 73.8242V73.8125C35.3496 72.4414 34.7109 71.6152 33.6504 71.6152C32.5898 71.6152 31.9336 72.4531 31.9336 73.8125V73.8242C31.9336 75.1836 32.5898 76.0215 33.6504 76.0215ZM39.9199 77.1055C38.707 77.1055 37.8105 76.3672 37.8105 75.2129V75.2012C37.8105 74.0645 38.666 73.4023 40.1836 73.3086L41.9062 73.209V72.6465C41.9062 71.9492 41.4668 71.5625 40.6055 71.5625C39.9023 71.5625 39.4395 71.8203 39.2871 72.2715L39.2812 72.2949H38.0566L38.0625 72.2539C38.2148 71.2109 39.2168 70.5137 40.6641 70.5137C42.2637 70.5137 43.166 71.3105 43.166 72.6465V77H41.9062V76.0977H41.8066C41.4316 76.7422 40.7637 77.1055 39.9199 77.1055ZM39.0762 75.1602C39.0762 75.7461 39.5742 76.0918 40.2598 76.0918C41.209 76.0918 41.9062 75.4707 41.9062 74.6504V74.1055L40.3535 74.2051C39.4746 74.2578 39.0762 74.5742 39.0762 75.1484V75.1602ZM47.2734 77.123C45.7383 77.123 44.7656 76.4023 44.6426 75.3359V75.3301H45.9141L45.9199 75.3359C46.0781 75.8164 46.541 76.1387 47.2969 76.1387C48.082 76.1387 48.627 75.7812 48.627 75.2598V75.248C48.627 74.8496 48.3281 74.5801 47.5898 74.4102L46.5762 74.1758C45.375 73.9004 44.8184 73.3555 44.8184 72.4238V72.418C44.8184 71.3105 45.8496 70.5137 47.291 70.5137C48.7441 70.5137 49.6758 71.2402 49.7871 72.2773V72.2832H48.5742V72.2715C48.4512 71.8262 48 71.4922 47.2852 71.4922C46.5879 71.4922 46.084 71.8379 46.084 72.3477V72.3594C46.084 72.7578 46.377 73.0039 47.0918 73.1738L48.0996 73.4023C49.3242 73.6895 49.9102 74.2109 49.9102 75.1309V75.1426C49.9102 76.3203 48.7852 77.123 47.2734 77.123ZM53.625 77.123C52.0898 77.123 51.1172 76.4023 50.9941 75.3359V75.3301H52.2656L52.2715 75.3359C52.4297 75.8164 52.8926 76.1387 53.6484 76.1387C54.4336 76.1387 54.9785 75.7812 54.9785 75.2598V75.248C54.9785 74.8496 54.6797 74.5801 53.9414 74.4102L52.9277 74.1758C51.7266 73.9004 51.1699 73.3555 51.1699 72.4238V72.418C51.1699 71.3105 52.2012 70.5137 53.6426 70.5137C55.0957 70.5137 56.0273 71.2402 56.1387 72.2773V72.2832H54.9258V72.2715C54.8027 71.8262 54.3516 71.4922 53.6367 71.4922C52.9395 71.4922 52.4355 71.8379 52.4355 72.3477V72.3594C52.4355 72.7578 52.7285 73.0039 53.4434 73.1738L54.4512 73.4023C55.6758 73.6895 56.2617 74.2109 56.2617 75.1309V75.1426C56.2617 76.3203 55.1367 77.123 53.625 77.123Z" fill="black"/>
<defs>
<linearGradient id="paint0_linear_2269_1839" x1="30" y1="0" x2="30" y2="60" gradientUnits="userSpaceOnUse">
<stop stop-color="#313131"/>
<stop offset="1" stop-color="#141514"/>
</linearGradient>
</defs>
</svg>
