<svg width="67" height="80" viewBox="0 0 67 80" fill="none" xmlns="http://www.w3.org/2000/svg">
<rect width="60" height="60" rx="14" fill="url(#paint0_linear_2269_1893)"/>
<path d="M21.6611 50C20.5314 50 19.6388 49.6708 18.9833 49.0123C18.3278 48.3682 18 47.4378 18 46.2211V45.8132C18 44.4963 18.2859 43.1795 18.8577 41.8626C19.4435 40.5314 20.1688 39.2646 21.0335 38.0623C21.9121 36.8456 22.8117 35.7363 23.7322 34.7343C24.6667 33.7323 25.4686 32.8807 26.1381 32.1793C26.8633 31.4636 27.212 30.7193 27.1841 29.9463C27.1702 29.1734 26.8215 28.4505 26.1381 27.7778C25.4686 27.0764 24.6667 26.2247 23.7322 25.2228C22.8117 24.2208 21.9121 23.1186 21.0335 21.9163C20.1688 20.7139 19.4435 19.4543 18.8577 18.1374C18.2859 16.8062 18 15.475 18 14.1439V13.8003C18 12.5693 18.3278 11.6318 18.9833 10.9877C19.6388 10.3292 20.5314 10 21.6611 10H39.318C40.4616 10 41.3612 10.3292 42.0167 10.9877C42.6722 11.6318 43 12.5693 43 13.8003V14.1439C43 15.475 42.7071 16.8062 42.1213 18.1374C41.5495 19.4543 40.8243 20.7139 39.9456 21.9163C39.0669 23.1186 38.1674 24.2208 37.2469 25.2228C36.3264 26.2247 35.5244 27.0764 34.841 27.7778C34.1855 28.4505 33.8438 29.1734 33.8159 29.9463C33.788 30.7193 34.1297 31.4636 34.841 32.1793C35.5244 32.8807 36.3264 33.7323 37.2469 34.7343C38.1674 35.7363 39.0669 36.8456 39.9456 38.0623C40.8243 39.2646 41.5495 40.5314 42.1213 41.8626C42.7071 43.1795 43 44.4963 43 45.8132V46.2211C43 47.4378 42.6722 48.3682 42.0167 49.0123C41.3612 49.6708 40.4616 50 39.318 50H21.6611ZM23.4393 46.6506H37.5607C38.0488 46.6506 38.3417 46.4287 38.4393 45.985C38.5509 45.5556 38.4463 45.1834 38.1255 44.8685L31.7448 38.5776C31.5774 38.4058 31.4658 38.2698 31.41 38.1696C31.3543 38.0551 31.3264 37.869 31.3264 37.6114V28.5078C31.3264 27.9782 31.3891 27.5488 31.5146 27.2195C31.6541 26.876 31.9121 26.5325 32.2887 26.1889C32.9582 25.6021 33.7113 24.9222 34.5481 24.1492C35.3849 23.362 36.1172 22.632 36.7448 21.9592C37.0377 21.6443 37.1283 21.3294 37.0167 21.0145C36.9052 20.6996 36.6541 20.5421 36.2636 20.5421H24.7364C24.3459 20.5421 24.0948 20.6996 23.9833 21.0145C23.8717 21.3294 23.9623 21.6443 24.2552 21.9592C24.8689 22.632 25.6011 23.362 26.4519 24.1492C27.3026 24.9222 28.0558 25.6021 28.7113 26.1889C29.0879 26.5325 29.3389 26.876 29.4644 27.2195C29.6039 27.5488 29.6736 27.9782 29.6736 28.5078V37.6114C29.6736 37.869 29.6388 38.0551 29.569 38.1696C29.5132 38.2698 29.4017 38.4058 29.2343 38.5776L22.8745 44.8685C22.5397 45.1834 22.4282 45.5556 22.5397 45.985C22.6653 46.4287 22.9651 46.6506 23.4393 46.6506Z" fill="#7572FF"/>
<path d="M6.67383 77.2051C4.76367 77.2051 3.53906 76.2383 3.42188 74.8145L3.41602 74.7383H4.70508L4.71094 74.8027C4.78125 75.5703 5.5957 76.0625 6.72656 76.0625C7.80469 76.0625 8.57227 75.5234 8.57227 74.7383V74.7324C8.57227 74.082 8.11523 73.6602 6.99609 73.4199L6.07031 73.2207C4.35352 72.8574 3.61523 72.0605 3.61523 70.8125V70.8066C3.62109 69.3477 4.88672 68.3398 6.67969 68.3398C8.47266 68.3398 9.64453 69.3535 9.73828 70.666L9.74414 70.748H8.47266L8.46094 70.6719C8.34961 69.9805 7.6875 69.4766 6.66211 69.4824C5.67188 69.4824 4.93945 69.9453 4.93945 70.7422V70.748C4.93945 71.375 5.38477 71.7852 6.48047 72.0195L7.40039 72.2246C9.17578 72.6055 9.90234 73.3203 9.90234 74.5742V74.5801C9.90234 76.1973 8.64258 77.2051 6.67383 77.2051ZM14.1621 77.123C12.3047 77.123 11.168 75.8574 11.168 73.8008V73.7891C11.168 71.7734 12.2988 70.5137 14.1562 70.5137C15.7559 70.5137 16.7109 71.416 16.8867 72.6523V72.6816L15.668 72.6875L15.6621 72.6699C15.5215 72.043 15.0059 71.5742 14.1621 71.5742C13.1016 71.5742 12.4629 72.418 12.4629 73.7891V73.8008C12.4629 75.207 13.1133 76.0625 14.1621 76.0625C14.959 76.0625 15.4512 75.6992 15.6562 75.0137L15.668 74.9844H16.8867L16.875 75.0371C16.6465 76.2734 15.7383 77.123 14.1621 77.123ZM18.3281 77V70.6367H19.5996V71.5977H19.6934C19.9219 70.9238 20.5137 70.5254 21.3633 70.5254C21.5684 70.5254 21.791 70.5547 21.9199 70.584V71.7559C21.6914 71.709 21.4746 71.6797 21.2344 71.6797C20.2617 71.6797 19.5996 72.2773 19.5996 73.1973V77H18.3281ZM25.6406 77.123C23.7773 77.123 22.6523 75.8516 22.6523 73.8359V73.8301C22.6523 71.8438 23.8008 70.5137 25.5762 70.5137C27.3516 70.5137 28.4414 71.7969 28.4414 73.707V74.1523H23.9297C23.9531 75.3711 24.6211 76.0801 25.6699 76.0801C26.4844 76.0801 26.9707 75.6758 27.123 75.3477L27.1465 75.3008L28.3711 75.2949L28.3594 75.3477C28.1484 76.1855 27.2695 77.123 25.6406 77.123ZM25.582 71.5566C24.7148 71.5566 24.0586 72.1484 23.9473 73.2441H27.1816C27.082 72.1074 26.4434 71.5566 25.582 71.5566ZM32.625 77.123C30.7617 77.123 29.6367 75.8516 29.6367 73.8359V73.8301C29.6367 71.8438 30.7852 70.5137 32.5605 70.5137C34.3359 70.5137 35.4258 71.7969 35.4258 73.707V74.1523H30.9141C30.9375 75.3711 31.6055 76.0801 32.6543 76.0801C33.4688 76.0801 33.9551 75.6758 34.1074 75.3477L34.1309 75.3008L35.3555 75.2949L35.3438 75.3477C35.1328 76.1855 34.2539 77.123 32.625 77.123ZM32.5664 71.5566C31.6992 71.5566 31.043 72.1484 30.9316 73.2441H34.166C34.0664 72.1074 33.4277 71.5566 32.5664 71.5566ZM36.9375 77V70.6367H38.209V71.6035H38.3027C38.6133 70.9238 39.2227 70.5137 40.1484 70.5137C41.5723 70.5137 42.3574 71.3633 42.3574 72.8809V77H41.0918V73.1797C41.0918 72.125 40.6523 71.6035 39.7207 71.6035C38.7891 71.6035 38.209 72.2422 38.209 73.2676V77H36.9375ZM49.7051 77V69.6758H47.0449V68.5449H53.6719V69.6758H51.0176V77H49.7051ZM55.6816 69.5C55.2422 69.5 54.8848 69.1426 54.8848 68.709C54.8848 68.2695 55.2422 67.9121 55.6816 67.9121C56.1152 67.9121 56.4785 68.2695 56.4785 68.709C56.4785 69.1426 56.1152 69.5 55.6816 69.5ZM55.043 77V70.6367H56.3086V77H55.043ZM59.1387 77.0879C58.6523 77.0879 58.2773 76.7129 58.2773 76.2383C58.2773 75.7578 58.6523 75.3828 59.1387 75.3828C59.625 75.3828 59.9941 75.7578 59.9941 76.2383C59.9941 76.7129 59.625 77.0879 59.1387 77.0879ZM62.3965 77.0879C61.916 77.0879 61.541 76.7129 61.541 76.2383C61.541 75.7578 61.916 75.3828 62.3965 75.3828C62.8828 75.3828 63.2578 75.7578 63.2578 76.2383C63.2578 76.7129 62.8828 77.0879 62.3965 77.0879ZM65.6543 77.0879C65.1738 77.0879 64.7988 76.7129 64.7988 76.2383C64.7988 75.7578 65.1738 75.3828 65.6543 75.3828C66.1465 75.3828 66.5156 75.7578 66.5156 76.2383C66.5156 76.7129 66.1465 77.0879 65.6543 77.0879Z" fill="black"/>
<defs>
<linearGradient id="paint0_linear_2269_1893" x1="30" y1="0" x2="30" y2="60" gradientUnits="userSpaceOnUse">
<stop stop-color="#313131"/>
<stop offset="1" stop-color="#141414"/>
</linearGradient>
</defs>
</svg>
