<svg width="60" height="80" viewBox="0 0 60 80" fill="none" xmlns="http://www.w3.org/2000/svg">
<g clip-path="url(#clip0_2269_1857)">
<rect width="60" height="60" rx="13.28" fill="url(#paint0_linear_2269_1857)"/>
<g clip-path="url(#clip1_2269_1857)">
<circle cx="60.8544" cy="-0.873631" r="18.8109" stroke="#595959" stroke-width="10.0169"/>
<path fill-rule="evenodd" clip-rule="evenodd" d="M60.8544 14.1314C69.1415 14.1314 75.8594 7.41343 75.8594 -0.873598C75.8594 -9.16063 69.1415 -15.8786 60.8544 -15.8786C52.5674 -15.8786 45.8494 -9.16063 45.8494 -0.873598C45.8494 7.41343 52.5674 14.1314 60.8544 14.1314ZM60.8544 21.781C73.3662 21.781 83.509 11.6382 83.509 -0.873598C83.509 -13.3854 73.3662 -23.5282 60.8544 -23.5282C48.3426 -23.5282 38.1998 -13.3854 38.1998 -0.873598C38.1998 11.6382 48.3426 21.781 60.8544 21.781Z" fill="#3D3D3D"/>
</g>
<path fill-rule="evenodd" clip-rule="evenodd" d="M13.4532 -0.820312H31.8517V26.7662L64.3495 48.5583L56.2326 60.9863L31.565 44.6274V60.0973H13.7441V32.8091L-7.85156 18.4875L0.265394 6.41107L12.027 13.7735C12.6476 14.162 13.4532 13.7159 13.4532 12.9837V-0.820312Z" fill="url(#paint1_linear_2269_1857)"/>
<path d="M16.3066 -1.74707H22.5963H28.8861V29.8179H16.3066V-1.74707Z" fill="url(#paint2_linear_2269_1857)"/>
<g filter="url(#filter0_d_2269_1857)">
<circle cx="22.4799" cy="37.3845" r="13.8607" fill="url(#paint3_linear_2269_1857)" stroke="white" stroke-width="2.32952"/>
<path d="M24.134 28.9041C23.6511 27.6348 21.7704 27.6348 21.2875 28.9041L15.9486 43.4871C15.6086 44.4157 16.7586 45.1646 17.4704 44.4782L22.3873 39.7369C22.5678 39.5629 22.8537 39.5629 23.0341 39.7369L27.951 44.4782C28.6628 45.1646 29.8128 44.4156 29.4728 43.4871L24.134 28.9041Z" fill="white"/>
</g>
</g>
<path d="M15.375 77V68.5449H16.8867L19.582 75.2891H19.6758L22.3711 68.5449H23.8828V77H22.6875V70.7949H22.5996L20.1152 77H19.1426L16.6641 70.7949H16.5703V77H15.375ZM27.6035 77.1055C26.3906 77.1055 25.4941 76.3672 25.4941 75.2129V75.2012C25.4941 74.0645 26.3496 73.4023 27.8672 73.3086L29.5898 73.209V72.6465C29.5898 71.9492 29.1504 71.5625 28.2891 71.5625C27.5859 71.5625 27.123 71.8203 26.9707 72.2715L26.9648 72.2949H25.7402L25.7461 72.2539C25.8984 71.2109 26.9004 70.5137 28.3477 70.5137C29.9473 70.5137 30.8496 71.3105 30.8496 72.6465V77H29.5898V76.0977H29.4902C29.1152 76.7422 28.4473 77.1055 27.6035 77.1055ZM26.7598 75.1602C26.7598 75.7461 27.2578 76.0918 27.9434 76.0918C28.8926 76.0918 29.5898 75.4707 29.5898 74.6504V74.1055L28.0371 74.2051C27.1582 74.2578 26.7598 74.5742 26.7598 75.1484V75.1602ZM32.6426 79.1211V70.6367H33.9141V71.6387H34.0078C34.377 70.9414 35.0742 70.5254 35.9648 70.5254C37.5703 70.5254 38.6016 71.8086 38.6016 73.8125V73.8242C38.6016 75.8398 37.582 77.1055 35.9648 77.1055C35.0918 77.1055 34.3477 76.6777 34.0078 75.9922H33.9141V79.1211H32.6426ZM35.6074 76.0215C36.668 76.0215 37.3066 75.1895 37.3066 73.8242V73.8125C37.3066 72.4414 36.668 71.6152 35.6074 71.6152C34.5469 71.6152 33.8906 72.4531 33.8906 73.8125V73.8242C33.8906 75.1836 34.5469 76.0215 35.6074 76.0215ZM42.4453 77.123C40.9102 77.123 39.9375 76.4023 39.8145 75.3359V75.3301H41.0859L41.0918 75.3359C41.25 75.8164 41.7129 76.1387 42.4688 76.1387C43.2539 76.1387 43.7988 75.7812 43.7988 75.2598V75.248C43.7988 74.8496 43.5 74.5801 42.7617 74.4102L41.748 74.1758C40.5469 73.9004 39.9902 73.3555 39.9902 72.4238V72.418C39.9902 71.3105 41.0215 70.5137 42.4629 70.5137C43.916 70.5137 44.8477 71.2402 44.959 72.2773V72.2832H43.7461V72.2715C43.623 71.8262 43.1719 71.4922 42.457 71.4922C41.7598 71.4922 41.2559 71.8379 41.2559 72.3477V72.3594C41.2559 72.7578 41.5488 73.0039 42.2637 73.1738L43.2715 73.4023C44.4961 73.6895 45.082 74.2109 45.082 75.1309V75.1426C45.082 76.3203 43.957 77.123 42.4453 77.123Z" fill="black"/>
<defs>
<filter id="filter0_d_2269_1857" x="0.465902" y="17.1177" width="44.0279" height="44.0279" filterUnits="userSpaceOnUse" color-interpolation-filters="sRGB">
<feFlood flood-opacity="0" result="BackgroundImageFix"/>
<feColorMatrix in="SourceAlpha" type="matrix" values="0 0 0 0 0 0 0 0 0 0 0 0 0 0 0 0 0 0 127 0" result="hardAlpha"/>
<feOffset dy="1.74714"/>
<feGaussianBlur stdDeviation="3.49428"/>
<feComposite in2="hardAlpha" operator="out"/>
<feColorMatrix type="matrix" values="0 0 0 0 0 0 0 0 0 0 0 0 0 0 0 0 0 0 0.25 0"/>
<feBlend mode="normal" in2="BackgroundImageFix" result="effect1_dropShadow_2269_1857"/>
<feBlend mode="normal" in="SourceGraphic" in2="effect1_dropShadow_2269_1857" result="shape"/>
</filter>
<linearGradient id="paint0_linear_2269_1857" x1="30" y1="0" x2="30" y2="60" gradientUnits="userSpaceOnUse">
<stop stop-color="#313131"/>
<stop offset="1" stop-color="#141514"/>
</linearGradient>
<linearGradient id="paint1_linear_2269_1857" x1="28.249" y1="-0.820313" x2="28.249" y2="60.9863" gradientUnits="userSpaceOnUse">
<stop stop-color="#585A59"/>
<stop offset="1" stop-color="#404040"/>
</linearGradient>
<linearGradient id="paint2_linear_2269_1857" x1="22.5963" y1="-1.74707" x2="22.5963" y2="29.8179" gradientUnits="userSpaceOnUse">
<stop stop-color="#0C91FF"/>
<stop offset="1" stop-color="#0077F7"/>
</linearGradient>
<linearGradient id="paint3_linear_2269_1857" x1="22.4799" y1="22.3591" x2="22.4799" y2="52.41" gradientUnits="userSpaceOnUse">
<stop stop-color="#0C91FF"/>
<stop offset="1" stop-color="#017AFF"/>
</linearGradient>
<clipPath id="clip0_2269_1857">
<rect width="60" height="60" rx="13.28" fill="white"/>
</clipPath>
<clipPath id="clip1_2269_1857">
<rect x="37.035" width="23.0623" height="23.8776" fill="white"/>
</clipPath>
</defs>
</svg>
