<svg width="60" height="80" viewBox="0 0 60 80" fill="none" xmlns="http://www.w3.org/2000/svg">
<rect width="60" height="60" rx="13.3594" fill="url(#paint0_linear_2269_1834)"/>
<rect x="14.6484" y="7.73438" width="30.7031" height="44.5312" rx="3.51563" fill="#DCDDDC"/>
<rect x="17.4609" y="43.2422" width="6.09" height="6.09375" rx="3.045" fill="#3F3F3F"/>
<rect x="27" y="43.24" width="6.09" height="6.09375" rx="3.045" fill="#3F3F3F"/>
<rect x="17.4609" y="10.5469" width="25.0781" height="10.5469" rx="1.75781" fill="#3F3F3F"/>
<circle cx="20.5078" cy="27.4219" r="3.04688" fill="#3F3F3F"/>
<circle cx="20.5078" cy="36.7969" r="3.04688" fill="#3F3F3F"/>
<circle cx="30" cy="27.4219" r="3.04688" fill="#3F3F3F"/>
<circle cx="30" cy="36.7969" r="3.04688" fill="#3F3F3F"/>
<circle cx="39.4922" cy="27.4219" r="3.04688" fill="#FF9500"/>
<circle cx="39.4922" cy="36.7969" r="3.04688" fill="#FF9500"/>
<circle cx="39.4922" cy="46.1719" r="3.04688" fill="#FF9500"/>
<path d="M4.88672 77.2051C2.53711 77.2051 1.07227 75.5059 1.07227 72.7812V72.7695C1.07227 70.0391 2.53125 68.3398 4.88086 68.3398C6.74414 68.3398 8.17383 69.5176 8.39648 71.1992L8.39062 71.2285H7.08984V71.2109C6.84375 70.1738 5.99414 69.5 4.88086 69.5C3.36328 69.5 2.41406 70.7598 2.41406 72.7695V72.7812C2.41406 74.7852 3.36328 76.0449 4.88672 76.0449C6.00586 76.0449 6.84375 75.4473 7.08398 74.4922L7.0957 74.4688H8.39648V74.5039C8.15039 76.127 6.77344 77.2051 4.88672 77.2051ZM11.7246 77.1055C10.5117 77.1055 9.61523 76.3672 9.61523 75.2129V75.2012C9.61523 74.0645 10.4707 73.4023 11.9883 73.3086L13.7109 73.209V72.6465C13.7109 71.9492 13.2715 71.5625 12.4102 71.5625C11.707 71.5625 11.2441 71.8203 11.0918 72.2715L11.0859 72.2949H9.86133L9.86719 72.2539C10.0195 71.2109 11.0215 70.5137 12.4688 70.5137C14.0684 70.5137 14.9707 71.3105 14.9707 72.6465V77H13.7109V76.0977H13.6113C13.2363 76.7422 12.5684 77.1055 11.7246 77.1055ZM10.8809 75.1602C10.8809 75.7461 11.3789 76.0918 12.0645 76.0918C13.0137 76.0918 13.7109 75.4707 13.7109 74.6504V74.1055L12.1582 74.2051C11.2793 74.2578 10.8809 74.5742 10.8809 75.1484V75.1602ZM16.8223 77V68.1406H18.0938V77H16.8223ZM22.6641 77.123C20.8066 77.123 19.6699 75.8574 19.6699 73.8008V73.7891C19.6699 71.7734 20.8008 70.5137 22.6582 70.5137C24.2578 70.5137 25.2129 71.416 25.3887 72.6523V72.6816L24.1699 72.6875L24.1641 72.6699C24.0234 72.043 23.5078 71.5742 22.6641 71.5742C21.6035 71.5742 20.9648 72.418 20.9648 73.7891V73.8008C20.9648 75.207 21.6152 76.0625 22.6641 76.0625C23.4609 76.0625 23.9531 75.6992 24.1582 75.0137L24.1699 74.9844H25.3887L25.377 75.0371C25.1484 76.2734 24.2402 77.123 22.6641 77.123ZM28.9512 77.123C27.5156 77.123 26.7715 76.2617 26.7715 74.7559V70.6367H28.043V74.457C28.043 75.5117 28.4297 76.0332 29.3613 76.0332C30.3809 76.0332 30.9258 75.3945 30.9258 74.3691V70.6367H32.1914V77H30.9258V76.0391H30.8262C30.5215 76.7246 29.877 77.123 28.9512 77.123ZM34.084 77V68.1406H35.3555V77H34.084ZM38.9941 77.1055C37.7812 77.1055 36.8848 76.3672 36.8848 75.2129V75.2012C36.8848 74.0645 37.7402 73.4023 39.2578 73.3086L40.9805 73.209V72.6465C40.9805 71.9492 40.541 71.5625 39.6797 71.5625C38.9766 71.5625 38.5137 71.8203 38.3613 72.2715L38.3555 72.2949H37.1309L37.1367 72.2539C37.2891 71.2109 38.291 70.5137 39.7383 70.5137C41.3379 70.5137 42.2402 71.3105 42.2402 72.6465V77H40.9805V76.0977H40.8809C40.5059 76.7422 39.8379 77.1055 38.9941 77.1055ZM38.1504 75.1602C38.1504 75.7461 38.6484 76.0918 39.334 76.0918C40.2832 76.0918 40.9805 75.4707 40.9805 74.6504V74.1055L39.4277 74.2051C38.5488 74.2578 38.1504 74.5742 38.1504 75.1484V75.1602ZM46.4355 77.041C45.0352 77.041 44.4609 76.5488 44.4609 75.3242V71.6387H43.4648V70.6367H44.4609V69.0312H45.7559V70.6367H47.1211V71.6387H45.7559V75.0195C45.7559 75.7051 46.0137 75.9863 46.6406 75.9863C46.834 75.9863 46.9453 75.9805 47.1211 75.9629V76.9766C46.916 77.0117 46.6816 77.041 46.4355 77.041ZM51.2285 77.123C49.3594 77.123 48.2168 75.875 48.2168 73.8242V73.8125C48.2168 71.7676 49.3652 70.5137 51.2285 70.5137C53.0859 70.5137 54.2344 71.7617 54.2344 73.8125V73.8242C54.2344 75.875 53.0918 77.123 51.2285 77.123ZM51.2285 76.0625C52.3184 76.0625 52.9395 75.2305 52.9395 73.8242V73.8125C52.9395 72.4004 52.3184 71.5742 51.2285 71.5742C50.1328 71.5742 49.5176 72.4004 49.5176 73.8125V73.8242C49.5176 75.2363 50.1328 76.0625 51.2285 76.0625ZM55.752 77V70.6367H57.0234V71.5977H57.1172C57.3457 70.9238 57.9375 70.5254 58.7871 70.5254C58.9922 70.5254 59.2148 70.5547 59.3438 70.584V71.7559C59.1152 71.709 58.8984 71.6797 58.6582 71.6797C57.6855 71.6797 57.0234 72.2773 57.0234 73.1973V77H55.752Z" fill="black"/>
<defs>
<linearGradient id="paint0_linear_2269_1834" x1="30" y1="0" x2="30" y2="60" gradientUnits="userSpaceOnUse">
<stop stop-color="#313131"/>
<stop offset="1" stop-color="#141514"/>
</linearGradient>
</defs>
</svg>
