<svg width="69" height="80" viewBox="0 0 69 80" fill="none" xmlns="http://www.w3.org/2000/svg">
<rect width="60" height="60" rx="14" fill="url(#paint0_linear_2502_8739)"/>
<path d="M8.5 34.5C8.5 33.1192 9.61929 32 11 32C12.3807 32 13.5 33.1192 13.5 34.5V40.5C13.5 41.8807 12.3807 43 11 43C9.61929 43 8.5 41.8807 8.5 40.5V34.5Z" fill="url(#paint1_linear_2502_8739)"/>
<path d="M13.5 27C13.5 28.3807 12.3807 29.5 11 29.5C9.61929 29.5 8.5 28.3807 8.5 27C8.5 25.6193 9.61929 24.5 11 24.5C12.3807 24.5 13.5 25.6193 13.5 27Z" fill="url(#paint2_linear_2502_8739)"/>
<path d="M39 32C39 30.6193 40.1193 29.5 41.5 29.5C42.8807 29.5 44 30.6193 44 32V40.5C44 41.8807 42.8807 43 41.5 43C40.1193 43 39 41.8807 39 40.5V32Z" fill="url(#paint3_linear_2502_8739)"/>
<path d="M44 24.5C44 25.8807 42.8807 27 41.5 27C40.1193 27 39 25.8807 39 24.5C39 23.1193 40.1193 22 41.5 22C42.8807 22 44 23.1193 44 24.5Z" fill="url(#paint4_linear_2502_8739)"/>
<path d="M31.25 37.5C31.25 36.1193 32.3693 35 33.75 35C35.1307 35 36.25 36.1193 36.25 37.5V40.5C36.25 41.8807 35.1307 43 33.75 43C32.3693 43 31.25 41.8807 31.25 40.5V37.5Z" fill="url(#paint5_linear_2502_8739)"/>
<path d="M36.25 30.5C36.25 31.8807 35.1307 33 33.75 33C32.3693 33 31.25 31.8807 31.25 30.5C31.25 29.1193 32.3693 28 33.75 28C35.1307 28 36.25 29.1193 36.25 30.5Z" fill="url(#paint6_linear_2502_8739)"/>
<path d="M16.05 27C16.05 25.6193 17.1693 24.5 18.55 24.5C19.9307 24.5 21.05 25.6193 21.05 27L21.0498 40.5C21.0498 41.8807 19.9305 43 18.5498 43C17.1691 43 16.0498 41.8807 16.0498 40.5L16.05 27Z" fill="url(#paint7_linear_2502_8739)"/>
<path d="M21.05 19.5C21.05 20.8807 19.9307 22 18.55 22C17.1693 22 16.05 20.8807 16.05 19.5C16.05 18.1193 17.1693 17 18.55 17C19.9307 17 21.05 18.1193 21.05 19.5Z" fill="url(#paint8_linear_2502_8739)"/>
<path d="M23.75 30.5C23.75 29.1193 24.8693 28 26.25 28C27.6307 28 28.75 29.1193 28.75 30.5V40.5C28.75 41.8807 27.6307 43 26.25 43C24.8693 43 23.75 41.8807 23.75 40.5V30.5Z" fill="url(#paint9_linear_2502_8739)"/>
<path d="M28.75 23C28.75 24.3807 27.6307 25.5 26.25 25.5C24.8693 25.5 23.75 24.3807 23.75 23C23.75 21.6193 24.8693 20.5 26.25 20.5C27.6307 20.5 28.75 21.6193 28.75 23Z" fill="url(#paint10_linear_2502_8739)"/>
<path d="M46.5 29C46.5 27.6193 47.6193 26.5 49 26.5C50.3807 26.5 51.5 27.6193 51.5 29V40.5C51.5 41.8807 50.3807 43 49 43C47.6193 43 46.5 41.8807 46.5 40.5V29Z" fill="url(#paint11_linear_2502_8739)"/>
<path d="M51.5 21.5C51.5 22.8807 50.3807 24 49 24C47.6193 24 46.5 22.8807 46.5 21.5C46.5 20.1193 47.6193 19 49 19C50.3807 19 51.5 20.1193 51.5 21.5Z" fill="url(#paint12_linear_2502_8739)"/>
<path d="M1.36523 77L4.41797 68.5449H5.83594L8.88867 77H7.50586L6.74414 74.7148H3.50977L2.74219 77H1.36523ZM5.07422 70.0273L3.86133 73.6602H6.39258L5.17383 70.0273H5.07422ZM10.2129 79.1211V70.6367H11.4844V71.6387H11.5781C11.9473 70.9414 12.6445 70.5254 13.5352 70.5254C15.1406 70.5254 16.1719 71.8086 16.1719 73.8125V73.8242C16.1719 75.8398 15.1523 77.1055 13.5352 77.1055C12.6621 77.1055 11.918 76.6777 11.5781 75.9922H11.4844V79.1211H10.2129ZM13.1777 76.0215C14.2383 76.0215 14.877 75.1895 14.877 73.8242V73.8125C14.877 72.4414 14.2383 71.6152 13.1777 71.6152C12.1172 71.6152 11.4609 72.4531 11.4609 73.8125V73.8242C11.4609 75.1836 12.1172 76.0215 13.1777 76.0215ZM17.7012 79.1211V70.6367H18.9727V71.6387H19.0664C19.4355 70.9414 20.1328 70.5254 21.0234 70.5254C22.6289 70.5254 23.6602 71.8086 23.6602 73.8125V73.8242C23.6602 75.8398 22.6406 77.1055 21.0234 77.1055C20.1504 77.1055 19.4062 76.6777 19.0664 75.9922H18.9727V79.1211H17.7012ZM20.666 76.0215C21.7266 76.0215 22.3652 75.1895 22.3652 73.8242V73.8125C22.3652 72.4414 21.7266 71.6152 20.666 71.6152C19.6055 71.6152 18.9492 72.4531 18.9492 73.8125V73.8242C18.9492 75.1836 19.6055 76.0215 20.666 76.0215ZM25.248 77V68.1406H26.5195V77H25.248ZM31.084 77.123C29.2207 77.123 28.0957 75.8516 28.0957 73.8359V73.8301C28.0957 71.8438 29.2441 70.5137 31.0195 70.5137C32.7949 70.5137 33.8848 71.7969 33.8848 73.707V74.1523H29.373C29.3965 75.3711 30.0645 76.0801 31.1133 76.0801C31.9277 76.0801 32.4141 75.6758 32.5664 75.3477L32.5898 75.3008L33.8145 75.2949L33.8027 75.3477C33.5918 76.1855 32.7129 77.123 31.084 77.123ZM31.0254 71.5566C30.1582 71.5566 29.502 72.1484 29.3906 73.2441H32.625C32.5254 72.1074 31.8867 71.5566 31.0254 71.5566ZM38.8242 77V68.5449H42.1582C43.8926 68.5449 44.9707 69.5527 44.9707 71.123V71.1348C44.9707 72.2715 44.3613 73.1973 43.3301 73.543L45.2285 77H43.7109L41.9883 73.748H40.1367V77H38.8242ZM40.1367 72.6816H42.0293C43.0371 72.6816 43.623 72.1309 43.623 71.1699V71.1582C43.623 70.2207 43.002 69.6465 41.9883 69.6465H40.1367V72.6816ZM49.1777 77.123C47.3145 77.123 46.1895 75.8516 46.1895 73.8359V73.8301C46.1895 71.8438 47.3379 70.5137 49.1133 70.5137C50.8887 70.5137 51.9785 71.7969 51.9785 73.707V74.1523H47.4668C47.4902 75.3711 48.1582 76.0801 49.207 76.0801C50.0215 76.0801 50.5078 75.6758 50.6602 75.3477L50.6836 75.3008L51.9082 75.2949L51.8965 75.3477C51.6855 76.1855 50.8066 77.123 49.1777 77.123ZM49.1191 71.5566C48.252 71.5566 47.5957 72.1484 47.4844 73.2441H50.7188C50.6191 72.1074 49.9805 71.5566 49.1191 71.5566ZM55.8047 77.123C54.2695 77.123 53.2969 76.4023 53.1738 75.3359V75.3301H54.4453L54.4512 75.3359C54.6094 75.8164 55.0723 76.1387 55.8281 76.1387C56.6133 76.1387 57.1582 75.7812 57.1582 75.2598V75.248C57.1582 74.8496 56.8594 74.5801 56.1211 74.4102L55.1074 74.1758C53.9062 73.9004 53.3496 73.3555 53.3496 72.4238V72.418C53.3496 71.3105 54.3809 70.5137 55.8223 70.5137C57.2754 70.5137 58.207 71.2402 58.3184 72.2773V72.2832H57.1055V72.2715C56.9824 71.8262 56.5312 71.4922 55.8164 71.4922C55.1191 71.4922 54.6152 71.8379 54.6152 72.3477V72.3594C54.6152 72.7578 54.9082 73.0039 55.623 73.1738L56.6309 73.4023C57.8555 73.6895 58.4414 74.2109 58.4414 75.1309V75.1426C58.4414 76.3203 57.3164 77.123 55.8047 77.123ZM60.9375 77.0879C60.4512 77.0879 60.0762 76.7129 60.0762 76.2383C60.0762 75.7578 60.4512 75.3828 60.9375 75.3828C61.4238 75.3828 61.793 75.7578 61.793 76.2383C61.793 76.7129 61.4238 77.0879 60.9375 77.0879ZM64.1953 77.0879C63.7148 77.0879 63.3398 76.7129 63.3398 76.2383C63.3398 75.7578 63.7148 75.3828 64.1953 75.3828C64.6816 75.3828 65.0566 75.7578 65.0566 76.2383C65.0566 76.7129 64.6816 77.0879 64.1953 77.0879ZM67.4531 77.0879C66.9727 77.0879 66.5977 76.7129 66.5977 76.2383C66.5977 75.7578 66.9727 75.3828 67.4531 75.3828C67.9453 75.3828 68.3145 75.7578 68.3145 76.2383C68.3145 76.7129 67.9453 77.0879 67.4531 77.0879Z" fill="black"/>
<defs>
<linearGradient id="paint0_linear_2502_8739" x1="30" y1="0" x2="30" y2="60" gradientUnits="userSpaceOnUse">
<stop stop-color="#313131"/>
<stop offset="1" stop-color="#141514"/>
</linearGradient>
<linearGradient id="paint1_linear_2502_8739" x1="11" y1="24.5" x2="11" y2="43" gradientUnits="userSpaceOnUse">
<stop stop-color="#6ED277"/>
<stop offset="1" stop-color="#4FAFC3"/>
</linearGradient>
<linearGradient id="paint2_linear_2502_8739" x1="11" y1="24.5" x2="11" y2="43" gradientUnits="userSpaceOnUse">
<stop stop-color="#6ED277"/>
<stop offset="1" stop-color="#4FAFC3"/>
</linearGradient>
<linearGradient id="paint3_linear_2502_8739" x1="41.5" y1="23" x2="41.5" y2="43.5" gradientUnits="userSpaceOnUse">
<stop stop-color="#EE7B3C"/>
<stop offset="1" stop-color="#EB483B"/>
</linearGradient>
<linearGradient id="paint4_linear_2502_8739" x1="41.5" y1="23" x2="41.5" y2="43.5" gradientUnits="userSpaceOnUse">
<stop stop-color="#EE7B3C"/>
<stop offset="1" stop-color="#EB483B"/>
</linearGradient>
<linearGradient id="paint5_linear_2502_8739" x1="33.25" y1="28" x2="33.25" y2="43.5" gradientUnits="userSpaceOnUse">
<stop stop-color="#E63D53"/>
<stop offset="1" stop-color="#C31027"/>
</linearGradient>
<linearGradient id="paint6_linear_2502_8739" x1="33.25" y1="28" x2="33.25" y2="43.5" gradientUnits="userSpaceOnUse">
<stop stop-color="#E63D53"/>
<stop offset="1" stop-color="#C31027"/>
</linearGradient>
<linearGradient id="paint7_linear_2502_8739" x1="18.5" y1="18" x2="18.5" y2="43.5" gradientUnits="userSpaceOnUse">
<stop stop-color="#5BC7F1"/>
<stop offset="1" stop-color="#377CF6"/>
</linearGradient>
<linearGradient id="paint8_linear_2502_8739" x1="18.5" y1="18" x2="18.5" y2="43.5" gradientUnits="userSpaceOnUse">
<stop stop-color="#5BC7F1"/>
<stop offset="1" stop-color="#377CF6"/>
</linearGradient>
<linearGradient id="paint9_linear_2502_8739" x1="26" y1="21" x2="26.2002" y2="43.5" gradientUnits="userSpaceOnUse">
<stop stop-color="#9A46DC"/>
<stop offset="1" stop-color="#4542CF"/>
</linearGradient>
<linearGradient id="paint10_linear_2502_8739" x1="26" y1="21" x2="26.2002" y2="43.5" gradientUnits="userSpaceOnUse">
<stop stop-color="#9A46DC"/>
<stop offset="1" stop-color="#4542CF"/>
</linearGradient>
<linearGradient id="paint11_linear_2502_8739" x1="48.4502" y1="19.5" x2="48.4502" y2="43" gradientUnits="userSpaceOnUse">
<stop stop-color="#F5BB40"/>
<stop offset="1" stop-color="#F07831"/>
</linearGradient>
<linearGradient id="paint12_linear_2502_8739" x1="48.4502" y1="19.5" x2="48.4502" y2="43" gradientUnits="userSpaceOnUse">
<stop stop-color="#F5BB40"/>
<stop offset="1" stop-color="#F07831"/>
</linearGradient>
</defs>
</svg>
