<svg width="60" height="80" viewBox="0 0 60 80" fill="none" xmlns="http://www.w3.org/2000/svg">
<g clip-path="url(#clip0_2269_1871)">
<rect width="60" height="60" fill="url(#paint0_linear_2269_1871)"/>
<circle cx="30.0002" cy="30" r="26.25" fill="url(#paint1_linear_2269_1871)"/>
<rect x="29.6489" y="5.625" width="0.703125" height="4.45312" fill="white"/>
<rect x="29.6489" y="49.9219" width="0.703125" height="4.45312" fill="white"/>
<rect x="25.4209" y="6.0564" width="0.703125" height="4.45312" transform="rotate(-10 25.4209 6.0564)" fill="white"/>
<rect x="33.1125" y="49.6802" width="0.703125" height="4.45312" transform="rotate(-10 33.1125 49.6802)" fill="white"/>
<rect x="21.3323" y="7.21533" width="0.703125" height="4.45312" transform="rotate(-20 21.3323 7.21533)" fill="white"/>
<rect x="36.4827" y="48.8408" width="0.703125" height="4.45312" transform="rotate(-20 36.4827 48.8408)" fill="white"/>
<rect width="0.703125" height="4.45312" transform="matrix(0.939693 0.34202 0.34202 -0.939693 21.3323 52.7847)" fill="white"/>
<rect width="0.703125" height="4.45312" transform="matrix(0.939693 0.34202 0.34202 -0.939693 36.4827 11.1592)" fill="white"/>
<rect width="0.703125" height="4.45312" transform="matrix(0.984808 0.173648 0.173648 -0.984808 25.4209 53.9436)" fill="white"/>
<rect width="0.703125" height="4.45312" transform="matrix(0.984808 0.173648 0.173648 -0.984808 33.1125 10.3198)" fill="white"/>
<rect x="17.5081" y="9.06641" width="0.703125" height="4.45312" transform="rotate(-30 17.5081 9.06641)" fill="white"/>
<rect x="39.6562" y="47.4287" width="0.703125" height="4.45312" transform="rotate(-30 39.6562 47.4287)" fill="white"/>
<rect width="0.703125" height="4.45312" transform="matrix(0.866025 0.5 0.5 -0.866025 17.5081 50.9336)" fill="white"/>
<rect width="0.703125" height="4.45312" transform="matrix(0.866025 0.5 0.5 -0.866025 39.6562 12.5715)" fill="white"/>
<rect x="14.0625" y="11.5537" width="0.703125" height="4.45312" transform="rotate(-40 14.0625 11.5537)" fill="white"/>
<rect x="42.5364" y="45.4871" width="0.703125" height="4.45312" transform="rotate(-40 42.5364 45.4871)" fill="white"/>
<rect width="0.703125" height="4.45312" transform="matrix(0.766044 0.642788 0.642788 -0.766044 14.0625 48.4463)" fill="white"/>
<rect width="0.703125" height="4.45312" transform="matrix(0.766044 0.642788 0.642788 -0.766044 42.5364 14.5127)" fill="white"/>
<rect x="11.1016" y="14.6013" width="0.703125" height="4.45312" transform="rotate(-50 11.1016 14.6013)" fill="white"/>
<rect x="45.0349" y="43.075" width="0.703125" height="4.45312" transform="rotate(-50 45.0349 43.075)" fill="white"/>
<rect width="0.703125" height="4.45312" transform="matrix(0.642788 0.766044 0.766044 -0.642788 11.1016 45.3987)" fill="white"/>
<rect width="0.703125" height="4.45312" transform="matrix(0.642788 0.766044 0.766044 -0.642788 45.0349 16.925)" fill="white"/>
<rect x="8.71484" y="18.1169" width="0.703125" height="4.45312" transform="rotate(-60 8.71484 18.1169)" fill="white"/>
<rect x="47.0774" y="40.2654" width="0.703125" height="4.45312" transform="rotate(-60 47.0774 40.2654)" fill="white"/>
<rect width="0.703125" height="4.45312" transform="matrix(0.5 0.866025 0.866025 -0.5 8.71484 41.8831)" fill="white"/>
<rect width="0.703125" height="4.45312" transform="matrix(0.5 0.866025 0.866025 -0.5 47.0774 19.7346)" fill="white"/>
<rect x="6.97485" y="21.9937" width="0.703125" height="4.45312" transform="rotate(-70 6.97485 21.9937)" fill="white"/>
<rect x="48.6006" y="37.144" width="0.703125" height="4.45312" transform="rotate(-70 48.6006 37.144)" fill="white"/>
<rect width="0.703125" height="4.45312" transform="matrix(0.34202 0.939693 0.939693 -0.34202 6.97485 38.0063)" fill="white"/>
<rect width="0.703125" height="4.45312" transform="matrix(0.34202 0.939693 0.939693 -0.34202 48.6006 22.856)" fill="white"/>
<rect x="5.93433" y="26.1135" width="0.703125" height="4.45312" transform="rotate(-80 5.93433 26.1135)" fill="white"/>
<rect x="49.5579" y="33.8057" width="0.703125" height="4.45312" transform="rotate(-80 49.5579 33.8057)" fill="white"/>
<rect width="0.703125" height="4.45312" transform="matrix(0.173648 0.984808 0.984808 -0.173648 5.93433 33.8865)" fill="white"/>
<rect width="0.703125" height="4.45312" transform="matrix(0.173648 0.984808 0.984808 -0.173648 49.5579 26.1943)" fill="white"/>
<rect x="5.62524" y="30.3516" width="0.703125" height="4.45312" transform="rotate(-90 5.62524 30.3516)" fill="white"/>
<rect x="49.9221" y="30.3516" width="0.703125" height="4.45312" transform="rotate(-90 49.9221 30.3516)" fill="white"/>
<rect x="27.5256" y="5.74829" width="0.703125" height="2.8125" transform="rotate(-5 27.5256 5.74829)" fill="white"/>
<rect x="31.5295" y="51.511" width="0.703125" height="2.8125" transform="rotate(-5 31.5295 51.511)" fill="white"/>
<rect x="31.7744" y="5.68701" width="0.703125" height="2.8125" transform="rotate(5 31.7744 5.68701)" fill="white"/>
<rect x="27.7708" y="51.4497" width="0.703125" height="2.8125" transform="rotate(5 27.7708 51.4497)" fill="white"/>
<rect x="23.3516" y="6.54663" width="0.703125" height="2.8125" transform="rotate(-15 23.3516 6.54663)" fill="white"/>
<rect x="35.2407" y="50.9189" width="0.703125" height="2.8125" transform="rotate(-15 35.2407 50.9189)" fill="white"/>
<rect width="0.703125" height="2.8125" transform="matrix(0.965926 0.258819 0.258819 -0.965926 23.3516 53.4534)" fill="white"/>
<rect width="0.703125" height="2.8125" transform="matrix(0.965926 0.258819 0.258819 -0.965926 35.2407 9.08105)" fill="white"/>
<rect x="19.3806" y="8.05737" width="0.703125" height="2.8125" transform="rotate(-25 19.3806 8.05737)" fill="white"/>
<rect x="38.7947" y="49.6909" width="0.703125" height="2.8125" transform="rotate(-25 38.7947 49.6909)" fill="white"/>
<rect width="0.703125" height="2.8125" transform="matrix(0.906308 0.422618 0.422618 -0.906308 19.3806 51.9426)" fill="white"/>
<rect width="0.703125" height="2.8125" transform="matrix(0.906308 0.422618 0.422618 -0.906308 38.7947 10.3091)" fill="white"/>
<rect x="15.7305" y="10.2349" width="0.703125" height="2.8125" transform="rotate(-35 15.7305 10.2349)" fill="white"/>
<rect x="42.0791" y="47.8647" width="0.703125" height="2.8125" transform="rotate(-35 42.0791 47.8647)" fill="white"/>
<rect width="0.703125" height="2.8125" transform="matrix(0.819152 0.573576 0.573576 -0.819152 15.7305 49.7651)" fill="white"/>
<rect width="0.703125" height="2.8125" transform="matrix(0.819152 0.573576 0.573576 -0.819152 42.0791 12.1353)" fill="white"/>
<rect x="12.5154" y="13.0129" width="0.703125" height="2.8125" transform="rotate(-45 12.5154 13.0129)" fill="white"/>
<rect x="44.9978" y="45.4958" width="0.703125" height="2.8125" transform="rotate(-45 44.9978 45.4958)" fill="white"/>
<rect x="9.83179" y="16.3071" width="0.703125" height="2.8125" transform="rotate(-55 9.83179 16.3071)" fill="white"/>
<rect x="47.4619" y="42.6558" width="0.703125" height="2.8125" transform="rotate(-55 47.4619 42.6558)" fill="white"/>
<rect width="0.703125" height="2.8125" transform="matrix(0.573576 0.819152 0.819152 -0.573576 9.83179 43.6929)" fill="white"/>
<rect width="0.703125" height="2.8125" transform="matrix(0.573576 0.819152 0.819152 -0.573576 47.4619 17.3442)" fill="white"/>
<rect x="7.76001" y="20.0173" width="0.703125" height="2.8125" transform="rotate(-65 7.76001 20.0173)" fill="white"/>
<rect x="49.3938" y="39.4314" width="0.703125" height="2.8125" transform="rotate(-65 49.3938 39.4314)" fill="white"/>
<rect width="0.703125" height="2.8125" transform="matrix(0.422618 0.906308 0.906308 -0.422618 7.76001 39.9827)" fill="white"/>
<rect width="0.703125" height="2.8125" transform="matrix(0.422618 0.906308 0.906308 -0.422618 49.3938 20.5686)" fill="white"/>
<rect x="6.3645" y="24.0308" width="0.703125" height="2.8125" transform="rotate(-75 6.3645 24.0308)" fill="white"/>
<rect x="50.7371" y="35.9202" width="0.703125" height="2.8125" transform="rotate(-75 50.7371 35.9202)" fill="white"/>
<rect width="0.703125" height="2.8125" transform="matrix(0.258819 0.965926 0.965926 -0.258819 6.3645 35.9692)" fill="white"/>
<rect width="0.703125" height="2.8125" transform="matrix(0.258819 0.965926 0.965926 -0.258819 50.7371 24.0798)" fill="white"/>
<rect x="5.6875" y="28.2258" width="0.703125" height="2.8125" transform="rotate(-85 5.6875 28.2258)" fill="white"/>
<rect x="51.45" y="32.2295" width="0.703125" height="2.8125" transform="rotate(-85 51.45 32.2295)" fill="white"/>
<rect width="0.703125" height="2.8125" transform="matrix(0.0871557 0.996195 0.996195 -0.0871557 5.6875 31.7742)" fill="white"/>
<rect width="0.703125" height="2.8125" transform="matrix(0.0871557 0.996195 0.996195 -0.0871557 51.45 27.7705)" fill="white"/>
<rect x="5.74878" y="32.4746" width="0.703125" height="2.8125" transform="rotate(-95 5.74878 32.4746)" fill="white"/>
<rect x="51.5115" y="28.4709" width="0.703125" height="2.8125" transform="rotate(-95 51.5115 28.4709)" fill="white"/>
<rect width="0.703125" height="2.8125" transform="matrix(-0.0871557 0.996195 0.996195 0.0871557 5.74878 27.5254)" fill="white"/>
<rect width="0.703125" height="2.8125" transform="matrix(-0.0871557 0.996195 0.996195 0.0871557 51.5115 31.5291)" fill="white"/>
<g filter="url(#filter0_d_2269_1871)">
<path d="M47.2359 12.7642L31.6574 31.6572L28.3429 28.3427L47.2359 12.7642Z" fill="#FE3C30"/>
<path d="M12.7642 47.2357L31.6572 31.6572L28.3427 28.3426L12.7642 47.2357Z" fill="white"/>
</g>
</g>
<path d="M17.0918 77.2051C15.1816 77.2051 13.957 76.2383 13.8398 74.8145L13.834 74.7383H15.123L15.1289 74.8027C15.1992 75.5703 16.0137 76.0625 17.1445 76.0625C18.2227 76.0625 18.9902 75.5234 18.9902 74.7383V74.7324C18.9902 74.082 18.5332 73.6602 17.4141 73.4199L16.4883 73.2207C14.7715 72.8574 14.0332 72.0605 14.0332 70.8125V70.8066C14.0391 69.3477 15.3047 68.3398 17.0977 68.3398C18.8906 68.3398 20.0625 69.3535 20.1562 70.666L20.1621 70.748H18.8906L18.8789 70.6719C18.7676 69.9805 18.1055 69.4766 17.0801 69.4824C16.0898 69.4824 15.3574 69.9453 15.3574 70.7422V70.748C15.3574 71.375 15.8027 71.7852 16.8984 72.0195L17.8184 72.2246C19.5938 72.6055 20.3203 73.3203 20.3203 74.5742V74.5801C20.3203 76.1973 19.0605 77.2051 17.0918 77.2051ZM23.6133 77.1055C22.4004 77.1055 21.5039 76.3672 21.5039 75.2129V75.2012C21.5039 74.0645 22.3594 73.4023 23.877 73.3086L25.5996 73.209V72.6465C25.5996 71.9492 25.1602 71.5625 24.2988 71.5625C23.5957 71.5625 23.1328 71.8203 22.9805 72.2715L22.9746 72.2949H21.75L21.7559 72.2539C21.9082 71.2109 22.9102 70.5137 24.3574 70.5137C25.957 70.5137 26.8594 71.3105 26.8594 72.6465V77H25.5996V76.0977H25.5C25.125 76.7422 24.457 77.1055 23.6133 77.1055ZM22.7695 75.1602C22.7695 75.7461 23.2676 76.0918 23.9531 76.0918C24.9023 76.0918 25.5996 75.4707 25.5996 74.6504V74.1055L24.0469 74.2051C23.168 74.2578 22.7695 74.5742 22.7695 75.1484V75.1602ZM29.1035 77V71.6387H28.0547V70.6367H29.1035V69.9688C29.1035 68.7031 29.7422 68.082 31.0723 68.082C31.3535 68.082 31.5996 68.0996 31.8223 68.1406V69.0723C31.7051 69.0547 31.5352 69.043 31.3359 69.043C30.6328 69.043 30.3574 69.3828 30.3574 70.0273V70.6367H31.7695V71.6387H30.3691V77H29.1035ZM34.7578 77.1055C33.5449 77.1055 32.6484 76.3672 32.6484 75.2129V75.2012C32.6484 74.0645 33.5039 73.4023 35.0215 73.3086L36.7441 73.209V72.6465C36.7441 71.9492 36.3047 71.5625 35.4434 71.5625C34.7402 71.5625 34.2773 71.8203 34.125 72.2715L34.1191 72.2949H32.8945L32.9004 72.2539C33.0527 71.2109 34.0547 70.5137 35.502 70.5137C37.1016 70.5137 38.0039 71.3105 38.0039 72.6465V77H36.7441V76.0977H36.6445C36.2695 76.7422 35.6016 77.1055 34.7578 77.1055ZM33.9141 75.1602C33.9141 75.7461 34.4121 76.0918 35.0977 76.0918C36.0469 76.0918 36.7441 75.4707 36.7441 74.6504V74.1055L35.1914 74.2051C34.3125 74.2578 33.9141 74.5742 33.9141 75.1484V75.1602ZM39.7969 77V70.6367H41.0684V71.5977H41.1621C41.3906 70.9238 41.9824 70.5254 42.832 70.5254C43.0371 70.5254 43.2598 70.5547 43.3887 70.584V71.7559C43.1602 71.709 42.9434 71.6797 42.7031 71.6797C41.7305 71.6797 41.0684 72.2773 41.0684 73.1973V77H39.7969ZM45.2637 69.5C44.8242 69.5 44.4668 69.1426 44.4668 68.709C44.4668 68.2695 44.8242 67.9121 45.2637 67.9121C45.6973 67.9121 46.0605 68.2695 46.0605 68.709C46.0605 69.1426 45.6973 69.5 45.2637 69.5ZM44.625 77V70.6367H45.8906V77H44.625Z" fill="black"/>
<defs>
<filter id="filter0_d_2269_1871" x="11.8267" y="12.7642" width="36.3467" height="36.3464" filterUnits="userSpaceOnUse" color-interpolation-filters="sRGB">
<feFlood flood-opacity="0" result="BackgroundImageFix"/>
<feColorMatrix in="SourceAlpha" type="matrix" values="0 0 0 0 0 0 0 0 0 0 0 0 0 0 0 0 0 0 127 0" result="hardAlpha"/>
<feOffset dy="0.9375"/>
<feGaussianBlur stdDeviation="0.46875"/>
<feColorMatrix type="matrix" values="0 0 0 0 0 0 0 0 0 0 0 0 0 0 0 0 0 0 0.25 0"/>
<feBlend mode="normal" in2="BackgroundImageFix" result="effect1_dropShadow_2269_1871"/>
<feBlend mode="normal" in="SourceGraphic" in2="effect1_dropShadow_2269_1871" result="shape"/>
</filter>
<linearGradient id="paint0_linear_2269_1871" x1="30" y1="0" x2="30" y2="60" gradientUnits="userSpaceOnUse">
<stop stop-color="#313131"/>
<stop offset="1" stop-color="#141514"/>
</linearGradient>
<linearGradient id="paint1_linear_2269_1871" x1="30.0003" y1="3.83077" x2="30.0002" y2="56.1692" gradientUnits="userSpaceOnUse">
<stop stop-color="#1BC9FA"/>
<stop offset="0.760051" stop-color="#1F70F0"/>
</linearGradient>
<clipPath id="clip0_2269_1871">
<rect width="60" height="60" rx="13.28" fill="white"/>
</clipPath>
</defs>
</svg>
