<svg width="60" height="80" viewBox="0 0 60 80" fill="none" xmlns="http://www.w3.org/2000/svg">
<rect width="60" height="60" rx="13.28" fill="url(#paint0_linear_2269_1855)"/>
<rect x="12" y="12" width="28" height="28" rx="14" fill="#111111"/>
<path d="M11.1719 26.0703C11.1719 17.7109 17.9688 10.9141 26.3281 10.9141C34.6875 10.9141 41.4844 17.7109 41.4844 26.0703C41.4844 29.6445 40.2344 32.9258 38.1445 35.5234L48.2812 45.6797C48.6133 46.0312 48.8086 46.5 48.8086 47.0078C48.8086 48.043 48.0664 48.9023 46.9336 48.9023C46.4453 48.9023 45.957 48.707 45.6055 48.3555L35.4297 38.1602C32.8906 40.0742 29.7656 41.2266 26.3281 41.2266C17.9688 41.2266 11.1719 34.4297 11.1719 26.0703ZM13.7109 26.0703C13.7109 33.0234 19.375 38.6875 26.3281 38.6875C33.2812 38.6875 38.9453 33.0234 38.9453 26.0703C38.9453 19.1172 33.2812 13.4531 26.3281 13.4531C19.375 13.4531 13.7109 19.1172 13.7109 26.0703ZM20.0977 26.0703C20.0977 25.4453 20.5859 24.957 21.2109 24.957H25.2148V20.9531C25.2148 20.3281 25.7031 19.8398 26.3281 19.8398C26.9531 19.8398 27.4414 20.3281 27.4414 20.9531V24.957H31.4453C32.0703 24.957 32.5586 25.4453 32.5586 26.0703C32.5586 26.6953 32.0703 27.1836 31.4453 27.1836H27.4414V31.168C27.4414 31.793 26.9531 32.3008 26.3281 32.2812C25.7031 32.3008 25.2148 31.8125 25.2148 31.168V27.1836H21.2109C20.5859 27.1836 20.0977 26.6953 20.0977 26.0703Z" fill="#FFCC00"/>
<path fill-rule="evenodd" clip-rule="evenodd" d="M26.3281 10.9141C17.9688 10.9141 11.1719 17.7109 11.1719 26.0703C11.1719 34.4297 17.9688 41.2266 26.3281 41.2266C29.7656 41.2266 32.8906 40.0742 35.4297 38.1602L45.6055 48.3555C45.957 48.707 46.4453 48.9023 46.9336 48.9023C48.0664 48.9023 48.8086 48.043 48.8086 47.0078C48.8086 46.5 48.6133 46.0312 48.2812 45.6797L38.1445 35.5234C40.2344 32.9258 41.4844 29.6445 41.4844 26.0703C41.4844 17.7109 34.6875 10.9141 26.3281 10.9141ZM26.3281 38.6875C19.375 38.6875 13.7109 33.0234 13.7109 26.0703C13.7109 19.1172 19.375 13.4531 26.3281 13.4531C33.2812 13.4531 38.9453 19.1172 38.9453 26.0703C38.9453 33.0234 33.2812 38.6875 26.3281 38.6875Z" fill="white"/>
<path d="M3.71484 77V68.5449H5.22656L7.92188 75.2891H8.01562L10.7109 68.5449H12.2227V77H11.0273V70.7949H10.9395L8.45508 77H7.48242L5.00391 70.7949H4.91016V77H3.71484ZM15.9434 77.1055C14.7305 77.1055 13.834 76.3672 13.834 75.2129V75.2012C13.834 74.0645 14.6895 73.4023 16.207 73.3086L17.9297 73.209V72.6465C17.9297 71.9492 17.4902 71.5625 16.6289 71.5625C15.9258 71.5625 15.4629 71.8203 15.3105 72.2715L15.3047 72.2949H14.0801L14.0859 72.2539C14.2383 71.2109 15.2402 70.5137 16.6875 70.5137C18.2871 70.5137 19.1895 71.3105 19.1895 72.6465V77H17.9297V76.0977H17.8301C17.4551 76.7422 16.7871 77.1055 15.9434 77.1055ZM15.0996 75.1602C15.0996 75.7461 15.5977 76.0918 16.2832 76.0918C17.2324 76.0918 17.9297 75.4707 17.9297 74.6504V74.1055L16.377 74.2051C15.498 74.2578 15.0996 74.5742 15.0996 75.1484V75.1602ZM23.6719 79.2441C22.0547 79.2441 21.0586 78.5352 20.9062 77.4746L20.918 77.4629H22.2012L22.207 77.4746C22.3125 77.9141 22.8281 78.2246 23.6895 78.2246C24.7383 78.2246 25.3594 77.7324 25.3594 76.8652V75.6113H25.2656C24.8789 76.3027 24.1758 76.6895 23.3027 76.6895C21.668 76.6895 20.6602 75.4297 20.6602 73.6367V73.625C20.6602 71.8086 21.6738 70.5254 23.3262 70.5254C24.2168 70.5254 24.9082 70.9648 25.2773 71.6797H25.3535V70.6367H26.6191V76.8711C26.6191 78.3184 25.4766 79.2441 23.6719 79.2441ZM23.6543 75.6406C24.7324 75.6406 25.3828 74.8203 25.3828 73.6309V73.6191C25.3828 72.4355 24.7266 71.6035 23.6543 71.6035C22.5703 71.6035 21.9609 72.4355 21.9609 73.6191V73.6309C21.9609 74.8145 22.5703 75.6406 23.6543 75.6406ZM28.4473 77V70.6367H29.7188V71.6035H29.8125C30.123 70.9238 30.7324 70.5137 31.6582 70.5137C33.082 70.5137 33.8672 71.3633 33.8672 72.8809V77H32.6016V73.1797C32.6016 72.125 32.1621 71.6035 31.2305 71.6035C30.2988 71.6035 29.7188 72.2422 29.7188 73.2676V77H28.4473ZM36.3047 69.5C35.8652 69.5 35.5078 69.1426 35.5078 68.709C35.5078 68.2695 35.8652 67.9121 36.3047 67.9121C36.7383 67.9121 37.1016 68.2695 37.1016 68.709C37.1016 69.1426 36.7383 69.5 36.3047 69.5ZM35.666 77V70.6367H36.9316V77H35.666ZM39.2344 77V71.6387H38.1855V70.6367H39.2344V69.9688C39.2344 68.7031 39.873 68.082 41.2031 68.082C41.4844 68.082 41.7305 68.0996 41.9531 68.1406V69.0723C41.8359 69.0547 41.666 69.043 41.4668 69.043C40.7637 69.043 40.4883 69.3828 40.4883 70.0273V70.6367H41.9004V71.6387H40.5V77H39.2344ZM43.9922 69.5C43.5527 69.5 43.1953 69.1426 43.1953 68.709C43.1953 68.2695 43.5527 67.9121 43.9922 67.9121C44.4258 67.9121 44.7891 68.2695 44.7891 68.709C44.7891 69.1426 44.4258 69.5 43.9922 69.5ZM43.3535 77V70.6367H44.6191V77H43.3535ZM49.1426 77.123C47.2793 77.123 46.1543 75.8516 46.1543 73.8359V73.8301C46.1543 71.8438 47.3027 70.5137 49.0781 70.5137C50.8535 70.5137 51.9434 71.7969 51.9434 73.707V74.1523H47.4316C47.4551 75.3711 48.123 76.0801 49.1719 76.0801C49.9863 76.0801 50.4727 75.6758 50.625 75.3477L50.6484 75.3008L51.873 75.2949L51.8613 75.3477C51.6504 76.1855 50.7715 77.123 49.1426 77.123ZM49.084 71.5566C48.2168 71.5566 47.5605 72.1484 47.4492 73.2441H50.6836C50.584 72.1074 49.9453 71.5566 49.084 71.5566ZM53.4551 77V70.6367H54.7266V71.5977H54.8203C55.0488 70.9238 55.6406 70.5254 56.4902 70.5254C56.6953 70.5254 56.918 70.5547 57.0469 70.584V71.7559C56.8184 71.709 56.6016 71.6797 56.3613 71.6797C55.3887 71.6797 54.7266 72.2773 54.7266 73.1973V77H53.4551Z" fill="black"/>
<defs>
<linearGradient id="paint0_linear_2269_1855" x1="30" y1="0" x2="30" y2="60" gradientUnits="userSpaceOnUse">
<stop stop-color="#313131"/>
<stop offset="1" stop-color="#141514"/>
</linearGradient>
</defs>
</svg>
