<svg width="60" height="80" viewBox="0 0 60 80" fill="none" xmlns="http://www.w3.org/2000/svg">
<path d="M0 21.375C0 13.893 0 10.1521 1.45608 7.29435C2.73689 4.78062 4.78062 2.73689 7.29435 1.45608C10.1521 0 13.893 0 21.375 0H38.625C46.107 0 49.8479 0 52.7057 1.45608C55.2194 2.73689 57.2631 4.78062 58.5439 7.29435C60 10.1521 60 13.893 60 21.375V38.625C60 46.107 60 49.8479 58.5439 52.7057C57.2631 55.2194 55.2194 57.2631 52.7057 58.5439C49.8479 60 46.107 60 38.625 60H21.375C13.893 60 10.1521 60 7.29435 58.5439C4.78062 57.2631 2.73689 55.2194 1.45608 52.7057C0 49.8479 0 46.107 0 38.625V21.375Z" fill="url(#paint0_linear_2269_1858)"/>
<rect x="3.63281" y="12.6562" width="0.703125" height="10.0781" fill="white"/>
<rect x="7.96875" y="12.6562" width="0.703125" height="3.51563" fill="white"/>
<rect x="12.3047" y="12.6562" width="0.703125" height="5.39062" fill="white"/>
<rect x="16.6406" y="12.6562" width="0.703125" height="3.51563" fill="white"/>
<rect x="20.9766" y="12.6562" width="0.703125" height="5.39062" fill="white"/>
<rect x="25.3125" y="12.6562" width="0.703125" height="3.51563" fill="white"/>
<rect x="29.6484" y="12.6562" width="0.703125" height="5.39062" fill="white"/>
<rect x="33.9844" y="12.6562" width="0.703125" height="3.51563" fill="white"/>
<rect x="38.3203" y="12.6562" width="0.703125" height="8.4375" fill="white"/>
<rect x="42.6562" y="12.6562" width="0.703125" height="3.51563" fill="white"/>
<rect x="46.9922" y="12.6562" width="0.703125" height="5.39062" fill="white"/>
<rect x="51.3281" y="12.6562" width="0.703125" height="3.51563" fill="white"/>
<rect x="55.6641" y="12.6562" width="0.703125" height="5.39062" fill="white"/>
<rect x="1.875" y="40.7812" width="0.703125" height="6.5625" fill="white"/>
<rect x="4.6875" y="43.9453" width="0.703125" height="3.39844" fill="white"/>
<rect x="7.5" y="43.9453" width="0.703125" height="3.39844" fill="white"/>
<rect x="10.1953" y="43.9453" width="0.703125" height="3.39844" fill="white"/>
<rect x="13.0078" y="43.9453" width="0.703125" height="3.39844" fill="white"/>
<rect x="15.8203" y="37.2656" width="0.703125" height="10.0781" fill="white"/>
<rect x="18.6328" y="43.9453" width="0.703125" height="3.39844" fill="white"/>
<rect x="21.4453" y="43.9453" width="0.703125" height="3.39844" fill="white"/>
<rect x="24.2578" y="43.9453" width="0.703125" height="3.39844" fill="white"/>
<rect x="27.0703" y="43.9453" width="0.703125" height="3.39844" fill="white"/>
<rect x="29.8828" y="40.7812" width="0.703125" height="6.5625" fill="white"/>
<rect x="32.6953" y="43.9453" width="0.703125" height="3.39844" fill="white"/>
<rect x="35.5078" y="43.9453" width="0.703125" height="3.39844" fill="white"/>
<rect x="38.3203" y="43.9453" width="0.703125" height="3.39844" fill="white"/>
<rect x="41.0156" y="43.9453" width="0.703125" height="3.39844" fill="white"/>
<rect x="43.8281" y="37.2656" width="0.703125" height="10.0781" fill="white"/>
<rect x="46.7578" y="43.9453" width="0.703125" height="3.39844" fill="white"/>
<rect x="49.5703" y="43.9453" width="0.703125" height="3.39844" fill="white"/>
<rect x="52.2656" y="43.9453" width="0.703125" height="3.39844" fill="white"/>
<rect x="54.8438" y="43.9453" width="0.703125" height="3.39844" fill="white"/>
<rect x="57.4219" y="40.7812" width="0.703125" height="6.5625" fill="white"/>
<circle cx="3.75" cy="30" r="1.875" fill="#FFCC00"/>
<circle cx="56.25" cy="30" r="1.875" fill="#FFCC00"/>
<rect x="6.79688" y="29.4141" width="1.17188" height="1.17188" fill="#FFCC00"/>
<rect x="9.375" y="29.4141" width="1.17188" height="1.17188" fill="#FFCC00"/>
<rect x="12.0703" y="29.4141" width="1.17188" height="1.17188" fill="#FFCC00"/>
<rect x="14.7656" y="29.4141" width="1.17188" height="1.17188" fill="#FFCC00"/>
<rect x="17.4609" y="29.4141" width="1.17188" height="1.17188" fill="#FFCC00"/>
<rect x="20.1562" y="29.4141" width="1.17188" height="1.17188" fill="#FFCC00"/>
<rect x="22.8516" y="29.4141" width="1.17188" height="1.17188" fill="#FFCC00"/>
<rect x="25.5469" y="29.4141" width="1.17188" height="1.17188" fill="#FFCC00"/>
<rect x="28.2422" y="29.4141" width="1.17188" height="1.17188" fill="#FFCC00"/>
<rect x="30.9375" y="29.4141" width="1.17188" height="1.17188" fill="#FFCC00"/>
<rect x="33.6328" y="29.4141" width="1.17188" height="1.17188" fill="#FFCC00"/>
<rect x="36.3281" y="29.4141" width="1.17188" height="1.17188" fill="#FFCC00"/>
<rect x="38.9062" y="29.4141" width="1.17188" height="1.17188" fill="#FFCC00"/>
<rect x="41.6016" y="29.4141" width="1.17188" height="1.17188" fill="#FFCC00"/>
<rect x="44.1797" y="29.4141" width="1.17188" height="1.17188" fill="#FFCC00"/>
<rect x="46.7578" y="29.4141" width="1.17188" height="1.17188" fill="#FFCC00"/>
<rect x="49.3359" y="29.4141" width="1.17188" height="1.17188" fill="#FFCC00"/>
<rect x="51.9141" y="29.4141" width="1.17188" height="1.17188" fill="#FFCC00"/>
<path d="M6.2168 77V68.5449H7.72852L10.4238 75.2891H10.5176L13.2129 68.5449H14.7246V77H13.5293V70.7949H13.4414L10.957 77H9.98438L7.50586 70.7949H7.41211V77H6.2168ZM19.3711 77.123C17.5078 77.123 16.3828 75.8516 16.3828 73.8359V73.8301C16.3828 71.8438 17.5312 70.5137 19.3066 70.5137C21.082 70.5137 22.1719 71.7969 22.1719 73.707V74.1523H17.6602C17.6836 75.3711 18.3516 76.0801 19.4004 76.0801C20.2148 76.0801 20.7012 75.6758 20.8535 75.3477L20.877 75.3008L22.1016 75.2949L22.0898 75.3477C21.8789 76.1855 21 77.123 19.3711 77.123ZM19.3125 71.5566C18.4453 71.5566 17.7891 72.1484 17.6777 73.2441H20.9121C20.8125 72.1074 20.1738 71.5566 19.3125 71.5566ZM25.4297 77.1055C24.2168 77.1055 23.3203 76.3672 23.3203 75.2129V75.2012C23.3203 74.0645 24.1758 73.4023 25.6934 73.3086L27.416 73.209V72.6465C27.416 71.9492 26.9766 71.5625 26.1152 71.5625C25.4121 71.5625 24.9492 71.8203 24.7969 72.2715L24.791 72.2949H23.5664L23.5723 72.2539C23.7246 71.2109 24.7266 70.5137 26.1738 70.5137C27.7734 70.5137 28.6758 71.3105 28.6758 72.6465V77H27.416V76.0977H27.3164C26.9414 76.7422 26.2734 77.1055 25.4297 77.1055ZM24.5859 75.1602C24.5859 75.7461 25.084 76.0918 25.7695 76.0918C26.7188 76.0918 27.416 75.4707 27.416 74.6504V74.1055L25.8633 74.2051C24.9844 74.2578 24.5859 74.5742 24.5859 75.1484V75.1602ZM32.7832 77.123C31.248 77.123 30.2754 76.4023 30.1523 75.3359V75.3301H31.4238L31.4297 75.3359C31.5879 75.8164 32.0508 76.1387 32.8066 76.1387C33.5918 76.1387 34.1367 75.7812 34.1367 75.2598V75.248C34.1367 74.8496 33.8379 74.5801 33.0996 74.4102L32.0859 74.1758C30.8848 73.9004 30.3281 73.3555 30.3281 72.4238V72.418C30.3281 71.3105 31.3594 70.5137 32.8008 70.5137C34.2539 70.5137 35.1855 71.2402 35.2969 72.2773V72.2832H34.084V72.2715C33.9609 71.8262 33.5098 71.4922 32.7949 71.4922C32.0977 71.4922 31.5938 71.8379 31.5938 72.3477V72.3594C31.5938 72.7578 31.8867 73.0039 32.6016 73.1738L33.6094 73.4023C34.834 73.6895 35.4199 74.2109 35.4199 75.1309V75.1426C35.4199 76.3203 34.2949 77.123 32.7832 77.123ZM39.0586 77.123C37.623 77.123 36.8789 76.2617 36.8789 74.7559V70.6367H38.1504V74.457C38.1504 75.5117 38.5371 76.0332 39.4688 76.0332C40.4883 76.0332 41.0332 75.3945 41.0332 74.3691V70.6367H42.2988V77H41.0332V76.0391H40.9336C40.6289 76.7246 39.9844 77.123 39.0586 77.123ZM44.1328 77V70.6367H45.4043V71.5977H45.498C45.7266 70.9238 46.3184 70.5254 47.168 70.5254C47.373 70.5254 47.5957 70.5547 47.7246 70.584V71.7559C47.4961 71.709 47.2793 71.6797 47.0391 71.6797C46.0664 71.6797 45.4043 72.2773 45.4043 73.1973V77H44.1328ZM51.4453 77.123C49.582 77.123 48.457 75.8516 48.457 73.8359V73.8301C48.457 71.8438 49.6055 70.5137 51.3809 70.5137C53.1562 70.5137 54.2461 71.7969 54.2461 73.707V74.1523H49.7344C49.7578 75.3711 50.4258 76.0801 51.4746 76.0801C52.2891 76.0801 52.7754 75.6758 52.9277 75.3477L52.9512 75.3008L54.1758 75.2949L54.1641 75.3477C53.9531 76.1855 53.0742 77.123 51.4453 77.123ZM51.3867 71.5566C50.5195 71.5566 49.8633 72.1484 49.752 73.2441H52.9863C52.8867 72.1074 52.248 71.5566 51.3867 71.5566Z" fill="black"/>
<defs>
<linearGradient id="paint0_linear_2269_1858" x1="30" y1="0" x2="30" y2="60" gradientUnits="userSpaceOnUse">
<stop stop-color="#313131"/>
<stop offset="1" stop-color="#141514"/>
</linearGradient>
</defs>
</svg>
