<svg width="60" height="80" viewBox="0 0 60 80" fill="none" xmlns="http://www.w3.org/2000/svg">
<g clip-path="url(#clip0_2618_9006)">
<rect width="60" height="60" rx="13.28" fill="url(#paint0_linear_2618_9006)"/>
<mask id="mask0_2618_9006" style="mask-type:alpha" maskUnits="userSpaceOnUse" x="3" y="3" width="54" height="54">
<path fill-rule="evenodd" clip-rule="evenodd" d="M4.32972 9.66132C3 12.271 3 15.6874 3 22.52V37.48C3 44.3126 3 47.729 4.32972 50.3387C5.49938 52.6343 7.36574 54.5006 9.66132 55.6703C12.271 57 15.6874 57 22.52 57H37.48C44.3126 57 47.729 57 50.3387 55.6703C52.6343 54.5006 54.5006 52.6343 55.6703 50.3387C57 47.729 57 44.3126 57 37.48V22.52C57 15.6874 57 12.271 55.6703 9.66132C54.5006 7.36574 52.6343 5.49938 50.3387 4.32972C47.729 3 44.3126 3 37.48 3H22.52C15.6874 3 12.271 3 9.66132 4.32972C7.36574 5.49938 5.49938 7.36574 4.32972 9.66132Z" fill="#D9D9D9"/>
</mask>
<g mask="url(#mask0_2618_9006)">
<path fill-rule="evenodd" clip-rule="evenodd" d="M-21.2654 35.3034L35.3032 -21.2651L35.8335 -20.7348L-20.7351 35.8337L-21.2654 35.3034ZM-20.2654 36.3034L36.3032 -20.2651L36.8335 -19.7348L-19.7351 36.8337L-20.2654 36.3034ZM37.3032 -19.2651L-19.2654 37.3034L-18.7351 37.8337L37.8335 -18.7348L37.3032 -19.2651ZM-18.2654 38.3034L38.3032 -18.2651L38.8335 -17.7348L-17.7351 38.8337L-18.2654 38.3034ZM39.3032 -17.2651L-17.2654 39.3034L-16.7351 39.8337L39.8335 -16.7348L39.3032 -17.2651ZM-16.2654 40.3034L40.3032 -16.2651L40.8335 -15.7348L-15.7351 40.8337L-16.2654 40.3034ZM41.3032 -15.2651L-15.2654 41.3034L-14.7351 41.8337L41.8335 -14.7348L41.3032 -15.2651ZM-14.2654 42.3034L42.3032 -14.2651L42.8335 -13.7348L-13.7351 42.8337L-14.2654 42.3034ZM43.3032 -13.2651L-13.2654 43.3034L-12.735 43.8337L43.8335 -12.7348L43.3032 -13.2651ZM-12.2654 44.3034L44.3032 -12.2651L44.8335 -11.7348L-11.735 44.8337L-12.2654 44.3034ZM45.3032 -11.2651L-11.2654 45.3034L-10.735 45.8337L45.8335 -10.7348L45.3032 -11.2651ZM-10.2654 46.3034L46.3032 -10.2651L46.8335 -9.73481L-9.73505 46.8337L-10.2654 46.3034ZM47.3032 -9.26514L-9.26538 47.3034L-8.73505 47.8337L47.8335 -8.73481L47.3032 -9.26514ZM-8.26538 48.3034L48.3032 -8.26514L48.8335 -7.73481L-7.73505 48.8337L-8.26538 48.3034ZM49.3032 -7.26514L-7.26538 49.3034L-6.73505 49.8337L49.8335 -6.73481L49.3032 -7.26514ZM-6.26538 50.3034L50.3032 -6.26514L50.8335 -5.73481L-5.73505 50.8337L-6.26538 50.3034ZM51.3032 -5.26514L-5.26538 51.3034L-4.73505 51.8337L51.8335 -4.73481L51.3032 -5.26514ZM-4.26538 52.3034L52.3032 -4.26514L52.8335 -3.73481L-3.73505 52.8337L-4.26538 52.3034ZM53.3032 -3.26514L-3.26538 53.3034L-2.73505 53.8337L53.8335 -2.73481L53.3032 -3.26514ZM-2.26538 54.3034L54.3032 -2.26514L54.8335 -1.73481L-1.73505 54.8337L-2.26538 54.3034ZM55.3032 -1.26514L-1.26538 55.3034L-0.735048 55.8337L55.8335 -0.734806L55.3032 -1.26514ZM-0.265377 56.3034L56.3032 -0.265137L56.8335 0.265194L0.264952 56.8337L-0.265377 56.3034ZM57.3032 0.734863L0.734623 57.3034L1.26495 57.8337L57.8335 1.26519L57.3032 0.734863ZM1.73462 58.3034L58.3032 1.73486L58.8335 2.26519L2.26495 58.8337L1.73462 58.3034ZM59.3032 2.73486L2.73462 59.3034L3.26495 59.8337L59.8335 3.26519L59.3032 2.73486ZM3.73462 60.3034L60.3032 3.73486L60.8335 4.26519L4.26495 60.8337L3.73462 60.3034ZM61.3032 4.73486L4.73462 61.3034L5.26495 61.8337L61.8335 5.26519L61.3032 4.73486ZM5.73462 62.3034L62.3032 5.73486L62.8335 6.26519L6.26495 62.8337L5.73462 62.3034ZM63.3032 6.73486L6.73462 63.3034L7.26495 63.8337L63.8335 7.26519L63.3032 6.73486ZM7.73462 64.3034L64.3032 7.73486L64.8335 8.26519L8.26495 64.8337L7.73462 64.3034ZM65.3032 8.73486L8.73462 65.3034L9.26495 65.8337L65.8335 9.26519L65.3032 8.73486ZM9.73462 66.3034L66.3032 9.73486L66.8335 10.2652L10.265 66.8337L9.73462 66.3034ZM67.3032 10.7349L10.7346 67.3034L11.265 67.8337L67.8335 11.2652L67.3032 10.7349ZM11.7346 68.3034L68.3032 11.7349L68.8335 12.2652L12.265 68.8337L11.7346 68.3034ZM69.3032 12.7349L12.7346 69.3034L13.265 69.8337L69.8335 13.2652L69.3032 12.7349ZM13.7346 70.3034L70.3032 13.7349L70.8335 14.2652L14.265 70.8337L13.7346 70.3034ZM71.3032 14.7349L14.7346 71.3034L15.265 71.8337L71.8335 15.2652L71.3032 14.7349ZM15.7346 72.3034L72.3032 15.7349L72.8335 16.2652L16.265 72.8337L15.7346 72.3034ZM73.3032 16.7349L16.7346 73.3034L17.265 73.8337L73.8335 17.2652L73.3032 16.7349ZM17.7346 74.3034L74.3032 17.7349L74.8335 18.2652L18.265 74.8337L17.7346 74.3034ZM75.3032 18.7349L18.7346 75.3034L19.265 75.8337L75.8335 19.2652L75.3032 18.7349ZM19.7346 76.3034L76.3032 19.7349L76.8335 20.2652L20.265 76.8337L19.7346 76.3034ZM77.3032 20.7349L20.7346 77.3034L21.265 77.8337L77.8335 21.2652L77.3032 20.7349ZM21.7346 78.3034L78.3032 21.7349L78.8335 22.2652L22.265 78.8337L21.7346 78.3034ZM79.3032 22.7349L22.7346 79.3034L23.265 79.8337L79.8335 23.2652L79.3032 22.7349ZM23.7346 80.3034L80.3032 23.7349L80.8335 24.2652L24.265 80.8337L23.7346 80.3034ZM81.3032 24.7349L24.7346 81.3034L25.265 81.8337L81.8335 25.2652L81.3032 24.7349Z" fill="url(#paint1_linear_2618_9006)"/>
</g>
<mask id="mask1_2618_9006" style="mask-type:alpha" maskUnits="userSpaceOnUse" x="3" y="3" width="54" height="54">
<path fill-rule="evenodd" clip-rule="evenodd" d="M4.32972 9.66132C3 12.271 3 15.6874 3 22.52V37.48C3 44.3126 3 47.729 4.32972 50.3387C5.49938 52.6343 7.36574 54.5006 9.66132 55.6703C12.271 57 15.6874 57 22.52 57H37.48C44.3126 57 47.729 57 50.3387 55.6703C52.6343 54.5006 54.5006 52.6343 55.6703 50.3387C57 47.729 57 44.3126 57 37.48V22.52C57 15.6874 57 12.271 55.6703 9.66132C54.5006 7.36574 52.6343 5.49938 50.3387 4.32972C47.729 3 44.3126 3 37.48 3H22.52C15.6874 3 12.271 3 9.66132 4.32972C7.36574 5.49938 5.49938 7.36574 4.32972 9.66132Z" fill="#D9D9D9"/>
</mask>
<g mask="url(#mask1_2618_9006)">
<path d="M61 -15.5C72.3218 -15.5 81.5 -6.32184 81.5 5C81.5 16.3218 72.3218 25.5 61 25.5C49.6782 25.5 40.5 16.3218 40.5 5C40.5 -6.32184 49.6782 -15.5 61 -15.5ZM61 -6.5C54.6487 -6.5 49.5 -1.35127 49.5 5C49.5 11.3513 54.6487 16.5 61 16.5C67.3513 16.5 72.5 11.3513 72.5 5C72.5 -1.35127 67.3513 -6.5 61 -6.5Z" fill="#12A5EC" stroke="#9ED4EF"/>
</g>
<mask id="path-6-inside-1_2618_9006" fill="white">
<path fill-rule="evenodd" clip-rule="evenodd" d="M0 2.99999L-4 6.99999L0 11V2.99999ZM3 -1.23978e-05H11.6274L7.31371 -4.31372L3 -1.23978e-05ZM14.7731 3.14563L56.8544 45.2269C56.6956 47.3971 56.3638 48.9776 55.6703 50.3387C54.5006 52.6343 52.6343 54.5006 50.3387 55.6703C49.1018 56.3005 47.6836 56.632 45.8064 56.8064L3.19355 14.1935C3.36795 12.3163 3.69948 10.8982 4.32972 9.6613C5.49938 7.36573 7.36574 5.49936 9.66132 4.32971C11.0224 3.63619 12.6029 3.30438 14.7731 3.14563ZM49 60L52.5685 63.5685L56.1371 60H49ZM60 56.1371V48.3726L63.8822 52.2548L60 56.1371Z"/>
</mask>
<path fill-rule="evenodd" clip-rule="evenodd" d="M0 2.99999L-4 6.99999L0 11V2.99999ZM3 -1.23978e-05H11.6274L7.31371 -4.31372L3 -1.23978e-05ZM14.7731 3.14563L56.8544 45.2269C56.6956 47.3971 56.3638 48.9776 55.6703 50.3387C54.5006 52.6343 52.6343 54.5006 50.3387 55.6703C49.1018 56.3005 47.6836 56.632 45.8064 56.8064L3.19355 14.1935C3.36795 12.3163 3.69948 10.8982 4.32972 9.6613C5.49938 7.36573 7.36574 5.49936 9.66132 4.32971C11.0224 3.63619 12.6029 3.30438 14.7731 3.14563ZM49 60L52.5685 63.5685L56.1371 60H49ZM60 56.1371V48.3726L63.8822 52.2548L60 56.1371Z" fill="url(#paint2_linear_2618_9006)"/>
<path d="M-4 6.99999L-4.53033 6.46966L-5.06066 6.99999L-4.53033 7.53032L-4 6.99999ZM0 2.99999H0.75V1.18933L-0.53033 2.46966L0 2.99999ZM0 11L-0.53033 11.5303L0.75 12.8106V11H0ZM11.6274 -1.23978e-05V0.749988H13.4381L12.1577 -0.530343L11.6274 -1.23978e-05ZM3 -1.23978e-05L2.46967 -0.530343L1.18934 0.749988H3V-1.23978e-05ZM7.31371 -4.31372L7.84404 -4.84405L7.31371 -5.37438L6.78338 -4.84405L7.31371 -4.31372ZM14.7731 3.14563L15.3034 2.6153L15.0607 2.37258L14.7183 2.39762L14.7731 3.14563ZM56.8544 45.2269L57.6024 45.2817L57.6274 44.9393L57.3847 44.6966L56.8544 45.2269ZM55.6703 50.3387L56.3385 50.6792L55.6703 50.3387ZM50.3387 55.6703L49.9982 55.002L50.3387 55.6703ZM45.8064 56.8064L45.2761 57.3368L45.5252 57.5858L45.8758 57.5532L45.8064 56.8064ZM3.19355 14.1935L2.44677 14.1242L2.41419 14.4748L2.66322 14.7239L3.19355 14.1935ZM4.32972 9.6613L3.66147 9.32081L4.32972 9.6613ZM9.66132 4.32971L10.0018 4.99796L9.66132 4.32971ZM52.5685 63.5685L52.0382 64.0989L52.5685 64.6292L53.0989 64.0989L52.5685 63.5685ZM49 60V59.25H47.1893L48.4697 60.5303L49 60ZM56.1371 60L56.6674 60.5303L57.9477 59.25H56.1371V60ZM60 56.1371H59.25V57.9477L60.5303 56.6674L60 56.1371ZM60 48.3726L60.5303 47.8422L59.25 46.5619V48.3726H60ZM63.8822 52.2548L64.4126 52.7852L64.9429 52.2548L64.4126 51.7245L63.8822 52.2548ZM-3.46967 7.53032L0.53033 3.53032L-0.53033 2.46966L-4.53033 6.46966L-3.46967 7.53032ZM0.53033 10.4697L-3.46967 6.46966L-4.53033 7.53032L-0.53033 11.5303L0.53033 10.4697ZM-0.75 2.99999V11H0.75V2.99999H-0.75ZM11.6274 -0.750012H3V0.749988H11.6274V-0.750012ZM6.78338 -3.78339L11.0971 0.530318L12.1577 -0.530343L7.84404 -4.84405L6.78338 -3.78339ZM3.53033 0.530318L7.84404 -3.78339L6.78338 -4.84405L2.46967 -0.530343L3.53033 0.530318ZM14.2427 3.67596L56.324 45.7573L57.3847 44.6966L15.3034 2.6153L14.2427 3.67596ZM56.3385 50.6792C57.0975 49.1897 57.4404 47.4951 57.6024 45.2817L56.1064 45.1722C55.9508 47.2991 55.6301 48.7655 55.002 49.9982L56.3385 50.6792ZM50.6792 56.3385C53.1159 55.097 55.097 53.1159 56.3385 50.6792L55.002 49.9982C53.9043 52.1526 52.1526 53.9043 49.9982 55.002L50.6792 56.3385ZM45.8758 57.5532C47.8026 57.3742 49.3251 57.0285 50.6792 56.3385L49.9982 55.002C48.8784 55.5726 47.5646 55.8899 45.7371 56.0597L45.8758 57.5532ZM46.3368 56.2761L3.72388 13.6632L2.66322 14.7239L45.2761 57.3368L46.3368 56.2761ZM3.66147 9.32081C2.97153 10.6749 2.62577 12.1973 2.44677 14.1242L3.94034 14.2629C4.11012 12.4353 4.42742 11.1216 4.99798 10.0018L3.66147 9.32081ZM9.32082 3.66145C6.88412 4.90301 4.90303 6.88411 3.66147 9.32081L4.99798 10.0018C6.09573 7.84734 7.84735 6.09571 10.0018 4.99796L9.32082 3.66145ZM14.7183 2.39762C12.5049 2.55955 10.8103 2.90253 9.32082 3.66145L10.0018 4.99796C11.2345 4.36986 12.7009 4.04922 14.8278 3.89363L14.7183 2.39762ZM53.0989 63.0382L49.5303 59.4697L48.4697 60.5303L52.0382 64.0989L53.0989 63.0382ZM55.6068 59.4697L52.0382 63.0382L53.0989 64.0989L56.6674 60.5303L55.6068 59.4697ZM49 60.75H56.1371V59.25H49V60.75ZM60.75 56.1371V48.3726H59.25V56.1371H60.75ZM59.4697 48.9029L63.3519 52.7852L64.4126 51.7245L60.5303 47.8422L59.4697 48.9029ZM63.3519 51.7245L59.4697 55.6067L60.5303 56.6674L64.4126 52.7852L63.3519 51.7245Z" fill="#9DD3EE" mask="url(#path-6-inside-1_2618_9006)"/>
<rect x="3.375" y="3.375" width="53.25" height="53.25" rx="11.825" stroke="#9ED4EF" stroke-width="0.75"/>
<mask id="mask2_2618_9006" style="mask-type:alpha" maskUnits="userSpaceOnUse" x="-10" y="-6" width="81" height="43">
<path d="M30 37L-10 -6H70.5L30 37Z" fill="#D9D9D9"/>
</mask>
<g mask="url(#mask2_2618_9006)">
<rect width="60" height="60" fill="url(#paint3_linear_2618_9006)"/>
<path d="M61 -15.5C72.3218 -15.5 81.5 -6.32184 81.5 5C81.5 16.3218 72.3218 25.5 61 25.5C49.6782 25.5 40.5 16.3218 40.5 5C40.5 -6.32184 49.6782 -15.5 61 -15.5ZM61 -6.5C54.6487 -6.5 49.5 -1.35127 49.5 5C49.5 11.3513 54.6487 16.5 61 16.5C67.3513 16.5 72.5 11.3513 72.5 5C72.5 -1.35127 67.3513 -6.5 61 -6.5Z" fill="#D2D1D6" stroke="white"/>
<mask id="mask3_2618_9006" style="mask-type:alpha" maskUnits="userSpaceOnUse" x="3" y="3" width="54" height="54">
<path fill-rule="evenodd" clip-rule="evenodd" d="M4.32972 9.66132C3 12.271 3 15.6874 3 22.52V37.48C3 44.3126 3 47.729 4.32972 50.3387C5.49938 52.6343 7.36574 54.5006 9.66132 55.6703C12.271 57 15.6874 57 22.52 57H37.48C44.3126 57 47.729 57 50.3387 55.6703C52.6343 54.5006 54.5006 52.6343 55.6703 50.3387C57 47.729 57 44.3126 57 37.48V22.52C57 15.6874 57 12.271 55.6703 9.66132C54.5006 7.36574 52.6343 5.49938 50.3387 4.32972C47.729 3 44.3126 3 37.48 3H22.52C15.6874 3 12.271 3 9.66132 4.32972C7.36574 5.49938 5.49938 7.36574 4.32972 9.66132Z" fill="#D9D9D9"/>
</mask>
<g mask="url(#mask3_2618_9006)">
<path d="M-4 6.99999L7.31371 -4.31372L63.8822 52.2548L52.5685 63.5685L-4 6.99999Z" fill="#E2E1E5"/>
</g>
</g>
<rect x="22" width="16" height="56.25" fill="url(#paint4_linear_2618_9006)"/>
<path d="M23.75 -2.40246H36.25V56.25H38V-4H22V56.25H23.75V-2.40246Z" fill="url(#paint5_linear_2618_9006)"/>
<g filter="url(#filter0_d_2618_9006)">
<circle cx="30" cy="32.25" r="13" fill="#017AF7"/>
<circle cx="30" cy="32.25" r="11.875" stroke="white" stroke-width="2.25"/>
</g>
<path d="M25.2969 39.1123C24.7773 39.1123 24.4355 38.7227 24.4355 38.1758C24.4355 37.8887 24.5449 37.5537 24.668 37.2119L28.9336 25.6182C29.1729 24.9551 29.5283 24.6133 29.9932 24.6133C30.4648 24.6133 30.8203 24.9551 31.0596 25.6182L35.3252 37.2119C35.4482 37.5537 35.5576 37.8887 35.5576 38.1758C35.5576 38.7227 35.209 39.1123 34.6963 39.1123C34.3135 39.1123 34.0469 38.9482 33.6367 38.5449L30.0957 35.0312C30.0615 34.9902 30.0273 34.9697 29.9932 34.9697C29.9658 34.9697 29.9316 34.9902 29.8975 35.0312L26.3564 38.5449C25.9463 38.9482 25.6797 39.1123 25.2969 39.1123Z" fill="white"/>
</g>
<path d="M8.06836 77.2051C6.1582 77.2051 4.93359 76.2383 4.81641 74.8145L4.81055 74.7383H6.09961L6.10547 74.8027C6.17578 75.5703 6.99023 76.0625 8.12109 76.0625C9.19922 76.0625 9.9668 75.5234 9.9668 74.7383V74.7324C9.9668 74.082 9.50977 73.6602 8.39062 73.4199L7.46484 73.2207C5.74805 72.8574 5.00977 72.0605 5.00977 70.8125V70.8066C5.01562 69.3477 6.28125 68.3398 8.07422 68.3398C9.86719 68.3398 11.0391 69.3535 11.1328 70.666L11.1387 70.748H9.86719L9.85547 70.6719C9.74414 69.9805 9.08203 69.4766 8.05664 69.4824C7.06641 69.4824 6.33398 69.9453 6.33398 70.7422V70.748C6.33398 71.375 6.7793 71.7852 7.875 72.0195L8.79492 72.2246C10.5703 72.6055 11.2969 73.3203 11.2969 74.5742V74.5801C11.2969 76.1973 10.0371 77.2051 8.06836 77.2051ZM15 77.123C13.5645 77.123 12.8203 76.2617 12.8203 74.7559V70.6367H14.0918V74.457C14.0918 75.5117 14.4785 76.0332 15.4102 76.0332C16.4297 76.0332 16.9746 75.3945 16.9746 74.3691V70.6367H18.2402V77H16.9746V76.0391H16.875C16.5703 76.7246 15.9258 77.123 15 77.123ZM20.0742 77V70.6367H21.3457V71.5977H21.4395C21.668 70.9238 22.2598 70.5254 23.1094 70.5254C23.3145 70.5254 23.5371 70.5547 23.666 70.584V71.7559C23.4375 71.709 23.2207 71.6797 22.9805 71.6797C22.0078 71.6797 21.3457 72.2773 21.3457 73.1973V77H20.0742ZM26.7129 77L24.4102 70.6367H25.7578L27.3457 75.7109H27.4453L29.0273 70.6367H30.3633L28.0664 77H26.7129ZM34.0664 77.123C32.2031 77.123 31.0781 75.8516 31.0781 73.8359V73.8301C31.0781 71.8438 32.2266 70.5137 34.002 70.5137C35.7773 70.5137 36.8672 71.7969 36.8672 73.707V74.1523H32.3555C32.3789 75.3711 33.0469 76.0801 34.0957 76.0801C34.9102 76.0801 35.3965 75.6758 35.5488 75.3477L35.5723 75.3008L36.7969 75.2949L36.7852 75.3477C36.5742 76.1855 35.6953 77.123 34.0664 77.123ZM34.0078 71.5566C33.1406 71.5566 32.4844 72.1484 32.373 73.2441H35.6074C35.5078 72.1074 34.8691 71.5566 34.0078 71.5566ZM38.8594 79.2383C38.7012 79.2383 38.5137 79.2266 38.3496 79.209V78.207C38.4727 78.2246 38.6309 78.2305 38.7773 78.2305C39.3691 78.2305 39.7207 77.9785 39.9141 77.334L40.0078 77.0059L37.6992 70.6367H39.0703L40.6641 75.7227H40.7754L42.3633 70.6367H43.6992L41.332 77.2461C40.793 78.7695 40.1484 79.2383 38.8594 79.2383ZM47.4375 77.123C45.5684 77.123 44.4258 75.875 44.4258 73.8242V73.8125C44.4258 71.7676 45.5742 70.5137 47.4375 70.5137C49.2949 70.5137 50.4434 71.7617 50.4434 73.8125V73.8242C50.4434 75.875 49.3008 77.123 47.4375 77.123ZM47.4375 76.0625C48.5273 76.0625 49.1484 75.2305 49.1484 73.8242V73.8125C49.1484 72.4004 48.5273 71.5742 47.4375 71.5742C46.3418 71.5742 45.7266 72.4004 45.7266 73.8125V73.8242C45.7266 75.2363 46.3418 76.0625 47.4375 76.0625ZM51.9609 77V70.6367H53.2324V71.5977H53.3262C53.5547 70.9238 54.1465 70.5254 54.9961 70.5254C55.2012 70.5254 55.4238 70.5547 55.5527 70.584V71.7559C55.3242 71.709 55.1074 71.6797 54.8672 71.6797C53.8945 71.6797 53.2324 72.2773 53.2324 73.1973V77H51.9609Z" fill="black"/>
<defs>
<filter id="filter0_d_2618_9006" x="15" y="17.25" width="30" height="30" filterUnits="userSpaceOnUse" color-interpolation-filters="sRGB">
<feFlood flood-opacity="0" result="BackgroundImageFix"/>
<feColorMatrix in="SourceAlpha" type="matrix" values="0 0 0 0 0 0 0 0 0 0 0 0 0 0 0 0 0 0 127 0" result="hardAlpha"/>
<feOffset/>
<feGaussianBlur stdDeviation="1"/>
<feComposite in2="hardAlpha" operator="out"/>
<feColorMatrix type="matrix" values="0 0 0 0 0 0 0 0 0 0 0 0 0 0 0 0 0 0 0.25 0"/>
<feBlend mode="normal" in2="BackgroundImageFix" result="effect1_dropShadow_2618_9006"/>
<feBlend mode="normal" in="SourceGraphic" in2="effect1_dropShadow_2618_9006" result="shape"/>
</filter>
<linearGradient id="paint0_linear_2618_9006" x1="30" y1="0" x2="30" y2="60" gradientUnits="userSpaceOnUse">
<stop stop-color="#313131"/>
<stop offset="1" stop-color="#141514"/>
</linearGradient>
<linearGradient id="paint1_linear_2618_9006" x1="0.0515848" y1="0.051829" x2="59.9489" y2="59.9491" gradientUnits="userSpaceOnUse">
<stop offset="0.125368" stop-color="#21A8ED"/>
<stop offset="0.895112" stop-color="#2C72E5"/>
</linearGradient>
<linearGradient id="paint2_linear_2618_9006" x1="29.9411" y1="-4.31372" x2="29.9411" y2="63.5685" gradientUnits="userSpaceOnUse">
<stop offset="0.114053" stop-color="#65C3F1"/>
<stop offset="0.375939" stop-color="#50ACE2"/>
<stop offset="1" stop-color="#5B96EB"/>
</linearGradient>
<linearGradient id="paint3_linear_2618_9006" x1="30" y1="0" x2="30" y2="60" gradientUnits="userSpaceOnUse">
<stop stop-color="#5CF777"/>
<stop offset="1" stop-color="#0EBC29"/>
</linearGradient>
<linearGradient id="paint4_linear_2618_9006" x1="30" y1="0" x2="30" y2="56.25" gradientUnits="userSpaceOnUse">
<stop stop-color="#1CB4EC"/>
<stop offset="0.3362" stop-color="#0280F2"/>
<stop offset="0.500143" stop-color="#0070E0"/>
<stop offset="0.563076" stop-color="#004E6D"/>
<stop offset="0.750961" stop-color="#005676"/>
<stop offset="0.933247" stop-color="#016585"/>
</linearGradient>
<linearGradient id="paint5_linear_2618_9006" x1="30" y1="-4" x2="30" y2="56.25" gradientUnits="userSpaceOnUse">
<stop offset="0.0546153" stop-color="#004BEE"/>
<stop offset="0.900474" stop-color="#01488D"/>
</linearGradient>
<clipPath id="clip0_2618_9006">
<rect width="60" height="60" rx="13.28" fill="white"/>
</clipPath>
</defs>
</svg>
