<svg width="60" height="80" viewBox="0 0 60 80" fill="none" xmlns="http://www.w3.org/2000/svg">
<rect width="60" height="60" rx="13.28" fill="url(#paint0_linear_2269_1833)"/>
<path d="M18.9004 13.9609C22.6973 13.9609 26.1426 15.5078 27.8652 18.0039C28.2168 18.5137 28.252 18.6543 28.252 19.1289V45.4258C28.252 45.9004 27.918 46.1992 27.4961 46.1992C27.2852 46.1992 27.0215 46.1113 26.8105 45.9355C24.9297 44.3359 22.4336 43.4219 19.7617 43.4219C16.9668 43.4219 14.1719 44.3359 12.0098 46.0762C11.5 46.4629 11.0605 46.6211 10.5156 46.6211C9.46094 46.6211 8.82812 46.041 8.82812 45.0039V20.3242C8.82812 19.5508 8.86328 19.2871 9.10938 18.8301C10.8848 15.8066 14.9629 13.9609 18.9004 13.9609ZM40.0996 13.9609C44.0371 13.9609 48.1152 15.8066 49.8906 18.8301C50.1367 19.2695 50.1719 19.5508 50.1719 20.3242V45.0039C50.1719 46.041 49.5566 46.6211 48.4844 46.6211C47.9395 46.6211 47.5 46.4629 46.9902 46.0762C44.8457 44.3359 42.0332 43.4219 39.2383 43.4219C36.5664 43.4219 34.0703 44.3359 32.1895 45.9355C31.9785 46.1113 31.7148 46.1992 31.5039 46.1992C31.082 46.1992 30.748 45.9004 30.748 45.4258V19.1289C30.748 18.6543 30.7832 18.5137 31.1348 18.0039C32.8574 15.5078 36.3027 13.9609 40.0996 13.9609Z" fill="white"/>
<path d="M18.9004 13.9609C22.6973 13.9609 26.1426 15.5078 27.8652 18.0039C28.2168 18.5137 28.252 18.6543 28.252 19.1289V45.4258C28.252 45.9004 27.918 46.1992 27.4961 46.1992C27.2852 46.1992 27.0215 46.1113 26.8105 45.9355C24.9297 44.3359 22.4336 43.4219 19.7617 43.4219C16.9668 43.4219 14.1719 44.3359 12.0098 46.0762C11.5 46.4629 11.0605 46.6211 10.5156 46.6211C9.46094 46.6211 8.82812 46.041 8.82812 45.0039V20.3242C8.82812 19.5508 8.86328 19.2871 9.10938 18.8301C10.8848 15.8066 14.9629 13.9609 18.9004 13.9609ZM40.0996 13.9609C44.0371 13.9609 48.1152 15.8066 49.8906 18.8301C50.1367 19.2695 50.1719 19.5508 50.1719 20.3242V45.0039C50.1719 46.041 49.5566 46.6211 48.4844 46.6211C47.9395 46.6211 47.5 46.4629 46.9902 46.0762C44.8457 44.3359 42.0332 43.4219 39.2383 43.4219C36.5664 43.4219 34.0703 44.3359 32.1895 45.9355C31.9785 46.1113 31.7148 46.1992 31.5039 46.1992C31.082 46.1992 30.748 45.9004 30.748 45.4258V19.1289C30.748 18.6543 30.7832 18.5137 31.1348 18.0039C32.8574 15.5078 36.3027 13.9609 40.0996 13.9609Z" fill="url(#paint1_linear_2269_1833)"/>
<path d="M13.3184 77V68.5449H16.7168C18.3047 68.5449 19.2598 69.3535 19.2598 70.6484V70.6602C19.2598 71.5391 18.6094 72.3301 17.7773 72.4707V72.5703C18.9199 72.6934 19.6816 73.502 19.6816 74.6035V74.6152C19.6816 76.0977 18.5977 77 16.793 77H13.3184ZM16.4121 69.6172H14.6309V72.1426H16.1895C17.3496 72.1426 17.9531 71.709 17.9531 70.8887V70.877C17.9531 70.0801 17.3848 69.6172 16.4121 69.6172ZM16.4531 73.1445H14.6309V75.9277H16.5293C17.7129 75.9277 18.3398 75.4414 18.3398 74.5332V74.5215C18.3398 73.6133 17.6895 73.1445 16.4531 73.1445ZM23.918 77.123C22.0488 77.123 20.9062 75.875 20.9062 73.8242V73.8125C20.9062 71.7676 22.0547 70.5137 23.918 70.5137C25.7754 70.5137 26.9238 71.7617 26.9238 73.8125V73.8242C26.9238 75.875 25.7812 77.123 23.918 77.123ZM23.918 76.0625C25.0078 76.0625 25.6289 75.2305 25.6289 73.8242V73.8125C25.6289 72.4004 25.0078 71.5742 23.918 71.5742C22.8223 71.5742 22.207 72.4004 22.207 73.8125V73.8242C22.207 75.2363 22.8223 76.0625 23.918 76.0625ZM31.1367 77.123C29.2676 77.123 28.125 75.875 28.125 73.8242V73.8125C28.125 71.7676 29.2734 70.5137 31.1367 70.5137C32.9941 70.5137 34.1426 71.7617 34.1426 73.8125V73.8242C34.1426 75.875 33 77.123 31.1367 77.123ZM31.1367 76.0625C32.2266 76.0625 32.8477 75.2305 32.8477 73.8242V73.8125C32.8477 72.4004 32.2266 71.5742 31.1367 71.5742C30.041 71.5742 29.4258 72.4004 29.4258 73.8125V73.8242C29.4258 75.2363 30.041 76.0625 31.1367 76.0625ZM35.7188 77V68.1406H36.9902V73.3203H37.084L39.6094 70.6367H41.0977L38.4434 73.3203L41.2734 77H39.7266L37.5352 74.1406L36.9902 74.6855V77H35.7188ZM44.502 77.123C42.9668 77.123 41.9941 76.4023 41.8711 75.3359V75.3301H43.1426L43.1484 75.3359C43.3066 75.8164 43.7695 76.1387 44.5254 76.1387C45.3105 76.1387 45.8555 75.7812 45.8555 75.2598V75.248C45.8555 74.8496 45.5566 74.5801 44.8184 74.4102L43.8047 74.1758C42.6035 73.9004 42.0469 73.3555 42.0469 72.4238V72.418C42.0469 71.3105 43.0781 70.5137 44.5195 70.5137C45.9727 70.5137 46.9043 71.2402 47.0156 72.2773V72.2832H45.8027V72.2715C45.6797 71.8262 45.2285 71.4922 44.5137 71.4922C43.8164 71.4922 43.3125 71.8379 43.3125 72.3477V72.3594C43.3125 72.7578 43.6055 73.0039 44.3203 73.1738L45.3281 73.4023C46.5527 73.6895 47.1387 74.2109 47.1387 75.1309V75.1426C47.1387 76.3203 46.0137 77.123 44.502 77.123Z" fill="black"/>
<defs>
<linearGradient id="paint0_linear_2269_1833" x1="30" y1="0" x2="30" y2="60" gradientUnits="userSpaceOnUse">
<stop stop-color="#313131"/>
<stop offset="1" stop-color="#141514"/>
</linearGradient>
<linearGradient id="paint1_linear_2269_1833" x1="29" y1="-1.89253e-06" x2="45.9343" y2="54.7635" gradientUnits="userSpaceOnUse">
<stop stop-color="#EFBA32"/>
<stop offset="1" stop-color="#EF8732"/>
</linearGradient>
</defs>
</svg>
