<svg width="69" height="80" viewBox="0 0 69 80" fill="none" xmlns="http://www.w3.org/2000/svg">
<g clip-path="url(#clip0_2269_1877)">
<rect width="60" height="60" fill="url(#paint0_linear_2269_1877)"/>
<path fill-rule="evenodd" clip-rule="evenodd" d="M35.5502 10.2623C36.9115 12.1854 38.2269 14.8014 39.0299 17.1824C39.6225 18.9397 40.0626 20.9454 40.2307 22.6548C40.3934 24.3091 40.295 26.7503 40.0012 28.3539C39.7939 29.4847 39.2278 31.4625 39.1113 31.4625C39.0328 31.4625 36.6231 29.7105 34.0472 27.7807C27.3469 22.7609 21.7362 18.1349 18.2474 14.7538C17.7145 14.2373 17.3333 13.9021 17.4004 14.009C17.4674 14.1158 18.0474 14.9464 18.6892 15.8547C23.3566 22.4607 27.5177 27.7896 29.2223 29.3441C29.5599 29.652 29.565 29.6611 29.3195 29.5178C25.6415 27.3724 18.9881 22.3555 12.3219 16.7011C11.8781 16.3246 11.5405 16.0603 11.5717 16.1138C11.7126 16.3549 14.7255 20.1257 16.3583 22.1043C20.3726 26.969 23.5127 30.4842 26.6615 33.6382C29.2666 36.2478 30.6737 37.4831 32.2721 38.5645C32.7537 38.8902 32.8949 39.0169 32.8443 39.0779C32.741 39.2024 31.2714 39.9066 30.5824 40.1618C29.1153 40.7051 27.6503 41.0653 26.0155 41.2846C24.9609 41.4261 21.9002 41.447 20.8679 41.3198C17.6849 40.9276 14.7049 40.0394 11.6808 38.5814C10.5636 38.0429 8.83834 37.0839 7.91625 36.4892C7.61393 36.2941 7.35592 36.1453 7.34284 36.1584C7.30178 36.1994 8.03483 37.289 8.69314 38.1655C11.1769 41.4718 14.5491 44.4747 18.0184 46.4692C22.1669 48.8542 26.5517 50.0849 31.3919 50.2225C34.3563 50.3069 36.7338 49.8882 39.1464 48.8568C39.512 48.7006 40.6022 48.1799 41.5691 47.6996C43.401 46.7897 44.0382 46.5371 44.8792 46.3871C46.5324 46.0924 48.3094 46.5947 49.8686 47.7977C50.4005 48.208 51.2922 49.1277 51.6951 49.6814C51.891 49.9506 52.0718 50.1727 52.0972 50.1749C52.1644 50.1808 52.3871 49.423 52.5098 48.7702C52.6558 47.9943 52.6055 46.2543 52.413 45.4189C51.9314 43.3294 50.6509 40.7987 49.0561 38.7844L48.6744 38.3023L48.8919 37.6186C49.1682 36.7499 49.4001 35.6088 49.533 34.4645C49.6138 33.7681 49.6297 33.1905 49.6035 31.8835C49.5688 30.1418 49.5063 29.5612 49.193 28.0701C47.9775 22.2855 44.24 16.8111 38.2165 11.9926C37.4744 11.3989 35.6116 10.0311 35.3216 9.8669C35.2746 9.84028 35.3774 10.0182 35.5502 10.2623Z" fill="url(#paint1_linear_2269_1877)"/>
</g>
<path d="M2.15625 77V68.5449H5.44922C7.10742 68.5449 8.25586 69.6582 8.25586 71.3164V71.3281C8.25586 72.9805 7.10742 74.1113 5.44922 74.1113H3.46875V77H2.15625ZM5.12109 69.6523H3.46875V73.0098H5.12109C6.25781 73.0098 6.91992 72.3945 6.91992 71.334V71.3223C6.91992 70.2676 6.25781 69.6523 5.12109 69.6523ZM9.86133 77V68.1406H11.1328V77H9.86133ZM14.7715 77.1055C13.5586 77.1055 12.6621 76.3672 12.6621 75.2129V75.2012C12.6621 74.0645 13.5176 73.4023 15.0352 73.3086L16.7578 73.209V72.6465C16.7578 71.9492 16.3184 71.5625 15.457 71.5625C14.7539 71.5625 14.291 71.8203 14.1387 72.2715L14.1328 72.2949H12.9082L12.9141 72.2539C13.0664 71.2109 14.0684 70.5137 15.5156 70.5137C17.1152 70.5137 18.0176 71.3105 18.0176 72.6465V77H16.7578V76.0977H16.6582C16.2832 76.7422 15.6152 77.1055 14.7715 77.1055ZM13.9277 75.1602C13.9277 75.7461 14.4258 76.0918 15.1113 76.0918C16.0605 76.0918 16.7578 75.4707 16.7578 74.6504V74.1055L15.2051 74.2051C14.3262 74.2578 13.9277 74.5742 13.9277 75.1484V75.1602ZM20.2207 79.2383C20.0625 79.2383 19.875 79.2266 19.7109 79.209V78.207C19.834 78.2246 19.9922 78.2305 20.1387 78.2305C20.7305 78.2305 21.082 77.9785 21.2754 77.334L21.3691 77.0059L19.0605 70.6367H20.4316L22.0254 75.7227H22.1367L23.7246 70.6367H25.0605L22.6934 77.2461C22.1543 78.7695 21.5098 79.2383 20.2207 79.2383ZM28.793 79.2441C27.1758 79.2441 26.1797 78.5352 26.0273 77.4746L26.0391 77.4629H27.3223L27.3281 77.4746C27.4336 77.9141 27.9492 78.2246 28.8105 78.2246C29.8594 78.2246 30.4805 77.7324 30.4805 76.8652V75.6113H30.3867C30 76.3027 29.2969 76.6895 28.4238 76.6895C26.7891 76.6895 25.7812 75.4297 25.7812 73.6367V73.625C25.7812 71.8086 26.7949 70.5254 28.4473 70.5254C29.3379 70.5254 30.0293 70.9648 30.3984 71.6797H30.4746V70.6367H31.7402V76.8711C31.7402 78.3184 30.5977 79.2441 28.793 79.2441ZM28.7754 75.6406C29.8535 75.6406 30.5039 74.8203 30.5039 73.6309V73.6191C30.5039 72.4355 29.8477 71.6035 28.7754 71.6035C27.6914 71.6035 27.082 72.4355 27.082 73.6191V73.6309C27.082 74.8145 27.6914 75.6406 28.7754 75.6406ZM33.5684 77V70.6367H34.8398V71.5977H34.9336C35.1621 70.9238 35.7539 70.5254 36.6035 70.5254C36.8086 70.5254 37.0312 70.5547 37.1602 70.584V71.7559C36.9316 71.709 36.7148 71.6797 36.4746 71.6797C35.502 71.6797 34.8398 72.2773 34.8398 73.1973V77H33.5684ZM40.9043 77.123C39.0352 77.123 37.8926 75.875 37.8926 73.8242V73.8125C37.8926 71.7676 39.041 70.5137 40.9043 70.5137C42.7617 70.5137 43.9102 71.7617 43.9102 73.8125V73.8242C43.9102 75.875 42.7676 77.123 40.9043 77.123ZM40.9043 76.0625C41.9941 76.0625 42.6152 75.2305 42.6152 73.8242V73.8125C42.6152 72.4004 41.9941 71.5742 40.9043 71.5742C39.8086 71.5742 39.1934 72.4004 39.1934 73.8125V73.8242C39.1934 75.2363 39.8086 76.0625 40.9043 76.0625ZM47.5488 77.123C46.1133 77.123 45.3691 76.2617 45.3691 74.7559V70.6367H46.6406V74.457C46.6406 75.5117 47.0273 76.0332 47.959 76.0332C48.9785 76.0332 49.5234 75.3945 49.5234 74.3691V70.6367H50.7891V77H49.5234V76.0391H49.4238C49.1191 76.7246 48.4746 77.123 47.5488 77.123ZM52.623 77V70.6367H53.8945V71.6035H53.9883C54.2988 70.9238 54.9082 70.5137 55.834 70.5137C57.2578 70.5137 58.043 71.3633 58.043 72.8809V77H56.7773V73.1797C56.7773 72.125 56.3379 71.6035 55.4062 71.6035C54.4746 71.6035 53.8945 72.2422 53.8945 73.2676V77H52.623ZM60.7969 77.0879C60.3105 77.0879 59.9355 76.7129 59.9355 76.2383C59.9355 75.7578 60.3105 75.3828 60.7969 75.3828C61.2832 75.3828 61.6523 75.7578 61.6523 76.2383C61.6523 76.7129 61.2832 77.0879 60.7969 77.0879ZM64.0547 77.0879C63.5742 77.0879 63.1992 76.7129 63.1992 76.2383C63.1992 75.7578 63.5742 75.3828 64.0547 75.3828C64.541 75.3828 64.916 75.7578 64.916 76.2383C64.916 76.7129 64.541 77.0879 64.0547 77.0879ZM67.3125 77.0879C66.832 77.0879 66.457 76.7129 66.457 76.2383C66.457 75.7578 66.832 75.3828 67.3125 75.3828C67.8047 75.3828 68.1738 75.7578 68.1738 76.2383C68.1738 76.7129 67.8047 77.0879 67.3125 77.0879Z" fill="black"/>
<defs>
<linearGradient id="paint0_linear_2269_1877" x1="30" y1="0" x2="30" y2="60" gradientUnits="userSpaceOnUse">
<stop stop-color="#313131"/>
<stop offset="1" stop-color="#141514"/>
</linearGradient>
<linearGradient id="paint1_linear_2269_1877" x1="29.9677" y1="9.86426" x2="29.9677" y2="50.2331" gradientUnits="userSpaceOnUse">
<stop stop-color="#FAA729"/>
<stop offset="1" stop-color="#FF2C17"/>
</linearGradient>
<clipPath id="clip0_2269_1877">
<rect width="60" height="60" rx="13.28" fill="white"/>
</clipPath>
</defs>
</svg>
