<svg width="60" height="80" viewBox="0 0 60 80" fill="none" xmlns="http://www.w3.org/2000/svg">
<g clip-path="url(#clip0_2269_1835)">
<g clip-path="url(#clip1_2269_1835)">
<rect width="60" height="60" fill="url(#paint0_linear_2269_1835)"/>
<path d="M16.2609 15.6667V7.44653H18.249L20.5846 13.3539H20.6188L22.9544 7.44653H24.9425V15.6667H23.4102V10.1069H23.3589L21.1429 15.6667H20.0605L17.8389 10.1069H17.7933V15.6667H16.2609ZM30.6016 15.8092C28.1577 15.8092 26.6367 14.1742 26.6367 11.5595V11.5481C26.6367 8.93335 28.1691 7.30412 30.6016 7.30412C33.0397 7.30412 34.5664 8.93905 34.5664 11.5481V11.5595C34.5664 14.1742 33.0454 15.8092 30.6016 15.8092ZM30.6016 14.3508C31.9687 14.3508 32.8118 13.2628 32.8118 11.5595V11.5481C32.8118 9.83342 31.9517 8.76245 30.6016 8.76245C29.2572 8.76245 28.3913 9.82772 28.3913 11.5481V11.5595C28.3913 13.2799 29.2515 14.3508 30.6016 14.3508ZM36.2606 15.6667V7.44653H37.7645L41.4787 12.79H41.5129V7.44653H43.2275V15.6667H41.735L38.0094 10.2834H37.9753V15.6667H36.2606Z" fill="#FE3C3B"/>
<path d="M20.9967 49.9375C15.5644 49.9375 12.0462 46.9115 11.6998 42.7552L11.6816 42.5365H14.8352L14.8535 42.7188C15.1269 45.3073 17.4967 47.0938 20.9967 47.0938C24.442 47.0938 26.7936 45.1615 26.7936 42.3724V42.3359C26.7936 39.1094 24.4785 37.3047 20.7962 37.3047H17.4967V34.5339H20.6503C23.7858 34.5339 25.9733 32.6016 25.9733 29.9766V29.9401C25.9733 27.1875 24.1686 25.6016 20.9602 25.6016C17.8613 25.6016 15.6556 27.2422 15.3821 29.9036L15.3639 30.0859H12.2102L12.2285 29.9036C12.6477 25.6198 16.0384 22.7578 20.9602 22.7578C25.9733 22.7578 29.2727 25.5469 29.2727 29.5391V29.5755C29.2727 32.8203 26.9759 35.0443 23.6946 35.737V35.8099C27.5227 36.138 30.1295 38.526 30.1295 42.263V42.2995C30.1295 46.6927 26.2649 49.9375 20.9967 49.9375ZM40.8561 49.5V26.6771H40.7832L33.8196 31.526V28.2266L40.8196 23.1953H44.028V49.5H40.8561Z" fill="white"/>
</g>
</g>
<path d="M8.51953 77.2051C6.16992 77.2051 4.70508 75.5059 4.70508 72.7812V72.7695C4.70508 70.0391 6.16406 68.3398 8.51367 68.3398C10.377 68.3398 11.8066 69.5176 12.0293 71.1992L12.0234 71.2285H10.7227V71.2109C10.4766 70.1738 9.62695 69.5 8.51367 69.5C6.99609 69.5 6.04688 70.7598 6.04688 72.7695V72.7812C6.04688 74.7852 6.99609 76.0449 8.51953 76.0449C9.63867 76.0449 10.4766 75.4473 10.7168 74.4922L10.7285 74.4688H12.0293V74.5039C11.7832 76.127 10.4062 77.2051 8.51953 77.2051ZM15.3574 77.1055C14.1445 77.1055 13.248 76.3672 13.248 75.2129V75.2012C13.248 74.0645 14.1035 73.4023 15.6211 73.3086L17.3438 73.209V72.6465C17.3438 71.9492 16.9043 71.5625 16.043 71.5625C15.3398 71.5625 14.877 71.8203 14.7246 72.2715L14.7188 72.2949H13.4941L13.5 72.2539C13.6523 71.2109 14.6543 70.5137 16.1016 70.5137C17.7012 70.5137 18.6035 71.3105 18.6035 72.6465V77H17.3438V76.0977H17.2441C16.8691 76.7422 16.2012 77.1055 15.3574 77.1055ZM14.5137 75.1602C14.5137 75.7461 15.0117 76.0918 15.6973 76.0918C16.6465 76.0918 17.3438 75.4707 17.3438 74.6504V74.1055L15.791 74.2051C14.9121 74.2578 14.5137 74.5742 14.5137 75.1484V75.1602ZM20.4551 77V68.1406H21.7266V77H20.4551ZM26.291 77.123C24.4277 77.123 23.3027 75.8516 23.3027 73.8359V73.8301C23.3027 71.8438 24.4512 70.5137 26.2266 70.5137C28.002 70.5137 29.0918 71.7969 29.0918 73.707V74.1523H24.5801C24.6035 75.3711 25.2715 76.0801 26.3203 76.0801C27.1348 76.0801 27.6211 75.6758 27.7734 75.3477L27.7969 75.3008L29.0215 75.2949L29.0098 75.3477C28.7988 76.1855 27.9199 77.123 26.291 77.123ZM26.2324 71.5566C25.3652 71.5566 24.709 72.1484 24.5977 73.2441H27.832C27.7324 72.1074 27.0938 71.5566 26.2324 71.5566ZM30.6035 77V70.6367H31.875V71.6035H31.9688C32.2793 70.9238 32.8887 70.5137 33.8145 70.5137C35.2383 70.5137 36.0234 71.3633 36.0234 72.8809V77H34.7578V73.1797C34.7578 72.125 34.3184 71.6035 33.3867 71.6035C32.4551 71.6035 31.875 72.2422 31.875 73.2676V77H30.6035ZM40.1191 77.1055C38.5195 77.1055 37.4824 75.8223 37.4824 73.8242V73.8125C37.4824 71.7969 38.502 70.5254 40.1191 70.5254C40.9922 70.5254 41.7363 70.959 42.0762 71.6445H42.1758V68.1406H43.4414V77H42.1758V75.998H42.0762C41.707 76.6953 41.0098 77.1055 40.1191 77.1055ZM40.4824 76.0215C41.543 76.0215 42.1934 75.1836 42.1934 73.8242V73.8125C42.1934 72.4531 41.5371 71.6152 40.4824 71.6152C39.416 71.6152 38.7773 72.4473 38.7773 73.8125V73.8242C38.7773 75.1895 39.416 76.0215 40.4824 76.0215ZM47.0801 77.1055C45.8672 77.1055 44.9707 76.3672 44.9707 75.2129V75.2012C44.9707 74.0645 45.8262 73.4023 47.3438 73.3086L49.0664 73.209V72.6465C49.0664 71.9492 48.627 71.5625 47.7656 71.5625C47.0625 71.5625 46.5996 71.8203 46.4473 72.2715L46.4414 72.2949H45.2168L45.2227 72.2539C45.375 71.2109 46.377 70.5137 47.8242 70.5137C49.4238 70.5137 50.3262 71.3105 50.3262 72.6465V77H49.0664V76.0977H48.9668C48.5918 76.7422 47.9238 77.1055 47.0801 77.1055ZM46.2363 75.1602C46.2363 75.7461 46.7344 76.0918 47.4199 76.0918C48.3691 76.0918 49.0664 75.4707 49.0664 74.6504V74.1055L47.5137 74.2051C46.6348 74.2578 46.2363 74.5742 46.2363 75.1484V75.1602ZM52.1191 77V70.6367H53.3906V71.5977H53.4844C53.7129 70.9238 54.3047 70.5254 55.1543 70.5254C55.3594 70.5254 55.582 70.5547 55.7109 70.584V71.7559C55.4824 71.709 55.2656 71.6797 55.0254 71.6797C54.0527 71.6797 53.3906 72.2773 53.3906 73.1973V77H52.1191Z" fill="black"/>
<defs>
<linearGradient id="paint0_linear_2269_1835" x1="30" y1="0" x2="30" y2="60" gradientUnits="userSpaceOnUse">
<stop stop-color="#313131"/>
<stop offset="1" stop-color="#141514"/>
</linearGradient>
<clipPath id="clip0_2269_1835">
<rect width="60" height="60" rx="13.28" fill="white"/>
</clipPath>
<clipPath id="clip1_2269_1835">
<rect width="60" height="60" fill="white"/>
</clipPath>
</defs>
</svg>
