<svg width="60" height="80" viewBox="0 0 60 80" fill="none" xmlns="http://www.w3.org/2000/svg">
<rect width="60" height="60" rx="13.28" fill="url(#paint0_linear_2269_1889)"/>
<rect x="7" y="14" width="46" height="33" rx="7" fill="url(#paint1_linear_2269_1889)" stroke="white" stroke-width="2"/>
<path d="M51.4004 21.75H53.25V39.25H51.4004C50.268 39.25 49.4633 39.2497 48.834 39.1982C48.2908 39.1539 47.9286 39.0743 47.6426 38.9512L47.5244 38.8955C46.9894 38.6228 46.5417 38.2083 46.2295 37.6992L46.1045 37.4756C45.9494 37.1711 45.8525 36.7866 45.8018 36.166C45.7503 35.5367 45.75 34.732 45.75 33.5996V27.4004C45.75 26.268 45.7503 25.4633 45.8018 24.834C45.8461 24.2908 45.9257 23.9286 46.0488 23.6426L46.1045 23.5244C46.3772 22.9894 46.7917 22.5417 47.3008 22.2295L47.5244 22.1045C47.8289 21.9494 48.2134 21.8525 48.834 21.8018C49.4633 21.7503 50.268 21.75 51.4004 21.75Z" stroke="white" stroke-width="1.5"/>
<path d="M8.59961 21.75H6.75V39.25H8.59961C9.73202 39.25 10.5367 39.2497 11.166 39.1982C11.7092 39.1539 12.0714 39.0743 12.3574 38.9512L12.4756 38.8955C13.0106 38.6228 13.4583 38.2083 13.7705 37.6992L13.8955 37.4756C14.0506 37.1711 14.1475 36.7866 14.1982 36.166C14.2497 35.5367 14.25 34.732 14.25 33.5996V27.4004C14.25 26.268 14.2497 25.4633 14.1982 24.834C14.1539 24.2908 14.0743 23.9286 13.9512 23.6426L13.8955 23.5244C13.6228 22.9894 13.2083 22.5417 12.6992 22.2295L12.4756 22.1045C12.1711 21.9494 11.7866 21.8525 11.166 21.8018C10.5367 21.7503 9.73202 21.75 8.59961 21.75Z" stroke="white" stroke-width="1.5"/>
<rect x="29" y="14" width="2" height="33" fill="white"/>
<circle cx="30" cy="30" r="2" fill="white"/>
<circle cx="30" cy="30" r="9.25" stroke="white" stroke-width="1.5"/>
<path d="M14.7188 77.2051C12.8086 77.2051 11.584 76.2383 11.4668 74.8145L11.4609 74.7383H12.75L12.7559 74.8027C12.8262 75.5703 13.6406 76.0625 14.7715 76.0625C15.8496 76.0625 16.6172 75.5234 16.6172 74.7383V74.7324C16.6172 74.082 16.1602 73.6602 15.041 73.4199L14.1152 73.2207C12.3984 72.8574 11.6602 72.0605 11.6602 70.8125V70.8066C11.666 69.3477 12.9316 68.3398 14.7246 68.3398C16.5176 68.3398 17.6895 69.3535 17.7832 70.666L17.7891 70.748H16.5176L16.5059 70.6719C16.3945 69.9805 15.7324 69.4766 14.707 69.4824C13.7168 69.4824 12.9844 69.9453 12.9844 70.7422V70.748C12.9844 71.375 13.4297 71.7852 14.5254 72.0195L15.4453 72.2246C17.2207 72.6055 17.9473 73.3203 17.9473 74.5742V74.5801C17.9473 76.1973 16.6875 77.2051 14.7188 77.2051ZM19.5293 79.1211V70.6367H20.8008V71.6387H20.8945C21.2637 70.9414 21.9609 70.5254 22.8516 70.5254C24.457 70.5254 25.4883 71.8086 25.4883 73.8125V73.8242C25.4883 75.8398 24.4688 77.1055 22.8516 77.1055C21.9785 77.1055 21.2344 76.6777 20.8945 75.9922H20.8008V79.1211H19.5293ZM22.4941 76.0215C23.5547 76.0215 24.1934 75.1895 24.1934 73.8242V73.8125C24.1934 72.4414 23.5547 71.6152 22.4941 71.6152C21.4336 71.6152 20.7773 72.4531 20.7773 73.8125V73.8242C20.7773 75.1836 21.4336 76.0215 22.4941 76.0215ZM29.7129 77.123C27.8438 77.123 26.7012 75.875 26.7012 73.8242V73.8125C26.7012 71.7676 27.8496 70.5137 29.7129 70.5137C31.5703 70.5137 32.7188 71.7617 32.7188 73.8125V73.8242C32.7188 75.875 31.5762 77.123 29.7129 77.123ZM29.7129 76.0625C30.8027 76.0625 31.4238 75.2305 31.4238 73.8242V73.8125C31.4238 72.4004 30.8027 71.5742 29.7129 71.5742C28.6172 71.5742 28.002 72.4004 28.002 73.8125V73.8242C28.002 75.2363 28.6172 76.0625 29.7129 76.0625ZM34.2363 77V70.6367H35.5078V71.5977H35.6016C35.8301 70.9238 36.4219 70.5254 37.2715 70.5254C37.4766 70.5254 37.6992 70.5547 37.8281 70.584V71.7559C37.5996 71.709 37.3828 71.6797 37.1426 71.6797C36.1699 71.6797 35.5078 72.2773 35.5078 73.1973V77H34.2363ZM41.5723 77.041C40.1719 77.041 39.5977 76.5488 39.5977 75.3242V71.6387H38.6016V70.6367H39.5977V69.0312H40.8926V70.6367H42.2578V71.6387H40.8926V75.0195C40.8926 75.7051 41.1504 75.9863 41.7773 75.9863C41.9707 75.9863 42.082 75.9805 42.2578 75.9629V76.9766C42.0527 77.0117 41.8184 77.041 41.5723 77.041ZM45.9609 77.123C44.4258 77.123 43.4531 76.4023 43.3301 75.3359V75.3301H44.6016L44.6074 75.3359C44.7656 75.8164 45.2285 76.1387 45.9844 76.1387C46.7695 76.1387 47.3145 75.7812 47.3145 75.2598V75.248C47.3145 74.8496 47.0156 74.5801 46.2773 74.4102L45.2637 74.1758C44.0625 73.9004 43.5059 73.3555 43.5059 72.4238V72.418C43.5059 71.3105 44.5371 70.5137 45.9785 70.5137C47.4316 70.5137 48.3633 71.2402 48.4746 72.2773V72.2832H47.2617V72.2715C47.1387 71.8262 46.6875 71.4922 45.9727 71.4922C45.2754 71.4922 44.7715 71.8379 44.7715 72.3477V72.3594C44.7715 72.7578 45.0645 73.0039 45.7793 73.1738L46.7871 73.4023C48.0117 73.6895 48.5977 74.2109 48.5977 75.1309V75.1426C48.5977 76.3203 47.4727 77.123 45.9609 77.123Z" fill="black"/>
<defs>
<linearGradient id="paint0_linear_2269_1889" x1="30" y1="0" x2="30" y2="60" gradientUnits="userSpaceOnUse">
<stop stop-color="#313131"/>
<stop offset="1" stop-color="#141514"/>
</linearGradient>
<linearGradient id="paint1_linear_2269_1889" x1="30" y1="3.32083e-07" x2="55.1275" y2="46.3893" gradientUnits="userSpaceOnUse">
<stop stop-color="#41932B"/>
<stop offset="1" stop-color="#265B1D"/>
</linearGradient>
</defs>
</svg>
