<svg width="20" height="13" viewBox="0 0 20 13" fill="none" xmlns="http://www.w3.org/2000/svg">
<path fill-rule="evenodd" clip-rule="evenodd" d="M19.3651 1.18102C19.3651 0.547973 18.8876 0.03479 18.2985 0.03479H17.2318C16.6427 0.03479 16.1651 0.547973 16.1651 1.18102V11.115C16.1651 11.748 16.6427 12.2612 17.2318 12.2612H18.2985C18.8876 12.2612 19.3651 11.748 19.3651 11.115V1.18102ZM11.931 2.48007H12.9977C13.5868 2.48007 14.0644 3.00557 14.0644 3.65381V11.0875C14.0644 11.7357 13.5868 12.2612 12.9977 12.2612H11.931C11.3419 12.2612 10.8644 11.7357 10.8644 11.0875V3.65381C10.8644 3.00557 11.3419 2.48007 11.931 2.48007ZM7.59926 5.12912H6.53259C5.94349 5.12912 5.46593 5.66131 5.46593 6.3178V11.0725C5.46593 11.729 5.94349 12.2612 6.53259 12.2612H7.59926C8.18836 12.2612 8.66593 11.729 8.66593 11.0725V6.3178C8.66593 5.66131 8.18836 5.12912 7.59926 5.12912ZM2.29848 7.57441H1.23181C0.642709 7.57441 0.165146 8.099 0.165146 8.74611V11.0895C0.165146 11.7366 0.642709 12.2612 1.23181 12.2612H2.29848C2.88758 12.2612 3.36515 11.7366 3.36515 11.0895V8.74611C3.36515 8.099 2.88758 7.57441 2.29848 7.57441Z" fill="white"/>
</svg>
